  0
SECTION
  2
HEADER
  9
$ACADVER
  1
AC1015
  9
$ACADMAINTVER
 70
     6
  9
$DWGCODEPAGE
  3
ANSI_1252
  9
$INSBASE
 10
0.0
 20
0.0
 30
0.0
  9
$EXTMIN
 10
-100.0
 20
-100.0
 30
-100.0000014901161
  9
$EXTMAX
 10
100.0
 20
100.0
 30
34.20201433256692
  9
$LIMMIN
 10
0.0
 20
0.0
  9
$LIMMAX
 10
12.0
 20
9.0
  9
$ORTHOMODE
 70
     0
  9
$REGENMODE
 70
     1
  9
$FILLMODE
 70
     1
  9
$QTEXTMODE
 70
     0
  9
$MIRRTEXT
 70
     1
  9
$LTSCALE
 40
1.0
  9
$ATTMODE
 70
     1
  9
$TEXTSIZE
 40
0.0
  9
$TRACEWID
 40
0.05
  9
$TEXTSTYLE
  7
Standard
  9
$CLAYER
  8
0
  9
$CELTYPE
  6
ByLayer
  9
$CECOLOR
 62
   256
  9
$CELTSCALE
 40
1.0
  9
$DISPSILH
 70
     0
  9
$DIMSCALE
 40
1.0
  9
$DIMASZ
 40
0.18
  9
$DIMEXO
 40
0.0625
  9
$DIMDLI
 40
0.38
  9
$DIMRND
 40
0.0
  9
$DIMDLE
 40
0.0
  9
$DIMEXE
 40
0.18
  9
$DIMTP
 40
0.0
  9
$DIMTM
 40
0.0
  9
$DIMTXT
 40
0.18
  9
$DIMCEN
 40
0.09
  9
$DIMTSZ
 40
0.0
  9
$DIMTOL
 70
     0
  9
$DIMLIM
 70
     0
  9
$DIMTIH
 70
     0
  9
$DIMTOH
 70
     0
  9
$DIMSE1
 70
     0
  9
$DIMSE2
 70
     0
  9
$DIMTAD
 70
     1
  9
$DIMZIN
 70
     0
  9
$DIMBLK
  1

  9
$DIMASO
 70
     1
  9
$DIMSHO
 70
     1
  9
$DIMPOST
  1
<>
  9
$DIMAPOST
  1

  9
$DIMALT
 70
     0
  9
$DIMALTD
 70
     2
  9
$DIMALTF
 40
25.4
  9
$DIMLFAC
 40
1.0
  9
$DIMTOFL
 70
     0
  9
$DIMTVP
 40
0.0
  9
$DIMTIX
 70
     0
  9
$DIMSOXD
 70
     0
  9
$DIMSAH
 70
     0
  9
$DIMBLK1
  1

  9
$DIMBLK2
  1

  9
$DIMSTYLE
  2
Standard
  9
$DIMCLRD
 70
     0
  9
$DIMCLRE
 70
     0
  9
$DIMCLRT
 70
     0
  9
$DIMTFAC
 40
1.0
  9
$DIMGAP
 40
0.09
  9
$DIMJUST
 70
     0
  9
$DIMSD1
 70
     0
  9
$DIMSD2
 70
     0
  9
$DIMTOLJ
 70
     1
  9
$DIMTZIN
 70
     0
  9
$DIMALTZ
 70
     0
  9
$DIMALTTZ
 70
     0
  9
$DIMUPT
 70
     0
  9
$DIMDEC
 70
     2
  9
$DIMTDEC
 70
     4
  9
$DIMALTU
 70
     2
  9
$DIMALTTD
 70
     2
  9
$DIMTXSTY
  7
Standard
  9
$DIMAUNIT
 70
     0
  9
$DIMADEC
 70
     0
  9
$DIMALTRND
 40
0.0
  9
$DIMAZIN
 70
     0
  9
$DIMDSEP
 70
    46
  9
$DIMATFIT
 70
     3
  9
$DIMFRAC
 70
     0
  9
$DIMLDRBLK
  1

  9
$DIMLUNIT
 70
     2
  9
$DIMLWD
 70
    -2
  9
$DIMLWE
 70
    -2
  9
$DIMTMOVE
 70
     0
  9
$LUNITS
 70
     2
  9
$LUPREC
 70
     4
  9
$SKETCHINC
 40
0.1
  9
$FILLETRAD
 40
0.5
  9
$AUNITS
 70
     0
  9
$AUPREC
 70
     0
  9
$MENU
  1
.
  9
$ELEVATION
 40
0.0
  9
$PELEVATION
 40
0.0
  9
$THICKNESS
 40
0.0
  9
$LIMCHECK
 70
     0
  9
$CHAMFERA
 40
0.0
  9
$CHAMFERB
 40
0.0
  9
$CHAMFERC
 40
0.0
  9
$CHAMFERD
 40
0.0
  9
$SKPOLY
 70
     0
  9
$TDCREATE
 40
2458677.477014849
  9
$TDUCREATE
 40
2458677.435348183
  9
$TDUPDATE
 40
2458677.51879485
  9
$TDUUPDATE
 40
2458677.477128183
  9
$TDINDWG
 40
0.0000000694
  9
$TDUSRTIMER
 40
0.0000787616
  9
$USRTIMER
 70
     1
  9
$ANGBASE
 50
0.0
  9
$ANGDIR
 70
     0
  9
$PDMODE
 70
     0
  9
$PDSIZE
 40
0.0
  9
$PLINEWID
 40
0.0
  9
$SPLFRAME
 70
     0
  9
$SPLINETYPE
 70
     6
  9
$SPLINESEGS
 70
     8
  9
$HANDSEED
  5
EA
  9
$SURFTAB1
 70
     6
  9
$SURFTAB2
 70
     6
  9
$SURFTYPE
 70
     6
  9
$SURFU
 70
     6
  9
$SURFV
 70
     6
  9
$UCSBASE
  2

  9
$UCSNAME
  2

  9
$UCSORG
 10
0.0
 20
0.0
 30
0.0
  9
$UCSXDIR
 10
1.0
 20
0.0
 30
0.0
  9
$UCSYDIR
 10
0.0
 20
1.0
 30
0.0
  9
$UCSORTHOREF
  2

  9
$UCSORTHOVIEW
 70
     0
  9
$UCSORGTOP
 10
0.0
 20
0.0
 30
0.0
  9
$UCSORGBOTTOM
 10
0.0
 20
0.0
 30
0.0
  9
$UCSORGLEFT
 10
0.0
 20
0.0
 30
0.0
  9
$UCSORGRIGHT
 10
0.0
 20
0.0
 30
0.0
  9
$UCSORGFRONT
 10
0.0
 20
0.0
 30
0.0
  9
$UCSORGBACK
 10
0.0
 20
0.0
 30
0.0
  9
$PUCSBASE
  2

  9
$PUCSNAME
  2

  9
$PUCSORG
 10
0.0
 20
0.0
 30
0.0
  9
$PUCSXDIR
 10
1.0
 20
0.0
 30
0.0
  9
$PUCSYDIR
 10
0.0
 20
1.0
 30
0.0
  9
$PUCSORTHOREF
  2

  9
$PUCSORTHOVIEW
 70
     0
  9
$PUCSORGTOP
 10
0.0
 20
0.0
 30
0.0
  9
$PUCSORGBOTTOM
 10
0.0
 20
0.0
 30
0.0
  9
$PUCSORGLEFT
 10
0.0
 20
0.0
 30
0.0
  9
$PUCSORGRIGHT
 10
0.0
 20
0.0
 30
0.0
  9
$PUCSORGFRONT
 10
0.0
 20
0.0
 30
0.0
  9
$PUCSORGBACK
 10
0.0
 20
0.0
 30
0.0
  9
$USERI1
 70
     0
  9
$USERI2
 70
     0
  9
$USERI3
 70
     0
  9
$USERI4
 70
     0
  9
$USERI5
 70
     0
  9
$USERR1
 40
0.0
  9
$USERR2
 40
0.0
  9
$USERR3
 40
0.0
  9
$USERR4
 40
0.0
  9
$USERR5
 40
0.0
  9
$WORLDVIEW
 70
     1
  9
$SHADEDGE
 70
     3
  9
$SHADEDIF
 70
    70
  9
$TILEMODE
 70
     1
  9
$MAXACTVP
 70
    64
  9
$PINSBASE
 10
0.0
 20
0.0
 30
0.0
  9
$PLIMCHECK
 70
     0
  9
$PEXTMIN
 10
1.000000000000000E+20
 20
1.000000000000000E+20
 30
1.000000000000000E+20
  9
$PEXTMAX
 10
-1.000000000000000E+20
 20
-1.000000000000000E+20
 30
-1.000000000000000E+20
  9
$PLIMMIN
 10
-20.0
 20
-7.5
  9
$PLIMMAX
 10
277.0
 20
202.5
  9
$UNITMODE
 70
     0
  9
$VISRETAIN
 70
     1
  9
$PLINEGEN
 70
     0
  9
$PSLTSCALE
 70
     1
  9
$TREEDEPTH
 70
  3020
  9
$CMLSTYLE
  2
Standard
  9
$CMLJUST
 70
     0
  9
$CMLSCALE
 40
20.0
  9
$PROXYGRAPHICS
 70
     1
  9
$MEASUREMENT
 70
     0
  9
$CELWEIGHT
370
    -1
  9
$ENDCAPS
280
     0
  9
$JOINSTYLE
280
     0
  9
$LWDISPLAY
290
     0
  9
$INSUNITS
 70
     0
  9
$HYPERLINKBASE
  1

  9
$STYLESHEET
  1

  9
$XEDIT
290
     1
  9
$CEPSNTYPE
380
     0
  9
$PSTYLEMODE
290
     1
  9
$FINGERPRINTGUID
  2
{afdec54c-4b9b-49ea-a0d0-5ad6194431d6}
  9
$VERSIONGUID
  2
{FAEB1C32-E019-11D5-929B-00C0DF256EC4}
  9
$EXTNAMES
290
     1
  9
$PSVPSCALE
 40
0.0
  9
$OLESTARTUP
290
     0
  0
ENDSEC
  0
SECTION
  2
CLASSES
  0
CLASS
  1
RASTERVARIABLES
  2
AcDbRasterVariables
  3
ISM
 90
        0
280
     0
281
     0
  0
CLASS
  1
ACDBDICTIONARYWDFLT
  2
AcDbDictionaryWithDefault
  3
ObjectDBX Classes
 90
        0
280
     0
281
     0
  0
CLASS
  1
SCALE
  2
AcDbScale
  3
ObjectDBX Classes
 90
     1153
280
     0
281
     0
  0
CLASS
  1
VISUALSTYLE
  2
AcDbVisualStyle
  3
ObjectDBX Classes
 90
     4095
280
     0
281
     0
  0
CLASS
  1
MATERIAL
  2
AcDbMaterial
  3
ObjectDBX Classes
 90
     1153
280
     0
281
     0
  0
CLASS
  1
TABLESTYLE
  2
AcDbTableStyle
  3
ObjectDBX Classes
 90
     4095
280
     0
281
     0
  0
CLASS
  1
MLEADERSTYLE
  2
AcDbMLeaderStyle
  3
ACDB_MLEADERSTYLE_CLASS
 90
     4095
280
     0
281
     0
  0
CLASS
  1
ACDBPLACEHOLDER
  2
AcDbPlaceHolder
  3
ObjectDBX Classes
 90
        0
280
     0
281
     0
  0
CLASS
  1
LAYOUT
  2
AcDbLayout
  3
ObjectDBX Classes
 90
        0
280
     0
281
     0
  0
ENDSEC
  0
SECTION
  2
TABLES
  0
TABLE
  2
VPORT
  5
1
330
0
100
AcDbSymbolTable
 70
     1
  0
VPORT
  5
2
330
1
100
AcDbSymbolTableRecord
100
AcDbViewportTableRecord
  2
*Active
 70
     0
 10
0.0
 20
0.0
 11
1.0
 21
1.0
 12
39.75833414708473
 22
10.62295281666177
 13
0.0
 23
0.0
 14
0.5
 24
0.5
 15
10.0
 25
10.0
 16
0.06313424360168085
 26
-0.8505213011109589
 36
0.5221375141103763
 17
2.077053074852882
 27
-27.98129482386102
 37
-15.72119485482051
 40
284.2170943040402
 41
1.997304582210243
 42
50.0
 43
0.0
 44
0.0
 50
0.0
 51
359.9999999999994
 71
    16
 72
   100
 73
     1
 74
     3
 75
     0
 76
     0
 77
     0
 78
     0
281
     0
 65
     1
110
0.0
120
0.0
130
0.0
111
1.0
121
0.0
131
0.0
112
0.0
122
1.0
132
0.0
 79
     0
146
0.0
  0
ENDTAB
  0
TABLE
  2
LTYPE
  5
6
330
0
100
AcDbSymbolTable
 70
     1
  0
LTYPE
  5
16
330
6
100
AcDbSymbolTableRecord
100
AcDbLinetypeTableRecord
  2
ByBlock
 70
     0
  3

 72
    65
 73
     0
 40
0.0
  0
LTYPE
  5
15
330
6
100
AcDbSymbolTableRecord
100
AcDbLinetypeTableRecord
  2
ByLayer
 70
     0
  3

 72
    65
 73
     0
 40
0.0
  0
LTYPE
  5
14
330
6
100
AcDbSymbolTableRecord
100
AcDbLinetypeTableRecord
  2
Continuous
 70
     0
  3
Solid line
 72
    65
 73
     0
 40
0.0
  0
ENDTAB
  0
TABLE
  2
LAYER
  5
5
330
0
100
AcDbSymbolTable
 70
     1
  0
LAYER
  5
13
330
5
100
AcDbSymbolTableRecord
100
AcDbLayerTableRecord
  2
0
 70
     0
 62
     7
  6
Continuous
370
    -3
390
A4
  0
ENDTAB
  0
TABLE
  2
STYLE
  5
7
330
0
100
AcDbSymbolTable
 70
     1
  0
STYLE
  5
17
330
7
100
AcDbSymbolTableRecord
100
AcDbTextStyleTableRecord
  2
Standard
 70
     0
 40
0.0
 41
1.0
 50
0.0
 71
     0
 42
0.0
  3
simplex.shx
  4

  0
ENDTAB
  0
TABLE
  2
VIEW
  5
3
330
0
100
AcDbSymbolTable
 70
     0
  0
ENDTAB
  0
TABLE
  2
UCS
  5
B
330
0
100
AcDbSymbolTable
 70
     0
  0
ENDTAB
  0
TABLE
  2
APPID
  5
4
330
0
100
AcDbSymbolTable
 70
     4
  0
APPID
  5
18
330
4
100
AcDbSymbolTableRecord
100
AcDbRegAppTableRecord
  2
ACAD
 70
     0
  0
APPID
  5
97
330
4
100
AcDbSymbolTableRecord
100
AcDbRegAppTableRecord
  2
AcCmTransparency
 70
     0
  0
APPID
  5
98
330
4
100
AcDbSymbolTableRecord
100
AcDbRegAppTableRecord
  2
GradientColor1ACI
 70
     0
  0
APPID
  5
99
330
4
100
AcDbSymbolTableRecord
100
AcDbRegAppTableRecord
  2
GradientColor2ACI
 70
     0
  0
ENDTAB
  0
TABLE
  2
DIMSTYLE
  5
9
330
0
100
AcDbSymbolTable
 70
     1
100
AcDbDimStyleTable
  0
DIMSTYLE
105
19
330
9
100
AcDbSymbolTableRecord
100
AcDbDimStyleTableRecord
  2
Standard
 70
     0
  3
<>
 73
     0
 74
     0
 77
     1
178
     0
271
     2
340
17
  0
ENDTAB
  0
TABLE
  2
BLOCK_RECORD
  5
C
330
0
100
AcDbSymbolTable
 70
     0
  0
BLOCK_RECORD
  5
1B
330
C
100
AcDbSymbolTableRecord
100
AcDbBlockTableRecord
  2
*Model_Space
340
1F
  0
BLOCK_RECORD
  5
91
330
C
100
AcDbSymbolTableRecord
100
AcDbBlockTableRecord
  2
*Paper_Space
340
96
  0
ENDTAB
  0
ENDSEC
  0
SECTION
  2
BLOCKS
  0
BLOCK
  5
1D
330
1B
100
AcDbEntity
  8
0
100
AcDbBlockBegin
  2
*Model_Space
 70
     0
 10
0.0
 20
0.0
 30
0.0
  3
*Model_Space
  1

  0
ENDBLK
  5
1C
330
1B
100
AcDbEntity
  8
0
100
AcDbBlockEnd
  0
BLOCK
  5
93
330
91
100
AcDbEntity
 67
     1
  8
0
100
AcDbBlockBegin
  2
*Paper_Space
 70
     0
 10
0.0
 20
0.0
 30
0.0
  3
*Paper_Space
  1

  0
ENDBLK
  5
92
330
91
100
AcDbEntity
 67
     1
  8
0
100
AcDbBlockEnd
  0
ENDSEC
  0
SECTION
  2
ENTITIES
  0
LINE
  5
21
330
1B
100
AcDbEntity
  8
0
 62
     4
100
AcDbLine
 10
0.0
 20
0.0
 30
0.0
 11
100.0
 21
0.0
 31
0.0
  0
ARC
  5
22
330
1B
100
AcDbEntity
  8
0
 62
     2
100
AcDbCircle
 10
0.0
 20
0.0
 30
0.0
 40
100.0
210
0.0
220
-1.0
230
0.0
100
AcDbArc
 50
0.0
 51
20.00000000000001
  0
ARC
  5
23
330
1B
100
AcDbEntity
  8
0
 62
     3
100
AcDbCircle
 10
100.0
 20
-100.0
 30
0.0
 40
100.0
210
0.0
220
-1.0
230
0.0
100
AcDbArc
 50
90.0
 51
180.0
  0
CIRCLE
  5
24
330
1B
100
AcDbEntity
  8
0
 62
     2
100
AcDbCircle
 10
0.0
 20
0.0
 30
34.20201433256688
 40
93.96926207859086
  0
LINE
  5
25
330
1B
100
AcDbEntity
  8
0
 62
     4
100
AcDbLine
 10
0.0
 20
0.0
 30
0.0
 11
98.48077530122082
 21
17.36481776669304
 31
0.0
  0
ARC
  5
26
330
1B
100
AcDbEntity
  8
0
 62
     2
100
AcDbCircle
 10
0.0
 20
0.0
 30
0.0
 40
100.0
210
0.1736481776669303
220
-0.984807753012208
230
0.0
100
AcDbArc
 50
0.0
 51
19.99999999999999
  0
ARC
  5
27
330
1B
100
AcDbEntity
  8
0
 62
     3
100
AcDbCircle
 10
100.0
 20
-100.0
 30
0.0
 40
100.0
210
0.1736481776669303
220
-0.984807753012208
230
0.0
100
AcDbArc
 50
90.0
 51
180.0
  0
LINE
  5
28
330
1B
100
AcDbEntity
  8
0
 62
     4
100
AcDbLine
 10
0.0
 20
0.0
 30
0.0
 11
93.96926207859086
 21
34.20201433256688
 31
0.0
  0
ARC
  5
29
330
1B
100
AcDbEntity
  8
0
 62
     2
100
AcDbCircle
 10
0.0
 20
0.0
 30
0.0
 40
100.0
210
0.3420201433256687
220
-0.9396926207859083
230
0.0
100
AcDbArc
 50
0.0
 51
20.00000000000001
  0
ARC
  5
2A
330
1B
100
AcDbEntity
  8
0
 62
     3
100
AcDbCircle
 10
100.0
 20
-99.99999999999997
 30
0.0
 40
100.0
210
0.3420201433256687
220
-0.9396926207859083
230
0.0
100
AcDbArc
 50
90.0
 51
180.0
  0
LINE
  5
2B
330
1B
100
AcDbEntity
  8
0
 62
     4
100
AcDbLine
 10
0.0
 20
0.0
 30
0.0
 11
86.60254037844388
 21
50.0
 31
0.0
  0
ARC
  5
2C
330
1B
100
AcDbEntity
  8
0
 62
     2
100
AcDbCircle
 10
0.0
 20
0.0
 30
0.0
 40
100.0
210
0.4999999999999999
220
-0.8660254037844386
230
0.0
100
AcDbArc
 50
0.0
 51
20.00000000000001
  0
ARC
  5
2D
330
1B
100
AcDbEntity
  8
0
 62
     3
100
AcDbCircle
 10
100.0
 20
-99.99999999999997
 30
0.0
 40
100.0
210
0.4999999999999999
220
-0.8660254037844386
230
0.0
100
AcDbArc
 50
90.0
 51
180.0
  0
LINE
  5
2E
330
1B
100
AcDbEntity
  8
0
 62
     4
100
AcDbLine
 10
0.0
 20
0.0
 30
0.0
 11
76.60444431189782
 21
64.27876096865393
 31
0.0
  0
ARC
  5
2F
330
1B
100
AcDbEntity
  8
0
 62
     2
100
AcDbCircle
 10
0.0
 20
0.0
 30
0.0
 40
100.0
210
0.6427876096865391
220
-0.7660444431189781
230
0.0
100
AcDbArc
 50
0.0
 51
19.99999999999999
  0
ARC
  5
30
330
1B
100
AcDbEntity
  8
0
 62
     3
100
AcDbCircle
 10
100.0
 20
-99.99999999999997
 30
-0.0000000000000071
 40
100.0
210
0.6427876096865391
220
-0.7660444431189781
230
0.0
100
AcDbArc
 50
90.0
 51
180.0
  0
LINE
  5
31
330
1B
100
AcDbEntity
  8
0
 62
     4
100
AcDbLine
 10
0.0
 20
0.0
 30
0.0
 11
64.27876096865391
 21
76.6044443118978
 31
0.0
  0
ARC
  5
32
330
1B
100
AcDbEntity
  8
0
 62
     2
100
AcDbCircle
 10
0.0
 20
0.0
 30
0.0
 40
100.0
210
0.766044443118978
220
-0.6427876096865393
230
0.0
100
AcDbArc
 50
0.0
 51
19.99999999999999
  0
ARC
  5
33
330
1B
100
AcDbEntity
  8
0
 62
     3
100
AcDbCircle
 10
100.0
 20
-100.0
 30
-0.0000000000000071
 40
100.0
210
0.766044443118978
220
-0.6427876096865393
230
0.0
100
AcDbArc
 50
90.0
 51
180.0
  0
LINE
  5
34
330
1B
100
AcDbEntity
  8
0
 62
     4
100
AcDbLine
 10
0.0
 20
0.0
 30
0.0
 11
50.00000000000002
 21
86.60254037844386
 31
0.0
  0
ARC
  5
35
330
1B
100
AcDbEntity
  8
0
 62
     2
100
AcDbCircle
 10
0.0
 20
0.0
 30
0.0
 40
100.0
210
0.8660254037844385
220
-0.5000000000000001
230
0.0
100
AcDbArc
 50
0.0
 51
19.99999999999999
  0
ARC
  5
36
330
1B
100
AcDbEntity
  8
0
 62
     3
100
AcDbCircle
 10
100.0
 20
-99.99999999999997
 30
0.0
 40
100.0
210
0.8660254037844385
220
-0.5000000000000001
230
0.0
100
AcDbArc
 50
90.0
 51
180.0
  0
LINE
  5
37
330
1B
100
AcDbEntity
  8
0
 62
     4
100
AcDbLine
 10
0.0
 20
0.0
 30
0.0
 11
34.20201433256688
 21
93.96926207859086
 31
0.0
  0
ARC
  5
38
330
1B
100
AcDbEntity
  8
0
 62
     2
100
AcDbCircle
 10
0.0
 20
0.0
 30
0.0
 40
100.0
210
0.9396926207859083
220
-0.3420201433256687
230
0.0
100
AcDbArc
 50
0.0
 51
19.99999999999999
  0
ARC
  5
39
330
1B
100
AcDbEntity
  8
0
 62
     3
100
AcDbCircle
 10
100.0
 20
-99.99999999999997
 30
0.0
 40
100.0
210
0.9396926207859083
220
-0.3420201433256687
230
0.0
100
AcDbArc
 50
90.0
 51
180.0
  0
LINE
  5
3A
330
1B
100
AcDbEntity
  8
0
 62
     4
100
AcDbLine
 10
0.0
 20
0.0
 30
0.0
 11
17.36481776669304
 21
98.48077530122083
 31
0.0
  0
ARC
  5
3B
330
1B
100
AcDbEntity
  8
0
 62
     2
100
AcDbCircle
 10
0.0
 20
0.0
 30
0.0
 40
100.0
210
0.984807753012208
220
-0.1736481776669303
230
0.0
100
AcDbArc
 50
0.0
 51
19.99999999999999
  0
ARC
  5
3C
330
1B
100
AcDbEntity
  8
0
 62
     3
100
AcDbCircle
 10
100.0
 20
-100.0
 30
0.0
 40
100.0
210
0.984807753012208
220
-0.1736481776669303
230
0.0
100
AcDbArc
 50
90.0
 51
180.0
  0
LINE
  5
3D
330
1B
100
AcDbEntity
  8
0
 62
     4
100
AcDbLine
 10
0.0
 20
0.0
 30
0.0
 11
0.0000000000000213
 21
100.0
 31
0.0
  0
ARC
  5
3E
330
1B
100
AcDbEntity
  8
0
 62
     2
100
AcDbCircle
 10
0.0
 20
0.0
 30
0.0
 40
100.0
210
1.0
220
-2.131628207280300E-16
230
0.0
100
AcDbArc
 50
0.0
 51
20.00000000000001
  0
ARC
  5
3F
330
1B
100
AcDbEntity
  8
0
 62
     3
100
AcDbCircle
 10
100.0
 20
-100.0
 30
0.0
 40
100.0
210
1.0
220
-2.131628207280300E-16
230
0.0
100
AcDbArc
 50
90.0
 51
180.0
  0
LINE
  5
40
330
1B
100
AcDbEntity
  8
0
 62
     4
100
AcDbLine
 10
0.0
 20
0.0
 30
0.0
 11
-17.36481776669303
 21
98.48077530122082
 31
0.0
  0
ARC
  5
41
330
1B
100
AcDbEntity
  8
0
 62
     2
100
AcDbCircle
 10
0.0
 20
0.0
 30
0.0
 40
100.0
210
0.984807753012208
220
0.1736481776669303
230
0.0
100
AcDbArc
 50
0.0
 51
19.99999999999999
  0
ARC
  5
42
330
1B
100
AcDbEntity
  8
0
 62
     3
100
AcDbCircle
 10
100.0
 20
-100.0
 30
0.0
 40
100.0
210
0.984807753012208
220
0.1736481776669303
230
0.0
100
AcDbArc
 50
90.0
 51
180.0
  0
LINE
  5
43
330
1B
100
AcDbEntity
  8
0
 62
     4
100
AcDbLine
 10
0.0
 20
0.0
 30
0.0
 11
-34.20201433256687
 21
93.96926207859084
 31
0.0
  0
ARC
  5
44
330
1B
100
AcDbEntity
  8
0
 62
     2
100
AcDbCircle
 10
0.0
 20
0.0
 30
0.0
 40
100.0
210
0.9396926207859084
220
0.3420201433256687
230
0.0
100
AcDbArc
 50
0.0
 51
20.00000000000001
  0
ARC
  5
45
330
1B
100
AcDbEntity
  8
0
 62
     3
100
AcDbCircle
 10
100.0
 20
-100.0
 30
0.0
 40
100.0
210
0.9396926207859084
220
0.3420201433256687
230
0.0
100
AcDbArc
 50
90.0
 51
180.0
  0
LINE
  5
46
330
1B
100
AcDbEntity
  8
0
 62
     4
100
AcDbLine
 10
0.0
 20
0.0
 30
0.0
 11
-49.99999999999999
 21
86.60254037844388
 31
0.0
  0
ARC
  5
47
330
1B
100
AcDbEntity
  8
0
 62
     2
100
AcDbCircle
 10
0.0
 20
0.0
 30
0.0
 40
100.0
210
0.8660254037844388
220
0.4999999999999998
230
0.0
100
AcDbArc
 50
0.0
 51
20.00000000000001
  0
ARC
  5
48
330
1B
100
AcDbEntity
  8
0
 62
     3
100
AcDbCircle
 10
100.0
 20
-100.0
 30
-0.0000000000000071
 40
100.0
210
0.8660254037844388
220
0.4999999999999998
230
0.0
100
AcDbArc
 50
90.0
 51
180.0
  0
LINE
  5
49
330
1B
100
AcDbEntity
  8
0
 62
     4
100
AcDbLine
 10
0.0
 20
0.0
 30
0.0
 11
-64.2787609686539
 21
76.60444431189784
 31
0.0
  0
ARC
  5
4A
330
1B
100
AcDbEntity
  8
0
 62
     2
100
AcDbCircle
 10
0.0
 20
0.0
 30
0.0
 40
100.0
210
0.7660444431189783
220
0.642787609686539
230
0.0
100
AcDbArc
 50
0.0
 51
19.99999999999999
  0
ARC
  5
4B
330
1B
100
AcDbEntity
  8
0
 62
     3
100
AcDbCircle
 10
100.0
 20
-100.0
 30
0.0
 40
100.0
210
0.7660444431189783
220
0.642787609686539
230
0.0
100
AcDbArc
 50
90.0
 51
180.0
  0
LINE
  5
4C
330
1B
100
AcDbEntity
  8
0
 62
     4
100
AcDbLine
 10
0.0
 20
0.0
 30
0.0
 11
-76.60444431189777
 21
64.27876096865398
 31
0.0
  0
ARC
  5
4D
330
1B
100
AcDbEntity
  8
0
 62
     2
100
AcDbCircle
 10
0.0
 20
0.0
 30
0.0
 40
100.0
210
0.6427876096865398
220
0.7660444431189777
230
0.0
100
AcDbArc
 50
0.0
 51
19.99999999999999
  0
ARC
  5
4E
330
1B
100
AcDbEntity
  8
0
 62
     3
100
AcDbCircle
 10
100.0
 20
-100.0
 30
0.0000000000000071
 40
100.0
210
0.6427876096865398
220
0.7660444431189777
230
0.0
100
AcDbArc
 50
90.0
 51
180.0
  0
LINE
  5
4F
330
1B
100
AcDbEntity
  8
0
 62
     4
100
AcDbLine
 10
0.0
 20
0.0
 30
0.0
 11
-86.60254037844383
 21
50.00000000000008
 31
0.0
  0
ARC
  5
50
330
1B
100
AcDbEntity
  8
0
 62
     2
100
AcDbCircle
 10
0.0
 20
0.0
 30
0.0
 40
100.0
210
0.5000000000000007
220
0.8660254037844383
230
0.0
100
AcDbArc
 50
0.0
 51
20.00000000000001
  0
ARC
  5
51
330
1B
100
AcDbEntity
  8
0
 62
     3
100
AcDbCircle
 10
100.0
 20
-100.0
 30
0.0000000000000071
 40
100.0
210
0.5000000000000007
220
0.8660254037844383
230
0.0
100
AcDbArc
 50
90.0
 51
180.0
  0
LINE
  5
52
330
1B
100
AcDbEntity
  8
0
 62
     4
100
AcDbLine
 10
0.0
 20
0.0
 30
0.0
 11
-93.96926207859082
 21
34.20201433256697
 31
0.0
  0
ARC
  5
53
330
1B
100
AcDbEntity
  8
0
 62
     2
100
AcDbCircle
 10
0.0
 20
0.0
 30
0.0
 40
100.0
210
0.3420201433256697
220
0.939692620785908
230
0.0
100
AcDbArc
 50
0.0
 51
19.99999999999999
  0
ARC
  5
54
330
1B
100
AcDbEntity
  8
0
 62
     3
100
AcDbCircle
 10
100.0
 20
-100.0
 30
-0.0000000000000071
 40
100.0
210
0.3420201433256697
220
0.939692620785908
230
0.0
100
AcDbArc
 50
90.0
 51
180.0
  0
LINE
  5
55
330
1B
100
AcDbEntity
  8
0
 62
     4
100
AcDbLine
 10
0.0
 20
0.0
 30
0.0
 11
-98.4807753012208
 21
17.36481776669316
 31
0.0
  0
ARC
  5
56
330
1B
100
AcDbEntity
  8
0
 62
     2
100
AcDbCircle
 10
0.0
 20
0.0
 30
0.0
 40
100.0
210
0.1736481776669316
220
0.9848077530122079
230
0.0
100
AcDbArc
 50
0.0
 51
19.99999999999999
  0
ARC
  5
57
330
1B
100
AcDbEntity
  8
0
 62
     3
100
AcDbCircle
 10
100.0
 20
-100.0
 30
0.0000000000000036
 40
100.0
210
0.1736481776669316
220
0.9848077530122079
230
0.0
100
AcDbArc
 50
90.0
 51
180.0
  0
LINE
  5
58
330
1B
100
AcDbEntity
  8
0
 62
     4
100
AcDbLine
 10
0.0
 20
0.0
 30
0.0
 11
-100.0
 21
0.0000000000001455
 31
0.0
  0
ARC
  5
59
330
1B
100
AcDbEntity
  8
0
 62
     2
100
AcDbCircle
 10
0.0
 20
0.0
 30
0.0
 40
100.0
210
1.454732309464923E-15
220
1.0
230
0.0
100
AcDbArc
 50
0.0
 51
20.00000000000001
  0
ARC
  5
5A
330
1B
100
AcDbEntity
  8
0
 62
     3
100
AcDbCircle
 10
100.0
 20
-100.0
 30
0.0
 40
100.0
210
1.454732309464923E-15
220
1.0
230
0.0
100
AcDbArc
 50
90.0
 51
180.0
  0
LINE
  5
5B
330
1B
100
AcDbEntity
  8
0
 62
     4
100
AcDbLine
 10
0.0
 20
0.0
 30
0.0
 11
-98.48077530122085
 21
-17.36481776669287
 31
0.0
  0
ARC
  5
5C
330
1B
100
AcDbEntity
  8
0
 62
     2
100
AcDbCircle
 10
0.0
 20
0.0
 30
0.0
 40
100.0
210
-0.1736481776669287
220
0.9848077530122084
230
0.0
100
AcDbArc
 50
0.0
 51
20.00000000000001
  0
ARC
  5
5D
330
1B
100
AcDbEntity
  8
0
 62
     3
100
AcDbCircle
 10
100.0
 20
-100.0
 30
0.0
 40
100.0
210
-0.1736481776669287
220
0.9848077530122084
230
0.0
100
AcDbArc
 50
90.0
 51
180.0
  0
LINE
  5
5E
330
1B
100
AcDbEntity
  8
0
 62
     4
100
AcDbLine
 10
0.0
 20
0.0
 30
0.0
 11
-93.96926207859092
 21
-34.2020143325667
 31
0.0
  0
ARC
  5
5F
330
1B
100
AcDbEntity
  8
0
 62
     2
100
AcDbCircle
 10
0.0
 20
0.0
 30
0.0
 40
100.0
210
-0.342020143325667
220
0.939692620785909
230
0.0
100
AcDbArc
 50
359.9999991462263
 51
20.00000000000001
  0
ARC
  5
60
330
1B
100
AcDbEntity
  8
0
 62
     3
100
AcDbCircle
 10
100.0
 20
-100.0
 30
0.0
 40
100.0
210
-0.342020143325667
220
0.939692620785909
230
0.0
100
AcDbArc
 50
90.0
 51
180.0000008537737
  0
LINE
  5
61
330
1B
100
AcDbEntity
  8
0
 62
     4
100
AcDbLine
 10
0.0
 20
0.0
 30
0.0
 11
-86.60254037844396
 21
-49.99999999999982
 31
0.0
  0
ARC
  5
62
330
1B
100
AcDbEntity
  8
0
 62
     2
100
AcDbCircle
 10
0.0
 20
0.0
 30
0.0
 40
100.0
210
-0.4999999999999982
220
0.8660254037844397
230
0.0
100
AcDbArc
 50
359.9999991462263
 51
19.99999999999999
  0
ARC
  5
63
330
1B
100
AcDbEntity
  8
0
 62
     3
100
AcDbCircle
 10
100.0
 20
-100.0
 30
0.0
 40
100.0
210
-0.4999999999999982
220
0.8660254037844397
230
0.0
100
AcDbArc
 50
90.0
 51
180.0000008537737
  0
LINE
  5
64
330
1B
100
AcDbEntity
  8
0
 62
     4
100
AcDbLine
 10
0.0
 20
0.0
 30
0.0
 11
-76.60444431189794
 21
-64.27876096865376
 31
0.0
  0
ARC
  5
65
330
1B
100
AcDbEntity
  8
0
 62
     2
100
AcDbCircle
 10
0.0
 20
0.0
 30
0.0
 40
100.0
210
-0.6427876096865377
220
0.7660444431189795
230
0.0
100
AcDbArc
 50
0.0
 51
20.00000000000001
  0
ARC
  5
66
330
1B
100
AcDbEntity
  8
0
 62
     3
100
AcDbCircle
 10
99.99999999999997
 20
-100.0
 30
0.0000000000000142
 40
100.0
210
-0.6427876096865377
220
0.7660444431189795
230
0.0
100
AcDbArc
 50
90.0
 51
180.0
  0
LINE
  5
67
330
1B
100
AcDbEntity
  8
0
 62
     4
100
AcDbLine
 10
0.0
 20
0.0
 30
0.0
 11
-64.2787609686541
 21
-76.60444431189768
 31
0.0
  0
ARC
  5
68
330
1B
100
AcDbEntity
  8
0
 62
     2
100
AcDbCircle
 10
0.0
 20
0.0
 30
0.0
 40
100.0
210
-0.7660444431189767
220
0.6427876096865409
230
0.0
100
AcDbArc
 50
0.0
 51
20.00000000000003
  0
ARC
  5
69
330
1B
100
AcDbEntity
  8
0
 62
     3
100
AcDbCircle
 10
100.0
 20
-100.0
 30
0.0000000000000071
 40
100.0
210
-0.7660444431189767
220
0.6427876096865409
230
0.0
100
AcDbArc
 50
90.0
 51
180.0
  0
LINE
  5
6A
330
1B
100
AcDbEntity
  8
0
 62
     4
100
AcDbLine
 10
0.0
 20
0.0
 30
0.0
 11
-50.00000000000018
 21
-86.60254037844375
 31
0.0
  0
ARC
  5
6B
330
1B
100
AcDbEntity
  8
0
 62
     2
100
AcDbCircle
 10
0.0
 20
0.0
 30
0.0
 40
100.0
210
-0.8660254037844376
220
0.5000000000000019
230
0.0
100
AcDbArc
 50
359.9999991462263
 51
19.99999999999999
  0
ARC
  5
6C
330
1B
100
AcDbEntity
  8
0
 62
     3
100
AcDbCircle
 10
100.0
 20
-100.0
 30
-0.0000000000000071
 40
100.0
210
-0.8660254037844376
220
0.5000000000000019
230
0.0
100
AcDbArc
 50
90.0
 51
180.0000008537737
  0
LINE
  5
6D
330
1B
100
AcDbEntity
  8
0
 62
     4
100
AcDbLine
 10
0.0
 20
0.0
 30
0.0
 11
-34.20201433256711
 21
-93.96926207859077
 31
0.0
  0
ARC
  5
6E
330
1B
100
AcDbEntity
  8
0
 62
     2
100
AcDbCircle
 10
0.0
 20
0.0
 30
0.0
 40
100.0
210
-0.9396926207859077
220
0.342020143325671
230
0.0
100
AcDbArc
 50
0.0
 51
20.00000000000001
  0
ARC
  5
6F
330
1B
100
AcDbEntity
  8
0
 62
     3
100
AcDbCircle
 10
100.0
 20
-100.0
 30
0.0
 40
100.0
210
-0.9396926207859077
220
0.342020143325671
230
0.0
100
AcDbArc
 50
90.0
 51
180.0
  0
LINE
  5
70
330
1B
100
AcDbEntity
  8
0
 62
     4
100
AcDbLine
 10
0.0
 20
0.0
 30
0.0
 11
-17.36481776669329
 21
-98.48077530122077
 31
0.0
  0
ARC
  5
71
330
1B
100
AcDbEntity
  8
0
 62
     2
100
AcDbCircle
 10
0.0
 20
0.0
 30
0.0
 40
100.0
210
-0.9848077530122076
220
0.1736481776669329
230
0.0
100
AcDbArc
 50
0.0
 51
19.99999999999995
  0
ARC
  5
72
330
1B
100
AcDbEntity
  8
0
 62
     3
100
AcDbCircle
 10
100.0
 20
-100.0
 30
0.0
 40
100.0
210
-0.9848077530122076
220
0.1736481776669329
230
0.0
100
AcDbArc
 50
90.0
 51
180.0
  0
LINE
  5
73
330
1B
100
AcDbEntity
  8
0
 62
     4
100
AcDbLine
 10
0.0
 20
0.0
 30
0.0
 11
-0.0000000000003055
 21
-100.0
 31
0.0
  0
ARC
  5
74
330
1B
100
AcDbEntity
  8
0
 62
     2
100
AcDbCircle
 10
0.0
 20
0.0
 30
0.0
 40
100.0
210
-1.0
220
3.055333763768431E-15
230
0.0
100
AcDbArc
 50
0.0
 51
20.00000000000001
  0
ARC
  5
75
330
1B
100
AcDbEntity
  8
0
 62
     3
100
AcDbCircle
 10
100.0
 20
-100.0
 30
0.0
 40
100.0
210
-1.0
220
3.055333763768431E-15
230
0.0
100
AcDbArc
 50
90.0
 51
180.0
  0
LINE
  5
76
330
1B
100
AcDbEntity
  8
0
 62
     4
100
AcDbLine
 10
0.0
 20
0.0
 30
0.0
 11
17.36481776669273
 21
-98.48077530122087
 31
0.0
  0
ARC
  5
77
330
1B
100
AcDbEntity
  8
0
 62
     2
100
AcDbCircle
 10
0.0
 20
0.0
 30
0.0
 40
100.0
210
-0.9848077530122086
220
-0.1736481776669273
230
0.0
100
AcDbArc
 50
0.0
 51
19.99999999999999
  0
ARC
  5
78
330
1B
100
AcDbEntity
  8
0
 62
     3
100
AcDbCircle
 10
100.0
 20
-100.0
 30
0.0
 40
100.0
210
-0.9848077530122086
220
-0.1736481776669273
230
0.0
100
AcDbArc
 50
90.0
 51
180.0
  0
LINE
  5
79
330
1B
100
AcDbEntity
  8
0
 62
     4
100
AcDbLine
 10
0.0
 20
0.0
 30
0.0
 11
34.20201433256658
 21
-93.96926207859094
 31
0.0
  0
ARC
  5
7A
330
1B
100
AcDbEntity
  8
0
 62
     2
100
AcDbCircle
 10
0.0
 20
0.0
 30
0.0
 40
100.0
210
-0.9396926207859094
220
-0.3420201433256658
230
0.0
100
AcDbArc
 50
0.0
 51
20.00000000000001
  0
ARC
  5
7B
330
1B
100
AcDbEntity
  8
0
 62
     3
100
AcDbCircle
 10
100.0
 20
-100.0
 30
0.0
 40
100.0
210
-0.9396926207859094
220
-0.3420201433256658
230
0.0
100
AcDbArc
 50
90.0
 51
180.0
  0
LINE
  5
7C
330
1B
100
AcDbEntity
  8
0
 62
     4
100
AcDbLine
 10
0.0
 20
0.0
 30
0.0
 11
49.99999999999972
 21
-86.60254037844403
 31
0.0
  0
ARC
  5
7D
330
1B
100
AcDbEntity
  8
0
 62
     2
100
AcDbCircle
 10
0.0
 20
0.0
 30
0.0
 40
100.0
210
-0.8660254037844404
220
-0.4999999999999972
230
0.0
100
AcDbArc
 50
0.0
 51
19.99999999999999
  0
ARC
  5
7E
330
1B
100
AcDbEntity
  8
0
 62
     3
100
AcDbCircle
 10
100.0
 20
-100.0
 30
-0.0000000000000142
 40
100.0
210
-0.8660254037844404
220
-0.4999999999999972
230
0.0
100
AcDbArc
 50
90.0
 51
180.0
  0
LINE
  5
7F
330
1B
100
AcDbEntity
  8
0
 62
     4
100
AcDbLine
 10
0.0
 20
0.0
 30
0.0
 11
64.27876096865364
 21
-76.60444431189804
 31
0.0
  0
ARC
  5
80
330
1B
100
AcDbEntity
  8
0
 62
     2
100
AcDbCircle
 10
0.0
 20
0.0
 30
0.0
 40
100.0
210
-0.7660444431189805
220
-0.6427876096865365
230
0.0
100
AcDbArc
 50
0.0
 51
19.99999999999999
  0
ARC
  5
81
330
1B
100
AcDbEntity
  8
0
 62
     3
100
AcDbCircle
 10
100.0
 20
-100.0
 30
0.0000000000000071
 40
100.0
210
-0.7660444431189805
220
-0.6427876096865365
230
0.0
100
AcDbArc
 50
90.0
 51
180.0
  0
LINE
  5
82
330
1B
100
AcDbEntity
  8
0
 62
     4
100
AcDbLine
 10
0.0
 20
0.0
 30
0.0
 11
76.60444431189757
 21
-64.27876096865423
 31
0.0
  0
ARC
  5
83
330
1B
100
AcDbEntity
  8
0
 62
     2
100
AcDbCircle
 10
0.0
 20
0.0
 30
0.0
 40
100.0
210
-0.6427876096865422
220
-0.7660444431189757
230
0.0
100
AcDbArc
 50
0.0
 51
19.99999999999999
  0
ARC
  5
84
330
1B
100
AcDbEntity
  8
0
 62
     3
100
AcDbCircle
 10
100.0
 20
-100.0
 30
0.0000000000000142
 40
100.0
210
-0.6427876096865422
220
-0.7660444431189757
230
0.0
100
AcDbArc
 50
90.0
 51
180.0
  0
LINE
  5
85
330
1B
100
AcDbEntity
  8
0
 62
     4
100
AcDbLine
 10
0.0
 20
0.0
 30
0.0
 11
86.60254037844365
 21
-50.00000000000036
 31
0.0
  0
ARC
  5
86
330
1B
100
AcDbEntity
  8
0
 62
     2
100
AcDbCircle
 10
0.0
 20
0.0
 30
0.0
 40
100.0
210
-0.5000000000000037
220
-0.8660254037844366
230
0.0
100
AcDbArc
 50
0.0
 51
19.99999999999999
  0
ARC
  5
87
330
1B
100
AcDbEntity
  8
0
 62
     3
100
AcDbCircle
 10
100.0
 20
-100.0
 30
-0.0000000000000071
 40
100.0
210
-0.5000000000000037
220
-0.8660254037844366
230
0.0
100
AcDbArc
 50
90.0
 51
180.0
  0
LINE
  5
88
330
1B
100
AcDbEntity
  8
0
 62
     4
100
AcDbLine
 10
0.0
 20
0.0
 30
0.0
 11
93.9692620785907
 21
-34.20201433256727
 31
0.0
  0
ARC
  5
89
330
1B
100
AcDbEntity
  8
0
 62
     2
100
AcDbCircle
 10
0.0
 20
0.0
 30
0.0
 40
100.0
210
-0.3420201433256727
220
-0.9396926207859069
230
0.0
100
AcDbArc
 50
0.0
 51
19.99999999999995
  0
ARC
  5
8A
330
1B
100
AcDbEntity
  8
0
 62
     3
100
AcDbCircle
 10
100.0
 20
-100.0
 30
0.0000000000000071
 40
100.0
210
-0.3420201433256727
220
-0.9396926207859069
230
0.0
100
AcDbArc
 50
90.0
 51
180.0
  0
LINE
  5
8B
330
1B
100
AcDbEntity
  8
0
 62
     4
100
AcDbLine
 10
0.0
 20
0.0
 30
0.0
 11
98.48077530122072
 21
-17.36481776669347
 31
0.0
  0
ARC
  5
8C
330
1B
100
AcDbEntity
  8
0
 62
     2
100
AcDbCircle
 10
0.0
 20
0.0
 30
0.0
 40
100.0
210
-0.1736481776669348
220
-0.9848077530122074
230
0.0
100
AcDbArc
 50
0.0
 51
19.99999999999995
  0
ARC
  5
8D
330
1B
100
AcDbEntity
  8
0
 62
     3
100
AcDbCircle
 10
100.0
 20
-100.0
 30
0.0000000000000036
 40
100.0
210
-0.1736481776669348
220
-0.9848077530122074
230
0.0
100
AcDbArc
 50
90.0
 51
180.0
  0
LINE
  5
8E
330
1B
100
AcDbEntity
  8
0
 62
     4
100
AcDbLine
 10
0.0
 20
0.0
 30
0.0
 11
100.0
 21
-0.0000000000004686
 31
0.0
  0
ARC
  5
8F
330
1B
100
AcDbEntity
  8
0
 62
     2
100
AcDbCircle
 10
0.0
 20
0.0
 30
0.0
 40
100.0
210
-4.685821458330096E-15
220
-1.0
230
0.0
100
AcDbArc
 50
0.0
 51
20.00000000000001
  0
ARC
  5
90
330
1B
100
AcDbEntity
  8
0
 62
     3
100
AcDbCircle
 10
100.0
 20
-100.0
 30
0.0
 40
100.0
210
-4.685821458330096E-15
220
-1.0
230
0.0
100
AcDbArc
 50
90.0
 51
180.0
  0
VIEWPORT
  5
95
330
91
100
AcDbEntity
 67
     1
  8
0
100
AcDbViewport
 10
0.0
 20
0.0
 30
0.0
 40
297.0
 41
210.0
 68
     1
 69
     1
 12
50.0
 22
100.0
 13
0.0
 23
0.0
 14
10.0
 24
10.0
 15
10.0
 25
10.0
 16
0.0
 26
0.0
 36
1.0
 17
0.0
 27
0.0
 37
0.0
 42
50.0
 43
0.0
 44
0.0
 45
250.0
 50
0.0
 51
0.0
 72
  1000
 90
   819232
  1

281
     0
 71
     1
 74
     0
110
0.0
120
0.0
130
0.0
111
1.0
121
0.0
131
0.0
112
0.0
122
1.0
132
0.0
 79
     0
146
0.0
  0
ENDSEC
  0
SECTION
  2
OBJECTS
  0
DICTIONARY
  5
9A
330
0
100
AcDbDictionary
281
     1
  3
ACAD_GROUP
350
9B
  3
ACAD_LAYOUT
350
9C
  3
ACAD_MLINESTYLE
350
A0
  3
ACAD_PLOTSETTINGS
350
A2
  3
ACAD_PLOTSTYLENAME
350
A3
  3
ACAD_SCALELIST
350
A5
  3
APPDATA
350
E8
  3
DWGPROPS
350
E9
  0
DICTIONARY
  5
9B
330
9A
100
AcDbDictionary
281
     1
  0
DICTIONARY
  5
9C
330
9A
100
AcDbDictionary
281
     1
  3
Layout1
350
96
  3
Model
350
1F
  0
DICTIONARY
  5
A0
330
9A
100
AcDbDictionary
281
     1
  3
Standard
350
1A
  0
DICTIONARY
  5
A2
102
{ACAD_REACTORS
330
9A
102
}
330
9A
100
AcDbDictionary
281
     1
  0
ACDBDICTIONARYWDFLT
  5
A3
102
{ACAD_REACTORS
330
9A
102
}
330
9A
100
AcDbDictionary
281
     1
  3
Normal
350
A4
100
AcDbDictionaryWithDefault
340
A4
  0
DICTIONARY
  5
A5
102
{ACAD_REACTORS
330
9A
102
}
330
9A
100
AcDbDictionary
281
     1
  3
A0
350
A6
  3
A1
350
A7
  3
A2
350
A8
  3
A3
350
A9
  3
A4
350
AA
  3
A5
350
AB
  3
A6
350
AC
  3
A7
350
AD
  3
A8
350
AE
  3
A9
350
AF
  3
B0
350
B0
  3
B1
350
B1
  3
B2
350
B2
  3
B3
350
B3
  3
B4
350
B4
  3
B5
350
B5
  3
B6
350
B6
  3
B7
350
B7
  3
B8
350
B8
  3
B9
350
B9
  3
C0
350
BA
  3
C1
350
BB
  3
C2
350
BC
  3
C3
350
BD
  3
C4
350
BE
  3
C5
350
BF
  3
C6
350
C0
  3
C7
350
C1
  3
C8
350
C2
  3
C9
350
C3
  3
D0
350
C4
  3
D1
350
C5
  3
D2
350
C6
  0
DICTIONARY
  5
E8
102
{ACAD_REACTORS
330
9A
102
}
330
9A
100
AcDbDictionary
281
     1
  0
XRECORD
  5
E9
102
{ACAD_REACTORS
330
9A
102
}
330
9A
100
AcDbXrecord
280
     1
  1
DWGPROPS COOKIE
  2

  3

  4

  6

  7

  8
devel0
  9

300
=
301
=
302
=
303
=
304
=
305
=
306
=
307
=
308
=
309
=
 40
0.0
 41
2458677.435348183
 42
2458677.477128183
  1

 90
        0
  0
LAYOUT
  5
96
330
9C
100
AcDbPlotSettings
  1

  2
none_device
  4
ISO_A4_(210.00_x_297.00_MM)
  6

 40
7.5
 41
20.0
 42
7.5
 43
20.0
 44
210.0
 45
297.0
 46
0.0
 47
0.0
 48
0.0
 49
0.0
140
0.0
141
0.0
142
1.0
143
1.0
 70
   688
 72
     1
 73
     1
 74
     5
  7

 75
    16
147
1.0
148
0.0
149
0.0
100
AcDbLayout
  1
Layout1
 70
     1
 71
     1
 10
-20.0
 20
-7.5
 11
277.0
 21
202.5
 12
0.0
 22
0.0
 32
0.0
 14
25.7
 24
19.5
 34
0.0
 15
231.3
 25
175.5
 35
0.0
146
0.0
 13
0.0
 23
0.0
 33
0.0
 16
1.0
 26
0.0
 36
0.0
 17
0.0
 27
1.0
 37
0.0
 76
     0
330
91
331
95
  0
LAYOUT
  5
1F
330
9C
100
AcDbPlotSettings
  1

  2
none_device
  4
ISO_A4_(210.00_x_297.00_MM)
  6

 40
7.5
 41
20.0
 42
7.5
 43
20.0
 44
210.0
 45
297.0
 46
0.0
 47
0.0
 48
0.0
 49
0.0
140
0.0
141
0.0
142
1.0
143
1.0
 70
 11952
 72
     1
 73
     1
 74
     5
  7

 75
    16
147
1.0
148
0.0
149
0.0
100
AcDbLayout
  1
Model
 70
     1
 71
     0
 10
-20.0
 20
-7.5
 11
277.0
 21
202.5
 12
0.0
 22
0.0
 32
0.0
 14
-100.0
 24
-100.0
 34
-100.0000014901161
 15
100.0
 25
100.0
 35
34.20201433256692
146
0.0
 13
0.0
 23
0.0
 33
0.0
 16
1.0
 26
0.0
 36
0.0
 17
0.0
 27
1.0
 37
0.0
 76
     0
330
1B
331
2
  0
MLINESTYLE
  5
1A
330
A0
100
AcDbMlineStyle
  2
Standard
 70
     0
  3

 62
   256
 51
90.0
 52
90.0
 71
     2
 49
-0.5
 62
   256
  6
BYLAYER
 49
0.5
 62
   256
  6
BYLAYER
  0
ACDBPLACEHOLDER
  5
A4
102
{ACAD_REACTORS
330
A3
102
}
330
A3
  0
SCALE
  5
A6
102
{ACAD_REACTORS
330
A5
102
}
330
A5
100
AcDbScale
 70
     0
300
1:1
140
1.0
141
1.0
290
     1
  0
SCALE
  5
A7
102
{ACAD_REACTORS
330
A5
102
}
330
A5
100
AcDbScale
 70
     0
300
1:2
140
1.0
141
2.0
290
     0
  0
SCALE
  5
A8
102
{ACAD_REACTORS
330
A5
102
}
330
A5
100
AcDbScale
 70
     0
300
1:4
140
1.0
141
4.0
290
     0
  0
SCALE
  5
A9
102
{ACAD_REACTORS
330
A5
102
}
330
A5
100
AcDbScale
 70
     0
300
1:5
140
1.0
141
5.0
290
     0
  0
SCALE
  5
AA
102
{ACAD_REACTORS
330
A5
102
}
330
A5
100
AcDbScale
 70
     0
300
1:8
140
1.0
141
8.0
290
     0
  0
SCALE
  5
AB
102
{ACAD_REACTORS
330
A5
102
}
330
A5
100
AcDbScale
 70
     0
300
1:10
140
1.0
141
10.0
290
     0
  0
SCALE
  5
AC
102
{ACAD_REACTORS
330
A5
102
}
330
A5
100
AcDbScale
 70
     0
300
1:16
140
1.0
141
16.0
290
     0
  0
SCALE
  5
AD
102
{ACAD_REACTORS
330
A5
102
}
330
A5
100
AcDbScale
 70
     0
300
1:20
140
1.0
141
20.0
290
     0
  0
SCALE
  5
AE
102
{ACAD_REACTORS
330
A5
102
}
330
A5
100
AcDbScale
 70
     0
300
1:30
140
1.0
141
30.0
290
     0
  0
SCALE
  5
AF
102
{ACAD_REACTORS
330
A5
102
}
330
A5
100
AcDbScale
 70
     0
300
1:40
140
1.0
141
40.0
290
     0
  0
SCALE
  5
B0
102
{ACAD_REACTORS
330
A5
102
}
330
A5
100
AcDbScale
 70
     0
300
1:50
140
1.0
141
50.0
290
     0
  0
SCALE
  5
B1
102
{ACAD_REACTORS
330
A5
102
}
330
A5
100
AcDbScale
 70
     0
300
1:100
140
1.0
141
100.0
290
     0
  0
SCALE
  5
B2
102
{ACAD_REACTORS
330
A5
102
}
330
A5
100
AcDbScale
 70
     0
300
2:1
140
2.0
141
1.0
290
     0
  0
SCALE
  5
B3
102
{ACAD_REACTORS
330
A5
102
}
330
A5
100
AcDbScale
 70
     0
300
4:1
140
4.0
141
1.0
290
     0
  0
SCALE
  5
B4
102
{ACAD_REACTORS
330
A5
102
}
330
A5
100
AcDbScale
 70
     0
300
8:1
140
8.0
141
1.0
290
     0
  0
SCALE
  5
B5
102
{ACAD_REACTORS
330
A5
102
}
330
A5
100
AcDbScale
 70
     0
300
10:1
140
10.0
141
1.0
290
     0
  0
SCALE
  5
B6
102
{ACAD_REACTORS
330
A5
102
}
330
A5
100
AcDbScale
 70
     0
300
100:1
140
100.0
141
1.0
290
     0
  0
SCALE
  5
B7
102
{ACAD_REACTORS
330
A5
102
}
330
A5
100
AcDbScale
 70
     0
300
1/128" = 1'-0"
140
0.0078125
141
12.0
290
     0
  0
SCALE
  5
B8
102
{ACAD_REACTORS
330
A5
102
}
330
A5
100
AcDbScale
 70
     0
300
1/64" = 1'-0"
140
0.015625
141
12.0
290
     0
  0
SCALE
  5
B9
102
{ACAD_REACTORS
330
A5
102
}
330
A5
100
AcDbScale
 70
     0
300
1/32" = 1'-0"
140
0.03125
141
12.0
290
     0
  0
SCALE
  5
BA
102
{ACAD_REACTORS
330
A5
102
}
330
A5
100
AcDbScale
 70
     0
300
1/16" = 1'-0"
140
0.0625
141
12.0
290
     0
  0
SCALE
  5
BB
102
{ACAD_REACTORS
330
A5
102
}
330
A5
100
AcDbScale
 70
     0
300
3/32" = 1'-0"
140
0.09375
141
12.0
290
     0
  0
SCALE
  5
BC
102
{ACAD_REACTORS
330
A5
102
}
330
A5
100
AcDbScale
 70
     0
300
1/8" = 1'-0"
140
0.125
141
12.0
290
     0
  0
SCALE
  5
BD
102
{ACAD_REACTORS
330
A5
102
}
330
A5
100
AcDbScale
 70
     0
300
3/16" = 1'-0"
140
0.1875
141
12.0
290
     0
  0
SCALE
  5
BE
102
{ACAD_REACTORS
330
A5
102
}
330
A5
100
AcDbScale
 70
     0
300
1/4" = 1'-0"
140
0.25
141
12.0
290
     0
  0
SCALE
  5
BF
102
{ACAD_REACTORS
330
A5
102
}
330
A5
100
AcDbScale
 70
     0
300
3/8" = 1'-0"
140
0.375
141
12.0
290
     0
  0
SCALE
  5
C0
102
{ACAD_REACTORS
330
A5
102
}
330
A5
100
AcDbScale
 70
     0
300
1/2" = 1'-0"
140
0.5
141
12.0
290
     0
  0
SCALE
  5
C1
102
{ACAD_REACTORS
330
A5
102
}
330
A5
100
AcDbScale
 70
     0
300
3/4" = 1'-0"
140
0.75
141
12.0
290
     0
  0
SCALE
  5
C2
102
{ACAD_REACTORS
330
A5
102
}
330
A5
100
AcDbScale
 70
     0
300
1" = 1'-0"
140
1.0
141
12.0
290
     0
  0
SCALE
  5
C3
102
{ACAD_REACTORS
330
A5
102
}
330
A5
100
AcDbScale
 70
     0
300
1-1/2" = 1'-0"
140
1.5
141
12.0
290
     0
  0
SCALE
  5
C4
102
{ACAD_REACTORS
330
A5
102
}
330
A5
100
AcDbScale
 70
     0
300
3" = 1'-0"
140
3.0
141
12.0
290
     0
  0
SCALE
  5
C5
102
{ACAD_REACTORS
330
A5
102
}
330
A5
100
AcDbScale
 70
     0
300
6" = 1'-0"
140
6.0
141
12.0
290
     0
  0
SCALE
  5
C6
102
{ACAD_REACTORS
330
A5
102
}
330
A5
100
AcDbScale
 70
     0
300
1'-0" = 1'-0"
140
12.0
141
12.0
290
     0
  0
ENDSEC
  0
EOF
