999
DXF file generated by netDxf https://github.com/haplokuon/netDxf, Copyright(C) 2009-2020 Daniel Carvajal, Licensed under LGPL
0
SECTION
2
HEADER
9
$ACADVER
1
AC1015
9
$DWGCODEPAGE
3
ANSI_1252
9
$HANDSEED
5
1B7
9
$ANGBASE
50
0.0
9
$ANGDIR
70
0
9
$ATTMODE
70
1
9
$AUNITS
70
0
9
$AUPREC
70
0
9
$CECOLOR
62
256
9
$CELTSCALE
40
1.0
9
$CELTYPE
6
ByLayer
9
$CELWEIGHT
370
-1
9
$CLAYER
8
0
9
$CMLJUST
70
0
9
$CMLSCALE
40
20.0
9
$CMLSTYLE
2
Standard
9
$DIMSTYLE
2
Standard
9
$TEXTSIZE
40
2.5
9
$TEXTSTYLE
7
Standard
9
$LUNITS
70
2
9
$LUPREC
70
4
9
$MIRRTEXT
70
0
9
$EXTNAMES
290
1
9
$INSBASE
10
0.0
20
0.0
30
0.0
9
$INSUNITS
70
0
9
$LTSCALE
40
1.0
9
$LWDISPLAY
290
0
9
$PDMODE
70
35
9
$PDSIZE
40
0.0
9
$PLINEGEN
70
0
9
$PSLTSCALE
70
1
9
$TDCREATE
40
2459787.71396019
9
$TDUCREATE
40
2459787.63062685
9
$TDUPDATE
40
2459787.71396019
9
$TDUUPDATE
40
2459787.63062685
9
$TDINDWG
40
0.0
9
$UCSORG
10
0.0
20
0.0
30
0.0
9
$UCSXDIR
10
1.0
20
0.0
30
0.0
9
$UCSYDIR
10
0.0
20
1.0
30
0.0
9
$DIMADEC
70
0
9
$DIMALT
70
0
9
$DIMALTD
70
2
9
$DIMALTF
40
25.4
9
$DIMALTRND
40
0.0
9
$DIMALTTD
70
2
9
$DIMALTTZ
70
0
9
$DIMALTU
70
2
9
$DIMALTZ
70
0
9
$DIMAPOST
1

9
$DIMATFIT
70
3
9
$DIMAUNIT
70
0
9
$DIMASZ
40
0.18
9
$DIMAZIN
70
0
9
$DIMSAH
70
0
9
$DIMBLK
1

9
$DIMLDRBLK
1

9
$DIMCEN
40
0.09
9
$DIMCLRD
70
0
9
$DIMCLRE
70
0
9
$DIMCLRT
70
0
9
$DIMDEC
70
4
9
$DIMDLE
40
0.0
9
$DIMDLI
40
0.38
9
$DIMDSEP
70
46
9
$DIMEXE
40
0.18
9
$DIMEXO
40
0.0625
9
$DIMFXLON
70
0
9
$DIMFXL
40
1.0
9
$DIMGAP
40
0.09
9
$DIMJUST
70
0
9
$DIMLFAC
40
1.0
9
$DIMLUNIT
70
2
9
$DIMLWD
70
-2
9
$DIMLWE
70
-2
9
$DIMPOST
1

9
$DIMRND
40
0.0
9
$DIMSCALE
40
1.0
9
$DIMSD1
70
0
9
$DIMSD2
70
0
9
$DIMSE1
70
0
9
$DIMSE2
70
0
9
$DIMSOXD
70
0
9
$DIMTAD
70
0
9
$DIMTDEC
70
4
9
$DIMTFAC
40
1.0
9
$DIMTIH
70
0
9
$DIMTIX
70
0
9
$DIMTM
40
0.0
9
$DIMTMOVE
70
0
9
$DIMTOFL
70
0
9
$DIMTOH
70
0
9
$DIMTOL
70
0
9
$DIMLIM
70
0
9
$DIMTOLJ
70
1
9
$DIMTP
40
0.0
9
$DIMTXT
40
0.18
9
$DIMTXTDIRECTION
70
0
9
$DIMTZIN
70
0
9
$DIMZIN
70
0
9
$DIMFRAC
70
0
9
$DIMLTYPE
6
ByBlock
9
$DIMLTEX1
6
ByBlock
9
$DIMLTEX2
6
ByBlock
0
ENDSEC
0
SECTION
2
CLASSES
0
CLASS
1
RASTERVARIABLES
2
AcDbRasterVariables
3
ISM
90
0
280
0
281
0
0
ENDSEC
0
SECTION
2
TABLES
0
TABLE
2
APPID
5
4
330
0
100
AcDbSymbolTable
0
APPID
5
18
330
4
100
AcDbSymbolTableRecord
100
AcDbRegAppTableRecord
2
ACAD
70
0
0
APPID
5
2C
330
4
100
AcDbSymbolTableRecord
100
AcDbRegAppTableRecord
2
AcCmTransparency
70
0
0
APPID
5
2D
330
4
100
AcDbSymbolTableRecord
100
AcDbRegAppTableRecord
2
GradientColor1ACI
70
0
0
APPID
5
2E
330
4
100
AcDbSymbolTableRecord
100
AcDbRegAppTableRecord
2
GradientColor2ACI
70
0
0
ENDTAB
0
TABLE
2
VPORT
5
1
330
0
100
AcDbSymbolTable
0
VPORT
5
2
330
1
100
AcDbSymbolTableRecord
100
AcDbViewportTableRecord
2
*Active
70
0
10
0.0
20
0.0
11
1.0
21
1.0
12
0.0
22
0.0
13
0.0
23
0.0
14
0.5
24
0.5
15
10.0
25
10.0
16
0.0
26
0.0
36
1.0
17
0.0
27
0.0
37
0.0
40
10.0
41
1.0
75
0
76
0
0
ENDTAB
0
TABLE
2
LTYPE
5
6
330
0
100
AcDbSymbolTable
0
LTYPE
5
14
330
6
100
AcDbSymbolTableRecord
100
AcDbLinetypeTableRecord
2
Continuous
70
0
3
Solid line
72
65
73
0
40
0.0
0
LTYPE
5
15
330
6
100
AcDbSymbolTableRecord
100
AcDbLinetypeTableRecord
2
ByLayer
70
0
3

72
65
73
0
40
0.0
0
LTYPE
5
16
330
6
100
AcDbSymbolTableRecord
100
AcDbLinetypeTableRecord
2
ByBlock
70
0
3

72
65
73
0
40
0.0
0
ENDTAB
0
TABLE
2
LAYER
5
5
330
0
100
AcDbSymbolTable
0
LAYER
5
13
330
5
100
AcDbSymbolTableRecord
100
AcDbLayerTableRecord
2
0
70
0
62
7
6
Continuous
290
1
370
-3
390
0
0
LAYER
5
22
330
5
100
AcDbSymbolTableRecord
100
AcDbLayerTableRecord
2
layer 1
70
0
62
7
6
Continuous
290
1
370
-3
390
0
0
LAYER
5
31
330
5
100
AcDbSymbolTableRecord
100
AcDbLayerTableRecord
2
layer 2
70
0
62
7
6
Continuous
290
1
370
-3
390
0
0
LAYER
5
37
330
5
100
AcDbSymbolTableRecord
100
AcDbLayerTableRecord
2
layer 3
70
0
62
7
6
Continuous
290
1
370
-3
390
0
0
LAYER
5
3B
330
5
100
AcDbSymbolTableRecord
100
AcDbLayerTableRecord
2
layer 4
70
0
62
7
6
Continuous
290
1
370
-3
390
0
0
LAYER
5
42
330
5
100
AcDbSymbolTableRecord
100
AcDbLayerTableRecord
2
layer 5
70
0
62
7
6
Continuous
290
1
370
-3
390
0
0
LAYER
5
48
330
5
100
AcDbSymbolTableRecord
100
AcDbLayerTableRecord
2
layer 6
70
0
62
7
6
Continuous
290
1
370
-3
390
0
0
LAYER
5
4E
330
5
100
AcDbSymbolTableRecord
100
AcDbLayerTableRecord
2
layer 7
70
0
62
7
6
Continuous
290
1
370
-3
390
0
0
LAYER
5
58
330
5
100
AcDbSymbolTableRecord
100
AcDbLayerTableRecord
2
layer 8
70
0
62
7
6
Continuous
290
1
370
-3
390
0
0
LAYER
5
5E
330
5
100
AcDbSymbolTableRecord
100
AcDbLayerTableRecord
2
layer 9
70
0
62
7
6
Continuous
290
1
370
-3
390
0
0
LAYER
5
64
330
5
100
AcDbSymbolTableRecord
100
AcDbLayerTableRecord
2
layer 10
70
0
62
7
6
Continuous
290
1
370
-3
390
0
0
LAYER
5
68
330
5
100
AcDbSymbolTableRecord
100
AcDbLayerTableRecord
2
layer 11
70
0
62
7
6
Continuous
290
1
370
-3
390
0
0
LAYER
5
6F
330
5
100
AcDbSymbolTableRecord
100
AcDbLayerTableRecord
2
layer 12
70
0
62
7
6
Continuous
290
1
370
-3
390
0
0
LAYER
5
75
330
5
100
AcDbSymbolTableRecord
100
AcDbLayerTableRecord
2
layer 13
70
0
62
7
6
Continuous
290
1
370
-3
390
0
0
LAYER
5
7B
330
5
100
AcDbSymbolTableRecord
100
AcDbLayerTableRecord
2
layer 14
70
0
62
7
6
Continuous
290
1
370
-3
390
0
0
LAYER
5
85
330
5
100
AcDbSymbolTableRecord
100
AcDbLayerTableRecord
2
layer 15
70
0
62
7
6
Continuous
290
1
370
-3
390
0
0
LAYER
5
8C
330
5
100
AcDbSymbolTableRecord
100
AcDbLayerTableRecord
2
layer 16
70
0
62
7
6
Continuous
290
1
370
-3
390
0
0
LAYER
5
93
330
5
100
AcDbSymbolTableRecord
100
AcDbLayerTableRecord
2
layer 17
70
0
62
7
6
Continuous
290
1
370
-3
390
0
0
LAYER
5
9A
330
5
100
AcDbSymbolTableRecord
100
AcDbLayerTableRecord
2
layer 18
70
0
62
7
6
Continuous
290
1
370
-3
390
0
0
LAYER
5
A4
330
5
100
AcDbSymbolTableRecord
100
AcDbLayerTableRecord
2
layer 19
70
0
62
7
6
Continuous
290
1
370
-3
390
0
0
LAYER
5
AD
330
5
100
AcDbSymbolTableRecord
100
AcDbLayerTableRecord
2
layer 20
70
0
62
7
6
Continuous
290
1
370
-3
390
0
0
LAYER
5
B6
330
5
100
AcDbSymbolTableRecord
100
AcDbLayerTableRecord
2
layer 21
70
0
62
7
6
Continuous
290
1
370
-3
390
0
0
LAYER
5
C5
330
5
100
AcDbSymbolTableRecord
100
AcDbLayerTableRecord
2
layer 22
70
0
62
7
6
Continuous
290
1
370
-3
390
0
0
LAYER
5
CC
330
5
100
AcDbSymbolTableRecord
100
AcDbLayerTableRecord
2
layer 23
70
0
62
7
6
Continuous
290
1
370
-3
390
0
0
LAYER
5
D3
330
5
100
AcDbSymbolTableRecord
100
AcDbLayerTableRecord
2
layer 24
70
0
62
7
6
Continuous
290
1
370
-3
390
0
0
LAYER
5
DA
330
5
100
AcDbSymbolTableRecord
100
AcDbLayerTableRecord
2
layer 25
70
0
62
7
6
Continuous
290
1
370
-3
390
0
0
LAYER
5
E4
330
5
100
AcDbSymbolTableRecord
100
AcDbLayerTableRecord
2
layer 26
70
0
62
7
6
Continuous
290
1
370
-3
390
0
0
LAYER
5
ED
330
5
100
AcDbSymbolTableRecord
100
AcDbLayerTableRecord
2
layer 27
70
0
62
7
6
Continuous
290
1
370
-3
390
0
0
LAYER
5
F6
330
5
100
AcDbSymbolTableRecord
100
AcDbLayerTableRecord
2
layer 28
70
0
62
7
6
Continuous
290
1
370
-3
390
0
0
LAYER
5
105
330
5
100
AcDbSymbolTableRecord
100
AcDbLayerTableRecord
2
layer 29
70
0
62
7
6
Continuous
290
1
370
-3
390
0
0
LAYER
5
10E
330
5
100
AcDbSymbolTableRecord
100
AcDbLayerTableRecord
2
layer 30
70
0
62
7
6
Continuous
290
1
370
-3
390
0
0
LAYER
5
117
330
5
100
AcDbSymbolTableRecord
100
AcDbLayerTableRecord
2
layer 31
70
0
62
7
6
Continuous
290
1
370
-3
390
0
0
LAYER
5
11D
330
5
100
AcDbSymbolTableRecord
100
AcDbLayerTableRecord
2
layer 32
70
0
62
7
6
Continuous
290
1
370
-3
390
0
0
LAYER
5
126
330
5
100
AcDbSymbolTableRecord
100
AcDbLayerTableRecord
2
layer 33
70
0
62
7
6
Continuous
290
1
370
-3
390
0
0
LAYER
5
130
330
5
100
AcDbSymbolTableRecord
100
AcDbLayerTableRecord
2
layer 34
70
0
62
7
6
Continuous
290
1
370
-3
390
0
0
LAYER
5
13A
330
5
100
AcDbSymbolTableRecord
100
AcDbLayerTableRecord
2
layer 35
70
0
62
7
6
Continuous
290
1
370
-3
390
0
0
LAYER
5
150
330
5
100
AcDbSymbolTableRecord
100
AcDbLayerTableRecord
2
layer 36
70
0
62
7
6
Continuous
290
1
370
-3
390
0
0
LAYER
5
159
330
5
100
AcDbSymbolTableRecord
100
AcDbLayerTableRecord
2
layer 37
70
0
62
7
6
Continuous
290
1
370
-3
390
0
0
LAYER
5
162
330
5
100
AcDbSymbolTableRecord
100
AcDbLayerTableRecord
2
layer 38
70
0
62
7
6
Continuous
290
1
370
-3
390
0
0
LAYER
5
168
330
5
100
AcDbSymbolTableRecord
100
AcDbLayerTableRecord
2
layer 39
70
0
62
7
6
Continuous
290
1
370
-3
390
0
0
LAYER
5
171
330
5
100
AcDbSymbolTableRecord
100
AcDbLayerTableRecord
2
layer 40
70
0
62
7
6
Continuous
290
1
370
-3
390
0
0
LAYER
5
17B
330
5
100
AcDbSymbolTableRecord
100
AcDbLayerTableRecord
2
layer 41
70
0
62
7
6
Continuous
290
1
370
-3
390
0
0
LAYER
5
185
330
5
100
AcDbSymbolTableRecord
100
AcDbLayerTableRecord
2
layer 42
70
0
62
7
6
Continuous
290
1
370
-3
390
0
0
LAYER
5
19B
330
5
100
AcDbSymbolTableRecord
100
AcDbLayerTableRecord
2
layer 43
70
0
62
7
6
Continuous
290
1
370
-3
390
0
0
LAYER
5
1A3
330
5
100
AcDbSymbolTableRecord
100
AcDbLayerTableRecord
2
layer 44
70
0
62
7
6
Continuous
290
1
370
-3
390
0
0
LAYER
5
1AC
330
5
100
AcDbSymbolTableRecord
100
AcDbLayerTableRecord
2
layer 45
70
0
62
7
6
Continuous
290
1
370
-3
390
0
0
ENDTAB
0
TABLE
2
STYLE
5
7
330
0
100
AcDbSymbolTable
0
STYLE
5
17
330
7
100
AcDbSymbolTableRecord
100
AcDbTextStyleTableRecord
2
Standard
3
simplex.shx
70
0
71
0
40
0.0
41
1.0
42
0.0
50
0.0
0
ENDTAB
0
TABLE
2
DIMSTYLE
5
9
330
0
100
AcDbSymbolTable
100
AcDbDimStyleTable
0
DIMSTYLE
105
19
330
9
100
AcDbSymbolTableRecord
100
AcDbDimStyleTableRecord
2
Standard
3

4

40
1.0
41
0.18
42
0.0625
43
0.38
44
0.18
45
0.0
46
0.0
47
0.0
48
0.0
49
1.0
70
0
71
0
72
0
73
0
74
0
75
0
76
0
77
0
78
0
79
0
140
0.18
141
0.09
143
25.4
144
1.0
146
1.0
147
0.09
148
0.0
170
0
171
2
172
0
174
0
175
0
176
0
177
0
178
0
179
0
271
4
272
4
273
2
274
2
275
0
276
0
277
2
278
46
279
0
280
0
281
0
282
0
283
1
284
0
285
0
286
0
289
3
290
0
294
0
340
17
173
0
345
16
346
16
347
16
371
-2
372
-2
0
ENDTAB
0
TABLE
2
VIEW
5
3
330
0
100
AcDbSymbolTable
0
ENDTAB
0
TABLE
2
UCS
5
B
330
0
100
AcDbSymbolTable
0
ENDTAB
0
TABLE
2
BLOCK_RECORD
5
C
330
0
100
AcDbSymbolTable
0
BLOCK_RECORD
5
1B
330
C
100
AcDbSymbolTableRecord
100
AcDbBlockTableRecord
2
*Model_Space
340
1F
0
BLOCK_RECORD
5
26
330
C
100
AcDbSymbolTableRecord
100
AcDbBlockTableRecord
2
*Paper_Space
340
2B
0
ENDTAB
0
ENDSEC
0
SECTION
2
BLOCKS
0
BLOCK
5
1D
330
1B
100
AcDbEntity
67
0
8
0
100
AcDbBlockBegin
2
*Model_Space
70
0
10
0.0
20
0.0
30
0.0
3
*Model_Space
4

0
ENDBLK
5
1C
330
1B
100
AcDbEntity
8
0
100
AcDbBlockEnd
0
BLOCK
5
28
330
26
100
AcDbEntity
67
1
8
0
100
AcDbBlockBegin
2
*Paper_Space
70
0
10
0.0
20
0.0
30
0.0
3
*Paper_Space
4

0
ENDBLK
5
27
330
26
100
AcDbEntity
8
0
100
AcDbBlockEnd
0
ENDSEC
0
SECTION
2
ENTITIES
0
LWPOLYLINE
5
21
330
1B
100
AcDbEntity
67
0
8
layer 1
62
3
6
ByLayer
370
-1
48
1.0
60
0
100
AcDbPolyline
90
4
70
1
38
0.0
39
0.0
10
21.0
20
50.0
40
0.0
41
0.0
42
0.0
10
31.0
20
50.0
40
0.0
41
0.0
42
0.0
10
31.0
20
60.0
40
0.0
41
0.0
42
0.0
10
21.0
20
60.0
40
0.0
41
0.0
42
0.0
210
0.0
220
0.0
230
1.0
0
LWPOLYLINE
5
23
330
1B
100
AcDbEntity
67
0
8
layer 1
62
2
6
ByLayer
370
-1
48
1.0
60
0
100
AcDbPolyline
90
4
70
1
38
0.0
39
0.0
10
10.0
20
50.0
40
0.0
41
0.0
42
0.0
10
20.0
20
50.0
40
0.0
41
0.0
42
0.0
10
20.0
20
60.0
40
0.0
41
0.0
42
0.0
10
10.0
20
60.0
40
0.0
41
0.0
42
0.0
210
0.0
220
0.0
230
1.0
0
HATCH
5
25
330
1B
100
AcDbEntity
67
0
8
layer 1
62
4
6
ByLayer
370
0
48
1.0
60
0
100
AcDbHatch
10
0.0
20
0.0
30
0.0
210
0.0
220
0.0
230
1.0
2
LINE
70
0
71
1
91
1
92
7
72
1
73
1
93
4
10
10.0
20
50.0
42
0.0
10
20.0
20
50.0
42
0.0
10
20.0
20
60.0
42
0.0
10
10.0
20
60.0
42
0.0
97
1
330
24
75
0
76
0
52
45.0
41
0.5
77
0
78
0
47
0.0
98
1
10
0.0
20
0.0
1001
ACAD
1010
0.0
1020
0.0
1030
0.0
0
LWPOLYLINE
5
24
102
{ACAD_REACTORS
330
25
102
}
330
1B
100
AcDbEntity
67
0
8
layer 1
62
4
6
ByLayer
370
13
48
1.0
60
0
100
AcDbPolyline
90
4
70
1
38
0.0
39
0.0
10
10.0
20
50.0
40
0.0
41
0.0
42
0.0
10
20.0
20
50.0
40
0.0
41
0.0
42
0.0
10
20.0
20
60.0
40
0.0
41
0.0
42
0.0
10
10.0
20
60.0
40
0.0
41
0.0
42
0.0
210
0.0
220
0.0
230
1.0
0
LWPOLYLINE
5
30
330
1B
100
AcDbEntity
67
0
8
layer 2
62
3
6
ByLayer
370
-1
48
1.0
60
0
100
AcDbPolyline
90
4
70
1
38
0.0
39
0.0
10
50.0
20
50.0
40
0.0
41
0.0
42
0.0
10
60.0
20
50.0
40
0.0
41
0.0
42
0.0
10
60.0
20
60.0
40
0.0
41
0.0
42
0.0
10
50.0
20
60.0
40
0.0
41
0.0
42
0.0
210
0.0
220
0.0
230
1.0
0
LWPOLYLINE
5
32
330
1B
100
AcDbEntity
67
0
8
layer 2
62
2
6
ByLayer
370
-1
48
1.0
60
0
100
AcDbPolyline
90
4
70
1
38
0.0
39
0.0
10
40.0
20
50.0
40
0.0
41
0.0
42
0.0
10
50.0
20
50.0
40
0.0
41
0.0
42
0.0
10
50.0
20
60.0
40
0.0
41
0.0
42
0.0
10
40.0
20
60.0
40
0.0
41
0.0
42
0.0
210
0.0
220
0.0
230
1.0
0
HATCH
5
34
330
1B
100
AcDbEntity
67
0
8
layer 2
62
4
6
ByLayer
370
0
48
1.0
60
0
100
AcDbHatch
10
0.0
20
0.0
30
0.0
210
0.0
220
0.0
230
1.0
2
LINE
70
0
71
1
91
1
92
7
72
1
73
1
93
4
10
40.0
20
50.0
42
0.0
10
50.0
20
50.0
42
0.0
10
50.0
20
60.0
42
0.0
10
40.0
20
60.0
42
0.0
97
1
330
33
75
0
76
0
52
45.0
41
0.5
77
0
78
0
47
0.0
98
1
10
0.0
20
0.0
1001
ACAD
1010
0.0
1020
0.0
1030
0.0
0
LWPOLYLINE
5
33
102
{ACAD_REACTORS
330
34
102
}
330
1B
100
AcDbEntity
67
0
8
layer 2
62
4
6
ByLayer
370
13
48
1.0
60
0
100
AcDbPolyline
90
4
70
1
38
0.0
39
0.0
10
40.0
20
50.0
40
0.0
41
0.0
42
0.0
10
50.0
20
50.0
40
0.0
41
0.0
42
0.0
10
50.0
20
60.0
40
0.0
41
0.0
42
0.0
10
40.0
20
60.0
40
0.0
41
0.0
42
0.0
210
0.0
220
0.0
230
1.0
0
LWPOLYLINE
5
36
330
1B
100
AcDbEntity
67
0
8
layer 3
62
3
6
ByLayer
370
-1
48
1.0
60
0
100
AcDbPolyline
90
4
70
1
38
0.0
39
0.0
10
70.0
20
50.0
40
0.0
41
0.0
42
0.0
10
80.0
20
50.0
40
0.0
41
0.0
42
0.0
10
80.0
20
60.0
40
0.0
41
0.0
42
0.0
10
70.0
20
60.0
40
0.0
41
0.0
42
0.0
210
0.0
220
0.0
230
1.0
0
LWPOLYLINE
5
38
330
1B
100
AcDbEntity
67
0
8
layer 3
62
2
6
ByLayer
370
-1
48
1.0
60
0
100
AcDbPolyline
90
4
70
1
38
0.0
39
0.0
10
70.0
20
50.0
40
0.0
41
0.0
42
0.0
10
80.0
20
50.0
40
0.0
41
0.0
42
0.0
10
80.0
20
60.0
40
0.0
41
0.0
42
0.0
10
70.0
20
60.0
40
0.0
41
0.0
42
0.0
210
0.0
220
0.0
230
1.0
0
LWPOLYLINE
5
3A
330
1B
100
AcDbEntity
67
0
8
layer 4
62
3
6
ByLayer
370
-1
48
1.0
60
0
100
AcDbPolyline
90
4
70
1
38
0.0
39
0.0
10
92.0
20
52.0
40
0.0
41
0.0
42
0.0
10
98.0
20
52.0
40
0.0
41
0.0
42
0.0
10
98.0
20
58.0
40
0.0
41
0.0
42
0.0
10
92.0
20
58.0
40
0.0
41
0.0
42
0.0
210
0.0
220
0.0
230
1.0
0
LWPOLYLINE
5
3C
330
1B
100
AcDbEntity
67
0
8
layer 4
62
2
6
ByLayer
370
-1
48
1.0
60
0
100
AcDbPolyline
90
4
70
1
38
0.0
39
0.0
10
90.0
20
50.0
40
0.0
41
0.0
42
0.0
10
100.0
20
50.0
40
0.0
41
0.0
42
0.0
10
100.0
20
60.0
40
0.0
41
0.0
42
0.0
10
90.0
20
60.0
40
0.0
41
0.0
42
0.0
210
0.0
220
0.0
230
1.0
0
HATCH
5
3F
330
1B
100
AcDbEntity
67
0
8
layer 4
62
4
6
ByLayer
370
0
48
1.0
60
0
100
AcDbHatch
10
0.0
20
0.0
30
0.0
210
0.0
220
0.0
230
1.0
2
LINE
70
0
71
1
91
2
92
7
72
1
73
1
93
4
10
90.0
20
50.0
42
0.0
10
100.0
20
50.0
42
0.0
10
100.0
20
60.0
42
0.0
10
90.0
20
60.0
42
0.0
97
1
330
3D
92
7
72
1
73
1
93
4
10
92.0
20
52.0
42
0.0
10
98.0
20
52.0
42
0.0
10
98.0
20
58.0
42
0.0
10
92.0
20
58.0
42
0.0
97
1
330
3E
75
0
76
0
52
45.0
41
0.5
77
0
78
0
47
0.0
98
1
10
0.0
20
0.0
1001
ACAD
1010
0.0
1020
0.0
1030
0.0
0
LWPOLYLINE
5
3D
102
{ACAD_REACTORS
330
3F
102
}
330
1B
100
AcDbEntity
67
0
8
layer 4
62
4
6
ByLayer
370
13
48
1.0
60
0
100
AcDbPolyline
90
4
70
1
38
0.0
39
0.0
10
90.0
20
50.0
40
0.0
41
0.0
42
0.0
10
100.0
20
50.0
40
0.0
41
0.0
42
0.0
10
100.0
20
60.0
40
0.0
41
0.0
42
0.0
10
90.0
20
60.0
40
0.0
41
0.0
42
0.0
210
0.0
220
0.0
230
1.0
0
LWPOLYLINE
5
3E
102
{ACAD_REACTORS
330
3F
102
}
330
1B
100
AcDbEntity
67
0
8
layer 4
62
4
6
ByLayer
370
13
48
1.0
60
0
100
AcDbPolyline
90
4
70
1
38
0.0
39
0.0
10
92.0
20
52.0
40
0.0
41
0.0
42
0.0
10
98.0
20
52.0
40
0.0
41
0.0
42
0.0
10
98.0
20
58.0
40
0.0
41
0.0
42
0.0
10
92.0
20
58.0
40
0.0
41
0.0
42
0.0
210
0.0
220
0.0
230
1.0
0
LWPOLYLINE
5
41
330
1B
100
AcDbEntity
67
0
8
layer 5
62
3
6
ByLayer
370
-1
48
1.0
60
0
100
AcDbPolyline
90
4
70
1
38
0.0
39
0.0
10
18.0
20
30.0
40
0.0
41
0.0
42
0.0
10
28.0
20
30.0
40
0.0
41
0.0
42
0.0
10
28.0
20
40.0
40
0.0
41
0.0
42
0.0
10
18.0
20
40.0
40
0.0
41
0.0
42
0.0
210
0.0
220
0.0
230
1.0
0
LWPOLYLINE
5
43
330
1B
100
AcDbEntity
67
0
8
layer 5
62
2
6
ByLayer
370
-1
48
1.0
60
0
100
AcDbPolyline
90
4
70
1
38
0.0
39
0.0
10
10.0
20
30.0
40
0.0
41
0.0
42
0.0
10
20.0
20
30.0
40
0.0
41
0.0
42
0.0
10
20.0
20
40.0
40
0.0
41
0.0
42
0.0
10
10.0
20
40.0
40
0.0
41
0.0
42
0.0
210
0.0
220
0.0
230
1.0
0
HATCH
5
45
330
1B
100
AcDbEntity
67
0
8
layer 5
62
4
6
ByLayer
370
0
48
1.0
60
0
100
AcDbHatch
10
0.0
20
0.0
30
0.0
210
0.0
220
0.0
230
1.0
2
LINE
70
0
71
1
91
1
92
7
72
1
73
1
93
4
10
18.0
20
30.0
42
0.0
10
10.0
20
30.0
42
0.0
10
10.0
20
40.0
42
0.0
10
18.0
20
40.0
42
0.0
97
1
330
44
75
0
76
0
52
45.0
41
0.5
77
0
78
0
47
0.0
98
1
10
0.0
20
0.0
1001
ACAD
1010
0.0
1020
0.0
1030
0.0
0
LWPOLYLINE
5
44
102
{ACAD_REACTORS
330
45
102
}
330
1B
100
AcDbEntity
67
0
8
layer 5
62
4
6
ByLayer
370
13
48
1.0
60
0
100
AcDbPolyline
90
4
70
1
38
0.0
39
0.0
10
18.0
20
30.0
40
0.0
41
0.0
42
0.0
10
10.0
20
30.0
40
0.0
41
0.0
42
0.0
10
10.0
20
40.0
40
0.0
41
0.0
42
0.0
10
18.0
20
40.0
40
0.0
41
0.0
42
0.0
210
0.0
220
0.0
230
1.0
0
LWPOLYLINE
5
47
330
1B
100
AcDbEntity
67
0
8
layer 6
62
3
6
ByLayer
370
-1
48
1.0
60
0
100
AcDbPolyline
90
4
70
1
38
0.0
39
0.0
10
48.0
20
28.0
40
0.0
41
0.0
42
0.0
10
58.0
20
28.0
40
0.0
41
0.0
42
0.0
10
58.0
20
38.0
40
0.0
41
0.0
42
0.0
10
48.0
20
38.0
40
0.0
41
0.0
42
0.0
210
0.0
220
0.0
230
1.0
0
LWPOLYLINE
5
49
330
1B
100
AcDbEntity
67
0
8
layer 6
62
2
6
ByLayer
370
-1
48
1.0
60
0
100
AcDbPolyline
90
4
70
1
38
0.0
39
0.0
10
40.0
20
30.0
40
0.0
41
0.0
42
0.0
10
50.0
20
30.0
40
0.0
41
0.0
42
0.0
10
50.0
20
40.0
40
0.0
41
0.0
42
0.0
10
40.0
20
40.0
40
0.0
41
0.0
42
0.0
210
0.0
220
0.0
230
1.0
0
HATCH
5
4B
330
1B
100
AcDbEntity
67
0
8
layer 6
62
4
6
ByLayer
370
0
48
1.0
60
0
100
AcDbHatch
10
0.0
20
0.0
30
0.0
210
0.0
220
0.0
230
1.0
2
LINE
70
0
71
1
91
1
92
7
72
1
73
1
93
6
10
48.0
20
30.0
42
0.0
10
40.0
20
30.0
42
0.0
10
40.0
20
40.0
42
0.0
10
50.0
20
40.0
42
0.0
10
50.0
20
38.0
42
0.0
10
48.0
20
38.0
42
0.0
97
1
330
4A
75
0
76
0
52
45.0
41
0.5
77
0
78
0
47
0.0
98
1
10
0.0
20
0.0
1001
ACAD
1010
0.0
1020
0.0
1030
0.0
0
LWPOLYLINE
5
4A
102
{ACAD_REACTORS
330
4B
102
}
330
1B
100
AcDbEntity
67
0
8
layer 6
62
4
6
ByLayer
370
13
48
1.0
60
0
100
AcDbPolyline
90
6
70
1
38
0.0
39
0.0
10
48.0
20
30.0
40
0.0
41
0.0
42
0.0
10
40.0
20
30.0
40
0.0
41
0.0
42
0.0
10
40.0
20
40.0
40
0.0
41
0.0
42
0.0
10
50.0
20
40.0
40
0.0
41
0.0
42
0.0
10
50.0
20
38.0
40
0.0
41
0.0
42
0.0
10
48.0
20
38.0
40
0.0
41
0.0
42
0.0
210
0.0
220
0.0
230
1.0
0
LWPOLYLINE
5
4D
330
1B
100
AcDbEntity
67
0
8
layer 7
62
3
6
ByLayer
370
-1
48
1.0
60
0
100
AcDbPolyline
90
8
70
1
38
0.0
39
0.0
10
67.0
20
38.0
40
0.0
41
0.0
42
0.0
10
84.0
20
38.0
40
0.0
41
0.0
42
0.0
10
84.0
20
36.0
40
0.0
41
0.0
42
0.0
10
69.0
20
36.0
40
0.0
41
0.0
42
0.0
10
69.0
20
34.0
40
0.0
41
0.0
42
0.0
10
84.0
20
34.0
40
0.0
41
0.0
42
0.0
10
84.0
20
32.0
40
0.0
41
0.0
42
0.0
10
67.0
20
32.0
40
0.0
41
0.0
42
0.0
210
0.0
220
0.0
230
1.0
0
LWPOLYLINE
5
4F
330
1B
100
AcDbEntity
67
0
8
layer 7
62
2
6
ByLayer
370
-1
48
1.0
60
0
100
AcDbPolyline
90
4
70
1
38
0.0
39
0.0
10
70.0
20
30.0
40
0.0
41
0.0
42
0.0
10
80.0
20
30.0
40
0.0
41
0.0
42
0.0
10
80.0
20
40.0
40
0.0
41
0.0
42
0.0
10
70.0
20
40.0
40
0.0
41
0.0
42
0.0
210
0.0
220
0.0
230
1.0
0
HATCH
5
51
330
1B
100
AcDbEntity
67
0
8
layer 7
62
4
6
ByLayer
370
0
48
1.0
60
0
100
AcDbHatch
10
0.0
20
0.0
30
0.0
210
0.0
220
0.0
230
1.0
2
LINE
70
0
71
1
91
1
92
7
72
1
73
1
93
4
10
80.0
20
38.0
42
0.0
10
80.0
20
40.0
42
0.0
10
70.0
20
40.0
42
0.0
10
70.0
20
38.0
42
0.0
97
1
330
50
75
0
76
0
52
45.0
41
0.5
77
0
78
0
47
0.0
98
1
10
0.0
20
0.0
1001
ACAD
1010
0.0
1020
0.0
1030
0.0
0
LWPOLYLINE
5
50
102
{ACAD_REACTORS
330
51
102
}
330
1B
100
AcDbEntity
67
0
8
layer 7
62
4
6
ByLayer
370
13
48
1.0
60
0
100
AcDbPolyline
90
4
70
1
38
0.0
39
0.0
10
80.0
20
38.0
40
0.0
41
0.0
42
0.0
10
80.0
20
40.0
40
0.0
41
0.0
42
0.0
10
70.0
20
40.0
40
0.0
41
0.0
42
0.0
10
70.0
20
38.0
40
0.0
41
0.0
42
0.0
210
0.0
220
0.0
230
1.0
0
HATCH
5
53
330
1B
100
AcDbEntity
67
0
8
layer 7
62
4
6
ByLayer
370
0
48
1.0
60
0
100
AcDbHatch
10
0.0
20
0.0
30
0.0
210
0.0
220
0.0
230
1.0
2
LINE
70
0
71
1
91
1
92
7
72
1
73
1
93
4
10
80.0
20
36.0
42
0.0
10
80.0
20
34.0
42
0.0
10
70.0
20
34.0
42
0.0
10
70.0
20
36.0
42
0.0
97
1
330
52
75
0
76
0
52
45.0
41
0.5
77
0
78
0
47
0.0
98
1
10
0.0
20
0.0
1001
ACAD
1010
0.0
1020
0.0
1030
0.0
0
LWPOLYLINE
5
52
102
{ACAD_REACTORS
330
53
102
}
330
1B
100
AcDbEntity
67
0
8
layer 7
62
4
6
ByLayer
370
13
48
1.0
60
0
100
AcDbPolyline
90
4
70
1
38
0.0
39
0.0
10
80.0
20
36.0
40
0.0
41
0.0
42
0.0
10
80.0
20
34.0
40
0.0
41
0.0
42
0.0
10
70.0
20
34.0
40
0.0
41
0.0
42
0.0
10
70.0
20
36.0
40
0.0
41
0.0
42
0.0
210
0.0
220
0.0
230
1.0
0
HATCH
5
55
330
1B
100
AcDbEntity
67
0
8
layer 7
62
4
6
ByLayer
370
0
48
1.0
60
0
100
AcDbHatch
10
0.0
20
0.0
30
0.0
210
0.0
220
0.0
230
1.0
2
LINE
70
0
71
1
91
1
92
7
72
1
73
1
93
4
10
80.0
20
32.0
42
0.0
10
80.0
20
30.0
42
0.0
10
70.0
20
30.0
42
0.0
10
70.0
20
32.0
42
0.0
97
1
330
54
75
0
76
0
52
45.0
41
0.5
77
0
78
0
47
0.0
98
1
10
0.0
20
0.0
1001
ACAD
1010
0.0
1020
0.0
1030
0.0
0
LWPOLYLINE
5
54
102
{ACAD_REACTORS
330
55
102
}
330
1B
100
AcDbEntity
67
0
8
layer 7
62
4
6
ByLayer
370
13
48
1.0
60
0
100
AcDbPolyline
90
4
70
1
38
0.0
39
0.0
10
80.0
20
32.0
40
0.0
41
0.0
42
0.0
10
80.0
20
30.0
40
0.0
41
0.0
42
0.0
10
70.0
20
30.0
40
0.0
41
0.0
42
0.0
10
70.0
20
32.0
40
0.0
41
0.0
42
0.0
210
0.0
220
0.0
230
1.0
0
LWPOLYLINE
5
57
330
1B
100
AcDbEntity
67
0
8
layer 8
62
3
6
ByLayer
370
-1
48
1.0
60
0
100
AcDbPolyline
90
4
70
1
38
0.0
39
0.0
10
21.0
20
10.0
40
0.0
41
0.0
42
0.0
10
31.0
20
10.0
40
0.0
41
0.0
42
0.0
10
31.0
20
20.0
40
0.0
41
0.0
42
0.0
10
21.0
20
20.0
40
0.0
41
0.0
42
0.31265021563387
210
0.0
220
0.0
230
1.0
0
LWPOLYLINE
5
59
330
1B
100
AcDbEntity
67
0
8
layer 8
62
2
6
ByLayer
370
-1
48
1.0
60
0
100
AcDbPolyline
90
4
70
1
38
0.0
39
0.0
10
10.0
20
10.0
40
0.0
41
0.0
42
0.0
10
20.0
20
10.0
40
0.0
41
0.0
42
-0.31265021563387
10
20.0
20
20.0
40
0.0
41
0.0
42
0.0
10
10.0
20
20.0
40
0.0
41
0.0
42
0.0
210
0.0
220
0.0
230
1.0
0
HATCH
5
5B
330
1B
100
AcDbEntity
67
0
8
layer 8
62
4
6
ByLayer
370
0
48
1.0
60
0
100
AcDbHatch
10
0.0
20
0.0
30
0.0
210
0.0
220
0.0
230
1.0
2
LINE
70
0
71
1
91
1
92
7
72
1
73
1
93
4
10
10.0
20
10.0
42
0.0
10
20.0
20
10.0
42
-0.31265021563387
10
20.0
20
20.0
42
0.0
10
10.0
20
20.0
42
0.0
97
1
330
5A
75
0
76
0
52
45.0
41
0.5
77
0
78
0
47
0.0
98
1
10
0.0
20
0.0
1001
ACAD
1010
0.0
1020
0.0
1030
0.0
0
LWPOLYLINE
5
5A
102
{ACAD_REACTORS
330
5B
102
}
330
1B
100
AcDbEntity
67
0
8
layer 8
62
4
6
ByLayer
370
13
48
1.0
60
0
100
AcDbPolyline
90
4
70
1
38
0.0
39
0.0
10
10.0
20
10.0
40
0.0
41
0.0
42
0.0
10
20.0
20
10.0
40
0.0
41
0.0
42
-0.31265021563387
10
20.0
20
20.0
40
0.0
41
0.0
42
0.0
10
10.0
20
20.0
40
0.0
41
0.0
42
0.0
210
0.0
220
0.0
230
1.0
0
LWPOLYLINE
5
5D
330
1B
100
AcDbEntity
67
0
8
layer 9
62
3
6
ByLayer
370
-1
48
1.0
60
0
100
AcDbPolyline
90
4
70
1
38
0.0
39
0.0
10
50.0
20
10.0
40
0.0
41
0.0
42
0.0
10
60.0
20
10.0
40
0.0
41
0.0
42
0.0
10
60.0
20
20.0
40
0.0
41
0.0
42
0.0
10
50.0
20
20.0
40
0.0
41
0.0
42
0.31265021563387
210
0.0
220
0.0
230
1.0
0
LWPOLYLINE
5
5F
330
1B
100
AcDbEntity
67
0
8
layer 9
62
2
6
ByLayer
370
-1
48
1.0
60
0
100
AcDbPolyline
90
4
70
1
38
0.0
39
0.0
10
40.0
20
10.0
40
0.0
41
0.0
42
0.0
10
50.0
20
10.0
40
0.0
41
0.0
42
-0.31265021563387
10
50.0
20
20.0
40
0.0
41
0.0
42
0.0
10
40.0
20
20.0
40
0.0
41
0.0
42
0.0
210
0.0
220
0.0
230
1.0
0
HATCH
5
61
330
1B
100
AcDbEntity
67
0
8
layer 9
62
4
6
ByLayer
370
0
48
1.0
60
0
100
AcDbHatch
10
0.0
20
0.0
30
0.0
210
0.0
220
0.0
230
1.0
2
LINE
70
0
71
1
91
1
92
7
72
1
73
1
93
4
10
40.0
20
10.0
42
0.0
10
50.0
20
10.0
42
-0.31265021563387
10
50.0
20
20.0
42
0.0
10
40.0
20
20.0
42
0.0
97
1
330
60
75
0
76
0
52
45.0
41
0.5
77
0
78
0
47
0.0
98
1
10
0.0
20
0.0
1001
ACAD
1010
0.0
1020
0.0
1030
0.0
0
LWPOLYLINE
5
60
102
{ACAD_REACTORS
330
61
102
}
330
1B
100
AcDbEntity
67
0
8
layer 9
62
4
6
ByLayer
370
13
48
1.0
60
0
100
AcDbPolyline
90
4
70
1
38
0.0
39
0.0
10
40.0
20
10.0
40
0.0
41
0.0
42
0.0
10
50.0
20
10.0
40
0.0
41
0.0
42
-0.31265021563387
10
50.0
20
20.0
40
0.0
41
0.0
42
0.0
10
40.0
20
20.0
40
0.0
41
0.0
42
0.0
210
0.0
220
0.0
230
1.0
0
LWPOLYLINE
5
63
330
1B
100
AcDbEntity
67
0
8
layer 10
62
3
6
ByLayer
370
-1
48
1.0
60
0
100
AcDbPolyline
90
4
70
1
38
0.0
39
0.0
10
70.0
20
10.0
40
0.0
41
0.0
42
0.0
10
80.0
20
10.0
40
0.0
41
0.0
42
0.0
10
80.0
20
20.0
40
0.0
41
0.0
42
0.0
10
70.0
20
20.0
40
0.0
41
0.0
42
0.31265021563387
210
0.0
220
0.0
230
1.0
0
LWPOLYLINE
5
65
330
1B
100
AcDbEntity
67
0
8
layer 10
62
2
6
ByLayer
370
-1
48
1.0
60
0
100
AcDbPolyline
90
4
70
1
38
0.0
39
0.0
10
70.0
20
10.0
40
0.0
41
0.0
42
0.0
10
80.0
20
10.0
40
0.0
41
0.0
42
0.0
10
80.0
20
20.0
40
0.0
41
0.0
42
0.0
10
70.0
20
20.0
40
0.0
41
0.0
42
0.31265021563387
210
0.0
220
0.0
230
1.0
0
LWPOLYLINE
5
67
330
1B
100
AcDbEntity
67
0
8
layer 11
62
3
6
ByLayer
370
-1
48
1.0
60
0
100
AcDbPolyline
90
4
70
1
38
0.0
39
0.0
10
91.0
20
12.0
40
0.0
41
0.0
42
0.0
10
98.0
20
12.0
40
0.0
41
0.0
42
0.0
10
98.0
20
18.0
40
0.0
41
0.0
42
0.0
10
91.0
20
18.0
40
0.0
41
0.0
42
0.312650215633871
210
0.0
220
0.0
230
1.0
0
LWPOLYLINE
5
69
330
1B
100
AcDbEntity
67
0
8
layer 11
62
2
6
ByLayer
370
-1
48
1.0
60
0
100
AcDbPolyline
90
4
70
1
38
0.0
39
0.0
10
90.0
20
10.0
40
0.0
41
0.0
42
0.0
10
100.0
20
10.0
40
0.0
41
0.0
42
0.0
10
100.0
20
20.0
40
0.0
41
0.0
42
0.0
10
90.0
20
20.0
40
0.0
41
0.0
42
0.31265021563387
210
0.0
220
0.0
230
1.0
0
HATCH
5
6C
330
1B
100
AcDbEntity
67
0
8
layer 11
62
4
6
ByLayer
370
0
48
1.0
60
0
100
AcDbHatch
10
0.0
20
0.0
30
0.0
210
0.0
220
0.0
230
1.0
2
LINE
70
0
71
1
91
2
92
7
72
1
73
1
93
4
10
90.0
20
10.0
42
0.0
10
100.0
20
10.0
42
0.0
10
100.0
20
20.0
42
0.0
10
90.0
20
20.0
42
0.31265021563387
97
1
330
6A
92
7
72
1
73
1
93
4
10
91.0
20
12.0
42
0.0
10
98.0
20
12.0
42
0.0
10
98.0
20
18.0
42
0.0
10
91.0
20
18.0
42
0.312650215633871
97
1
330
6B
75
0
76
0
52
45.0
41
0.5
77
0
78
0
47
0.0
98
1
10
0.0
20
0.0
1001
ACAD
1010
0.0
1020
0.0
1030
0.0
0
LWPOLYLINE
5
6A
102
{ACAD_REACTORS
330
6C
102
}
330
1B
100
AcDbEntity
67
0
8
layer 11
62
4
6
ByLayer
370
13
48
1.0
60
0
100
AcDbPolyline
90
4
70
1
38
0.0
39
0.0
10
90.0
20
10.0
40
0.0
41
0.0
42
0.0
10
100.0
20
10.0
40
0.0
41
0.0
42
0.0
10
100.0
20
20.0
40
0.0
41
0.0
42
0.0
10
90.0
20
20.0
40
0.0
41
0.0
42
0.31265021563387
210
0.0
220
0.0
230
1.0
0
LWPOLYLINE
5
6B
102
{ACAD_REACTORS
330
6C
102
}
330
1B
100
AcDbEntity
67
0
8
layer 11
62
4
6
ByLayer
370
13
48
1.0
60
0
100
AcDbPolyline
90
4
70
1
38
0.0
39
0.0
10
91.0
20
12.0
40
0.0
41
0.0
42
0.0
10
98.0
20
12.0
40
0.0
41
0.0
42
0.0
10
98.0
20
18.0
40
0.0
41
0.0
42
0.0
10
91.0
20
18.0
40
0.0
41
0.0
42
0.312650215633871
210
0.0
220
0.0
230
1.0
0
LWPOLYLINE
5
6E
330
1B
100
AcDbEntity
67
0
8
layer 12
62
3
6
ByLayer
370
-1
48
1.0
60
0
100
AcDbPolyline
90
4
70
1
38
0.0
39
0.0
10
18.0
20
-10.0
40
0.0
41
0.0
42
0.0
10
28.0
20
-10.0
40
0.0
41
0.0
42
0.0
10
28.0
20
0.0
40
0.0
41
0.0
42
0.0
10
18.0
20
-0.0000000000000009
40
0.0
41
0.0
42
0.31265021563387
210
0.0
220
0.0
230
1.0
0
LWPOLYLINE
5
70
330
1B
100
AcDbEntity
67
0
8
layer 12
62
2
6
ByLayer
370
-1
48
1.0
60
0
100
AcDbPolyline
90
4
70
1
38
0.0
39
0.0
10
10.0
20
-10.0
40
0.0
41
0.0
42
0.0
10
20.0
20
-10.0
40
0.0
41
0.0
42
-0.31265021563387
10
20.0
20
0.0
40
0.0
41
0.0
42
0.0
10
10.0
20
0.0
40
0.0
41
0.0
42
0.0
210
0.0
220
0.0
230
1.0
0
HATCH
5
72
330
1B
100
AcDbEntity
67
0
8
layer 12
62
4
6
ByLayer
370
0
48
1.0
60
0
100
AcDbHatch
10
0.0
20
0.0
30
0.0
210
0.0
220
0.0
230
1.0
2
LINE
70
0
71
1
91
1
92
7
72
1
73
1
93
4
10
18.0
20
-10.0
42
0.0
10
10.0
20
-10.0
42
0.0
10
10.0
20
0.0
42
0.0
10
18.0
20
-0.0000000000000009
42
0.31265021563387
97
1
330
71
75
0
76
0
52
45.0
41
0.5
77
0
78
0
47
0.0
98
1
10
0.0
20
0.0
1001
ACAD
1010
0.0
1020
0.0
1030
0.0
0
LWPOLYLINE
5
71
102
{ACAD_REACTORS
330
72
102
}
330
1B
100
AcDbEntity
67
0
8
layer 12
62
4
6
ByLayer
370
13
48
1.0
60
0
100
AcDbPolyline
90
4
70
1
38
0.0
39
0.0
10
18.0
20
-10.0
40
0.0
41
0.0
42
0.0
10
10.0
20
-10.0
40
0.0
41
0.0
42
0.0
10
10.0
20
0.0
40
0.0
41
0.0
42
0.0
10
18.0
20
-0.0000000000000009
40
0.0
41
0.0
42
0.31265021563387
210
0.0
220
0.0
230
1.0
0
LWPOLYLINE
5
74
330
1B
100
AcDbEntity
67
0
8
layer 13
62
3
6
ByLayer
370
-1
48
1.0
60
0
100
AcDbPolyline
90
4
70
1
38
0.0
39
0.0
10
48.0
20
-12.0
40
0.0
41
0.0
42
0.0
10
58.0
20
-12.0
40
0.0
41
0.0
42
0.0
10
58.0
20
-2.0
40
0.0
41
0.0
42
0.0
10
48.0
20
-2.0
40
0.0
41
0.0
42
0.31265021563387
210
0.0
220
0.0
230
1.0
0
LWPOLYLINE
5
76
330
1B
100
AcDbEntity
67
0
8
layer 13
62
2
6
ByLayer
370
-1
48
1.0
60
0
100
AcDbPolyline
90
4
70
1
38
0.0
39
0.0
10
40.0
20
-10.0
40
0.0
41
0.0
42
0.0
10
50.0
20
-10.0
40
0.0
41
0.0
42
-0.31265021563387
10
50.0
20
0.0
40
0.0
41
0.0
42
0.0
10
40.0
20
0.0
40
0.0
41
0.0
42
0.0
210
0.0
220
0.0
230
1.0
0
HATCH
5
78
330
1B
100
AcDbEntity
67
0
8
layer 13
62
4
6
ByLayer
370
0
48
1.0
60
0
100
AcDbHatch
10
0.0
20
0.0
30
0.0
210
0.0
220
0.0
230
1.0
2
LINE
70
0
71
1
91
1
92
7
72
1
73
1
93
6
10
46.965321462836
20
-10.0
42
0.0
10
40.0
20
-10.0
42
0.0
10
40.0
20
0.0
42
0.0
10
50.0
20
0.0000000000000009
42
0.0643992160784996
10
48.965321462836
20
-2.0
42
0.0
10
48.0
20
-2.0
42
0.243351260920535
97
1
330
77
75
0
76
0
52
45.0
41
0.5
77
0
78
0
47
0.0
98
1
10
0.0
20
0.0
1001
ACAD
1010
0.0
1020
0.0
1030
0.0
0
LWPOLYLINE
5
77
102
{ACAD_REACTORS
330
78
102
}
330
1B
100
AcDbEntity
67
0
8
layer 13
62
4
6
ByLayer
370
13
48
1.0
60
0
100
AcDbPolyline
90
6
70
1
38
0.0
39
0.0
10
46.965321462836
20
-10.0
40
0.0
41
0.0
42
0.0
10
40.0
20
-10.0
40
0.0
41
0.0
42
0.0
10
40.0
20
0.0
40
0.0
41
0.0
42
0.0
10
50.0
20
0.0000000000000009
40
0.0
41
0.0
42
0.0643992160784996
10
48.965321462836
20
-2.0
40
0.0
41
0.0
42
0.0
10
48.0
20
-2.0
40
0.0
41
0.0
42
0.243351260920535
210
0.0
220
0.0
230
1.0
0
LWPOLYLINE
5
7A
330
1B
100
AcDbEntity
67
0
8
layer 14
62
3
6
ByLayer
370
-1
48
1.0
60
0
100
AcDbPolyline
90
8
70
1
38
0.0
39
0.0
10
67.0
20
-2.0
40
0.0
41
0.0
42
-0.118049940810346
10
84.0
20
-2.0
40
0.0
41
0.0
42
0.0
10
84.0
20
-4.0
40
0.0
41
0.0
42
0.0
10
69.0
20
-4.0
40
0.0
41
0.0
42
0.0
10
69.0
20
-6.0
40
0.0
41
0.0
42
0.0
10
84.0
20
-6.0
40
0.0
41
0.0
42
0.0
10
84.0
20
-8.00000000000001
40
0.0
41
0.0
42
-0.118049940810346
10
67.0
20
-8.0
40
0.0
41
0.0
42
0.0
210
0.0
220
0.0
230
1.0
0
LWPOLYLINE
5
7C
330
1B
100
AcDbEntity
67
0
8
layer 14
62
2
6
ByLayer
370
-1
48
1.0
60
0
100
AcDbPolyline
90
4
70
1
38
0.0
39
0.0
10
70.0
20
-10.0
40
0.0
41
0.0
42
0.0
10
80.0
20
-10.0
40
0.0
41
0.0
42
-0.31265021563387
10
80.0
20
0.0
40
0.0
41
0.0
42
0.0
10
70.0
20
0.0
40
0.0
41
0.0
42
0.0
210
0.0
220
0.0
230
1.0
0
HATCH
5
7E
330
1B
100
AcDbEntity
67
0
8
layer 14
62
4
6
ByLayer
370
0
48
1.0
60
0
100
AcDbHatch
10
0.0
20
0.0
30
0.0
210
0.0
220
0.0
230
1.0
2
LINE
70
0
71
1
91
1
92
7
72
1
73
1
93
4
10
79.304157127562
20
-1.19533929990781
42
-0.0394540874249322
10
80.0
20
0.0
42
0.0
10
70.0
20
0.0
42
0.0
10
70.0
20
-1.41329884846775
42
-0.0639996779073499
97
1
330
7D
75
0
76
0
52
45.0
41
0.5
77
0
78
0
47
0.0
98
1
10
0.0
20
0.0
1001
ACAD
1010
0.0
1020
0.0
1030
0.0
0
LWPOLYLINE
5
7D
102
{ACAD_REACTORS
330
7E
102
}
330
1B
100
AcDbEntity
67
0
8
layer 14
62
4
6
ByLayer
370
13
48
1.0
60
0
100
AcDbPolyline
90
4
70
1
38
0.0
39
0.0
10
79.304157127562
20
-1.19533929990781
40
0.0
41
0.0
42
-0.0394540874249322
10
80.0
20
0.0
40
0.0
41
0.0
42
0.0
10
70.0
20
0.0
40
0.0
41
0.0
42
0.0
10
70.0
20
-1.41329884846775
40
0.0
41
0.0
42
-0.0639996779073499
210
0.0
220
0.0
230
1.0
0
HATCH
5
80
330
1B
100
AcDbEntity
67
0
8
layer 14
62
4
6
ByLayer
370
0
48
1.0
60
0
100
AcDbHatch
10
0.0
20
0.0
30
0.0
210
0.0
220
0.0
230
1.0
2
LINE
70
0
71
1
91
1
92
7
72
1
73
1
93
4
10
78.4938969526595
20
-3.99999999999999
42
0.0571480308288164
10
78.4938969526595
20
-6.0
42
0.0
10
70.0
20
-6.0
42
0.0
10
70.0
20
-4.0
42
0.0
97
1
330
7F
75
0
76
0
52
45.0
41
0.5
77
0
78
0
47
0.0
98
1
10
0.0
20
0.0
1001
ACAD
1010
0.0
1020
0.0
1030
0.0
0
LWPOLYLINE
5
7F
102
{ACAD_REACTORS
330
80
102
}
330
1B
100
AcDbEntity
67
0
8
layer 14
62
4
6
ByLayer
370
13
48
1.0
60
0
100
AcDbPolyline
90
4
70
1
38
0.0
39
0.0
10
78.4938969526595
20
-3.99999999999999
40
0.0
41
0.0
42
0.0571480308288164
10
78.4938969526595
20
-6.0
40
0.0
41
0.0
42
0.0
10
70.0
20
-6.0
40
0.0
41
0.0
42
0.0
10
70.0
20
-4.0
40
0.0
41
0.0
42
0.0
210
0.0
220
0.0
230
1.0
0
HATCH
5
82
330
1B
100
AcDbEntity
67
0
8
layer 14
62
4
6
ByLayer
370
0
48
1.0
60
0
100
AcDbHatch
10
0.0
20
0.0
30
0.0
210
0.0
220
0.0
230
1.0
2
LINE
70
0
71
1
91
1
92
7
72
1
73
1
93
4
10
79.304157127562
20
-8.80466070009219
42
0.0394540874249326
10
80.0
20
-10.0
42
0.0
10
70.0
20
-10.0
42
0.0
10
70.0
20
-8.58670115153225
42
0.0639996779073499
97
1
330
81
75
0
76
0
52
45.0
41
0.5
77
0
78
0
47
0.0
98
1
10
0.0
20
0.0
1001
ACAD
1010
0.0
1020
0.0
1030
0.0
0
LWPOLYLINE
5
81
102
{ACAD_REACTORS
330
82
102
}
330
1B
100
AcDbEntity
67
0
8
layer 14
62
4
6
ByLayer
370
13
48
1.0
60
0
100
AcDbPolyline
90
4
70
1
38
0.0
39
0.0
10
79.304157127562
20
-8.80466070009219
40
0.0
41
0.0
42
0.0394540874249326
10
80.0
20
-10.0
40
0.0
41
0.0
42
0.0
10
70.0
20
-10.0
40
0.0
41
0.0
42
0.0
10
70.0
20
-8.58670115153225
40
0.0
41
0.0
42
0.0639996779073499
210
0.0
220
0.0
230
1.0
0
LWPOLYLINE
5
84
330
1B
100
AcDbEntity
67
0
8
layer 15
62
3
6
ByLayer
370
-1
48
1.0
60
0
100
AcDbPolyline
90
4
70
1
38
0.0
39
0.0
10
21.0
20
-30.0
40
0.0
41
0.0
42
0.0
10
31.0
20
-30.0
40
0.0
41
0.0
42
0.0
10
31.0
20
-20.0
40
0.0
41
0.0
42
0.0
10
21.0
20
-20.0
40
0.0
41
0.0
42
0.0
210
0.0
220
0.0
230
1.0
0
LWPOLYLINE
5
86
330
1B
100
AcDbEntity
67
0
8
layer 15
62
3
6
ByLayer
370
-1
48
1.0
60
0
100
AcDbPolyline
90
4
70
1
38
0.0
39
0.0
10
21.5
20
-29.5
40
0.0
41
0.0
42
0.0
10
30.5
20
-29.5
40
0.0
41
0.0
42
0.0
10
30.5
20
-20.5
40
0.0
41
0.0
42
0.0
10
21.5
20
-20.5
40
0.0
41
0.0
42
0.0
210
0.0
220
0.0
230
1.0
0
LWPOLYLINE
5
87
330
1B
100
AcDbEntity
67
0
8
layer 15
62
2
6
ByLayer
370
-1
48
1.0
60
0
100
AcDbPolyline
90
4
70
1
38
0.0
39
0.0
10
10.0
20
-30.0
40
0.0
41
0.0
42
0.0
10
20.0
20
-30.0
40
0.0
41
0.0
42
0.0
10
20.0
20
-20.0
40
0.0
41
0.0
42
0.0
10
10.0
20
-20.0
40
0.0
41
0.0
42
0.0
210
0.0
220
0.0
230
1.0
0
HATCH
5
89
330
1B
100
AcDbEntity
67
0
8
layer 15
62
4
6
ByLayer
370
0
48
1.0
60
0
100
AcDbHatch
10
0.0
20
0.0
30
0.0
210
0.0
220
0.0
230
1.0
2
LINE
70
0
71
1
91
1
92
7
72
1
73
1
93
4
10
10.0
20
-30.0
42
0.0
10
20.0
20
-30.0
42
0.0
10
20.0
20
-20.0
42
0.0
10
10.0
20
-20.0
42
0.0
97
1
330
88
75
0
76
0
52
45.0
41
0.5
77
0
78
0
47
0.0
98
1
10
0.0
20
0.0
1001
ACAD
1010
0.0
1020
0.0
1030
0.0
0
LWPOLYLINE
5
88
102
{ACAD_REACTORS
330
89
102
}
330
1B
100
AcDbEntity
67
0
8
layer 15
62
4
6
ByLayer
370
13
48
1.0
60
0
100
AcDbPolyline
90
4
70
1
38
0.0
39
0.0
10
10.0
20
-30.0
40
0.0
41
0.0
42
0.0
10
20.0
20
-30.0
40
0.0
41
0.0
42
0.0
10
20.0
20
-20.0
40
0.0
41
0.0
42
0.0
10
10.0
20
-20.0
40
0.0
41
0.0
42
0.0
210
0.0
220
0.0
230
1.0
0
LWPOLYLINE
5
8B
330
1B
100
AcDbEntity
67
0
8
layer 16
62
3
6
ByLayer
370
-1
48
1.0
60
0
100
AcDbPolyline
90
4
70
1
38
0.0
39
0.0
10
50.0
20
-30.0
40
0.0
41
0.0
42
0.0
10
60.0
20
-30.0
40
0.0
41
0.0
42
0.0
10
60.0
20
-20.0
40
0.0
41
0.0
42
0.0
10
50.0
20
-20.0
40
0.0
41
0.0
42
0.0
210
0.0
220
0.0
230
1.0
0
LWPOLYLINE
5
8D
330
1B
100
AcDbEntity
67
0
8
layer 16
62
3
6
ByLayer
370
-1
48
1.0
60
0
100
AcDbPolyline
90
4
70
1
38
0.0
39
0.0
10
50.5
20
-29.5
40
0.0
41
0.0
42
0.0
10
59.5
20
-29.5
40
0.0
41
0.0
42
0.0
10
59.5
20
-20.5
40
0.0
41
0.0
42
0.0
10
50.5
20
-20.5
40
0.0
41
0.0
42
0.0
210
0.0
220
0.0
230
1.0
0
LWPOLYLINE
5
8E
330
1B
100
AcDbEntity
67
0
8
layer 16
62
2
6
ByLayer
370
-1
48
1.0
60
0
100
AcDbPolyline
90
4
70
1
38
0.0
39
0.0
10
40.0
20
-30.0
40
0.0
41
0.0
42
0.0
10
50.0
20
-30.0
40
0.0
41
0.0
42
0.0
10
50.0
20
-20.0
40
0.0
41
0.0
42
0.0
10
40.0
20
-20.0
40
0.0
41
0.0
42
0.0
210
0.0
220
0.0
230
1.0
0
HATCH
5
90
330
1B
100
AcDbEntity
67
0
8
layer 16
62
4
6
ByLayer
370
0
48
1.0
60
0
100
AcDbHatch
10
0.0
20
0.0
30
0.0
210
0.0
220
0.0
230
1.0
2
LINE
70
0
71
1
91
1
92
7
72
1
73
1
93
4
10
40.0
20
-30.0
42
0.0
10
50.0
20
-30.0
42
0.0
10
50.0
20
-20.0
42
0.0
10
40.0
20
-20.0
42
0.0
97
1
330
8F
75
0
76
0
52
45.0
41
0.5
77
0
78
0
47
0.0
98
1
10
0.0
20
0.0
1001
ACAD
1010
0.0
1020
0.0
1030
0.0
0
LWPOLYLINE
5
8F
102
{ACAD_REACTORS
330
90
102
}
330
1B
100
AcDbEntity
67
0
8
layer 16
62
4
6
ByLayer
370
13
48
1.0
60
0
100
AcDbPolyline
90
4
70
1
38
0.0
39
0.0
10
40.0
20
-30.0
40
0.0
41
0.0
42
0.0
10
50.0
20
-30.0
40
0.0
41
0.0
42
0.0
10
50.0
20
-20.0
40
0.0
41
0.0
42
0.0
10
40.0
20
-20.0
40
0.0
41
0.0
42
0.0
210
0.0
220
0.0
230
1.0
0
LWPOLYLINE
5
92
330
1B
100
AcDbEntity
67
0
8
layer 17
62
3
6
ByLayer
370
-1
48
1.0
60
0
100
AcDbPolyline
90
4
70
1
38
0.0
39
0.0
10
70.0
20
-30.0
40
0.0
41
0.0
42
0.0
10
80.0
20
-30.0
40
0.0
41
0.0
42
0.0
10
80.0
20
-20.0
40
0.0
41
0.0
42
0.0
10
70.0
20
-20.0
40
0.0
41
0.0
42
0.0
210
0.0
220
0.0
230
1.0
0
LWPOLYLINE
5
94
330
1B
100
AcDbEntity
67
0
8
layer 17
62
3
6
ByLayer
370
-1
48
1.0
60
0
100
AcDbPolyline
90
4
70
1
38
0.0
39
0.0
10
70.5
20
-29.5
40
0.0
41
0.0
42
0.0
10
79.5
20
-29.5
40
0.0
41
0.0
42
0.0
10
79.5
20
-20.5
40
0.0
41
0.0
42
0.0
10
70.5
20
-20.5
40
0.0
41
0.0
42
0.0
210
0.0
220
0.0
230
1.0
0
LWPOLYLINE
5
95
330
1B
100
AcDbEntity
67
0
8
layer 17
62
2
6
ByLayer
370
-1
48
1.0
60
0
100
AcDbPolyline
90
4
70
1
38
0.0
39
0.0
10
70.0
20
-30.0
40
0.0
41
0.0
42
0.0
10
80.0
20
-30.0
40
0.0
41
0.0
42
0.0
10
80.0
20
-20.0
40
0.0
41
0.0
42
0.0
10
70.0
20
-20.0
40
0.0
41
0.0
42
0.0
210
0.0
220
0.0
230
1.0
0
HATCH
5
97
330
1B
100
AcDbEntity
67
0
8
layer 17
62
4
6
ByLayer
370
0
48
1.0
60
0
100
AcDbHatch
10
0.0
20
0.0
30
0.0
210
0.0
220
0.0
230
1.0
2
LINE
70
0
71
1
91
1
92
7
72
1
73
1
93
4
10
70.5
20
-29.5
42
0.0
10
79.5
20
-29.5
42
0.0
10
79.5
20
-20.5
42
0.0
10
70.5
20
-20.5
42
0.0
97
1
330
96
75
0
76
0
52
45.0
41
0.5
77
0
78
0
47
0.0
98
1
10
0.0
20
0.0
1001
ACAD
1010
0.0
1020
0.0
1030
0.0
0
LWPOLYLINE
5
96
102
{ACAD_REACTORS
330
97
102
}
330
1B
100
AcDbEntity
67
0
8
layer 17
62
4
6
ByLayer
370
13
48
1.0
60
0
100
AcDbPolyline
90
4
70
1
38
0.0
39
0.0
10
70.5
20
-29.5
40
0.0
41
0.0
42
0.0
10
79.5
20
-29.5
40
0.0
41
0.0
42
0.0
10
79.5
20
-20.5
40
0.0
41
0.0
42
0.0
10
70.5
20
-20.5
40
0.0
41
0.0
42
0.0
210
0.0
220
0.0
230
1.0
0
LWPOLYLINE
5
99
330
1B
100
AcDbEntity
67
0
8
layer 18
62
3
6
ByLayer
370
-1
48
1.0
60
0
100
AcDbPolyline
90
4
70
1
38
0.0
39
0.0
10
92.0
20
-28.0
40
0.0
41
0.0
42
0.0
10
98.0
20
-28.0
40
0.0
41
0.0
42
0.0
10
98.0
20
-22.0
40
0.0
41
0.0
42
0.0
10
92.0
20
-22.0
40
0.0
41
0.0
42
0.0
210
0.0
220
0.0
230
1.0
0
LWPOLYLINE
5
9B
330
1B
100
AcDbEntity
67
0
8
layer 18
62
3
6
ByLayer
370
-1
48
1.0
60
0
100
AcDbPolyline
90
4
70
1
38
0.0
39
0.0
10
92.5
20
-27.5
40
0.0
41
0.0
42
0.0
10
97.5
20
-27.5
40
0.0
41
0.0
42
0.0
10
97.5
20
-22.5
40
0.0
41
0.0
42
0.0
10
92.5
20
-22.5
40
0.0
41
0.0
42
0.0
210
0.0
220
0.0
230
1.0
0
LWPOLYLINE
5
9C
330
1B
100
AcDbEntity
67
0
8
layer 18
62
2
6
ByLayer
370
-1
48
1.0
60
0
100
AcDbPolyline
90
4
70
1
38
0.0
39
0.0
10
90.0
20
-30.0
40
0.0
41
0.0
42
0.0
10
100.0
20
-30.0
40
0.0
41
0.0
42
0.0
10
100.0
20
-20.0
40
0.0
41
0.0
42
0.0
10
90.0
20
-20.0
40
0.0
41
0.0
42
0.0
210
0.0
220
0.0
230
1.0
0
HATCH
5
9F
330
1B
100
AcDbEntity
67
0
8
layer 18
62
4
6
ByLayer
370
0
48
1.0
60
0
100
AcDbHatch
10
0.0
20
0.0
30
0.0
210
0.0
220
0.0
230
1.0
2
LINE
70
0
71
1
91
2
92
7
72
1
73
1
93
4
10
90.0
20
-30.0
42
0.0
10
100.0
20
-30.0
42
0.0
10
100.0
20
-20.0
42
0.0
10
90.0
20
-20.0
42
0.0
97
1
330
9D
92
7
72
1
73
1
93
4
10
92.0
20
-28.0
42
0.0
10
98.0
20
-28.0
42
0.0
10
98.0
20
-22.0
42
0.0
10
92.0
20
-22.0
42
0.0
97
1
330
9E
75
0
76
0
52
45.0
41
0.5
77
0
78
0
47
0.0
98
1
10
0.0
20
0.0
1001
ACAD
1010
0.0
1020
0.0
1030
0.0
0
LWPOLYLINE
5
9D
102
{ACAD_REACTORS
330
9F
102
}
330
1B
100
AcDbEntity
67
0
8
layer 18
62
4
6
ByLayer
370
13
48
1.0
60
0
100
AcDbPolyline
90
4
70
1
38
0.0
39
0.0
10
90.0
20
-30.0
40
0.0
41
0.0
42
0.0
10
100.0
20
-30.0
40
0.0
41
0.0
42
0.0
10
100.0
20
-20.0
40
0.0
41
0.0
42
0.0
10
90.0
20
-20.0
40
0.0
41
0.0
42
0.0
210
0.0
220
0.0
230
1.0
0
LWPOLYLINE
5
9E
102
{ACAD_REACTORS
330
9F
102
}
330
1B
100
AcDbEntity
67
0
8
layer 18
62
4
6
ByLayer
370
13
48
1.0
60
0
100
AcDbPolyline
90
4
70
1
38
0.0
39
0.0
10
92.0
20
-28.0
40
0.0
41
0.0
42
0.0
10
98.0
20
-28.0
40
0.0
41
0.0
42
0.0
10
98.0
20
-22.0
40
0.0
41
0.0
42
0.0
10
92.0
20
-22.0
40
0.0
41
0.0
42
0.0
210
0.0
220
0.0
230
1.0
0
HATCH
5
A1
330
1B
100
AcDbEntity
67
0
8
layer 18
62
4
6
ByLayer
370
0
48
1.0
60
0
100
AcDbHatch
10
0.0
20
0.0
30
0.0
210
0.0
220
0.0
230
1.0
2
LINE
70
0
71
1
91
1
92
7
72
1
73
1
93
4
10
92.5
20
-27.5
42
0.0
10
97.5
20
-27.5
42
0.0
10
97.5
20
-22.5
42
0.0
10
92.5
20
-22.5
42
0.0
97
1
330
A0
75
0
76
0
52
45.0
41
0.5
77
0
78
0
47
0.0
98
1
10
0.0
20
0.0
1001
ACAD
1010
0.0
1020
0.0
1030
0.0
0
LWPOLYLINE
5
A0
102
{ACAD_REACTORS
330
A1
102
}
330
1B
100
AcDbEntity
67
0
8
layer 18
62
4
6
ByLayer
370
13
48
1.0
60
0
100
AcDbPolyline
90
4
70
1
38
0.0
39
0.0
10
92.5
20
-27.5
40
0.0
41
0.0
42
0.0
10
97.5
20
-27.5
40
0.0
41
0.0
42
0.0
10
97.5
20
-22.5
40
0.0
41
0.0
42
0.0
10
92.5
20
-22.5
40
0.0
41
0.0
42
0.0
210
0.0
220
0.0
230
1.0
0
LWPOLYLINE
5
A3
330
1B
100
AcDbEntity
67
0
8
layer 19
62
3
6
ByLayer
370
-1
48
1.0
60
0
100
AcDbPolyline
90
4
70
1
38
0.0
39
0.0
10
18.0
20
-50.0
40
0.0
41
0.0
42
0.0
10
28.0
20
-50.0
40
0.0
41
0.0
42
0.0
10
28.0
20
-40.0
40
0.0
41
0.0
42
0.0
10
18.0
20
-40.0
40
0.0
41
0.0
42
0.0
210
0.0
220
0.0
230
1.0
0
LWPOLYLINE
5
A5
330
1B
100
AcDbEntity
67
0
8
layer 19
62
3
6
ByLayer
370
-1
48
1.0
60
0
100
AcDbPolyline
90
4
70
1
38
0.0
39
0.0
10
18.5
20
-49.5
40
0.0
41
0.0
42
0.0
10
27.5
20
-49.5
40
0.0
41
0.0
42
0.0
10
27.5
20
-40.5
40
0.0
41
0.0
42
0.0
10
18.5
20
-40.5
40
0.0
41
0.0
42
0.0
210
0.0
220
0.0
230
1.0
0
LWPOLYLINE
5
A6
330
1B
100
AcDbEntity
67
0
8
layer 19
62
2
6
ByLayer
370
-1
48
1.0
60
0
100
AcDbPolyline
90
4
70
1
38
0.0
39
0.0
10
10.0
20
-50.0
40
0.0
41
0.0
42
0.0
10
20.0
20
-50.0
40
0.0
41
0.0
42
0.0
10
20.0
20
-40.0
40
0.0
41
0.0
42
0.0
10
10.0
20
-40.0
40
0.0
41
0.0
42
0.0
210
0.0
220
0.0
230
1.0
0
HATCH
5
A8
330
1B
100
AcDbEntity
67
0
8
layer 19
62
4
6
ByLayer
370
0
48
1.0
60
0
100
AcDbHatch
10
0.0
20
0.0
30
0.0
210
0.0
220
0.0
230
1.0
2
LINE
70
0
71
1
91
1
92
7
72
1
73
1
93
4
10
18.0
20
-50.0
42
0.0
10
10.0
20
-50.0
42
0.0
10
10.0
20
-40.0
42
0.0
10
18.0
20
-40.0
42
0.0
97
1
330
A7
75
0
76
0
52
45.0
41
0.5
77
0
78
0
47
0.0
98
1
10
0.0
20
0.0
1001
ACAD
1010
0.0
1020
0.0
1030
0.0
0
LWPOLYLINE
5
A7
102
{ACAD_REACTORS
330
A8
102
}
330
1B
100
AcDbEntity
67
0
8
layer 19
62
4
6
ByLayer
370
13
48
1.0
60
0
100
AcDbPolyline
90
4
70
1
38
0.0
39
0.0
10
18.0
20
-50.0
40
0.0
41
0.0
42
0.0
10
10.0
20
-50.0
40
0.0
41
0.0
42
0.0
10
10.0
20
-40.0
40
0.0
41
0.0
42
0.0
10
18.0
20
-40.0
40
0.0
41
0.0
42
0.0
210
0.0
220
0.0
230
1.0
0
HATCH
5
AA
330
1B
100
AcDbEntity
67
0
8
layer 19
62
4
6
ByLayer
370
0
48
1.0
60
0
100
AcDbHatch
10
0.0
20
0.0
30
0.0
210
0.0
220
0.0
230
1.0
2
LINE
70
0
71
1
91
1
92
7
72
1
73
1
93
4
10
20.0
20
-49.5
42
0.0
10
20.0
20
-40.5
42
0.0
10
18.5
20
-40.5
42
0.0
10
18.5
20
-49.5
42
0.0
97
1
330
A9
75
0
76
0
52
45.0
41
0.5
77
0
78
0
47
0.0
98
1
10
0.0
20
0.0
1001
ACAD
1010
0.0
1020
0.0
1030
0.0
0
LWPOLYLINE
5
A9
102
{ACAD_REACTORS
330
AA
102
}
330
1B
100
AcDbEntity
67
0
8
layer 19
62
4
6
ByLayer
370
13
48
1.0
60
0
100
AcDbPolyline
90
4
70
1
38
0.0
39
0.0
10
20.0
20
-49.5
40
0.0
41
0.0
42
0.0
10
20.0
20
-40.5
40
0.0
41
0.0
42
0.0
10
18.5
20
-40.5
40
0.0
41
0.0
42
0.0
10
18.5
20
-49.5
40
0.0
41
0.0
42
0.0
210
0.0
220
0.0
230
1.0
0
LWPOLYLINE
5
AC
330
1B
100
AcDbEntity
67
0
8
layer 20
62
3
6
ByLayer
370
-1
48
1.0
60
0
100
AcDbPolyline
90
4
70
1
38
0.0
39
0.0
10
48.0
20
-52.0
40
0.0
41
0.0
42
0.0
10
58.0
20
-52.0
40
0.0
41
0.0
42
0.0
10
58.0
20
-42.0
40
0.0
41
0.0
42
0.0
10
48.0
20
-42.0
40
0.0
41
0.0
42
0.0
210
0.0
220
0.0
230
1.0
0
LWPOLYLINE
5
AE
330
1B
100
AcDbEntity
67
0
8
layer 20
62
3
6
ByLayer
370
-1
48
1.0
60
0
100
AcDbPolyline
90
4
70
1
38
0.0
39
0.0
10
48.5
20
-51.5
40
0.0
41
0.0
42
0.0
10
57.5
20
-51.5
40
0.0
41
0.0
42
0.0
10
57.5
20
-42.5
40
0.0
41
0.0
42
0.0
10
48.5
20
-42.5
40
0.0
41
0.0
42
0.0
210
0.0
220
0.0
230
1.0
0
LWPOLYLINE
5
AF
330
1B
100
AcDbEntity
67
0
8
layer 20
62
2
6
ByLayer
370
-1
48
1.0
60
0
100
AcDbPolyline
90
4
70
1
38
0.0
39
0.0
10
40.0
20
-50.0
40
0.0
41
0.0
42
0.0
10
50.0
20
-50.0
40
0.0
41
0.0
42
0.0
10
50.0
20
-40.0
40
0.0
41
0.0
42
0.0
10
40.0
20
-40.0
40
0.0
41
0.0
42
0.0
210
0.0
220
0.0
230
1.0
0
HATCH
5
B1
330
1B
100
AcDbEntity
67
0
8
layer 20
62
4
6
ByLayer
370
0
48
1.0
60
0
100
AcDbHatch
10
0.0
20
0.0
30
0.0
210
0.0
220
0.0
230
1.0
2
LINE
70
0
71
1
91
1
92
7
72
1
73
1
93
6
10
48.0
20
-50.0
42
0.0
10
40.0
20
-50.0
42
0.0
10
40.0
20
-40.0
42
0.0
10
50.0
20
-40.0
42
0.0
10
50.0
20
-42.0
42
0.0
10
48.0
20
-42.0
42
0.0
97
1
330
B0
75
0
76
0
52
45.0
41
0.5
77
0
78
0
47
0.0
98
1
10
0.0
20
0.0
1001
ACAD
1010
0.0
1020
0.0
1030
0.0
0
LWPOLYLINE
5
B0
102
{ACAD_REACTORS
330
B1
102
}
330
1B
100
AcDbEntity
67
0
8
layer 20
62
4
6
ByLayer
370
13
48
1.0
60
0
100
AcDbPolyline
90
6
70
1
38
0.0
39
0.0
10
48.0
20
-50.0
40
0.0
41
0.0
42
0.0
10
40.0
20
-50.0
40
0.0
41
0.0
42
0.0
10
40.0
20
-40.0
40
0.0
41
0.0
42
0.0
10
50.0
20
-40.0
40
0.0
41
0.0
42
0.0
10
50.0
20
-42.0
40
0.0
41
0.0
42
0.0
10
48.0
20
-42.0
40
0.0
41
0.0
42
0.0
210
0.0
220
0.0
230
1.0
0
HATCH
5
B3
330
1B
100
AcDbEntity
67
0
8
layer 20
62
4
6
ByLayer
370
0
48
1.0
60
0
100
AcDbHatch
10
0.0
20
0.0
30
0.0
210
0.0
220
0.0
230
1.0
2
LINE
70
0
71
1
91
1
92
7
72
1
73
1
93
4
10
48.5
20
-50.0
42
0.0
10
50.0
20
-50.0
42
0.0
10
50.0
20
-42.5
42
0.0
10
48.5
20
-42.5
42
0.0
97
1
330
B2
75
0
76
0
52
45.0
41
0.5
77
0
78
0
47
0.0
98
1
10
0.0
20
0.0
1001
ACAD
1010
0.0
1020
0.0
1030
0.0
0
LWPOLYLINE
5
B2
102
{ACAD_REACTORS
330
B3
102
}
330
1B
100
AcDbEntity
67
0
8
layer 20
62
4
6
ByLayer
370
13
48
1.0
60
0
100
AcDbPolyline
90
4
70
1
38
0.0
39
0.0
10
48.5
20
-50.0
40
0.0
41
0.0
42
0.0
10
50.0
20
-50.0
40
0.0
41
0.0
42
0.0
10
50.0
20
-42.5
40
0.0
41
0.0
42
0.0
10
48.5
20
-42.5
40
0.0
41
0.0
42
0.0
210
0.0
220
0.0
230
1.0
0
LWPOLYLINE
5
B5
330
1B
100
AcDbEntity
67
0
8
layer 21
62
3
6
ByLayer
370
-1
48
1.0
60
0
100
AcDbPolyline
90
8
70
1
38
0.0
39
0.0
10
67.0
20
-42.0
40
0.0
41
0.0
42
0.0
10
84.0
20
-42.0
40
0.0
41
0.0
42
0.0
10
84.0
20
-44.0
40
0.0
41
0.0
42
0.0
10
69.0
20
-44.0
40
0.0
41
0.0
42
0.0
10
69.0
20
-46.0
40
0.0
41
0.0
42
0.0
10
84.0
20
-46.0
40
0.0
41
0.0
42
0.0
10
84.0
20
-48.0
40
0.0
41
0.0
42
0.0
10
67.0
20
-48.0
40
0.0
41
0.0
42
0.0
210
0.0
220
0.0
230
1.0
0
LWPOLYLINE
5
B7
330
1B
100
AcDbEntity
67
0
8
layer 21
62
3
6
ByLayer
370
-1
48
1.0
60
0
100
AcDbPolyline
90
8
70
1
38
0.0
39
0.0
10
67.5
20
-42.5
40
0.0
41
0.0
42
0.0
10
83.5
20
-42.5
40
0.0
41
0.0
42
0.0
10
83.5
20
-43.5
40
0.0
41
0.0
42
0.0
10
68.5
20
-43.5
40
0.0
41
0.0
42
0.0
10
68.5
20
-46.5
40
0.0
41
0.0
42
0.0
10
83.5
20
-46.5
40
0.0
41
0.0
42
0.0
10
83.5
20
-47.5
40
0.0
41
0.0
42
0.0
10
67.5
20
-47.5
40
0.0
41
0.0
42
0.0
210
0.0
220
0.0
230
1.0
0
LWPOLYLINE
5
B8
330
1B
100
AcDbEntity
67
0
8
layer 21
62
2
6
ByLayer
370
-1
48
1.0
60
0
100
AcDbPolyline
90
4
70
1
38
0.0
39
0.0
10
70.0
20
-50.0
40
0.0
41
0.0
42
0.0
10
80.0
20
-50.0
40
0.0
41
0.0
42
0.0
10
80.0
20
-40.0
40
0.0
41
0.0
42
0.0
10
70.0
20
-40.0
40
0.0
41
0.0
42
0.0
210
0.0
220
0.0
230
1.0
0
HATCH
5
BA
330
1B
100
AcDbEntity
67
0
8
layer 21
62
4
6
ByLayer
370
0
48
1.0
60
0
100
AcDbHatch
10
0.0
20
0.0
30
0.0
210
0.0
220
0.0
230
1.0
2
LINE
70
0
71
1
91
1
92
7
72
1
73
1
93
4
10
80.0
20
-42.0
42
0.0
10
80.0
20
-40.0
42
0.0
10
70.0
20
-40.0
42
0.0
10
70.0
20
-42.0
42
0.0
97
1
330
B9
75
0
76
0
52
45.0
41
0.5
77
0
78
0
47
0.0
98
1
10
0.0
20
0.0
1001
ACAD
1010
0.0
1020
0.0
1030
0.0
0
LWPOLYLINE
5
B9
102
{ACAD_REACTORS
330
BA
102
}
330
1B
100
AcDbEntity
67
0
8
layer 21
62
4
6
ByLayer
370
13
48
1.0
60
0
100
AcDbPolyline
90
4
70
1
38
0.0
39
0.0
10
80.0
20
-42.0
40
0.0
41
0.0
42
0.0
10
80.0
20
-40.0
40
0.0
41
0.0
42
0.0
10
70.0
20
-40.0
40
0.0
41
0.0
42
0.0
10
70.0
20
-42.0
40
0.0
41
0.0
42
0.0
210
0.0
220
0.0
230
1.0
0
HATCH
5
BC
330
1B
100
AcDbEntity
67
0
8
layer 21
62
4
6
ByLayer
370
0
48
1.0
60
0
100
AcDbHatch
10
0.0
20
0.0
30
0.0
210
0.0
220
0.0
230
1.0
2
LINE
70
0
71
1
91
1
92
7
72
1
73
1
93
4
10
80.0
20
-44.0
42
0.0
10
80.0
20
-46.0
42
0.0
10
70.0
20
-46.0
42
0.0
10
70.0
20
-44.0
42
0.0
97
1
330
BB
75
0
76
0
52
45.0
41
0.5
77
0
78
0
47
0.0
98
1
10
0.0
20
0.0
1001
ACAD
1010
0.0
1020
0.0
1030
0.0
0
LWPOLYLINE
5
BB
102
{ACAD_REACTORS
330
BC
102
}
330
1B
100
AcDbEntity
67
0
8
layer 21
62
4
6
ByLayer
370
13
48
1.0
60
0
100
AcDbPolyline
90
4
70
1
38
0.0
39
0.0
10
80.0
20
-44.0
40
0.0
41
0.0
42
0.0
10
80.0
20
-46.0
40
0.0
41
0.0
42
0.0
10
70.0
20
-46.0
40
0.0
41
0.0
42
0.0
10
70.0
20
-44.0
40
0.0
41
0.0
42
0.0
210
0.0
220
0.0
230
1.0
0
HATCH
5
BE
330
1B
100
AcDbEntity
67
0
8
layer 21
62
4
6
ByLayer
370
0
48
1.0
60
0
100
AcDbHatch
10
0.0
20
0.0
30
0.0
210
0.0
220
0.0
230
1.0
2
LINE
70
0
71
1
91
1
92
7
72
1
73
1
93
4
10
80.0
20
-48.0
42
0.0
10
80.0
20
-50.0
42
0.0
10
70.0
20
-50.0
42
0.0
10
70.0
20
-48.0
42
0.0
97
1
330
BD
75
0
76
0
52
45.0
41
0.5
77
0
78
0
47
0.0
98
1
10
0.0
20
0.0
1001
ACAD
1010
0.0
1020
0.0
1030
0.0
0
LWPOLYLINE
5
BD
102
{ACAD_REACTORS
330
BE
102
}
330
1B
100
AcDbEntity
67
0
8
layer 21
62
4
6
ByLayer
370
13
48
1.0
60
0
100
AcDbPolyline
90
4
70
1
38
0.0
39
0.0
10
80.0
20
-48.0
40
0.0
41
0.0
42
0.0
10
80.0
20
-50.0
40
0.0
41
0.0
42
0.0
10
70.0
20
-50.0
40
0.0
41
0.0
42
0.0
10
70.0
20
-48.0
40
0.0
41
0.0
42
0.0
210
0.0
220
0.0
230
1.0
0
HATCH
5
C0
330
1B
100
AcDbEntity
67
0
8
layer 21
62
4
6
ByLayer
370
0
48
1.0
60
0
100
AcDbHatch
10
0.0
20
0.0
30
0.0
210
0.0
220
0.0
230
1.0
2
LINE
70
0
71
1
91
1
92
7
72
1
73
1
93
4
10
80.0
20
-42.5
42
0.0
10
80.0
20
-43.5
42
0.0
10
70.0
20
-43.5
42
0.0
10
70.0
20
-42.5
42
0.0
97
1
330
BF
75
0
76
0
52
45.0
41
0.5
77
0
78
0
47
0.0
98
1
10
0.0
20
0.0
1001
ACAD
1010
0.0
1020
0.0
1030
0.0
0
LWPOLYLINE
5
BF
102
{ACAD_REACTORS
330
C0
102
}
330
1B
100
AcDbEntity
67
0
8
layer 21
62
4
6
ByLayer
370
13
48
1.0
60
0
100
AcDbPolyline
90
4
70
1
38
0.0
39
0.0
10
80.0
20
-42.5
40
0.0
41
0.0
42
0.0
10
80.0
20
-43.5
40
0.0
41
0.0
42
0.0
10
70.0
20
-43.5
40
0.0
41
0.0
42
0.0
10
70.0
20
-42.5
40
0.0
41
0.0
42
0.0
210
0.0
220
0.0
230
1.0
0
HATCH
5
C2
330
1B
100
AcDbEntity
67
0
8
layer 21
62
4
6
ByLayer
370
0
48
1.0
60
0
100
AcDbHatch
10
0.0
20
0.0
30
0.0
210
0.0
220
0.0
230
1.0
2
LINE
70
0
71
1
91
1
92
7
72
1
73
1
93
4
10
80.0
20
-46.5
42
0.0
10
80.0
20
-47.5
42
0.0
10
70.0
20
-47.5
42
0.0
10
70.0
20
-46.5
42
0.0
97
1
330
C1
75
0
76
0
52
45.0
41
0.5
77
0
78
0
47
0.0
98
1
10
0.0
20
0.0
1001
ACAD
1010
0.0
1020
0.0
1030
0.0
0
LWPOLYLINE
5
C1
102
{ACAD_REACTORS
330
C2
102
}
330
1B
100
AcDbEntity
67
0
8
layer 21
62
4
6
ByLayer
370
13
48
1.0
60
0
100
AcDbPolyline
90
4
70
1
38
0.0
39
0.0
10
80.0
20
-46.5
40
0.0
41
0.0
42
0.0
10
80.0
20
-47.5
40
0.0
41
0.0
42
0.0
10
70.0
20
-47.5
40
0.0
41
0.0
42
0.0
10
70.0
20
-46.5
40
0.0
41
0.0
42
0.0
210
0.0
220
0.0
230
1.0
0
LWPOLYLINE
5
C4
330
1B
100
AcDbEntity
67
0
8
layer 22
62
3
6
ByLayer
370
-1
48
1.0
60
0
100
AcDbPolyline
90
4
70
1
38
0.0
39
0.0
10
21.0
20
-70.0
40
0.0
41
0.0
42
0.0
10
31.0
20
-70.0
40
0.0
41
0.0
42
0.0
10
31.0
20
-60.0
40
0.0
41
0.0
42
0.0
10
21.0
20
-60.0
40
0.0
41
0.0
42
0.31265021563387
210
0.0
220
0.0
230
1.0
0
LWPOLYLINE
5
C6
330
1B
100
AcDbEntity
67
0
8
layer 22
62
3
6
ByLayer
370
-1
48
1.0
60
0
100
AcDbPolyline
90
4
70
1
38
0.0
39
0.0
10
21.2667489387557
20
-69.5
40
0.0
41
0.0
42
0.0
10
30.5
20
-69.5
40
0.0
41
0.0
42
0.0
10
30.5
20
-60.5
40
0.0
41
0.0
42
0.0
10
21.2667489387557
20
-60.5
40
0.0
41
0.0
42
0.29555555931667
210
0.0
220
0.0
230
1.0
0
LWPOLYLINE
5
C7
330
1B
100
AcDbEntity
67
0
8
layer 22
62
2
6
ByLayer
370
-1
48
1.0
60
0
100
AcDbPolyline
90
4
70
1
38
0.0
39
0.0
10
10.0
20
-70.0
40
0.0
41
0.0
42
0.0
10
20.0
20
-70.0
40
0.0
41
0.0
42
-0.31265021563387
10
20.0
20
-60.0
40
0.0
41
0.0
42
0.0
10
10.0
20
-60.0
40
0.0
41
0.0
42
0.0
210
0.0
220
0.0
230
1.0
0
HATCH
5
C9
330
1B
100
AcDbEntity
67
0
8
layer 22
62
4
6
ByLayer
370
0
48
1.0
60
0
100
AcDbHatch
10
0.0
20
0.0
30
0.0
210
0.0
220
0.0
230
1.0
2
LINE
70
0
71
1
91
1
92
7
72
1
73
1
93
4
10
10.0
20
-70.0
42
0.0
10
20.0
20
-70.0
42
-0.31265021563387
10
20.0
20
-60.0
42
0.0
10
10.0
20
-60.0
42
0.0
97
1
330
C8
75
0
76
0
52
45.0
41
0.5
77
0
78
0
47
0.0
98
1
10
0.0
20
0.0
1001
ACAD
1010
0.0
1020
0.0
1030
0.0
0
LWPOLYLINE
5
C8
102
{ACAD_REACTORS
330
C9
102
}
330
1B
100
AcDbEntity
67
0
8
layer 22
62
4
6
ByLayer
370
13
48
1.0
60
0
100
AcDbPolyline
90
4
70
1
38
0.0
39
0.0
10
10.0
20
-70.0
40
0.0
41
0.0
42
0.0
10
20.0
20
-70.0
40
0.0
41
0.0
42
-0.31265021563387
10
20.0
20
-60.0
40
0.0
41
0.0
42
0.0
10
10.0
20
-60.0
40
0.0
41
0.0
42
0.0
210
0.0
220
0.0
230
1.0
0
LWPOLYLINE
5
CB
330
1B
100
AcDbEntity
67
0
8
layer 23
62
3
6
ByLayer
370
-1
48
1.0
60
0
100
AcDbPolyline
90
4
70
1
38
0.0
39
0.0
10
50.0
20
-70.0
40
0.0
41
0.0
42
0.0
10
60.0
20
-70.0
40
0.0
41
0.0
42
0.0
10
60.0
20
-60.0
40
0.0
41
0.0
42
0.0
10
50.0
20
-60.0
40
0.0
41
0.0
42
0.31265021563387
210
0.0
220
0.0
230
1.0
0
LWPOLYLINE
5
CD
330
1B
100
AcDbEntity
67
0
8
layer 23
62
3
6
ByLayer
370
-1
48
1.0
60
0
100
AcDbPolyline
90
4
70
1
38
0.0
39
0.0
10
50.2667489387557
20
-69.5
40
0.0
41
0.0
42
0.0
10
59.5
20
-69.5
40
0.0
41
0.0
42
0.0
10
59.5
20
-60.5
40
0.0
41
0.0
42
0.0
10
50.2667489387557
20
-60.5
40
0.0
41
0.0
42
0.29555555931667
210
0.0
220
0.0
230
1.0
0
LWPOLYLINE
5
CE
330
1B
100
AcDbEntity
67
0
8
layer 23
62
2
6
ByLayer
370
-1
48
1.0
60
0
100
AcDbPolyline
90
4
70
1
38
0.0
39
0.0
10
40.0
20
-70.0
40
0.0
41
0.0
42
0.0
10
50.0
20
-70.0
40
0.0
41
0.0
42
-0.31265021563387
10
50.0
20
-60.0
40
0.0
41
0.0
42
0.0
10
40.0
20
-60.0
40
0.0
41
0.0
42
0.0
210
0.0
220
0.0
230
1.0
0
HATCH
5
D0
330
1B
100
AcDbEntity
67
0
8
layer 23
62
4
6
ByLayer
370
0
48
1.0
60
0
100
AcDbHatch
10
0.0
20
0.0
30
0.0
210
0.0
220
0.0
230
1.0
2
LINE
70
0
71
1
91
1
92
7
72
1
73
1
93
4
10
40.0
20
-70.0
42
0.0
10
50.0
20
-70.0
42
-0.31265021563387
10
50.0
20
-60.0
42
0.0
10
40.0
20
-60.0
42
0.0
97
1
330
CF
75
0
76
0
52
45.0
41
0.5
77
0
78
0
47
0.0
98
1
10
0.0
20
0.0
1001
ACAD
1010
0.0
1020
0.0
1030
0.0
0
LWPOLYLINE
5
CF
102
{ACAD_REACTORS
330
D0
102
}
330
1B
100
AcDbEntity
67
0
8
layer 23
62
4
6
ByLayer
370
13
48
1.0
60
0
100
AcDbPolyline
90
4
70
1
38
0.0
39
0.0
10
40.0
20
-70.0
40
0.0
41
0.0
42
0.0
10
50.0
20
-70.0
40
0.0
41
0.0
42
-0.31265021563387
10
50.0
20
-60.0
40
0.0
41
0.0
42
0.0
10
40.0
20
-60.0
40
0.0
41
0.0
42
0.0
210
0.0
220
0.0
230
1.0
0
LWPOLYLINE
5
D2
330
1B
100
AcDbEntity
67
0
8
layer 24
62
3
6
ByLayer
370
-1
48
1.0
60
0
100
AcDbPolyline
90
4
70
1
38
0.0
39
0.0
10
70.0
20
-70.0
40
0.0
41
0.0
42
0.0
10
80.0
20
-70.0
40
0.0
41
0.0
42
0.0
10
80.0
20
-60.0
40
0.0
41
0.0
42
0.0
10
70.0
20
-60.0
40
0.0
41
0.0
42
0.31265021563387
210
0.0
220
0.0
230
1.0
0
LWPOLYLINE
5
D4
330
1B
100
AcDbEntity
67
0
8
layer 24
62
3
6
ByLayer
370
-1
48
1.0
60
0
100
AcDbPolyline
90
4
70
1
38
0.0
39
0.0
10
70.2667489387557
20
-69.5
40
0.0
41
0.0
42
0.0
10
79.5
20
-69.5
40
0.0
41
0.0
42
0.0
10
79.5
20
-60.5
40
0.0
41
0.0
42
0.0
10
70.2667489387557
20
-60.5
40
0.0
41
0.0
42
0.29555555931667
210
0.0
220
0.0
230
1.0
0
LWPOLYLINE
5
D5
330
1B
100
AcDbEntity
67
0
8
layer 24
62
2
6
ByLayer
370
-1
48
1.0
60
0
100
AcDbPolyline
90
4
70
1
38
0.0
39
0.0
10
70.0
20
-70.0
40
0.0
41
0.0
42
0.0
10
80.0
20
-70.0
40
0.0
41
0.0
42
0.0
10
80.0
20
-60.0
40
0.0
41
0.0
42
0.0
10
70.0
20
-60.0
40
0.0
41
0.0
42
0.31265021563387
210
0.0
220
0.0
230
1.0
0
HATCH
5
D7
330
1B
100
AcDbEntity
67
0
8
layer 24
62
4
6
ByLayer
370
0
48
1.0
60
0
100
AcDbHatch
10
0.0
20
0.0
30
0.0
210
0.0
220
0.0
230
1.0
2
LINE
70
0
71
1
91
1
92
7
72
1
73
1
93
4
10
70.2667489387557
20
-69.5
42
0.0
10
79.5
20
-69.5
42
0.0
10
79.5
20
-60.5
42
0.0
10
70.2667489387557
20
-60.5
42
0.29555555931667
97
1
330
D6
75
0
76
0
52
45.0
41
0.5
77
0
78
0
47
0.0
98
1
10
0.0
20
0.0
1001
ACAD
1010
0.0
1020
0.0
1030
0.0
0
LWPOLYLINE
5
D6
102
{ACAD_REACTORS
330
D7
102
}
330
1B
100
AcDbEntity
67
0
8
layer 24
62
4
6
ByLayer
370
13
48
1.0
60
0
100
AcDbPolyline
90
4
70
1
38
0.0
39
0.0
10
70.2667489387557
20
-69.5
40
0.0
41
0.0
42
0.0
10
79.5
20
-69.5
40
0.0
41
0.0
42
0.0
10
79.5
20
-60.5
40
0.0
41
0.0
42
0.0
10
70.2667489387557
20
-60.5
40
0.0
41
0.0
42
0.29555555931667
210
0.0
220
0.0
230
1.0
0
LWPOLYLINE
5
D9
330
1B
100
AcDbEntity
67
0
8
layer 25
62
3
6
ByLayer
370
-1
48
1.0
60
0
100
AcDbPolyline
90
4
70
1
38
0.0
39
0.0
10
91.0
20
-68.0
40
0.0
41
0.0
42
0.0
10
98.0
20
-68.0
40
0.0
41
0.0
42
0.0
10
98.0
20
-62.0
40
0.0
41
0.0
42
0.0
10
91.0
20
-62.0
40
0.0
41
0.0
42
0.31265021563387
210
0.0
220
0.0
230
1.0
0
LWPOLYLINE
5
DB
330
1B
100
AcDbEntity
67
0
8
layer 25
62
3
6
ByLayer
370
-1
48
1.0
60
0
100
AcDbPolyline
90
4
70
1
38
0.0
39
0.0
10
91.2702539236171
20
-67.5
40
0.0
41
0.0
42
0.0
10
97.5
20
-67.5
40
0.0
41
0.0
42
0.0
10
97.5
20
-62.5
40
0.0
41
0.0
42
0.0
10
91.2702539236171
20
-62.5
40
0.0
41
0.0
42
0.283281828207466
210
0.0
220
0.0
230
1.0
0
LWPOLYLINE
5
DC
330
1B
100
AcDbEntity
67
0
8
layer 25
62
2
6
ByLayer
370
-1
48
1.0
60
0
100
AcDbPolyline
90
4
70
1
38
0.0
39
0.0
10
90.0
20
-70.0
40
0.0
41
0.0
42
0.0
10
100.0
20
-70.0
40
0.0
41
0.0
42
0.0
10
100.0
20
-60.0
40
0.0
41
0.0
42
0.0
10
90.0
20
-60.0
40
0.0
41
0.0
42
0.31265021563387
210
0.0
220
0.0
230
1.0
0
HATCH
5
DF
330
1B
100
AcDbEntity
67
0
8
layer 25
62
4
6
ByLayer
370
0
48
1.0
60
0
100
AcDbHatch
10
0.0
20
0.0
30
0.0
210
0.0
220
0.0
230
1.0
2
LINE
70
0
71
1
91
2
92
7
72
1
73
1
93
4
10
90.0
20
-70.0
42
0.0
10
100.0
20
-70.0
42
0.0
10
100.0
20
-60.0
42
0.0
10
90.0
20
-60.0
42
0.31265021563387
97
1
330
DD
92
7
72
1
73
1
93
4
10
91.0
20
-68.0
42
0.0
10
98.0
20
-68.0
42
0.0
10
98.0
20
-62.0
42
0.0
10
91.0
20
-62.0
42
0.31265021563387
97
1
330
DE
75
0
76
0
52
45.0
41
0.5
77
0
78
0
47
0.0
98
1
10
0.0
20
0.0
1001
ACAD
1010
0.0
1020
0.0
1030
0.0
0
LWPOLYLINE
5
DD
102
{ACAD_REACTORS
330
DF
102
}
330
1B
100
AcDbEntity
67
0
8
layer 25
62
4
6
ByLayer
370
13
48
1.0
60
0
100
AcDbPolyline
90
4
70
1
38
0.0
39
0.0
10
90.0
20
-70.0
40
0.0
41
0.0
42
0.0
10
100.0
20
-70.0
40
0.0
41
0.0
42
0.0
10
100.0
20
-60.0
40
0.0
41
0.0
42
0.0
10
90.0
20
-60.0
40
0.0
41
0.0
42
0.31265021563387
210
0.0
220
0.0
230
1.0
0
LWPOLYLINE
5
DE
102
{ACAD_REACTORS
330
DF
102
}
330
1B
100
AcDbEntity
67
0
8
layer 25
62
4
6
ByLayer
370
13
48
1.0
60
0
100
AcDbPolyline
90
4
70
1
38
0.0
39
0.0
10
91.0
20
-68.0
40
0.0
41
0.0
42
0.0
10
98.0
20
-68.0
40
0.0
41
0.0
42
0.0
10
98.0
20
-62.0
40
0.0
41
0.0
42
0.0
10
91.0
20
-62.0
40
0.0
41
0.0
42
0.31265021563387
210
0.0
220
0.0
230
1.0
0
HATCH
5
E1
330
1B
100
AcDbEntity
67
0
8
layer 25
62
4
6
ByLayer
370
0
48
1.0
60
0
100
AcDbHatch
10
0.0
20
0.0
30
0.0
210
0.0
220
0.0
230
1.0
2
LINE
70
0
71
1
91
1
92
7
72
1
73
1
93
4
10
91.2702539236171
20
-67.5
42
0.0
10
97.5
20
-67.5
42
0.0
10
97.5
20
-62.5
42
0.0
10
91.2702539236171
20
-62.5
42
0.283281828207466
97
1
330
E0
75
0
76
0
52
45.0
41
0.5
77
0
78
0
47
0.0
98
1
10
0.0
20
0.0
1001
ACAD
1010
0.0
1020
0.0
1030
0.0
0
LWPOLYLINE
5
E0
102
{ACAD_REACTORS
330
E1
102
}
330
1B
100
AcDbEntity
67
0
8
layer 25
62
4
6
ByLayer
370
13
48
1.0
60
0
100
AcDbPolyline
90
4
70
1
38
0.0
39
0.0
10
91.2702539236171
20
-67.5
40
0.0
41
0.0
42
0.0
10
97.5
20
-67.5
40
0.0
41
0.0
42
0.0
10
97.5
20
-62.5
40
0.0
41
0.0
42
0.0
10
91.2702539236171
20
-62.5
40
0.0
41
0.0
42
0.283281828207466
210
0.0
220
0.0
230
1.0
0
LWPOLYLINE
5
E3
330
1B
100
AcDbEntity
67
0
8
layer 26
62
3
6
ByLayer
370
-1
48
1.0
60
0
100
AcDbPolyline
90
4
70
1
38
0.0
39
0.0
10
18.0
20
-90.0
40
0.0
41
0.0
42
0.0
10
28.0
20
-90.0
40
0.0
41
0.0
42
0.0
10
28.0
20
-80.0
40
0.0
41
0.0
42
0.0
10
18.0
20
-80.0
40
0.0
41
0.0
42
0.31265021563387
210
0.0
220
0.0
230
1.0
0
LWPOLYLINE
5
E5
330
1B
100
AcDbEntity
67
0
8
layer 26
62
3
6
ByLayer
370
-1
48
1.0
60
0
100
AcDbPolyline
90
4
70
1
38
0.0
39
0.0
10
18.2667489387557
20
-89.5
40
0.0
41
0.0
42
0.0
10
27.5
20
-89.5
40
0.0
41
0.0
42
0.0
10
27.5
20
-80.5
40
0.0
41
0.0
42
0.0
10
18.2667489387557
20
-80.5
40
0.0
41
0.0
42
0.29555555931667
210
0.0
220
0.0
230
1.0
0
LWPOLYLINE
5
E6
330
1B
100
AcDbEntity
67
0
8
layer 26
62
2
6
ByLayer
370
-1
48
1.0
60
0
100
AcDbPolyline
90
4
70
1
38
0.0
39
0.0
10
10.0
20
-90.0
40
0.0
41
0.0
42
0.0
10
20.0
20
-90.0
40
0.0
41
0.0
42
-0.31265021563387
10
20.0
20
-80.0
40
0.0
41
0.0
42
0.0
10
10.0
20
-80.0
40
0.0
41
0.0
42
0.0
210
0.0
220
0.0
230
1.0
0
HATCH
5
E8
330
1B
100
AcDbEntity
67
0
8
layer 26
62
4
6
ByLayer
370
0
48
1.0
60
0
100
AcDbHatch
10
0.0
20
0.0
30
0.0
210
0.0
220
0.0
230
1.0
2
LINE
70
0
71
1
91
1
92
7
72
1
73
1
93
4
10
18.0
20
-90.0
42
0.0
10
10.0
20
-90.0
42
0.0
10
10.0
20
-80.0
42
0.0
10
18.0
20
-80.0
42
0.31265021563387
97
1
330
E7
75
0
76
0
52
45.0
41
0.5
77
0
78
0
47
0.0
98
1
10
0.0
20
0.0
1001
ACAD
1010
0.0
1020
0.0
1030
0.0
0
LWPOLYLINE
5
E7
102
{ACAD_REACTORS
330
E8
102
}
330
1B
100
AcDbEntity
67
0
8
layer 26
62
4
6
ByLayer
370
13
48
1.0
60
0
100
AcDbPolyline
90
4
70
1
38
0.0
39
0.0
10
18.0
20
-90.0
40
0.0
41
0.0
42
0.0
10
10.0
20
-90.0
40
0.0
41
0.0
42
0.0
10
10.0
20
-80.0
40
0.0
41
0.0
42
0.0
10
18.0
20
-80.0
40
0.0
41
0.0
42
0.31265021563387
210
0.0
220
0.0
230
1.0
0
HATCH
5
EA
330
1B
100
AcDbEntity
67
0
8
layer 26
62
4
6
ByLayer
370
0
48
1.0
60
0
100
AcDbHatch
10
0.0
20
0.0
30
0.0
210
0.0
220
0.0
230
1.0
2
LINE
70
0
71
1
91
1
92
7
72
1
73
1
93
4
10
19.6779895062976
20
-89.5
42
-0.275831240992655
10
19.6779895062976
20
-80.5
42
0.0
10
18.2667489387557
20
-80.5
42
0.29555555931667
10
18.2667489387557
20
-89.5
42
0.0
97
1
330
E9
75
0
76
0
52
45.0
41
0.5
77
0
78
0
47
0.0
98
1
10
0.0
20
0.0
1001
ACAD
1010
0.0
1020
0.0
1030
0.0
0
LWPOLYLINE
5
E9
102
{ACAD_REACTORS
330
EA
102
}
330
1B
100
AcDbEntity
67
0
8
layer 26
62
4
6
ByLayer
370
13
48
1.0
60
0
100
AcDbPolyline
90
4
70
1
38
0.0
39
0.0
10
19.6779895062976
20
-89.5
40
0.0
41
0.0
42
-0.275831240992655
10
19.6779895062976
20
-80.5
40
0.0
41
0.0
42
0.0
10
18.2667489387557
20
-80.5
40
0.0
41
0.0
42
0.29555555931667
10
18.2667489387557
20
-89.5
40
0.0
41
0.0
42
0.0
210
0.0
220
0.0
230
1.0
0
LWPOLYLINE
5
EC
330
1B
100
AcDbEntity
67
0
8
layer 27
62
3
6
ByLayer
370
-1
48
1.0
60
0
100
AcDbPolyline
90
4
70
1
38
0.0
39
0.0
10
48.0
20
-92.0
40
0.0
41
0.0
42
0.0
10
58.0
20
-92.0
40
0.0
41
0.0
42
0.0
10
58.0
20
-82.0
40
0.0
41
0.0
42
0.0
10
48.0
20
-82.0
40
0.0
41
0.0
42
0.31265021563387
210
0.0
220
0.0
230
1.0
0
LWPOLYLINE
5
EE
330
1B
100
AcDbEntity
67
0
8
layer 27
62
3
6
ByLayer
370
-1
48
1.0
60
0
100
AcDbPolyline
90
4
70
1
38
0.0
39
0.0
10
48.2667489387557
20
-91.5
40
0.0
41
0.0
42
0.0
10
57.5
20
-91.5
40
0.0
41
0.0
42
0.0
10
57.5
20
-82.5
40
0.0
41
0.0
42
0.0
10
48.2667489387557
20
-82.5
40
0.0
41
0.0
42
0.29555555931667
210
0.0
220
0.0
230
1.0
0
LWPOLYLINE
5
EF
330
1B
100
AcDbEntity
67
0
8
layer 27
62
2
6
ByLayer
370
-1
48
1.0
60
0
100
AcDbPolyline
90
4
70
1
38
0.0
39
0.0
10
40.0
20
-90.0
40
0.0
41
0.0
42
0.0
10
50.0
20
-90.0
40
0.0
41
0.0
42
-0.31265021563387
10
50.0
20
-80.0
40
0.0
41
0.0
42
0.0
10
40.0
20
-80.0
40
0.0
41
0.0
42
0.0
210
0.0
220
0.0
230
1.0
0
HATCH
5
F1
330
1B
100
AcDbEntity
67
0
8
layer 27
62
4
6
ByLayer
370
0
48
1.0
60
0
100
AcDbHatch
10
0.0
20
0.0
30
0.0
210
0.0
220
0.0
230
1.0
2
LINE
70
0
71
1
91
1
92
7
72
1
73
1
93
6
10
46.965321462836
20
-90.0
42
0.0
10
40.0
20
-90.0
42
0.0
10
40.0
20
-80.0
42
0.0
10
50.0
20
-80.0
42
0.0643992160784995
10
48.965321462836
20
-82.0
42
0.0
10
48.0
20
-82.0
42
0.243351260920535
97
1
330
F0
75
0
76
0
52
45.0
41
0.5
77
0
78
0
47
0.0
98
1
10
0.0
20
0.0
1001
ACAD
1010
0.0
1020
0.0
1030
0.0
0
LWPOLYLINE
5
F0
102
{ACAD_REACTORS
330
F1
102
}
330
1B
100
AcDbEntity
67
0
8
layer 27
62
4
6
ByLayer
370
13
48
1.0
60
0
100
AcDbPolyline
90
6
70
1
38
0.0
39
0.0
10
46.965321462836
20
-90.0
40
0.0
41
0.0
42
0.0
10
40.0
20
-90.0
40
0.0
41
0.0
42
0.0
10
40.0
20
-80.0
40
0.0
41
0.0
42
0.0
10
50.0
20
-80.0
40
0.0
41
0.0
42
0.0643992160784995
10
48.965321462836
20
-82.0
40
0.0
41
0.0
42
0.0
10
48.0
20
-82.0
40
0.0
41
0.0
42
0.243351260920535
210
0.0
220
0.0
230
1.0
0
HATCH
5
F3
330
1B
100
AcDbEntity
67
0
8
layer 27
62
4
6
ByLayer
370
0
48
1.0
60
0
100
AcDbHatch
10
0.0
20
0.0
30
0.0
210
0.0
220
0.0
230
1.0
2
LINE
70
0
71
1
91
1
92
7
72
1
73
1
93
4
10
47.4995017780595
20
-90.0
42
0.0
10
50.0
20
-90.0
42
-0.227521254077911
10
48.8002896166125
20
-82.5
42
0.0
10
48.2667489387557
20
-82.5
42
0.240906425564245
97
1
330
F2
75
0
76
0
52
45.0
41
0.5
77
0
78
0
47
0.0
98
1
10
0.0
20
0.0
1001
ACAD
1010
0.0
1020
0.0
1030
0.0
0
LWPOLYLINE
5
F2
102
{ACAD_REACTORS
330
F3
102
}
330
1B
100
AcDbEntity
67
0
8
layer 27
62
4
6
ByLayer
370
13
48
1.0
60
0
100
AcDbPolyline
90
4
70
1
38
0.0
39
0.0
10
47.4995017780595
20
-90.0
40
0.0
41
0.0
42
0.0
10
50.0
20
-90.0
40
0.0
41
0.0
42
-0.227521254077911
10
48.8002896166125
20
-82.5
40
0.0
41
0.0
42
0.0
10
48.2667489387557
20
-82.5
40
0.0
41
0.0
42
0.240906425564245
210
0.0
220
0.0
230
1.0
0
LWPOLYLINE
5
F5
330
1B
100
AcDbEntity
67
0
8
layer 28
62
3
6
ByLayer
370
-1
48
1.0
60
0
100
AcDbPolyline
90
8
70
1
38
0.0
39
0.0
10
67.0
20
-82.0
40
0.0
41
0.0
42
-0.118049940810346
10
84.0
20
-82.0
40
0.0
41
0.0
42
0.0
10
84.0
20
-84.0
40
0.0
41
0.0
42
0.0
10
69.0
20
-84.0
40
0.0
41
0.0
42
0.0
10
69.0
20
-86.0
40
0.0
41
0.0
42
0.0
10
84.0
20
-86.0
40
0.0
41
0.0
42
0.0
10
84.0
20
-88.0
40
0.0
41
0.0
42
-0.118049940810346
10
67.0
20
-88.0
40
0.0
41
0.0
42
0.0
210
0.0
220
0.0
230
1.0
0
LWPOLYLINE
5
F7
330
1B
100
AcDbEntity
67
0
8
layer 28
62
3
6
ByLayer
370
-1
48
1.0
60
0
100
AcDbPolyline
90
8
70
1
38
0.0
39
0.0
10
67.5
20
-82.3966301403539
40
0.0
41
0.0
42
-0.112506829655227
10
83.5
20
-82.3966301403539
40
0.0
41
0.0
42
0.0
10
83.5
20
-83.5
40
0.0
41
0.0
42
0.0
10
68.5
20
-83.5
40
0.0
41
0.0
42
0.0
10
68.5
20
-86.5
40
0.0
41
0.0
42
0.0
10
83.5
20
-86.5
40
0.0
41
0.0
42
0.0
10
83.5
20
-87.6033698596461
40
0.0
41
0.0
42
-0.112506829655227
10
67.5
20
-87.6033698596461
40
0.0
41
0.0
42
0.0
210
0.0
220
0.0
230
1.0
0
LWPOLYLINE
5
F8
330
1B
100
AcDbEntity
67
0
8
layer 28
62
2
6
ByLayer
370
-1
48
1.0
60
0
100
AcDbPolyline
90
4
70
1
38
0.0
39
0.0
10
70.0
20
-90.0
40
0.0
41
0.0
42
0.0
10
80.0
20
-90.0
40
0.0
41
0.0
42
-0.31265021563387
10
80.0
20
-80.0
40
0.0
41
0.0
42
0.0
10
70.0
20
-80.0
40
0.0
41
0.0
42
0.0
210
0.0
220
0.0
230
1.0
0
HATCH
5
FA
330
1B
100
AcDbEntity
67
0
8
layer 28
62
4
6
ByLayer
370
0
48
1.0
60
0
100
AcDbHatch
10
0.0
20
0.0
30
0.0
210
0.0
220
0.0
230
1.0
2
LINE
70
0
71
1
91
1
92
7
72
1
73
1
93
4
10
79.304157127562
20
-81.1953392999078
42
-0.0394540874249319
10
80.0
20
-80.0
42
0.0
10
70.0
20
-80.0
42
0.0
10
70.0
20
-81.4132988484677
42
-0.0639996779073497
97
1
330
F9
75
0
76
0
52
45.0
41
0.5
77
0
78
0
47
0.0
98
1
10
0.0
20
0.0
1001
ACAD
1010
0.0
1020
0.0
1030
0.0
0
LWPOLYLINE
5
F9
102
{ACAD_REACTORS
330
FA
102
}
330
1B
100
AcDbEntity
67
0
8
layer 28
62
4
6
ByLayer
370
13
48
1.0
60
0
100
AcDbPolyline
90
4
70
1
38
0.0
39
0.0
10
79.304157127562
20
-81.1953392999078
40
0.0
41
0.0
42
-0.0394540874249319
10
80.0
20
-80.0
40
0.0
41
0.0
42
0.0
10
70.0
20
-80.0
40
0.0
41
0.0
42
0.0
10
70.0
20
-81.4132988484677
40
0.0
41
0.0
42
-0.0639996779073497
210
0.0
220
0.0
230
1.0
0
HATCH
5
FC
330
1B
100
AcDbEntity
67
0
8
layer 28
62
4
6
ByLayer
370
0
48
1.0
60
0
100
AcDbHatch
10
0.0
20
0.0
30
0.0
210
0.0
220
0.0
230
1.0
2
LINE
70
0
71
1
91
1
92
7
72
1
73
1
93
4
10
78.4938969526595
20
-84.0
42
0.0571480308288162
10
78.4938969526595
20
-86.0
42
0.0
10
70.0
20
-86.0
42
0.0
10
70.0
20
-84.0
42
0.0
97
1
330
FB
75
0
76
0
52
45.0
41
0.5
77
0
78
0
47
0.0
98
1
10
0.0
20
0.0
1001
ACAD
1010
0.0
1020
0.0
1030
0.0
0
LWPOLYLINE
5
FB
102
{ACAD_REACTORS
330
FC
102
}
330
1B
100
AcDbEntity
67
0
8
layer 28
62
4
6
ByLayer
370
13
48
1.0
60
0
100
AcDbPolyline
90
4
70
1
38
0.0
39
0.0
10
78.4938969526595
20
-84.0
40
0.0
41
0.0
42
0.0571480308288162
10
78.4938969526595
20
-86.0
40
0.0
41
0.0
42
0.0
10
70.0
20
-86.0
40
0.0
41
0.0
42
0.0
10
70.0
20
-84.0
40
0.0
41
0.0
42
0.0
210
0.0
220
0.0
230
1.0
0
HATCH
5
FE
330
1B
100
AcDbEntity
67
0
8
layer 28
62
4
6
ByLayer
370
0
48
1.0
60
0
100
AcDbHatch
10
0.0
20
0.0
30
0.0
210
0.0
220
0.0
230
1.0
2
LINE
70
0
71
1
91
1
92
7
72
1
73
1
93
4
10
79.304157127562
20
-88.8046607000922
42
0.0394540874249322
10
80.0
20
-90.0
42
0.0
10
70.0
20
-90.0
42
0.0
10
70.0
20
-88.5867011515323
42
0.0639996779073499
97
1
330
FD
75
0
76
0
52
45.0
41
0.5
77
0
78
0
47
0.0
98
1
10
0.0
20
0.0
1001
ACAD
1010
0.0
1020
0.0
1030
0.0
0
LWPOLYLINE
5
FD
102
{ACAD_REACTORS
330
FE
102
}
330
1B
100
AcDbEntity
67
0
8
layer 28
62
4
6
ByLayer
370
13
48
1.0
60
0
100
AcDbPolyline
90
4
70
1
38
0.0
39
0.0
10
79.304157127562
20
-88.8046607000922
40
0.0
41
0.0
42
0.0394540874249322
10
80.0
20
-90.0
40
0.0
41
0.0
42
0.0
10
70.0
20
-90.0
40
0.0
41
0.0
42
0.0
10
70.0
20
-88.5867011515323
40
0.0
41
0.0
42
0.0639996779073499
210
0.0
220
0.0
230
1.0
0
HATCH
5
100
330
1B
100
AcDbEntity
67
0
8
layer 28
62
4
6
ByLayer
370
0
48
1.0
60
0
100
AcDbHatch
10
0.0
20
0.0
30
0.0
210
0.0
220
0.0
230
1.0
2
LINE
70
0
71
1
91
1
92
7
72
1
73
1
93
4
10
79.0904419541548
20
-81.6760512774351
42
0.0542125595502831
10
78.5658630009862
20
-83.5
42
0.0
10
70.0
20
-83.5
42
0.0
10
70.0
20
-81.9191543734116
42
-0.063398433296291
97
1
330
FF
75
0
76
0
52
45.0
41
0.5
77
0
78
0
47
0.0
98
1
10
0.0
20
0.0
1001
ACAD
1010
0.0
1020
0.0
1030
0.0
0
LWPOLYLINE
5
FF
102
{ACAD_REACTORS
330
100
102
}
330
1B
100
AcDbEntity
67
0
8
layer 28
62
4
6
ByLayer
370
13
48
1.0
60
0
100
AcDbPolyline
90
4
70
1
38
0.0
39
0.0
10
79.0904419541548
20
-81.6760512774351
40
0.0
41
0.0
42
0.0542125595502831
10
78.5658630009862
20
-83.5
40
0.0
41
0.0
42
0.0
10
70.0
20
-83.5
40
0.0
41
0.0
42
0.0
10
70.0
20
-81.9191543734116
40
0.0
41
0.0
42
-0.063398433296291
210
0.0
220
0.0
230
1.0
0
HATCH
5
102
330
1B
100
AcDbEntity
67
0
8
layer 28
62
4
6
ByLayer
370
0
48
1.0
60
0
100
AcDbHatch
10
0.0
20
0.0
30
0.0
210
0.0
220
0.0
230
1.0
2
LINE
70
0
71
1
91
1
92
7
72
1
73
1
93
4
10
78.5658630009862
20
-86.5
42
0.0542125595502831
10
79.0904419541548
20
-88.3239487225649
42
-0.063398433296291
10
70.0
20
-88.0808456265884
42
0.0
10
70.0
20
-86.5
42
0.0
97
1
330
101
75
0
76
0
52
45.0
41
0.5
77
0
78
0
47
0.0
98
1
10
0.0
20
0.0
1001
ACAD
1010
0.0
1020
0.0
1030
0.0
0
LWPOLYLINE
5
101
102
{ACAD_REACTORS
330
102
102
}
330
1B
100
AcDbEntity
67
0
8
layer 28
62
4
6
ByLayer
370
13
48
1.0
60
0
100
AcDbPolyline
90
4
70
1
38
0.0
39
0.0
10
78.5658630009862
20
-86.5
40
0.0
41
0.0
42
0.0542125595502831
10
79.0904419541548
20
-88.3239487225649
40
0.0
41
0.0
42
-0.063398433296291
10
70.0
20
-88.0808456265884
40
0.0
41
0.0
42
0.0
10
70.0
20
-86.5
40
0.0
41
0.0
42
0.0
210
0.0
220
0.0
230
1.0
0
LWPOLYLINE
5
104
330
1B
100
AcDbEntity
67
0
8
layer 29
62
3
6
ByLayer
370
-1
48
1.0
60
0
100
AcDbPolyline
90
4
70
1
38
0.0
39
0.0
10
21.0
20
-110.0
40
0.0
41
0.0
42
0.0
10
31.0
20
-110.0
40
0.0
41
0.0
42
0.0
10
31.0
20
-100.0
40
0.0
41
0.0
42
0.0
10
21.0
20
-100.0
40
0.0
41
0.0
42
0.0
210
0.0
220
0.0
230
1.0
0
LWPOLYLINE
5
106
330
1B
100
AcDbEntity
67
0
8
layer 29
62
3
6
ByLayer
370
-1
48
1.0
60
0
100
AcDbPolyline
90
4
70
1
38
0.0
39
0.0
10
21.5
20
-109.5
40
0.0
41
0.0
42
0.0
10
30.5
20
-109.5
40
0.0
41
0.0
42
0.0
10
30.5
20
-100.5
40
0.0
41
0.0
42
0.0
10
21.5
20
-100.5
40
0.0
41
0.0
42
0.0
210
0.0
220
0.0
230
1.0
0
LWPOLYLINE
5
107
330
1B
100
AcDbEntity
67
0
8
layer 29
62
2
6
ByLayer
370
-1
48
1.0
60
0
100
AcDbPolyline
90
4
70
1
38
0.0
39
0.0
10
10.0
20
-110.0
40
0.0
41
0.0
42
0.0
10
20.0
20
-110.0
40
0.0
41
0.0
42
0.0
10
20.0
20
-100.0
40
0.0
41
0.0
42
0.0
10
10.0
20
-100.0
40
0.0
41
0.0
42
0.0
210
0.0
220
0.0
230
1.0
0
LWPOLYLINE
5
108
330
1B
100
AcDbEntity
67
0
8
layer 29
62
2
6
ByLayer
370
-1
48
1.0
60
0
100
AcDbPolyline
90
4
70
1
38
0.0
39
0.0
10
10.5
20
-109.5
40
0.0
41
0.0
42
0.0
10
19.5
20
-109.5
40
0.0
41
0.0
42
0.0
10
19.5
20
-100.5
40
0.0
41
0.0
42
0.0
10
10.5
20
-100.5
40
0.0
41
0.0
42
0.0
210
0.0
220
0.0
230
1.0
0
HATCH
5
10B
330
1B
100
AcDbEntity
67
0
8
layer 29
62
4
6
ByLayer
370
0
48
1.0
60
0
100
AcDbHatch
10
0.0
20
0.0
30
0.0
210
0.0
220
0.0
230
1.0
2
LINE
70
0
71
1
91
2
92
7
72
1
73
1
93
4
10
10.0
20
-110.0
42
0.0
10
20.0
20
-110.0
42
0.0
10
20.0
20
-100.0
42
0.0
10
10.0
20
-100.0
42
0.0
97
1
330
109
92
7
72
1
73
1
93
4
10
10.5
20
-109.5
42
0.0
10
19.5
20
-109.5
42
0.0
10
19.5
20
-100.5
42
0.0
10
10.5
20
-100.5
42
0.0
97
1
330
10A
75
0
76
0
52
45.0
41
0.5
77
0
78
0
47
0.0
98
1
10
0.0
20
0.0
1001
ACAD
1010
0.0
1020
0.0
1030
0.0
0
LWPOLYLINE
5
109
102
{ACAD_REACTORS
330
10B
102
}
330
1B
100
AcDbEntity
67
0
8
layer 29
62
4
6
ByLayer
370
13
48
1.0
60
0
100
AcDbPolyline
90
4
70
1
38
0.0
39
0.0
10
10.0
20
-110.0
40
0.0
41
0.0
42
0.0
10
20.0
20
-110.0
40
0.0
41
0.0
42
0.0
10
20.0
20
-100.0
40
0.0
41
0.0
42
0.0
10
10.0
20
-100.0
40
0.0
41
0.0
42
0.0
210
0.0
220
0.0
230
1.0
0
LWPOLYLINE
5
10A
102
{ACAD_REACTORS
330
10B
102
}
330
1B
100
AcDbEntity
67
0
8
layer 29
62
4
6
ByLayer
370
13
48
1.0
60
0
100
AcDbPolyline
90
4
70
1
38
0.0
39
0.0
10
10.5
20
-109.5
40
0.0
41
0.0
42
0.0
10
19.5
20
-109.5
40
0.0
41
0.0
42
0.0
10
19.5
20
-100.5
40
0.0
41
0.0
42
0.0
10
10.5
20
-100.5
40
0.0
41
0.0
42
0.0
210
0.0
220
0.0
230
1.0
0
LWPOLYLINE
5
10D
330
1B
100
AcDbEntity
67
0
8
layer 30
62
3
6
ByLayer
370
-1
48
1.0
60
0
100
AcDbPolyline
90
4
70
1
38
0.0
39
0.0
10
50.0
20
-110.0
40
0.0
41
0.0
42
0.0
10
60.0
20
-110.0
40
0.0
41
0.0
42
0.0
10
60.0
20
-100.0
40
0.0
41
0.0
42
0.0
10
50.0
20
-100.0
40
0.0
41
0.0
42
0.0
210
0.0
220
0.0
230
1.0
0
LWPOLYLINE
5
10F
330
1B
100
AcDbEntity
67
0
8
layer 30
62
3
6
ByLayer
370
-1
48
1.0
60
0
100
AcDbPolyline
90
4
70
1
38
0.0
39
0.0
10
50.5
20
-109.5
40
0.0
41
0.0
42
0.0
10
59.5
20
-109.5
40
0.0
41
0.0
42
0.0
10
59.5
20
-100.5
40
0.0
41
0.0
42
0.0
10
50.5
20
-100.5
40
0.0
41
0.0
42
0.0
210
0.0
220
0.0
230
1.0
0
LWPOLYLINE
5
110
330
1B
100
AcDbEntity
67
0
8
layer 30
62
2
6
ByLayer
370
-1
48
1.0
60
0
100
AcDbPolyline
90
4
70
1
38
0.0
39
0.0
10
40.0
20
-110.0
40
0.0
41
0.0
42
0.0
10
50.0
20
-110.0
40
0.0
41
0.0
42
0.0
10
50.0
20
-100.0
40
0.0
41
0.0
42
0.0
10
40.0
20
-100.0
40
0.0
41
0.0
42
0.0
210
0.0
220
0.0
230
1.0
0
LWPOLYLINE
5
111
330
1B
100
AcDbEntity
67
0
8
layer 30
62
2
6
ByLayer
370
-1
48
1.0
60
0
100
AcDbPolyline
90
4
70
1
38
0.0
39
0.0
10
40.5
20
-109.5
40
0.0
41
0.0
42
0.0
10
49.5
20
-109.5
40
0.0
41
0.0
42
0.0
10
49.5
20
-100.5
40
0.0
41
0.0
42
0.0
10
40.5
20
-100.5
40
0.0
41
0.0
42
0.0
210
0.0
220
0.0
230
1.0
0
HATCH
5
114
330
1B
100
AcDbEntity
67
0
8
layer 30
62
4
6
ByLayer
370
0
48
1.0
60
0
100
AcDbHatch
10
0.0
20
0.0
30
0.0
210
0.0
220
0.0
230
1.0
2
LINE
70
0
71
1
91
2
92
7
72
1
73
1
93
4
10
40.0
20
-110.0
42
0.0
10
50.0
20
-110.0
42
0.0
10
50.0
20
-100.0
42
0.0
10
40.0
20
-100.0
42
0.0
97
1
330
112
92
7
72
1
73
1
93
4
10
40.5
20
-109.5
42
0.0
10
49.5
20
-109.5
42
0.0
10
49.5
20
-100.5
42
0.0
10
40.5
20
-100.5
42
0.0
97
1
330
113
75
0
76
0
52
45.0
41
0.5
77
0
78
0
47
0.0
98
1
10
0.0
20
0.0
1001
ACAD
1010
0.0
1020
0.0
1030
0.0
0
LWPOLYLINE
5
112
102
{ACAD_REACTORS
330
114
102
}
330
1B
100
AcDbEntity
67
0
8
layer 30
62
4
6
ByLayer
370
13
48
1.0
60
0
100
AcDbPolyline
90
4
70
1
38
0.0
39
0.0
10
40.0
20
-110.0
40
0.0
41
0.0
42
0.0
10
50.0
20
-110.0
40
0.0
41
0.0
42
0.0
10
50.0
20
-100.0
40
0.0
41
0.0
42
0.0
10
40.0
20
-100.0
40
0.0
41
0.0
42
0.0
210
0.0
220
0.0
230
1.0
0
LWPOLYLINE
5
113
102
{ACAD_REACTORS
330
114
102
}
330
1B
100
AcDbEntity
67
0
8
layer 30
62
4
6
ByLayer
370
13
48
1.0
60
0
100
AcDbPolyline
90
4
70
1
38
0.0
39
0.0
10
40.5
20
-109.5
40
0.0
41
0.0
42
0.0
10
49.5
20
-109.5
40
0.0
41
0.0
42
0.0
10
49.5
20
-100.5
40
0.0
41
0.0
42
0.0
10
40.5
20
-100.5
40
0.0
41
0.0
42
0.0
210
0.0
220
0.0
230
1.0
0
LWPOLYLINE
5
116
330
1B
100
AcDbEntity
67
0
8
layer 31
62
3
6
ByLayer
370
-1
48
1.0
60
0
100
AcDbPolyline
90
4
70
1
38
0.0
39
0.0
10
70.0
20
-110.0
40
0.0
41
0.0
42
0.0
10
80.0
20
-110.0
40
0.0
41
0.0
42
0.0
10
80.0
20
-100.0
40
0.0
41
0.0
42
0.0
10
70.0
20
-100.0
40
0.0
41
0.0
42
0.0
210
0.0
220
0.0
230
1.0
0
LWPOLYLINE
5
118
330
1B
100
AcDbEntity
67
0
8
layer 31
62
3
6
ByLayer
370
-1
48
1.0
60
0
100
AcDbPolyline
90
4
70
1
38
0.0
39
0.0
10
70.5
20
-109.5
40
0.0
41
0.0
42
0.0
10
79.5
20
-109.5
40
0.0
41
0.0
42
0.0
10
79.5
20
-100.5
40
0.0
41
0.0
42
0.0
10
70.5
20
-100.5
40
0.0
41
0.0
42
0.0
210
0.0
220
0.0
230
1.0
0
LWPOLYLINE
5
119
330
1B
100
AcDbEntity
67
0
8
layer 31
62
2
6
ByLayer
370
-1
48
1.0
60
0
100
AcDbPolyline
90
4
70
1
38
0.0
39
0.0
10
70.0
20
-110.0
40
0.0
41
0.0
42
0.0
10
80.0
20
-110.0
40
0.0
41
0.0
42
0.0
10
80.0
20
-100.0
40
0.0
41
0.0
42
0.0
10
70.0
20
-100.0
40
0.0
41
0.0
42
0.0
210
0.0
220
0.0
230
1.0
0
LWPOLYLINE
5
11A
330
1B
100
AcDbEntity
67
0
8
layer 31
62
2
6
ByLayer
370
-1
48
1.0
60
0
100
AcDbPolyline
90
4
70
1
38
0.0
39
0.0
10
70.5
20
-109.5
40
0.0
41
0.0
42
0.0
10
79.5
20
-109.5
40
0.0
41
0.0
42
0.0
10
79.5
20
-100.5
40
0.0
41
0.0
42
0.0
10
70.5
20
-100.5
40
0.0
41
0.0
42
0.0
210
0.0
220
0.0
230
1.0
0
LWPOLYLINE
5
11C
330
1B
100
AcDbEntity
67
0
8
layer 32
62
3
6
ByLayer
370
-1
48
1.0
60
0
100
AcDbPolyline
90
4
70
1
38
0.0
39
0.0
10
92.0
20
-108.0
40
0.0
41
0.0
42
0.0
10
98.0
20
-108.0
40
0.0
41
0.0
42
0.0
10
98.0
20
-102.0
40
0.0
41
0.0
42
0.0
10
92.0
20
-102.0
40
0.0
41
0.0
42
0.0
210
0.0
220
0.0
230
1.0
0
LWPOLYLINE
5
11E
330
1B
100
AcDbEntity
67
0
8
layer 32
62
3
6
ByLayer
370
-1
48
1.0
60
0
100
AcDbPolyline
90
4
70
1
38
0.0
39
0.0
10
92.5
20
-107.5
40
0.0
41
0.0
42
0.0
10
97.5
20
-107.5
40
0.0
41
0.0
42
0.0
10
97.5
20
-102.5
40
0.0
41
0.0
42
0.0
10
92.5
20
-102.5
40
0.0
41
0.0
42
0.0
210
0.0
220
0.0
230
1.0
0
LWPOLYLINE
5
11F
330
1B
100
AcDbEntity
67
0
8
layer 32
62
2
6
ByLayer
370
-1
48
1.0
60
0
100
AcDbPolyline
90
4
70
1
38
0.0
39
0.0
10
90.0
20
-110.0
40
0.0
41
0.0
42
0.0
10
100.0
20
-110.0
40
0.0
41
0.0
42
0.0
10
100.0
20
-100.0
40
0.0
41
0.0
42
0.0
10
90.0
20
-100.0
40
0.0
41
0.0
42
0.0
210
0.0
220
0.0
230
1.0
0
LWPOLYLINE
5
120
330
1B
100
AcDbEntity
67
0
8
layer 32
62
2
6
ByLayer
370
-1
48
1.0
60
0
100
AcDbPolyline
90
4
70
1
38
0.0
39
0.0
10
90.5
20
-109.5
40
0.0
41
0.0
42
0.0
10
99.5
20
-109.5
40
0.0
41
0.0
42
0.0
10
99.5
20
-100.5
40
0.0
41
0.0
42
0.0
10
90.5
20
-100.5
40
0.0
41
0.0
42
0.0
210
0.0
220
0.0
230
1.0
0
HATCH
5
123
330
1B
100
AcDbEntity
67
0
8
layer 32
62
4
6
ByLayer
370
0
48
1.0
60
0
100
AcDbHatch
10
0.0
20
0.0
30
0.0
210
0.0
220
0.0
230
1.0
2
LINE
70
0
71
1
91
2
92
7
72
1
73
1
93
4
10
90.0
20
-110.0
42
0.0
10
100.0
20
-110.0
42
0.0
10
100.0
20
-100.0
42
0.0
10
90.0
20
-100.0
42
0.0
97
1
330
121
92
7
72
1
73
1
93
4
10
90.5
20
-109.5
42
0.0
10
99.5
20
-109.5
42
0.0
10
99.5
20
-100.5
42
0.0
10
90.5
20
-100.5
42
0.0
97
1
330
122
75
0
76
0
52
45.0
41
0.5
77
0
78
0
47
0.0
98
1
10
0.0
20
0.0
1001
ACAD
1010
0.0
1020
0.0
1030
0.0
0
LWPOLYLINE
5
121
102
{ACAD_REACTORS
330
123
102
}
330
1B
100
AcDbEntity
67
0
8
layer 32
62
4
6
ByLayer
370
13
48
1.0
60
0
100
AcDbPolyline
90
4
70
1
38
0.0
39
0.0
10
90.0
20
-110.0
40
0.0
41
0.0
42
0.0
10
100.0
20
-110.0
40
0.0
41
0.0
42
0.0
10
100.0
20
-100.0
40
0.0
41
0.0
42
0.0
10
90.0
20
-100.0
40
0.0
41
0.0
42
0.0
210
0.0
220
0.0
230
1.0
0
LWPOLYLINE
5
122
102
{ACAD_REACTORS
330
123
102
}
330
1B
100
AcDbEntity
67
0
8
layer 32
62
4
6
ByLayer
370
13
48
1.0
60
0
100
AcDbPolyline
90
4
70
1
38
0.0
39
0.0
10
90.5
20
-109.5
40
0.0
41
0.0
42
0.0
10
99.5
20
-109.5
40
0.0
41
0.0
42
0.0
10
99.5
20
-100.5
40
0.0
41
0.0
42
0.0
10
90.5
20
-100.5
40
0.0
41
0.0
42
0.0
210
0.0
220
0.0
230
1.0
0
LWPOLYLINE
5
125
330
1B
100
AcDbEntity
67
0
8
layer 33
62
3
6
ByLayer
370
-1
48
1.0
60
0
100
AcDbPolyline
90
4
70
1
38
0.0
39
0.0
10
18.0
20
-130.0
40
0.0
41
0.0
42
0.0
10
28.0
20
-130.0
40
0.0
41
0.0
42
0.0
10
28.0
20
-120.0
40
0.0
41
0.0
42
0.0
10
18.0
20
-120.0
40
0.0
41
0.0
42
0.0
210
0.0
220
0.0
230
1.0
0
LWPOLYLINE
5
127
330
1B
100
AcDbEntity
67
0
8
layer 33
62
3
6
ByLayer
370
-1
48
1.0
60
0
100
AcDbPolyline
90
4
70
1
38
0.0
39
0.0
10
18.5
20
-129.5
40
0.0
41
0.0
42
0.0
10
27.5
20
-129.5
40
0.0
41
0.0
42
0.0
10
27.5
20
-120.5
40
0.0
41
0.0
42
0.0
10
18.5
20
-120.5
40
0.0
41
0.0
42
0.0
210
0.0
220
0.0
230
1.0
0
LWPOLYLINE
5
128
330
1B
100
AcDbEntity
67
0
8
layer 33
62
2
6
ByLayer
370
-1
48
1.0
60
0
100
AcDbPolyline
90
4
70
1
38
0.0
39
0.0
10
10.0
20
-130.0
40
0.0
41
0.0
42
0.0
10
20.0
20
-130.0
40
0.0
41
0.0
42
0.0
10
20.0
20
-120.0
40
0.0
41
0.0
42
0.0
10
10.0
20
-120.0
40
0.0
41
0.0
42
0.0
210
0.0
220
0.0
230
1.0
0
LWPOLYLINE
5
129
330
1B
100
AcDbEntity
67
0
8
layer 33
62
2
6
ByLayer
370
-1
48
1.0
60
0
100
AcDbPolyline
90
4
70
1
38
0.0
39
0.0
10
10.5
20
-129.5
40
0.0
41
0.0
42
0.0
10
19.5
20
-129.5
40
0.0
41
0.0
42
0.0
10
19.5
20
-120.5
40
0.0
41
0.0
42
0.0
10
10.5
20
-120.5
40
0.0
41
0.0
42
0.0
210
0.0
220
0.0
230
1.0
0
HATCH
5
12B
330
1B
100
AcDbEntity
67
0
8
layer 33
62
4
6
ByLayer
370
0
48
1.0
60
0
100
AcDbHatch
10
0.0
20
0.0
30
0.0
210
0.0
220
0.0
230
1.0
2
LINE
70
0
71
1
91
1
92
7
72
1
73
1
93
8
10
18.0
20
-130.0
42
0.0
10
10.0
20
-130.0
42
0.0
10
10.0
20
-120.0
42
0.0
10
18.0
20
-120.0
42
0.0
10
18.0
20
-120.5
42
0.0
10
10.5
20
-120.5
42
0.0
10
10.5
20
-129.5
42
0.0
10
18.0
20
-129.5
42
0.0
97
1
330
12A
75
0
76
0
52
45.0
41
0.5
77
0
78
0
47
0.0
98
1
10
0.0
20
0.0
1001
ACAD
1010
0.0
1020
0.0
1030
0.0
0
LWPOLYLINE
5
12A
102
{ACAD_REACTORS
330
12B
102
}
330
1B
100
AcDbEntity
67
0
8
layer 33
62
4
6
ByLayer
370
13
48
1.0
60
0
100
AcDbPolyline
90
8
70
1
38
0.0
39
0.0
10
18.0
20
-130.0
40
0.0
41
0.0
42
0.0
10
10.0
20
-130.0
40
0.0
41
0.0
42
0.0
10
10.0
20
-120.0
40
0.0
41
0.0
42
0.0
10
18.0
20
-120.0
40
0.0
41
0.0
42
0.0
10
18.0
20
-120.5
40
0.0
41
0.0
42
0.0
10
10.5
20
-120.5
40
0.0
41
0.0
42
0.0
10
10.5
20
-129.5
40
0.0
41
0.0
42
0.0
10
18.0
20
-129.5
40
0.0
41
0.0
42
0.0
210
0.0
220
0.0
230
1.0
0
HATCH
5
12D
330
1B
100
AcDbEntity
67
0
8
layer 33
62
4
6
ByLayer
370
0
48
1.0
60
0
100
AcDbHatch
10
0.0
20
0.0
30
0.0
210
0.0
220
0.0
230
1.0
2
LINE
70
0
71
1
91
1
92
7
72
1
73
1
93
4
10
20.0
20
-129.5
42
0.0
10
20.0
20
-120.5
42
0.0
10
19.5
20
-120.5
42
0.0
10
19.5
20
-129.5
42
0.0
97
1
330
12C
75
0
76
0
52
45.0
41
0.5
77
0
78
0
47
0.0
98
1
10
0.0
20
0.0
1001
ACAD
1010
0.0
1020
0.0
1030
0.0
0
LWPOLYLINE
5
12C
102
{ACAD_REACTORS
330
12D
102
}
330
1B
100
AcDbEntity
67
0
8
layer 33
62
4
6
ByLayer
370
13
48
1.0
60
0
100
AcDbPolyline
90
4
70
1
38
0.0
39
0.0
10
20.0
20
-129.5
40
0.0
41
0.0
42
0.0
10
20.0
20
-120.5
40
0.0
41
0.0
42
0.0
10
19.5
20
-120.5
40
0.0
41
0.0
42
0.0
10
19.5
20
-129.5
40
0.0
41
0.0
42
0.0
210
0.0
220
0.0
230
1.0
0
LWPOLYLINE
5
12F
330
1B
100
AcDbEntity
67
0
8
layer 34
62
3
6
ByLayer
370
-1
48
1.0
60
0
100
AcDbPolyline
90
4
70
1
38
0.0
39
0.0
10
48.0
20
-132.0
40
0.0
41
0.0
42
0.0
10
58.0
20
-132.0
40
0.0
41
0.0
42
0.0
10
58.0
20
-122.0
40
0.0
41
0.0
42
0.0
10
48.0
20
-122.0
40
0.0
41
0.0
42
0.0
210
0.0
220
0.0
230
1.0
0
LWPOLYLINE
5
131
330
1B
100
AcDbEntity
67
0
8
layer 34
62
3
6
ByLayer
370
-1
48
1.0
60
0
100
AcDbPolyline
90
4
70
1
38
0.0
39
0.0
10
48.5
20
-131.5
40
0.0
41
0.0
42
0.0
10
57.5
20
-131.5
40
0.0
41
0.0
42
0.0
10
57.5
20
-122.5
40
0.0
41
0.0
42
0.0
10
48.5
20
-122.5
40
0.0
41
0.0
42
0.0
210
0.0
220
0.0
230
1.0
0
LWPOLYLINE
5
132
330
1B
100
AcDbEntity
67
0
8
layer 34
62
2
6
ByLayer
370
-1
48
1.0
60
0
100
AcDbPolyline
90
4
70
1
38
0.0
39
0.0
10
40.0
20
-130.0
40
0.0
41
0.0
42
0.0
10
50.0
20
-130.0
40
0.0
41
0.0
42
0.0
10
50.0
20
-120.0
40
0.0
41
0.0
42
0.0
10
40.0
20
-120.0
40
0.0
41
0.0
42
0.0
210
0.0
220
0.0
230
1.0
0
LWPOLYLINE
5
133
330
1B
100
AcDbEntity
67
0
8
layer 34
62
2
6
ByLayer
370
-1
48
1.0
60
0
100
AcDbPolyline
90
4
70
1
38
0.0
39
0.0
10
40.5
20
-129.5
40
0.0
41
0.0
42
0.0
10
49.5
20
-129.5
40
0.0
41
0.0
42
0.0
10
49.5
20
-120.5
40
0.0
41
0.0
42
0.0
10
40.5
20
-120.5
40
0.0
41
0.0
42
0.0
210
0.0
220
0.0
230
1.0
0
HATCH
5
135
330
1B
100
AcDbEntity
67
0
8
layer 34
62
4
6
ByLayer
370
0
48
1.0
60
0
100
AcDbHatch
10
0.0
20
0.0
30
0.0
210
0.0
220
0.0
230
1.0
2
LINE
70
0
71
1
91
1
92
7
72
1
73
1
93
10
10
48.0
20
-130.0
42
0.0
10
40.0
20
-130.0
42
0.0
10
40.0
20
-120.0
42
0.0
10
50.0
20
-120.0
42
0.0
10
50.0
20
-122.0
42
0.0
10
49.5
20
-122.0
42
0.0
10
49.5
20
-120.5
42
0.0
10
40.5
20
-120.5
42
0.0
10
40.5
20
-129.5
42
0.0
10
48.0
20
-129.5
42
0.0
97
1
330
134
75
0
76
0
52
45.0
41
0.5
77
0
78
0
47
0.0
98
1
10
0.0
20
0.0
1001
ACAD
1010
0.0
1020
0.0
1030
0.0
0
LWPOLYLINE
5
134
102
{ACAD_REACTORS
330
135
102
}
330
1B
100
AcDbEntity
67
0
8
layer 34
62
4
6
ByLayer
370
13
48
1.0
60
0
100
AcDbPolyline
90
10
70
1
38
0.0
39
0.0
10
48.0
20
-130.0
40
0.0
41
0.0
42
0.0
10
40.0
20
-130.0
40
0.0
41
0.0
42
0.0
10
40.0
20
-120.0
40
0.0
41
0.0
42
0.0
10
50.0
20
-120.0
40
0.0
41
0.0
42
0.0
10
50.0
20
-122.0
40
0.0
41
0.0
42
0.0
10
49.5
20
-122.0
40
0.0
41
0.0
42
0.0
10
49.5
20
-120.5
40
0.0
41
0.0
42
0.0
10
40.5
20
-120.5
40
0.0
41
0.0
42
0.0
10
40.5
20
-129.5
40
0.0
41
0.0
42
0.0
10
48.0
20
-129.5
40
0.0
41
0.0
42
0.0
210
0.0
220
0.0
230
1.0
0
HATCH
5
137
330
1B
100
AcDbEntity
67
0
8
layer 34
62
4
6
ByLayer
370
0
48
1.0
60
0
100
AcDbHatch
10
0.0
20
0.0
30
0.0
210
0.0
220
0.0
230
1.0
2
LINE
70
0
71
1
91
1
92
7
72
1
73
1
93
6
10
48.5
20
-130.0
42
0.0
10
50.0
20
-130.0
42
0.0
10
50.0
20
-122.5
42
0.0
10
49.5
20
-122.5
42
0.0
10
49.5
20
-129.5
42
0.0
10
48.5
20
-129.5
42
0.0
97
1
330
136
75
0
76
0
52
45.0
41
0.5
77
0
78
0
47
0.0
98
1
10
0.0
20
0.0
1001
ACAD
1010
0.0
1020
0.0
1030
0.0
0
LWPOLYLINE
5
136
102
{ACAD_REACTORS
330
137
102
}
330
1B
100
AcDbEntity
67
0
8
layer 34
62
4
6
ByLayer
370
13
48
1.0
60
0
100
AcDbPolyline
90
6
70
1
38
0.0
39
0.0
10
48.5
20
-130.0
40
0.0
41
0.0
42
0.0
10
50.0
20
-130.0
40
0.0
41
0.0
42
0.0
10
50.0
20
-122.5
40
0.0
41
0.0
42
0.0
10
49.5
20
-122.5
40
0.0
41
0.0
42
0.0
10
49.5
20
-129.5
40
0.0
41
0.0
42
0.0
10
48.5
20
-129.5
40
0.0
41
0.0
42
0.0
210
0.0
220
0.0
230
1.0
0
LWPOLYLINE
5
139
330
1B
100
AcDbEntity
67
0
8
layer 35
62
3
6
ByLayer
370
-1
48
1.0
60
0
100
AcDbPolyline
90
8
70
1
38
0.0
39
0.0
10
67.0
20
-122.0
40
0.0
41
0.0
42
0.0
10
84.0
20
-122.0
40
0.0
41
0.0
42
0.0
10
84.0
20
-124.0
40
0.0
41
0.0
42
0.0
10
69.0
20
-124.0
40
0.0
41
0.0
42
0.0
10
69.0
20
-126.0
40
0.0
41
0.0
42
0.0
10
84.0
20
-126.0
40
0.0
41
0.0
42
0.0
10
84.0
20
-128.0
40
0.0
41
0.0
42
0.0
10
67.0
20
-128.0
40
0.0
41
0.0
42
0.0
210
0.0
220
0.0
230
1.0
0
LWPOLYLINE
5
13B
330
1B
100
AcDbEntity
67
0
8
layer 35
62
3
6
ByLayer
370
-1
48
1.0
60
0
100
AcDbPolyline
90
8
70
1
38
0.0
39
0.0
10
67.5
20
-122.5
40
0.0
41
0.0
42
0.0
10
83.5
20
-122.5
40
0.0
41
0.0
42
0.0
10
83.5
20
-123.5
40
0.0
41
0.0
42
0.0
10
68.5
20
-123.5
40
0.0
41
0.0
42
0.0
10
68.5
20
-126.5
40
0.0
41
0.0
42
0.0
10
83.5
20
-126.5
40
0.0
41
0.0
42
0.0
10
83.5
20
-127.5
40
0.0
41
0.0
42
0.0
10
67.5
20
-127.5
40
0.0
41
0.0
42
0.0
210
0.0
220
0.0
230
1.0
0
LWPOLYLINE
5
13C
330
1B
100
AcDbEntity
67
0
8
layer 35
62
2
6
ByLayer
370
-1
48
1.0
60
0
100
AcDbPolyline
90
4
70
1
38
0.0
39
0.0
10
70.0
20
-130.0
40
0.0
41
0.0
42
0.0
10
80.0
20
-130.0
40
0.0
41
0.0
42
0.0
10
80.0
20
-120.0
40
0.0
41
0.0
42
0.0
10
70.0
20
-120.0
40
0.0
41
0.0
42
0.0
210
0.0
220
0.0
230
1.0
0
LWPOLYLINE
5
13D
330
1B
100
AcDbEntity
67
0
8
layer 35
62
2
6
ByLayer
370
-1
48
1.0
60
0
100
AcDbPolyline
90
4
70
1
38
0.0
39
0.0
10
70.5
20
-129.5
40
0.0
41
0.0
42
0.0
10
79.5
20
-129.5
40
0.0
41
0.0
42
0.0
10
79.5
20
-120.5
40
0.0
41
0.0
42
0.0
10
70.5
20
-120.5
40
0.0
41
0.0
42
0.0
210
0.0
220
0.0
230
1.0
0
HATCH
5
13F
330
1B
100
AcDbEntity
67
0
8
layer 35
62
4
6
ByLayer
370
0
48
1.0
60
0
100
AcDbHatch
10
0.0
20
0.0
30
0.0
210
0.0
220
0.0
230
1.0
2
LINE
70
0
71
1
91
1
92
7
72
1
73
1
93
8
10
80.0
20
-122.0
42
0.0
10
80.0
20
-120.0
42
0.0
10
70.0
20
-120.0
42
0.0
10
70.0
20
-122.0
42
0.0
10
70.5
20
-122.0
42
0.0
10
70.5
20
-120.5
42
0.0
10
79.5
20
-120.5
42
0.0
10
79.5
20
-122.0
42
0.0
97
1
330
13E
75
0
76
0
52
45.0
41
0.5
77
0
78
0
47
0.0
98
1
10
0.0
20
0.0
1001
ACAD
1010
0.0
1020
0.0
1030
0.0
0
LWPOLYLINE
5
13E
102
{ACAD_REACTORS
330
13F
102
}
330
1B
100
AcDbEntity
67
0
8
layer 35
62
4
6
ByLayer
370
13
48
1.0
60
0
100
AcDbPolyline
90
8
70
1
38
0.0
39
0.0
10
80.0
20
-122.0
40
0.0
41
0.0
42
0.0
10
80.0
20
-120.0
40
0.0
41
0.0
42
0.0
10
70.0
20
-120.0
40
0.0
41
0.0
42
0.0
10
70.0
20
-122.0
40
0.0
41
0.0
42
0.0
10
70.5
20
-122.0
40
0.0
41
0.0
42
0.0
10
70.5
20
-120.5
40
0.0
41
0.0
42
0.0
10
79.5
20
-120.5
40
0.0
41
0.0
42
0.0
10
79.5
20
-122.0
40
0.0
41
0.0
42
0.0
210
0.0
220
0.0
230
1.0
0
HATCH
5
141
330
1B
100
AcDbEntity
67
0
8
layer 35
62
4
6
ByLayer
370
0
48
1.0
60
0
100
AcDbHatch
10
0.0
20
0.0
30
0.0
210
0.0
220
0.0
230
1.0
2
LINE
70
0
71
1
91
1
92
7
72
1
73
1
93
4
10
80.0
20
-124.0
42
0.0
10
80.0
20
-126.0
42
0.0
10
79.5
20
-126.0
42
0.0
10
79.5
20
-124.0
42
0.0
97
1
330
140
75
0
76
0
52
45.0
41
0.5
77
0
78
0
47
0.0
98
1
10
0.0
20
0.0
1001
ACAD
1010
0.0
1020
0.0
1030
0.0
0
LWPOLYLINE
5
140
102
{ACAD_REACTORS
330
141
102
}
330
1B
100
AcDbEntity
67
0
8
layer 35
62
4
6
ByLayer
370
13
48
1.0
60
0
100
AcDbPolyline
90
4
70
1
38
0.0
39
0.0
10
80.0
20
-124.0
40
0.0
41
0.0
42
0.0
10
80.0
20
-126.0
40
0.0
41
0.0
42
0.0
10
79.5
20
-126.0
40
0.0
41
0.0
42
0.0
10
79.5
20
-124.0
40
0.0
41
0.0
42
0.0
210
0.0
220
0.0
230
1.0
0
HATCH
5
143
330
1B
100
AcDbEntity
67
0
8
layer 35
62
4
6
ByLayer
370
0
48
1.0
60
0
100
AcDbHatch
10
0.0
20
0.0
30
0.0
210
0.0
220
0.0
230
1.0
2
LINE
70
0
71
1
91
1
92
7
72
1
73
1
93
8
10
80.0
20
-128.0
42
0.0
10
80.0
20
-130.0
42
0.0
10
70.0
20
-130.0
42
0.0
10
70.0
20
-128.0
42
0.0
10
70.5
20
-128.0
42
0.0
10
70.5
20
-129.5
42
0.0
10
79.5
20
-129.5
42
0.0
10
79.5
20
-128.0
42
0.0
97
1
330
142
75
0
76
0
52
45.0
41
0.5
77
0
78
0
47
0.0
98
1
10
0.0
20
0.0
1001
ACAD
1010
0.0
1020
0.0
1030
0.0
0
LWPOLYLINE
5
142
102
{ACAD_REACTORS
330
143
102
}
330
1B
100
AcDbEntity
67
0
8
layer 35
62
4
6
ByLayer
370
13
48
1.0
60
0
100
AcDbPolyline
90
8
70
1
38
0.0
39
0.0
10
80.0
20
-128.0
40
0.0
41
0.0
42
0.0
10
80.0
20
-130.0
40
0.0
41
0.0
42
0.0
10
70.0
20
-130.0
40
0.0
41
0.0
42
0.0
10
70.0
20
-128.0
40
0.0
41
0.0
42
0.0
10
70.5
20
-128.0
40
0.0
41
0.0
42
0.0
10
70.5
20
-129.5
40
0.0
41
0.0
42
0.0
10
79.5
20
-129.5
40
0.0
41
0.0
42
0.0
10
79.5
20
-128.0
40
0.0
41
0.0
42
0.0
210
0.0
220
0.0
230
1.0
0
HATCH
5
145
330
1B
100
AcDbEntity
67
0
8
layer 35
62
4
6
ByLayer
370
0
48
1.0
60
0
100
AcDbHatch
10
0.0
20
0.0
30
0.0
210
0.0
220
0.0
230
1.0
2
LINE
70
0
71
1
91
1
92
7
72
1
73
1
93
4
10
80.0
20
-122.5
42
0.0
10
80.0
20
-123.5
42
0.0
10
79.5
20
-123.5
42
0.0
10
79.5
20
-122.5
42
0.0
97
1
330
144
75
0
76
0
52
45.0
41
0.5
77
0
78
0
47
0.0
98
1
10
0.0
20
0.0
1001
ACAD
1010
0.0
1020
0.0
1030
0.0
0
LWPOLYLINE
5
144
102
{ACAD_REACTORS
330
145
102
}
330
1B
100
AcDbEntity
67
0
8
layer 35
62
4
6
ByLayer
370
13
48
1.0
60
0
100
AcDbPolyline
90
4
70
1
38
0.0
39
0.0
10
80.0
20
-122.5
40
0.0
41
0.0
42
0.0
10
80.0
20
-123.5
40
0.0
41
0.0
42
0.0
10
79.5
20
-123.5
40
0.0
41
0.0
42
0.0
10
79.5
20
-122.5
40
0.0
41
0.0
42
0.0
210
0.0
220
0.0
230
1.0
0
HATCH
5
147
330
1B
100
AcDbEntity
67
0
8
layer 35
62
4
6
ByLayer
370
0
48
1.0
60
0
100
AcDbHatch
10
0.0
20
0.0
30
0.0
210
0.0
220
0.0
230
1.0
2
LINE
70
0
71
1
91
1
92
7
72
1
73
1
93
4
10
80.0
20
-126.5
42
0.0
10
80.0
20
-127.5
42
0.0
10
79.5
20
-127.5
42
0.0
10
79.5
20
-126.5
42
0.0
97
1
330
146
75
0
76
0
52
45.0
41
0.5
77
0
78
0
47
0.0
98
1
10
0.0
20
0.0
1001
ACAD
1010
0.0
1020
0.0
1030
0.0
0
LWPOLYLINE
5
146
102
{ACAD_REACTORS
330
147
102
}
330
1B
100
AcDbEntity
67
0
8
layer 35
62
4
6
ByLayer
370
13
48
1.0
60
0
100
AcDbPolyline
90
4
70
1
38
0.0
39
0.0
10
80.0
20
-126.5
40
0.0
41
0.0
42
0.0
10
80.0
20
-127.5
40
0.0
41
0.0
42
0.0
10
79.5
20
-127.5
40
0.0
41
0.0
42
0.0
10
79.5
20
-126.5
40
0.0
41
0.0
42
0.0
210
0.0
220
0.0
230
1.0
0
HATCH
5
149
330
1B
100
AcDbEntity
67
0
8
layer 35
62
4
6
ByLayer
370
0
48
1.0
60
0
100
AcDbHatch
10
0.0
20
0.0
30
0.0
210
0.0
220
0.0
230
1.0
2
LINE
70
0
71
1
91
1
92
7
72
1
73
1
93
4
10
70.0
20
-124.0
42
0.0
10
70.0
20
-126.0
42
0.0
10
70.5
20
-126.0
42
0.0
10
70.5
20
-124.0
42
0.0
97
1
330
148
75
0
76
0
52
45.0
41
0.5
77
0
78
0
47
0.0
98
1
10
0.0
20
0.0
1001
ACAD
1010
0.0
1020
0.0
1030
0.0
0
LWPOLYLINE
5
148
102
{ACAD_REACTORS
330
149
102
}
330
1B
100
AcDbEntity
67
0
8
layer 35
62
4
6
ByLayer
370
13
48
1.0
60
0
100
AcDbPolyline
90
4
70
1
38
0.0
39
0.0
10
70.0
20
-124.0
40
0.0
41
0.0
42
0.0
10
70.0
20
-126.0
40
0.0
41
0.0
42
0.0
10
70.5
20
-126.0
40
0.0
41
0.0
42
0.0
10
70.5
20
-124.0
40
0.0
41
0.0
42
0.0
210
0.0
220
0.0
230
1.0
0
HATCH
5
14B
330
1B
100
AcDbEntity
67
0
8
layer 35
62
4
6
ByLayer
370
0
48
1.0
60
0
100
AcDbHatch
10
0.0
20
0.0
30
0.0
210
0.0
220
0.0
230
1.0
2
LINE
70
0
71
1
91
1
92
7
72
1
73
1
93
4
10
70.0
20
-122.5
42
0.0
10
70.0
20
-123.5
42
0.0
10
70.5
20
-123.5
42
0.0
10
70.5
20
-122.5
42
0.0
97
1
330
14A
75
0
76
0
52
45.0
41
0.5
77
0
78
0
47
0.0
98
1
10
0.0
20
0.0
1001
ACAD
1010
0.0
1020
0.0
1030
0.0
0
LWPOLYLINE
5
14A
102
{ACAD_REACTORS
330
14B
102
}
330
1B
100
AcDbEntity
67
0
8
layer 35
62
4
6
ByLayer
370
13
48
1.0
60
0
100
AcDbPolyline
90
4
70
1
38
0.0
39
0.0
10
70.0
20
-122.5
40
0.0
41
0.0
42
0.0
10
70.0
20
-123.5
40
0.0
41
0.0
42
0.0
10
70.5
20
-123.5
40
0.0
41
0.0
42
0.0
10
70.5
20
-122.5
40
0.0
41
0.0
42
0.0
210
0.0
220
0.0
230
1.0
0
HATCH
5
14D
330
1B
100
AcDbEntity
67
0
8
layer 35
62
4
6
ByLayer
370
0
48
1.0
60
0
100
AcDbHatch
10
0.0
20
0.0
30
0.0
210
0.0
220
0.0
230
1.0
2
LINE
70
0
71
1
91
1
92
7
72
1
73
1
93
4
10
70.0
20
-126.5
42
0.0
10
70.0
20
-127.5
42
0.0
10
70.5
20
-127.5
42
0.0
10
70.5
20
-126.5
42
0.0
97
1
330
14C
75
0
76
0
52
45.0
41
0.5
77
0
78
0
47
0.0
98
1
10
0.0
20
0.0
1001
ACAD
1010
0.0
1020
0.0
1030
0.0
0
LWPOLYLINE
5
14C
102
{ACAD_REACTORS
330
14D
102
}
330
1B
100
AcDbEntity
67
0
8
layer 35
62
4
6
ByLayer
370
13
48
1.0
60
0
100
AcDbPolyline
90
4
70
1
38
0.0
39
0.0
10
70.0
20
-126.5
40
0.0
41
0.0
42
0.0
10
70.0
20
-127.5
40
0.0
41
0.0
42
0.0
10
70.5
20
-127.5
40
0.0
41
0.0
42
0.0
10
70.5
20
-126.5
40
0.0
41
0.0
42
0.0
210
0.0
220
0.0
230
1.0
0
LWPOLYLINE
5
14F
330
1B
100
AcDbEntity
67
0
8
layer 36
62
3
6
ByLayer
370
-1
48
1.0
60
0
100
AcDbPolyline
90
4
70
1
38
0.0
39
0.0
10
21.0
20
-150.0
40
0.0
41
0.0
42
0.0
10
31.0
20
-150.0
40
0.0
41
0.0
42
0.0
10
31.0
20
-140.0
40
0.0
41
0.0
42
0.0
10
21.0
20
-140.0
40
0.0
41
0.0
42
0.31265021563387
210
0.0
220
0.0
230
1.0
0
LWPOLYLINE
5
151
330
1B
100
AcDbEntity
67
0
8
layer 36
62
3
6
ByLayer
370
-1
48
1.0
60
0
100
AcDbPolyline
90
4
70
1
38
0.0
39
0.0
10
21.2667489387557
20
-149.5
40
0.0
41
0.0
42
0.0
10
30.5
20
-149.5
40
0.0
41
0.0
42
0.0
10
30.5
20
-140.5
40
0.0
41
0.0
42
0.0
10
21.2667489387557
20
-140.5
40
0.0
41
0.0
42
0.29555555931667
210
0.0
220
0.0
230
1.0
0
LWPOLYLINE
5
152
330
1B
100
AcDbEntity
67
0
8
layer 36
62
2
6
ByLayer
370
-1
48
1.0
60
0
100
AcDbPolyline
90
4
70
1
38
0.0
39
0.0
10
10.0
20
-150.0
40
0.0
41
0.0
42
0.0
10
20.0
20
-150.0
40
0.0
41
0.0
42
-0.31265021563387
10
20.0
20
-140.0
40
0.0
41
0.0
42
0.0
10
10.0
20
-140.0
40
0.0
41
0.0
42
0.0
210
0.0
220
0.0
230
1.0
0
LWPOLYLINE
5
153
330
1B
100
AcDbEntity
67
0
8
layer 36
62
2
6
ByLayer
370
-1
48
1.0
60
0
100
AcDbPolyline
90
4
70
1
38
0.0
39
0.0
10
10.5
20
-149.5
40
0.0
41
0.0
42
0.0
10
19.101132217923
20
-149.5
40
0.0
41
0.0
42
-0.258751843576081
10
19.101132217923
20
-140.5
40
0.0
41
0.0
42
0.0
10
10.5
20
-140.5
40
0.0
41
0.0
42
0.0
210
0.0
220
0.0
230
1.0
0
HATCH
5
156
330
1B
100
AcDbEntity
67
0
8
layer 36
62
4
6
ByLayer
370
0
48
1.0
60
0
100
AcDbHatch
10
0.0
20
0.0
30
0.0
210
0.0
220
0.0
230
1.0
2
LINE
70
0
71
1
91
2
92
7
72
1
73
1
93
4
10
10.0
20
-150.0
42
0.0
10
20.0
20
-150.0
42
-0.31265021563387
10
20.0
20
-140.0
42
0.0
10
10.0
20
-140.0
42
0.0
97
1
330
154
92
7
72
1
73
1
93
4
10
10.5
20
-149.5
42
0.0
10
19.101132217923
20
-149.5
42
-0.258751843576081
10
19.101132217923
20
-140.5
42
0.0
10
10.5
20
-140.5
42
0.0
97
1
330
155
75
0
76
0
52
45.0
41
0.5
77
0
78
0
47
0.0
98
1
10
0.0
20
0.0
1001
ACAD
1010
0.0
1020
0.0
1030
0.0
0
LWPOLYLINE
5
154
102
{ACAD_REACTORS
330
156
102
}
330
1B
100
AcDbEntity
67
0
8
layer 36
62
4
6
ByLayer
370
13
48
1.0
60
0
100
AcDbPolyline
90
4
70
1
38
0.0
39
0.0
10
10.0
20
-150.0
40
0.0
41
0.0
42
0.0
10
20.0
20
-150.0
40
0.0
41
0.0
42
-0.31265021563387
10
20.0
20
-140.0
40
0.0
41
0.0
42
0.0
10
10.0
20
-140.0
40
0.0
41
0.0
42
0.0
210
0.0
220
0.0
230
1.0
0
LWPOLYLINE
5
155
102
{ACAD_REACTORS
330
156
102
}
330
1B
100
AcDbEntity
67
0
8
layer 36
62
4
6
ByLayer
370
13
48
1.0
60
0
100
AcDbPolyline
90
4
70
1
38
0.0
39
0.0
10
10.5
20
-149.5
40
0.0
41
0.0
42
0.0
10
19.101132217923
20
-149.5
40
0.0
41
0.0
42
-0.258751843576081
10
19.101132217923
20
-140.5
40
0.0
41
0.0
42
0.0
10
10.5
20
-140.5
40
0.0
41
0.0
42
0.0
210
0.0
220
0.0
230
1.0
0
LWPOLYLINE
5
158
330
1B
100
AcDbEntity
67
0
8
layer 37
62
3
6
ByLayer
370
-1
48
1.0
60
0
100
AcDbPolyline
90
4
70
1
38
0.0
39
0.0
10
50.0
20
-150.0
40
0.0
41
0.0
42
0.0
10
60.0
20
-150.0
40
0.0
41
0.0
42
0.0
10
60.0
20
-140.0
40
0.0
41
0.0
42
0.0
10
50.0
20
-140.0
40
0.0
41
0.0
42
0.31265021563387
210
0.0
220
0.0
230
1.0
0
LWPOLYLINE
5
15A
330
1B
100
AcDbEntity
67
0
8
layer 37
62
3
6
ByLayer
370
-1
48
1.0
60
0
100
AcDbPolyline
90
4
70
1
38
0.0
39
0.0
10
50.2667489387557
20
-149.5
40
0.0
41
0.0
42
0.0
10
59.5
20
-149.5
40
0.0
41
0.0
42
0.0
10
59.5
20
-140.5
40
0.0
41
0.0
42
0.0
10
50.2667489387557
20
-140.5
40
0.0
41
0.0
42
0.29555555931667
210
0.0
220
0.0
230
1.0
0
LWPOLYLINE
5
15B
330
1B
100
AcDbEntity
67
0
8
layer 37
62
2
6
ByLayer
370
-1
48
1.0
60
0
100
AcDbPolyline
90
4
70
1
38
0.0
39
0.0
10
40.0
20
-150.0
40
0.0
41
0.0
42
0.0
10
50.0
20
-150.0
40
0.0
41
0.0
42
-0.31265021563387
10
50.0
20
-140.0
40
0.0
41
0.0
42
0.0
10
40.0
20
-140.0
40
0.0
41
0.0
42
0.0
210
0.0
220
0.0
230
1.0
0
LWPOLYLINE
5
15C
330
1B
100
AcDbEntity
67
0
8
layer 37
62
2
6
ByLayer
370
-1
48
1.0
60
0
100
AcDbPolyline
90
4
70
1
38
0.0
39
0.0
10
40.5
20
-149.5
40
0.0
41
0.0
42
0.0
10
49.101132217923
20
-149.5
40
0.0
41
0.0
42
-0.258751843576081
10
49.101132217923
20
-140.5
40
0.0
41
0.0
42
0.0
10
40.5
20
-140.5
40
0.0
41
0.0
42
0.0
210
0.0
220
0.0
230
1.0
0
HATCH
5
15F
330
1B
100
AcDbEntity
67
0
8
layer 37
62
4
6
ByLayer
370
0
48
1.0
60
0
100
AcDbHatch
10
0.0
20
0.0
30
0.0
210
0.0
220
0.0
230
1.0
2
LINE
70
0
71
1
91
2
92
7
72
1
73
1
93
4
10
40.0
20
-150.0
42
0.0
10
50.0
20
-150.0
42
-0.31265021563387
10
50.0
20
-140.0
42
0.0
10
40.0
20
-140.0
42
0.0
97
1
330
15D
92
7
72
1
73
1
93
4
10
40.5
20
-149.5
42
0.0
10
49.101132217923
20
-149.5
42
-0.258751843576081
10
49.101132217923
20
-140.5
42
0.0
10
40.5
20
-140.5
42
0.0
97
1
330
15E
75
0
76
0
52
45.0
41
0.5
77
0
78
0
47
0.0
98
1
10
0.0
20
0.0
1001
ACAD
1010
0.0
1020
0.0
1030
0.0
0
LWPOLYLINE
5
15D
102
{ACAD_REACTORS
330
15F
102
}
330
1B
100
AcDbEntity
67
0
8
layer 37
62
4
6
ByLayer
370
13
48
1.0
60
0
100
AcDbPolyline
90
4
70
1
38
0.0
39
0.0
10
40.0
20
-150.0
40
0.0
41
0.0
42
0.0
10
50.0
20
-150.0
40
0.0
41
0.0
42
-0.31265021563387
10
50.0
20
-140.0
40
0.0
41
0.0
42
0.0
10
40.0
20
-140.0
40
0.0
41
0.0
42
0.0
210
0.0
220
0.0
230
1.0
0
LWPOLYLINE
5
15E
102
{ACAD_REACTORS
330
15F
102
}
330
1B
100
AcDbEntity
67
0
8
layer 37
62
4
6
ByLayer
370
13
48
1.0
60
0
100
AcDbPolyline
90
4
70
1
38
0.0
39
0.0
10
40.5
20
-149.5
40
0.0
41
0.0
42
0.0
10
49.101132217923
20
-149.5
40
0.0
41
0.0
42
-0.258751843576081
10
49.101132217923
20
-140.5
40
0.0
41
0.0
42
0.0
10
40.5
20
-140.5
40
0.0
41
0.0
42
0.0
210
0.0
220
0.0
230
1.0
0
LWPOLYLINE
5
161
330
1B
100
AcDbEntity
67
0
8
layer 38
62
3
6
ByLayer
370
-1
48
1.0
60
0
100
AcDbPolyline
90
4
70
1
38
0.0
39
0.0
10
70.0
20
-150.0
40
0.0
41
0.0
42
0.0
10
80.0
20
-150.0
40
0.0
41
0.0
42
0.0
10
80.0
20
-140.0
40
0.0
41
0.0
42
0.0
10
70.0
20
-140.0
40
0.0
41
0.0
42
0.31265021563387
210
0.0
220
0.0
230
1.0
0
LWPOLYLINE
5
163
330
1B
100
AcDbEntity
67
0
8
layer 38
62
3
6
ByLayer
370
-1
48
1.0
60
0
100
AcDbPolyline
90
4
70
1
38
0.0
39
0.0
10
70.2667489387557
20
-149.5
40
0.0
41
0.0
42
0.0
10
79.5
20
-149.5
40
0.0
41
0.0
42
0.0
10
79.5
20
-140.5
40
0.0
41
0.0
42
0.0
10
70.2667489387557
20
-140.5
40
0.0
41
0.0
42
0.29555555931667
210
0.0
220
0.0
230
1.0
0
LWPOLYLINE
5
164
330
1B
100
AcDbEntity
67
0
8
layer 38
62
2
6
ByLayer
370
-1
48
1.0
60
0
100
AcDbPolyline
90
4
70
1
38
0.0
39
0.0
10
70.0
20
-150.0
40
0.0
41
0.0
42
0.0
10
80.0
20
-150.0
40
0.0
41
0.0
42
0.0
10
80.0
20
-140.0
40
0.0
41
0.0
42
0.0
10
70.0
20
-140.0
40
0.0
41
0.0
42
0.31265021563387
210
0.0
220
0.0
230
1.0
0
LWPOLYLINE
5
165
330
1B
100
AcDbEntity
67
0
8
layer 38
62
2
6
ByLayer
370
-1
48
1.0
60
0
100
AcDbPolyline
90
4
70
1
38
0.0
39
0.0
10
70.2667489387557
20
-149.5
40
0.0
41
0.0
42
0.0
10
79.5
20
-149.5
40
0.0
41
0.0
42
0.0
10
79.5
20
-140.5
40
0.0
41
0.0
42
0.0
10
70.2667489387557
20
-140.5
40
0.0
41
0.0
42
0.29555555931667
210
0.0
220
0.0
230
1.0
0
LWPOLYLINE
5
167
330
1B
100
AcDbEntity
67
0
8
layer 39
62
3
6
ByLayer
370
-1
48
1.0
60
0
100
AcDbPolyline
90
4
70
1
38
0.0
39
0.0
10
91.0
20
-148.0
40
0.0
41
0.0
42
0.0
10
98.0
20
-148.0
40
0.0
41
0.0
42
0.0
10
98.0
20
-142.0
40
0.0
41
0.0
42
0.0
10
91.0
20
-142.0
40
0.0
41
0.0
42
0.31265021563387
210
0.0
220
0.0
230
1.0
0
LWPOLYLINE
5
169
330
1B
100
AcDbEntity
67
0
8
layer 39
62
3
6
ByLayer
370
-1
48
1.0
60
0
100
AcDbPolyline
90
4
70
1
38
0.0
39
0.0
10
91.2702539236171
20
-147.5
40
0.0
41
0.0
42
0.0
10
97.5
20
-147.5
40
0.0
41
0.0
42
0.0
10
97.5
20
-142.5
40
0.0
41
0.0
42
0.0
10
91.2702539236171
20
-142.5
40
0.0
41
0.0
42
0.283281828207466
210
0.0
220
0.0
230
1.0
0
LWPOLYLINE
5
16A
330
1B
100
AcDbEntity
67
0
8
layer 39
62
2
6
ByLayer
370
-1
48
1.0
60
0
100
AcDbPolyline
90
4
70
1
38
0.0
39
0.0
10
90.0
20
-150.0
40
0.0
41
0.0
42
0.0
10
100.0
20
-150.0
40
0.0
41
0.0
42
0.0
10
100.0
20
-140.0
40
0.0
41
0.0
42
0.0
10
90.0
20
-140.0
40
0.0
41
0.0
42
0.31265021563387
210
0.0
220
0.0
230
1.0
0
LWPOLYLINE
5
16B
330
1B
100
AcDbEntity
67
0
8
layer 39
62
2
6
ByLayer
370
-1
48
1.0
60
0
100
AcDbPolyline
90
4
70
1
38
0.0
39
0.0
10
90.2667489387557
20
-149.5
40
0.0
41
0.0
42
0.0
10
99.5
20
-149.5
40
0.0
41
0.0
42
0.0
10
99.5
20
-140.5
40
0.0
41
0.0
42
0.0
10
90.2667489387557
20
-140.5
40
0.0
41
0.0
42
0.29555555931667
210
0.0
220
0.0
230
1.0
0
HATCH
5
16E
330
1B
100
AcDbEntity
67
0
8
layer 39
62
4
6
ByLayer
370
0
48
1.0
60
0
100
AcDbHatch
10
0.0
20
0.0
30
0.0
210
0.0
220
0.0
230
1.0
2
LINE
70
0
71
1
91
2
92
7
72
1
73
1
93
4
10
90.0
20
-150.0
42
0.0
10
100.0
20
-150.0
42
0.0
10
100.0
20
-140.0
42
0.0
10
90.0
20
-140.0
42
0.31265021563387
97
1
330
16C
92
7
72
1
73
1
93
4
10
90.2667489387557
20
-149.5
42
0.0
10
99.5
20
-149.5
42
0.0
10
99.5
20
-140.5
42
0.0
10
90.2667489387557
20
-140.5
42
0.29555555931667
97
1
330
16D
75
0
76
0
52
45.0
41
0.5
77
0
78
0
47
0.0
98
1
10
0.0
20
0.0
1001
ACAD
1010
0.0
1020
0.0
1030
0.0
0
LWPOLYLINE
5
16C
102
{ACAD_REACTORS
330
16E
102
}
330
1B
100
AcDbEntity
67
0
8
layer 39
62
4
6
ByLayer
370
13
48
1.0
60
0
100
AcDbPolyline
90
4
70
1
38
0.0
39
0.0
10
90.0
20
-150.0
40
0.0
41
0.0
42
0.0
10
100.0
20
-150.0
40
0.0
41
0.0
42
0.0
10
100.0
20
-140.0
40
0.0
41
0.0
42
0.0
10
90.0
20
-140.0
40
0.0
41
0.0
42
0.31265021563387
210
0.0
220
0.0
230
1.0
0
LWPOLYLINE
5
16D
102
{ACAD_REACTORS
330
16E
102
}
330
1B
100
AcDbEntity
67
0
8
layer 39
62
4
6
ByLayer
370
13
48
1.0
60
0
100
AcDbPolyline
90
4
70
1
38
0.0
39
0.0
10
90.2667489387557
20
-149.5
40
0.0
41
0.0
42
0.0
10
99.5
20
-149.5
40
0.0
41
0.0
42
0.0
10
99.5
20
-140.5
40
0.0
41
0.0
42
0.0
10
90.2667489387557
20
-140.5
40
0.0
41
0.0
42
0.29555555931667
210
0.0
220
0.0
230
1.0
0
LWPOLYLINE
5
170
330
1B
100
AcDbEntity
67
0
8
layer 40
62
3
6
ByLayer
370
-1
48
1.0
60
0
100
AcDbPolyline
90
4
70
1
38
0.0
39
0.0
10
18.0
20
-170.0
40
0.0
41
0.0
42
0.0
10
28.0
20
-170.0
40
0.0
41
0.0
42
0.0
10
28.0
20
-160.0
40
0.0
41
0.0
42
0.0
10
18.0
20
-160.0
40
0.0
41
0.0
42
0.31265021563387
210
0.0
220
0.0
230
1.0
0
LWPOLYLINE
5
172
330
1B
100
AcDbEntity
67
0
8
layer 40
62
3
6
ByLayer
370
-1
48
1.0
60
0
100
AcDbPolyline
90
4
70
1
38
0.0
39
0.0
10
18.2667489387557
20
-169.5
40
0.0
41
0.0
42
0.0
10
27.5
20
-169.5
40
0.0
41
0.0
42
0.0
10
27.5
20
-160.5
40
0.0
41
0.0
42
0.0
10
18.2667489387557
20
-160.5
40
0.0
41
0.0
42
0.29555555931667
210
0.0
220
0.0
230
1.0
0
LWPOLYLINE
5
173
330
1B
100
AcDbEntity
67
0
8
layer 40
62
2
6
ByLayer
370
-1
48
1.0
60
0
100
AcDbPolyline
90
4
70
1
38
0.0
39
0.0
10
10.0
20
-170.0
40
0.0
41
0.0
42
0.0
10
20.0
20
-170.0
40
0.0
41
0.0
42
-0.31265021563387
10
20.0
20
-160.0
40
0.0
41
0.0
42
0.0
10
10.0
20
-160.0
40
0.0
41
0.0
42
0.0
210
0.0
220
0.0
230
1.0
0
LWPOLYLINE
5
174
330
1B
100
AcDbEntity
67
0
8
layer 40
62
2
6
ByLayer
370
-1
48
1.0
60
0
100
AcDbPolyline
90
4
70
1
38
0.0
39
0.0
10
10.5
20
-169.5
40
0.0
41
0.0
42
0.0
10
19.101132217923
20
-169.5
40
0.0
41
0.0
42
-0.258751843576081
10
19.101132217923
20
-160.5
40
0.0
41
0.0
42
0.0
10
10.5
20
-160.5
40
0.0
41
0.0
42
0.0
210
0.0
220
0.0
230
1.0
0
HATCH
5
176
330
1B
100
AcDbEntity
67
0
8
layer 40
62
4
6
ByLayer
370
0
48
1.0
60
0
100
AcDbHatch
10
0.0
20
0.0
30
0.0
210
0.0
220
0.0
230
1.0
2
LINE
70
0
71
1
91
1
92
7
72
1
73
1
93
8
10
18.0
20
-170.0
42
0.0
10
10.0
20
-170.0
42
0.0
10
10.0
20
-160.0
42
0.0
10
18.0
20
-160.0
42
0.0169430555302057
10
17.6779895062976
20
-160.5
42
0.0
10
10.5
20
-160.5
42
0.0
10
10.5
20
-169.5
42
0.0
10
17.6779895062976
20
-169.5
42
0.0169430555302061
97
1
330
175
75
0
76
0
52
45.0
41
0.5
77
0
78
0
47
0.0
98
1
10
0.0
20
0.0
1001
ACAD
1010
0.0
1020
0.0
1030
0.0
0
LWPOLYLINE
5
175
102
{ACAD_REACTORS
330
176
102
}
330
1B
100
AcDbEntity
67
0
8
layer 40
62
4
6
ByLayer
370
13
48
1.0
60
0
100
AcDbPolyline
90
8
70
1
38
0.0
39
0.0
10
18.0
20
-170.0
40
0.0
41
0.0
42
0.0
10
10.0
20
-170.0
40
0.0
41
0.0
42
0.0
10
10.0
20
-160.0
40
0.0
41
0.0
42
0.0
10
18.0
20
-160.0
40
0.0
41
0.0
42
0.0169430555302057
10
17.6779895062976
20
-160.5
40
0.0
41
0.0
42
0.0
10
10.5
20
-160.5
40
0.0
41
0.0
42
0.0
10
10.5
20
-169.5
40
0.0
41
0.0
42
0.0
10
17.6779895062976
20
-169.5
40
0.0
41
0.0
42
0.0169430555302061
210
0.0
220
0.0
230
1.0
0
HATCH
5
178
330
1B
100
AcDbEntity
67
0
8
layer 40
62
4
6
ByLayer
370
0
48
1.0
60
0
100
AcDbHatch
10
0.0
20
0.0
30
0.0
210
0.0
220
0.0
230
1.0
2
LINE
70
0
71
1
91
1
92
7
72
1
73
1
93
4
10
19.6779895062976
20
-169.5
42
-0.275831240992655
10
19.6779895062976
20
-160.5
42
0.0
10
19.101132217923
20
-160.5
42
0.258751843576081
10
19.101132217923
20
-169.5
42
0.0
97
1
330
177
75
0
76
0
52
45.0
41
0.5
77
0
78
0
47
0.0
98
1
10
0.0
20
0.0
1001
ACAD
1010
0.0
1020
0.0
1030
0.0
0
LWPOLYLINE
5
177
102
{ACAD_REACTORS
330
178
102
}
330
1B
100
AcDbEntity
67
0
8
layer 40
62
4
6
ByLayer
370
13
48
1.0
60
0
100
AcDbPolyline
90
4
70
1
38
0.0
39
0.0
10
19.6779895062976
20
-169.5
40
0.0
41
0.0
42
-0.275831240992655
10
19.6779895062976
20
-160.5
40
0.0
41
0.0
42
0.0
10
19.101132217923
20
-160.5
40
0.0
41
0.0
42
0.258751843576081
10
19.101132217923
20
-169.5
40
0.0
41
0.0
42
0.0
210
0.0
220
0.0
230
1.0
0
LWPOLYLINE
5
17A
330
1B
100
AcDbEntity
67
0
8
layer 41
62
3
6
ByLayer
370
-1
48
1.0
60
0
100
AcDbPolyline
90
4
70
1
38
0.0
39
0.0
10
48.0
20
-172.0
40
0.0
41
0.0
42
0.0
10
58.0
20
-172.0
40
0.0
41
0.0
42
0.0
10
58.0
20
-162.0
40
0.0
41
0.0
42
0.0
10
48.0
20
-162.0
40
0.0
41
0.0
42
0.31265021563387
210
0.0
220
0.0
230
1.0
0
LWPOLYLINE
5
17C
330
1B
100
AcDbEntity
67
0
8
layer 41
62
3
6
ByLayer
370
-1
48
1.0
60
0
100
AcDbPolyline
90
4
70
1
38
0.0
39
0.0
10
48.2667489387557
20
-171.5
40
0.0
41
0.0
42
0.0
10
57.5
20
-171.5
40
0.0
41
0.0
42
0.0
10
57.5
20
-162.5
40
0.0
41
0.0
42
0.0
10
48.2667489387557
20
-162.5
40
0.0
41
0.0
42
0.29555555931667
210
0.0
220
0.0
230
1.0
0
LWPOLYLINE
5
17D
330
1B
100
AcDbEntity
67
0
8
layer 41
62
2
6
ByLayer
370
-1
48
1.0
60
0
100
AcDbPolyline
90
4
70
1
38
0.0
39
0.0
10
40.0
20
-170.0
40
0.0
41
0.0
42
0.0
10
50.0
20
-170.0
40
0.0
41
0.0
42
-0.31265021563387
10
50.0
20
-160.0
40
0.0
41
0.0
42
0.0
10
40.0
20
-160.0
40
0.0
41
0.0
42
0.0
210
0.0
220
0.0
230
1.0
0
LWPOLYLINE
5
17E
330
1B
100
AcDbEntity
67
0
8
layer 41
62
2
6
ByLayer
370
-1
48
1.0
60
0
100
AcDbPolyline
90
4
70
1
38
0.0
39
0.0
10
40.5
20
-169.5
40
0.0
41
0.0
42
0.0
10
49.101132217923
20
-169.5
40
0.0
41
0.0
42
-0.258751843576081
10
49.101132217923
20
-160.5
40
0.0
41
0.0
42
0.0
10
40.5
20
-160.5
40
0.0
41
0.0
42
0.0
210
0.0
220
0.0
230
1.0
0
HATCH
5
180
330
1B
100
AcDbEntity
67
0
8
layer 41
62
4
6
ByLayer
370
0
48
1.0
60
0
100
AcDbHatch
10
0.0
20
0.0
30
0.0
210
0.0
220
0.0
230
1.0
2
LINE
70
0
71
1
91
1
92
7
72
1
73
1
93
10
10
46.965321462836
20
-170.0
42
0.0
10
40.0
20
-170.0
42
0.0
10
40.0
20
-160.0
42
0.0
10
50.0
20
-160.0
42
0.0643992160784995
10
48.965321462836
20
-162.0
42
0.0
10
48.4351665538129
20
-162.0
42
-0.0443105394137672
10
49.101132217923
20
-160.5
42
0.0
10
40.5
20
-160.5
42
0.0
10
40.5
20
-169.5
42
0.0
10
46.8002896166125
20
-169.5
42
0.0149995196760118
97
1
330
17F
75
0
76
0
52
45.0
41
0.5
77
0
78
0
47
0.0
98
1
10
0.0
20
0.0
1001
ACAD
1010
0.0
1020
0.0
1030
0.0
0
LWPOLYLINE
5
17F
102
{ACAD_REACTORS
330
180
102
}
330
1B
100
AcDbEntity
67
0
8
layer 41
62
4
6
ByLayer
370
13
48
1.0
60
0
100
AcDbPolyline
90
10
70
1
38
0.0
39
0.0
10
46.965321462836
20
-170.0
40
0.0
41
0.0
42
0.0
10
40.0
20
-170.0
40
0.0
41
0.0
42
0.0
10
40.0
20
-160.0
40
0.0
41
0.0
42
0.0
10
50.0
20
-160.0
40
0.0
41
0.0
42
0.0643992160784995
10
48.965321462836
20
-162.0
40
0.0
41
0.0
42
0.0
10
48.4351665538129
20
-162.0
40
0.0
41
0.0
42
-0.0443105394137672
10
49.101132217923
20
-160.5
40
0.0
41
0.0
42
0.0
10
40.5
20
-160.5
40
0.0
41
0.0
42
0.0
10
40.5
20
-169.5
40
0.0
41
0.0
42
0.0
10
46.8002896166125
20
-169.5
40
0.0
41
0.0
42
0.0149995196760118
210
0.0
220
0.0
230
1.0
0
HATCH
5
182
330
1B
100
AcDbEntity
67
0
8
layer 41
62
4
6
ByLayer
370
0
48
1.0
60
0
100
AcDbHatch
10
0.0
20
0.0
30
0.0
210
0.0
220
0.0
230
1.0
2
LINE
70
0
71
1
91
1
92
7
72
1
73
1
93
6
10
47.4995017780595
20
-170.0
42
0.0
10
50.0
20
-170.0
42
-0.227521254077911
10
48.8002896166125
20
-162.5
42
0.0
10
48.2799218790198
20
-162.5
42
0.197309908722865
10
49.101132217923
20
-169.5
42
0.0
10
47.3232905417449
20
-169.5
42
0.0160150946439011
97
1
330
181
75
0
76
0
52
45.0
41
0.5
77
0
78
0
47
0.0
98
1
10
0.0
20
0.0
1001
ACAD
1010
0.0
1020
0.0
1030
0.0
0
LWPOLYLINE
5
181
102
{ACAD_REACTORS
330
182
102
}
330
1B
100
AcDbEntity
67
0
8
layer 41
62
4
6
ByLayer
370
13
48
1.0
60
0
100
AcDbPolyline
90
6
70
1
38
0.0
39
0.0
10
47.4995017780595
20
-170.0
40
0.0
41
0.0
42
0.0
10
50.0
20
-170.0
40
0.0
41
0.0
42
-0.227521254077911
10
48.8002896166125
20
-162.5
40
0.0
41
0.0
42
0.0
10
48.2799218790198
20
-162.5
40
0.0
41
0.0
42
0.197309908722865
10
49.101132217923
20
-169.5
40
0.0
41
0.0
42
0.0
10
47.3232905417449
20
-169.5
40
0.0
41
0.0
42
0.0160150946439011
210
0.0
220
0.0
230
1.0
0
LWPOLYLINE
5
184
330
1B
100
AcDbEntity
67
0
8
layer 42
62
3
6
ByLayer
370
-1
48
1.0
60
0
100
AcDbPolyline
90
8
70
1
38
0.0
39
0.0
10
67.0
20
-162.0
40
0.0
41
0.0
42
-0.118049940810346
10
84.0
20
-162.0
40
0.0
41
0.0
42
0.0
10
84.0
20
-164.0
40
0.0
41
0.0
42
0.0
10
69.0
20
-164.0
40
0.0
41
0.0
42
0.0
10
69.0
20
-166.0
40
0.0
41
0.0
42
0.0
10
84.0
20
-166.0
40
0.0
41
0.0
42
0.0
10
84.0
20
-168.0
40
0.0
41
0.0
42
-0.118049940810346
10
67.0
20
-168.0
40
0.0
41
0.0
42
0.0
210
0.0
220
0.0
230
1.0
0
LWPOLYLINE
5
186
330
1B
100
AcDbEntity
67
0
8
layer 42
62
3
6
ByLayer
370
-1
48
1.0
60
0
100
AcDbPolyline
90
8
70
1
38
0.0
39
0.0
10
67.5
20
-162.396630140354
40
0.0
41
0.0
42
-0.112506829655227
10
83.5
20
-162.396630140354
40
0.0
41
0.0
42
0.0
10
83.5
20
-163.5
40
0.0
41
0.0
42
0.0
10
68.5
20
-163.5
40
0.0
41
0.0
42
0.0
10
68.5
20
-166.5
40
0.0
41
0.0
42
0.0
10
83.5
20
-166.5
40
0.0
41
0.0
42
0.0
10
83.5
20
-167.603369859646
40
0.0
41
0.0
42
-0.112506829655227
10
67.5
20
-167.603369859646
40
0.0
41
0.0
42
0.0
210
0.0
220
0.0
230
1.0
0
LWPOLYLINE
5
187
330
1B
100
AcDbEntity
67
0
8
layer 42
62
2
6
ByLayer
370
-1
48
1.0
60
0
100
AcDbPolyline
90
4
70
1
38
0.0
39
0.0
10
70.0
20
-170.0
40
0.0
41
0.0
42
0.0
10
80.0
20
-170.0
40
0.0
41
0.0
42
-0.31265021563387
10
80.0
20
-160.0
40
0.0
41
0.0
42
0.0
10
70.0
20
-160.0
40
0.0
41
0.0
42
0.0
210
0.0
220
0.0
230
1.0
0
LWPOLYLINE
5
188
330
1B
100
AcDbEntity
67
0
8
layer 42
62
2
6
ByLayer
370
-1
48
1.0
60
0
100
AcDbPolyline
90
4
70
1
38
0.0
39
0.0
10
70.5
20
-169.5
40
0.0
41
0.0
42
0.0
10
79.101132217923
20
-169.5
40
0.0
41
0.0
42
-0.258751843576081
10
79.101132217923
20
-160.5
40
0.0
41
0.0
42
0.0
10
70.5
20
-160.5
40
0.0
41
0.0
42
0.0
210
0.0
220
0.0
230
1.0
0
HATCH
5
18A
330
1B
100
AcDbEntity
67
0
8
layer 42
62
4
6
ByLayer
370
0
48
1.0
60
0
100
AcDbHatch
10
0.0
20
0.0
30
0.0
210
0.0
220
0.0
230
1.0
2
LINE
70
0
71
1
91
1
92
7
72
1
73
1
93
8
10
79.304157127562
20
-161.195339299908
42
-0.0394540874249319
10
80.0
20
-160.0
42
0.0
10
70.0
20
-160.0
42
0.0
10
70.0
20
-161.413298848468
42
-0.0034603543744112
10
70.5
20
-161.340630536471
42
0.0
10
70.5
20
-160.5
42
0.0
10
79.101132217923
20
-160.5
42
0.0194430776252073
10
78.7760720131884
20
-161.143881503048
42
-0.0036338596067831
97
1
330
189
75
0
76
0
52
45.0
41
0.5
77
0
78
0
47
0.0
98
1
10
0.0
20
0.0
1001
ACAD
1010
0.0
1020
0.0
1030
0.0
0
LWPOLYLINE
5
189
102
{ACAD_REACTORS
330
18A
102
}
330
1B
100
AcDbEntity
67
0
8
layer 42
62
4
6
ByLayer
370
13
48
1.0
60
0
100
AcDbPolyline
90
8
70
1
38
0.0
39
0.0
10
79.304157127562
20
-161.195339299908
40
0.0
41
0.0
42
-0.0394540874249319
10
80.0
20
-160.0
40
0.0
41
0.0
42
0.0
10
70.0
20
-160.0
40
0.0
41
0.0
42
0.0
10
70.0
20
-161.413298848468
40
0.0
41
0.0
42
-0.0034603543744112
10
70.5
20
-161.340630536471
40
0.0
41
0.0
42
0.0
10
70.5
20
-160.5
40
0.0
41
0.0
42
0.0
10
79.101132217923
20
-160.5
40
0.0
41
0.0
42
0.0194430776252073
10
78.7760720131884
20
-161.143881503048
40
0.0
41
0.0
42
-0.0036338596067831
210
0.0
220
0.0
230
1.0
0
HATCH
5
18C
330
1B
100
AcDbEntity
67
0
8
layer 42
62
4
6
ByLayer
370
0
48
1.0
60
0
100
AcDbHatch
10
0.0
20
0.0
30
0.0
210
0.0
220
0.0
230
1.0
2
LINE
70
0
71
1
91
1
92
7
72
1
73
1
93
4
10
78.4938969526595
20
-164.0
42
0.0571480308288162
10
78.4938969526595
20
-166.0
42
0.0
10
77.9907985522804
20
-166.0
42
-0.0540496304497107
10
77.9907985522804
20
-164.0
42
0.0
97
1
330
18B
75
0
76
0
52
45.0
41
0.5
77
0
78
0
47
0.0
98
1
10
0.0
20
0.0
1001
ACAD
1010
0.0
1020
0.0
1030
0.0
0
LWPOLYLINE
5
18B
102
{ACAD_REACTORS
330
18C
102
}
330
1B
100
AcDbEntity
67
0
8
layer 42
62
4
6
ByLayer
370
13
48
1.0
60
0
100
AcDbPolyline
90
4
70
1
38
0.0
39
0.0
10
78.4938969526595
20
-164.0
40
0.0
41
0.0
42
0.0571480308288162
10
78.4938969526595
20
-166.0
40
0.0
41
0.0
42
0.0
10
77.9907985522804
20
-166.0
40
0.0
41
0.0
42
-0.0540496304497107
10
77.9907985522804
20
-164.0
40
0.0
41
0.0
42
0.0
210
0.0
220
0.0
230
1.0
0
HATCH
5
18E
330
1B
100
AcDbEntity
67
0
8
layer 42
62
4
6
ByLayer
370
0
48
1.0
60
0
100
AcDbHatch
10
0.0
20
0.0
30
0.0
210
0.0
220
0.0
230
1.0
2
LINE
70
0
71
1
91
1
92
7
72
1
73
1
93
8
10
79.304157127562
20
-168.804660700092
42
0.0394540874249326
10
80.0
20
-170.0
42
0.0
10
70.0
20
-170.0
42
0.0
10
70.0
20
-168.586701151532
42
0.0034603543744112
10
70.5
20
-168.659369463529
42
0.0
10
70.5
20
-169.5
42
0.0
10
79.101132217923
20
-169.5
42
-0.0194430776252073
10
78.7760720131884
20
-168.856118496952
42
0.0036338596067831
97
1
330
18D
75
0
76
0
52
45.0
41
0.5
77
0
78
0
47
0.0
98
1
10
0.0
20
0.0
1001
ACAD
1010
0.0
1020
0.0
1030
0.0
0
LWPOLYLINE
5
18D
102
{ACAD_REACTORS
330
18E
102
}
330
1B
100
AcDbEntity
67
0
8
layer 42
62
4
6
ByLayer
370
13
48
1.0
60
0
100
AcDbPolyline
90
8
70
1
38
0.0
39
0.0
10
79.304157127562
20
-168.804660700092
40
0.0
41
0.0
42
0.0394540874249326
10
80.0
20
-170.0
40
0.0
41
0.0
42
0.0
10
70.0
20
-170.0
40
0.0
41
0.0
42
0.0
10
70.0
20
-168.586701151532
40
0.0
41
0.0
42
0.0034603543744112
10
70.5
20
-168.659369463529
40
0.0
41
0.0
42
0.0
10
70.5
20
-169.5
40
0.0
41
0.0
42
0.0
10
79.101132217923
20
-169.5
40
0.0
41
0.0
42
-0.0194430776252073
10
78.7760720131884
20
-168.856118496952
40
0.0
41
0.0
42
0.0036338596067831
210
0.0
220
0.0
230
1.0
0
HATCH
5
190
330
1B
100
AcDbEntity
67
0
8
layer 42
62
4
6
ByLayer
370
0
48
1.0
60
0
100
AcDbHatch
10
0.0
20
0.0
30
0.0
210
0.0
220
0.0
230
1.0
2
LINE
70
0
71
1
91
1
92
7
72
1
73
1
93
4
10
79.0904419541548
20
-161.676051277435
42
0.0542125595502828
10
78.5658630009862
20
-163.5
42
0.0
10
78.0588092786762
20
-163.5
42
-0.0524478999108337
10
78.5712908796836
20
-161.62781372936
42
-0.0036204480874258
97
1
330
18F
75
0
76
0
52
45.0
41
0.5
77
0
78
0
47
0.0
98
1
10
0.0
20
0.0
1001
ACAD
1010
0.0
1020
0.0
1030
0.0
0
LWPOLYLINE
5
18F
102
{ACAD_REACTORS
330
190
102
}
330
1B
100
AcDbEntity
67
0
8
layer 42
62
4
6
ByLayer
370
13
48
1.0
60
0
100
AcDbPolyline
90
4
70
1
38
0.0
39
0.0
10
79.0904419541548
20
-161.676051277435
40
0.0
41
0.0
42
0.0542125595502828
10
78.5658630009862
20
-163.5
40
0.0
41
0.0
42
0.0
10
78.0588092786762
20
-163.5
40
0.0
41
0.0
42
-0.0524478999108337
10
78.5712908796836
20
-161.62781372936
40
0.0
41
0.0
42
-0.0036204480874258
210
0.0
220
0.0
230
1.0
0
HATCH
5
192
330
1B
100
AcDbEntity
67
0
8
layer 42
62
4
6
ByLayer
370
0
48
1.0
60
0
100
AcDbHatch
10
0.0
20
0.0
30
0.0
210
0.0
220
0.0
230
1.0
2
LINE
70
0
71
1
91
1
92
7
72
1
73
1
93
4
10
78.5658630009862
20
-166.5
42
0.0542125595502828
10
79.0904419541548
20
-168.323948722565
42
-0.0036204480874239
10
78.5712908796836
20
-168.37218627064
42
-0.0524478999108339
10
78.0588092786762
20
-166.5
42
0.0
97
1
330
191
75
0
76
0
52
45.0
41
0.5
77
0
78
0
47
0.0
98
1
10
0.0
20
0.0
1001
ACAD
1010
0.0
1020
0.0
1030
0.0
0
LWPOLYLINE
5
191
102
{ACAD_REACTORS
330
192
102
}
330
1B
100
AcDbEntity
67
0
8
layer 42
62
4
6
ByLayer
370
13
48
1.0
60
0
100
AcDbPolyline
90
4
70
1
38
0.0
39
0.0
10
78.5658630009862
20
-166.5
40
0.0
41
0.0
42
0.0542125595502828
10
79.0904419541548
20
-168.323948722565
40
0.0
41
0.0
42
-0.0036204480874239
10
78.5712908796836
20
-168.37218627064
40
0.0
41
0.0
42
-0.0524478999108339
10
78.0588092786762
20
-166.5
40
0.0
41
0.0
42
0.0
210
0.0
220
0.0
230
1.0
0
HATCH
5
194
330
1B
100
AcDbEntity
67
0
8
layer 42
62
4
6
ByLayer
370
0
48
1.0
60
0
100
AcDbHatch
10
0.0
20
0.0
30
0.0
210
0.0
220
0.0
230
1.0
2
LINE
70
0
71
1
91
1
92
7
72
1
73
1
93
4
10
70.0
20
-164.0
42
0.0
10
70.0
20
-166.0
42
0.0
10
70.5
20
-166.0
42
0.0
10
70.5
20
-164.0
42
0.0
97
1
330
193
75
0
76
0
52
45.0
41
0.5
77
0
78
0
47
0.0
98
1
10
0.0
20
0.0
1001
ACAD
1010
0.0
1020
0.0
1030
0.0
0
LWPOLYLINE
5
193
102
{ACAD_REACTORS
330
194
102
}
330
1B
100
AcDbEntity
67
0
8
layer 42
62
4
6
ByLayer
370
13
48
1.0
60
0
100
AcDbPolyline
90
4
70
1
38
0.0
39
0.0
10
70.0
20
-164.0
40
0.0
41
0.0
42
0.0
10
70.0
20
-166.0
40
0.0
41
0.0
42
0.0
10
70.5
20
-166.0
40
0.0
41
0.0
42
0.0
10
70.5
20
-164.0
40
0.0
41
0.0
42
0.0
210
0.0
220
0.0
230
1.0
0
HATCH
5
196
330
1B
100
AcDbEntity
67
0
8
layer 42
62
4
6
ByLayer
370
0
48
1.0
60
0
100
AcDbHatch
10
0.0
20
0.0
30
0.0
210
0.0
220
0.0
230
1.0
2
LINE
70
0
71
1
91
1
92
7
72
1
73
1
93
4
10
70.0
20
-161.919154373412
42
0.0
10
70.0
20
-163.5
42
0.0
10
70.5
20
-163.5
42
0.0
10
70.5
20
-161.845455051241
42
0.0035094483082623
97
1
330
195
75
0
76
0
52
45.0
41
0.5
77
0
78
0
47
0.0
98
1
10
0.0
20
0.0
1001
ACAD
1010
0.0
1020
0.0
1030
0.0
0
LWPOLYLINE
5
195
102
{ACAD_REACTORS
330
196
102
}
330
1B
100
AcDbEntity
67
0
8
layer 42
62
4
6
ByLayer
370
13
48
1.0
60
0
100
AcDbPolyline
90
4
70
1
38
0.0
39
0.0
10
70.0
20
-161.919154373412
40
0.0
41
0.0
42
0.0
10
70.0
20
-163.5
40
0.0
41
0.0
42
0.0
10
70.5
20
-163.5
40
0.0
41
0.0
42
0.0
10
70.5
20
-161.845455051241
40
0.0
41
0.0
42
0.0035094483082623
210
0.0
220
0.0
230
1.0
0
HATCH
5
198
330
1B
100
AcDbEntity
67
0
8
layer 42
62
4
6
ByLayer
370
0
48
1.0
60
0
100
AcDbHatch
10
0.0
20
0.0
30
0.0
210
0.0
220
0.0
230
1.0
2
LINE
70
0
71
1
91
1
92
7
72
1
73
1
93
4
10
70.0
20
-166.5
42
0.0
10
70.0
20
-168.080845626588
42
0.0035094483082623
10
70.5
20
-168.154544948759
42
0.0
10
70.5
20
-166.5
42
0.0
97
1
330
197
75
0
76
0
52
45.0
41
0.5
77
0
78
0
47
0.0
98
1
10
0.0
20
0.0
1001
ACAD
1010
0.0
1020
0.0
1030
0.0
0
LWPOLYLINE
5
197
102
{ACAD_REACTORS
330
198
102
}
330
1B
100
AcDbEntity
67
0
8
layer 42
62
4
6
ByLayer
370
13
48
1.0
60
0
100
AcDbPolyline
90
4
70
1
38
0.0
39
0.0
10
70.0
20
-166.5
40
0.0
41
0.0
42
0.0
10
70.0
20
-168.080845626588
40
0.0
41
0.0
42
0.0035094483082623
10
70.5
20
-168.154544948759
40
0.0
41
0.0
42
0.0
10
70.5
20
-166.5
40
0.0
41
0.0
42
0.0
210
0.0
220
0.0
230
1.0
0
LWPOLYLINE
5
19A
330
1B
100
AcDbEntity
67
0
8
layer 43
62
3
6
ByLayer
370
-1
48
1.0
60
0
100
AcDbPolyline
90
4
70
1
38
0.0
39
0.0
10
10.0
20
-190.0
40
0.0
41
0.0
42
0.0
10
20.0
20
-190.0
40
0.0
41
0.0
42
0.0
10
20.0
20
-180.0
40
0.0
41
0.0
42
0.0
10
10.0
20
-180.0
40
0.0
41
0.0
42
0.0
210
0.0
220
0.0
230
1.0
0
LWPOLYLINE
5
19C
330
1B
100
AcDbEntity
67
0
8
layer 43
62
3
6
ByLayer
370
-1
48
1.0
60
0
100
AcDbPolyline
90
4
70
1
38
0.0
39
0.0
10
14.0
20
-186.0
40
0.0
41
0.0
42
0.0
10
19.5
20
-186.0
40
0.0
41
0.0
42
0.0
10
19.5
20
-180.5
40
0.0
41
0.0
42
0.0
10
14.0
20
-180.5
40
0.0
41
0.0
42
0.0
210
0.0
220
0.0
230
1.0
0
LWPOLYLINE
5
19D
330
1B
100
AcDbEntity
67
0
8
layer 43
62
2
6
ByLayer
370
-1
48
1.0
60
0
100
AcDbPolyline
90
4
70
1
38
0.0
39
0.0
10
10.0
20
-190.0
40
0.0
41
0.0
42
0.0
10
20.0
20
-190.0
40
0.0
41
0.0
42
0.0
10
20.0
20
-180.0
40
0.0
41
0.0
42
0.0
10
10.0
20
-180.0
40
0.0
41
0.0
42
0.0
210
0.0
220
0.0
230
1.0
0
LWPOLYLINE
5
19E
330
1B
100
AcDbEntity
67
0
8
layer 43
62
2
6
ByLayer
370
-1
48
1.0
60
0
100
AcDbPolyline
90
4
70
1
38
0.0
39
0.0
10
10.5
20
-189.5
40
0.0
41
0.0
42
0.0
10
16.0
20
-189.5
40
0.0
41
0.0
42
0.0
10
16.0
20
-184.0
40
0.0
41
0.0
42
0.0
10
10.5
20
-184.0
40
0.0
41
0.0
42
0.0
210
0.0
220
0.0
230
1.0
0
HATCH
5
1A0
330
1B
100
AcDbEntity
67
0
8
layer 43
62
4
6
ByLayer
370
0
48
1.0
60
0
100
AcDbHatch
10
0.0
20
0.0
30
0.0
210
0.0
220
0.0
230
1.0
2
LINE
70
0
71
1
91
1
92
7
72
1
73
1
93
6
10
16.0
20
-186.0
42
0.0
10
19.5
20
-186.0
42
0.0
10
19.5
20
-180.5
42
0.0
10
14.0
20
-180.5
42
0.0
10
14.0
20
-184.0
42
0.0
10
16.0
20
-184.0
42
0.0
97
1
330
19F
75
0
76
0
52
45.0
41
0.5
77
0
78
0
47
0.0
98
1
10
0.0
20
0.0
1001
ACAD
1010
0.0
1020
0.0
1030
0.0
0
LWPOLYLINE
5
19F
102
{ACAD_REACTORS
330
1A0
102
}
330
1B
100
AcDbEntity
67
0
8
layer 43
62
4
6
ByLayer
370
13
48
1.0
60
0
100
AcDbPolyline
90
6
70
1
38
0.0
39
0.0
10
16.0
20
-186.0
40
0.0
41
0.0
42
0.0
10
19.5
20
-186.0
40
0.0
41
0.0
42
0.0
10
19.5
20
-180.5
40
0.0
41
0.0
42
0.0
10
14.0
20
-180.5
40
0.0
41
0.0
42
0.0
10
14.0
20
-184.0
40
0.0
41
0.0
42
0.0
10
16.0
20
-184.0
40
0.0
41
0.0
42
0.0
210
0.0
220
0.0
230
1.0
0
LWPOLYLINE
5
1A2
330
1B
100
AcDbEntity
67
0
8
layer 44
62
3
6
ByLayer
370
-1
48
1.0
60
0
100
AcDbPolyline
90
4
70
1
38
0.0
39
0.0
10
40.0
20
-190.0
40
0.0
41
0.0
42
0.0
10
50.0
20
-190.0
40
0.0
41
0.0
42
0.0
10
50.0
20
-180.0
40
0.0
41
0.0
42
0.0
10
40.0
20
-180.0
40
0.0
41
0.0
42
0.0
210
0.0
220
0.0
230
1.0
0
LWPOLYLINE
5
1A4
330
1B
100
AcDbEntity
67
0
8
layer 44
62
3
6
ByLayer
370
-1
48
1.0
60
0
100
AcDbPolyline
90
4
70
1
38
0.0
39
0.0
10
44.0
20
-180.5
40
0.0
41
0.0
42
0.0
10
44.0
20
-187.0
40
0.0
41
0.0
42
0.0
10
49.5
20
-187.0
40
0.0
41
0.0
42
0.0
10
49.5
20
-180.5
40
0.0
41
0.0
42
0.0
210
0.0
220
0.0
230
1.0
0
LWPOLYLINE
5
1A5
330
1B
100
AcDbEntity
67
0
8
layer 44
62
2
6
ByLayer
370
-1
48
1.0
60
0
100
AcDbPolyline
90
4
70
1
38
0.0
39
0.0
10
40.0
20
-190.0
40
0.0
41
0.0
42
0.0
10
50.0
20
-190.0
40
0.0
41
0.0
42
0.0
10
50.0
20
-180.0
40
0.0
41
0.0
42
0.0
10
40.0
20
-180.0
40
0.0
41
0.0
42
0.0
210
0.0
220
0.0
230
1.0
0
LWPOLYLINE
5
1A6
330
1B
100
AcDbEntity
67
0
8
layer 44
62
2
6
ByLayer
370
-1
48
1.0
60
0
100
AcDbPolyline
90
4
70
1
38
0.0
39
0.0
10
40.5
20
-184.0
40
0.0
41
0.0
42
0.0
10
46.0
20
-184.0
40
0.0
41
0.0
42
0.0
10
46.0
20
-180.5
40
0.0
41
0.0
42
0.0
10
40.5
20
-180.5
40
0.0
41
0.0
42
0.0
210
0.0
220
0.0
230
1.0
0
LWPOLYLINE
5
1A7
330
1B
100
AcDbEntity
67
0
8
layer 44
62
2
6
ByLayer
370
-1
48
1.0
60
0
100
AcDbPolyline
90
6
70
1
38
0.0
39
0.0
10
40.5
20
-186.0
40
0.0
41
0.0
42
0.0
10
40.5
20
-189.5
40
0.0
41
0.0
42
0.0
10
46.0
20
-189.5
40
0.0
41
0.0
42
0.0
10
46.0
20
-187.0
40
0.0
41
0.0
42
0.0
10
44.0
20
-187.0
40
0.0
41
0.0
42
0.0
10
44.0
20
-186.0
40
0.0
41
0.0
42
0.0
210
0.0
220
0.0
230
1.0
0
HATCH
5
1A9
330
1B
100
AcDbEntity
67
0
8
layer 44
62
4
6
ByLayer
370
0
48
1.0
60
0
100
AcDbHatch
10
0.0
20
0.0
30
0.0
210
0.0
220
0.0
230
1.0
2
LINE
70
0
71
1
91
1
92
7
72
1
73
1
93
6
10
44.0
20
-187.0
42
0.0
10
44.0
20
-184.0
42
0.0
10
46.0
20
-184.0
42
0.0
10
46.0
20
-180.5
42
0.0
10
49.5
20
-180.5
42
0.0
10
49.5
20
-187.0
42
0.0
97
1
330
1A8
75
0
76
0
52
45.0
41
0.5
77
0
78
0
47
0.0
98
1
10
0.0
20
0.0
1001
ACAD
1010
0.0
1020
0.0
1030
0.0
0
LWPOLYLINE
5
1A8
102
{ACAD_REACTORS
330
1A9
102
}
330
1B
100
AcDbEntity
67
0
8
layer 44
62
4
6
ByLayer
370
13
48
1.0
60
0
100
AcDbPolyline
90
6
70
1
38
0.0
39
0.0
10
44.0
20
-187.0
40
0.0
41
0.0
42
0.0
10
44.0
20
-184.0
40
0.0
41
0.0
42
0.0
10
46.0
20
-184.0
40
0.0
41
0.0
42
0.0
10
46.0
20
-180.5
40
0.0
41
0.0
42
0.0
10
49.5
20
-180.5
40
0.0
41
0.0
42
0.0
10
49.5
20
-187.0
40
0.0
41
0.0
42
0.0
210
0.0
220
0.0
230
1.0
0
LWPOLYLINE
5
1AB
330
1B
100
AcDbEntity
67
0
8
layer 45
62
3
6
ByLayer
370
-1
48
1.0
60
0
100
AcDbPolyline
90
4
70
1
38
0.0
39
0.0
10
70.0
20
-190.0
40
0.0
41
0.0
42
0.0
10
80.0
20
-190.0
40
0.0
41
0.0
42
0.0
10
80.0
20
-180.0
40
0.0
41
0.0
42
0.0
10
70.0
20
-180.0
40
0.0
41
0.0
42
0.0
210
0.0
220
0.0
230
1.0
0
LWPOLYLINE
5
1AD
330
1B
100
AcDbEntity
67
0
8
layer 45
62
3
6
ByLayer
370
-1
48
1.0
60
0
100
AcDbPolyline
90
4
70
1
38
0.0
39
0.0
10
74.0
20
-186.0
40
0.0
41
0.0
42
0.0
10
79.5
20
-186.0
40
0.0
41
0.0
42
0.0
10
79.5
20
-180.5
40
0.0
41
0.0
42
0.0
10
74.0
20
-180.5
40
0.0
41
0.0
42
0.0
210
0.0
220
0.0
230
1.0
0
LWPOLYLINE
5
1AE
330
1B
100
AcDbEntity
67
0
8
layer 45
62
3
6
ByLayer
370
-1
48
1.0
60
0
100
AcDbPolyline
90
4
70
1
38
0.0
39
0.0
10
76.625
20
-189.0
40
0.0
41
0.0
42
0.0
10
79.375
20
-189.0
40
0.0
41
0.0
42
0.0
10
79.375
20
-187.0
40
0.0
41
0.0
42
0.0
10
76.625
20
-187.0
40
0.0
41
0.0
42
0.0
210
0.0
220
0.0
230
1.0
0
LWPOLYLINE
5
1AF
330
1B
100
AcDbEntity
67
0
8
layer 45
62
2
6
ByLayer
370
-1
48
1.0
60
0
100
AcDbPolyline
90
4
70
1
38
0.0
39
0.0
10
70.0
20
-190.0
40
0.0
41
0.0
42
0.0
10
80.0
20
-190.0
40
0.0
41
0.0
42
0.0
10
80.0
20
-180.0
40
0.0
41
0.0
42
0.0
10
70.0
20
-180.0
40
0.0
41
0.0
42
0.0
210
0.0
220
0.0
230
1.0
0
LWPOLYLINE
5
1B0
330
1B
100
AcDbEntity
67
0
8
layer 45
62
2
6
ByLayer
370
-1
48
1.0
60
0
100
AcDbPolyline
90
4
70
1
38
0.0
39
0.0
10
70.5
20
-189.5
40
0.0
41
0.0
42
0.0
10
76.0
20
-189.5
40
0.0
41
0.0
42
0.0
10
76.0
20
-186.0
40
0.0
41
0.0
42
0.0
10
70.5
20
-186.0
40
0.0
41
0.0
42
0.0
210
0.0
220
0.0
230
1.0
0
LWPOLYLINE
5
1B1
330
1B
100
AcDbEntity
67
0
8
layer 45
62
2
6
ByLayer
370
-1
48
1.0
60
0
100
AcDbPolyline
90
4
70
1
38
0.0
39
0.0
10
70.5
20
-184.0
40
0.0
41
0.0
42
0.0
10
76.0
20
-184.0
40
0.0
41
0.0
42
0.0
10
76.0
20
-180.5
40
0.0
41
0.0
42
0.0
10
70.5
20
-180.5
40
0.0
41
0.0
42
0.0
210
0.0
220
0.0
230
1.0
0
HATCH
5
1B3
330
1B
100
AcDbEntity
67
0
8
layer 45
62
4
6
ByLayer
370
0
48
1.0
60
0
100
AcDbHatch
10
0.0
20
0.0
30
0.0
210
0.0
220
0.0
230
1.0
2
LINE
70
0
71
1
91
1
92
7
72
1
73
1
93
6
10
79.5
20
-186.0
42
0.0
10
74.0
20
-186.0
42
0.0
10
74.0
20
-184.0
42
0.0
10
76.0
20
-184.0
42
0.0
10
76.0
20
-180.5
42
0.0
10
79.5
20
-180.5
42
0.0
97
1
330
1B2
75
0
76
0
52
45.0
41
0.5
77
0
78
0
47
0.0
98
1
10
0.0
20
0.0
1001
ACAD
1010
0.0
1020
0.0
1030
0.0
0
LWPOLYLINE
5
1B2
102
{ACAD_REACTORS
330
1B3
102
}
330
1B
100
AcDbEntity
67
0
8
layer 45
62
4
6
ByLayer
370
13
48
1.0
60
0
100
AcDbPolyline
90
6
70
1
38
0.0
39
0.0
10
79.5
20
-186.0
40
0.0
41
0.0
42
0.0
10
74.0
20
-186.0
40
0.0
41
0.0
42
0.0
10
74.0
20
-184.0
40
0.0
41
0.0
42
0.0
10
76.0
20
-184.0
40
0.0
41
0.0
42
0.0
10
76.0
20
-180.5
40
0.0
41
0.0
42
0.0
10
79.5
20
-180.5
40
0.0
41
0.0
42
0.0
210
0.0
220
0.0
230
1.0
0
HATCH
5
1B5
330
1B
100
AcDbEntity
67
0
8
layer 45
62
4
6
ByLayer
370
0
48
1.0
60
0
100
AcDbHatch
10
0.0
20
0.0
30
0.0
210
0.0
220
0.0
230
1.0
2
LINE
70
0
71
1
91
1
92
7
72
1
73
1
93
4
10
76.625
20
-189.0
42
0.0
10
79.375
20
-189.0
42
0.0
10
79.375
20
-187.0
42
0.0
10
76.625
20
-187.0
42
0.0
97
1
330
1B4
75
0
76
0
52
45.0
41
0.5
77
0
78
0
47
0.0
98
1
10
0.0
20
0.0
1001
ACAD
1010
0.0
1020
0.0
1030
0.0
0
LWPOLYLINE
5
1B4
102
{ACAD_REACTORS
330
1B5
102
}
330
1B
100
AcDbEntity
67
0
8
layer 45
62
4
6
ByLayer
370
13
48
1.0
60
0
100
AcDbPolyline
90
4
70
1
38
0.0
39
0.0
10
76.625
20
-189.0
40
0.0
41
0.0
42
0.0
10
79.375
20
-189.0
40
0.0
41
0.0
42
0.0
10
79.375
20
-187.0
40
0.0
41
0.0
42
0.0
10
76.625
20
-187.0
40
0.0
41
0.0
42
0.0
210
0.0
220
0.0
230
1.0
0
VIEWPORT
5
2A
330
26
100
AcDbEntity
67
1
8
0
62
256
6
ByLayer
370
-1
48
1.0
60
0
100
AcDbViewport
10
0.0
20
0.0
30
0.0
40
297.0
41
210.0
68
1
69
1
12
50.0
22
100.0
13
0.0
23
0.0
14
10.0
24
10.0
15
10.0
25
10.0
16
0.0
26
0.0
36
1.0
17
0.0
27
0.0
37
0.0
42
50.0
43
0.0
44
0.0
45
250.0
50
0.0
51
0.0
72
1000
90
819232
110
0.0
120
0.0
130
0.0
111
1.0
121
0.0
131
0.0
112
0.0
122
1.0
132
0.0
0
ENDSEC
0
SECTION
2
OBJECTS
0
DICTIONARY
5
1B6
330
0
100
AcDbDictionary
280
0
281
1
3
ACAD_GROUP
350
11
3
ACAD_LAYOUT
350
29
3
ACAD_MLINESTYLE
350
A
3
ACAD_IMAGE_DICT
350
D
3
ACAD_IMAGE_VARS
350
20
0
DICTIONARY
5
11
330
1B6
100
AcDbDictionary
280
0
281
1
0
DICTIONARY
5
29
330
1B6
100
AcDbDictionary
280
0
281
1
3
Model
350
1F
3
Layout1
350
2B
0
DICTIONARY
5
A
330
1B6
100
AcDbDictionary
280
0
281
1
3
Standard
350
1A
0
DICTIONARY
5
D
330
1B6
100
AcDbDictionary
280
0
281
1
0
LAYOUT
5
1F
330
29
100
AcDbPlotSettings
1

2
none_device
4
ISO_A4_(210.00_x_297.00_MM)
6

40
7.5
41
20.0
42
7.5
43
20.0
44
210.0
45
297.0
46
0.0
47
0.0
48
0.0
49
0.0
140
0.0
141
0.0
142
1.0
143
1.0
70
11952
72
1
73
1
74
1
7

75
0
76
0
77
2
78
300
147
1.0
148
0.0
149
0.0
100
AcDbLayout
1
Model
71
0
10
-20.0
20
-7.5
11
277.0
21
202.5
12
0.0
22
0.0
32
0.0
14
25.7
24
19.5
34
0.0
15
231.3
25
175.5
35
0.0
146
0.0
13
0.0
23
0.0
33
0.0
16
1.0
26
0.0
36
0.0
17
0.0
27
1.0
37
0.0
76
0
330
1B
0
LAYOUT
5
2B
330
29
100
AcDbPlotSettings
1

2
none_device
4
ISO_A4_(210.00_x_297.00_MM)
6

40
7.5
41
20.0
42
7.5
43
20.0
44
210.0
45
297.0
46
0.0
47
0.0
48
0.0
49
0.0
140
0.0
141
0.0
142
1.0
143
1.0
70
688
72
1
73
1
74
1
7

75
0
76
0
77
2
78
300
147
1.0
148
0.0
149
0.0
100
AcDbLayout
1
Layout1
71
1
10
-20.0
20
-7.5
11
277.0
21
202.5
12
0.0
22
0.0
32
0.0
14
25.7
24
19.5
34
0.0
15
231.3
25
175.5
35
0.0
146
0.0
13
0.0
23
0.0
33
0.0
16
1.0
26
0.0
36
0.0
17
0.0
27
1.0
37
0.0
76
0
330
26
0
MLINESTYLE
5
1A
330
A
100
AcDbMlineStyle
2
Standard
70
0
3

62
256
51
90.0
52
90.0
71
2
49
0.5
62
256
6
ByLayer
49
-0.5
62
256
6
ByLayer
0
RASTERVARIABLES
5
20
330
D
100
AcDbRasterVariables
90
0
70
1
71
1
72
0
0
ENDSEC
0
EOF
