<?xml version="1.0" encoding="UTF-8" standalone="no"?>
<!DOCTYPE svg PUBLIC "-//W3C//DTD SVG 1.1//EN"
 "http://www.w3.org/Graphics/SVG/1.1/DTD/svg11.dtd">
<!-- Generated by graphviz version 2.43.0 (0)
 -->
<!-- Title: Rotate Pages: 1 -->
<svg width="251pt" height="64pt"
 viewBox="0.00 0.00 251.00 64.00" xmlns="http://www.w3.org/2000/svg" xmlns:xlink="http://www.w3.org/1999/xlink">
<g id="graph0" class="graph" transform="scale(1 1) rotate(0) translate(4 60)">
<title>Rotate</title>
<!-- Node1 -->
<g id="node1" class="node">
<title>Node1</title>
<g id="a_node1"><a xlink:title="return another cs rotated respect given axis">
<polygon fill="#999999" stroke="#666666" points="243,-37 194,-37 194,-18 243,-18 243,-37"/>
<text text-anchor="middle" x="218.5" y="-25" font-family="Helvetica,sans-Serif" font-size="10.00">Rotate</text>
</a>
</g>
</g>
<!-- Node2 -->
<g id="node2" class="node">
<title>Node2</title>
<g id="a_node2"><a xlink:href="class_search_a_thing_1_1_sci_ext.html#a405c8bca2a5fc77b4b5dfe4723885d43" target="_top" xlink:title=" ">
<polygon fill="white" stroke="#666666" points="158,-56 0,-56 0,-37 158,-37 158,-56"/>
<text text-anchor="middle" x="79" y="-44" font-family="Helvetica,sans-Serif" font-size="10.00">SearchAThing.SciExt.Explode</text>
</a>
</g>
</g>
<!-- Node1&#45;&gt;Node2 -->
<g id="edge1" class="edge">
<title>Node1&#45;&gt;Node2</title>
<path fill="none" stroke="#63b8ff" d="M183.8,-32.16C173.17,-33.63 161.01,-35.31 148.85,-36.99"/>
<polygon fill="#63b8ff" stroke="#63b8ff" points="184.44,-35.6 193.86,-30.77 183.48,-28.67 184.44,-35.6"/>
</g>
<!-- Node3 -->
<g id="node3" class="node">
<title>Node3</title>
<g id="a_node3"><a xlink:href="class_search_a_thing_1_1_sci_ext.html#a92a05cfbaf78296d4d4d20d47685b469" target="_top" xlink:title=" ">
<polygon fill="white" stroke="#666666" points="153.5,-19 4.5,-19 4.5,0 153.5,0 153.5,-19"/>
<text text-anchor="middle" x="79" y="-7" font-family="Helvetica,sans-Serif" font-size="10.00">SearchAThing.SciExt.Points</text>
</a>
</g>
</g>
<!-- Node1&#45;&gt;Node3 -->
<g id="edge2" class="edge">
<title>Node1&#45;&gt;Node3</title>
<path fill="none" stroke="#63b8ff" d="M183.72,-23.08C174.23,-21.84 163.53,-20.44 152.7,-19.02"/>
<polygon fill="#63b8ff" stroke="#63b8ff" points="183.49,-26.58 193.86,-24.41 184.4,-19.64 183.49,-26.58"/>
</g>
</g>
</svg>
