<?xml version="1.0" encoding="UTF-8" standalone="no"?>
<!DOCTYPE svg PUBLIC "-//W3C//DTD SVG 1.1//EN"
 "http://www.w3.org/Graphics/SVG/1.1/DTD/svg11.dtd">
<!-- Generated by graphviz version 2.43.0 (0)
 -->
<!-- Title: CheckSense Pages: 1 -->
<svg width="269pt" height="76pt"
 viewBox="0.00 0.00 269.00 75.50" xmlns="http://www.w3.org/2000/svg" xmlns:xlink="http://www.w3.org/1999/xlink">
<g id="graph0" class="graph" transform="scale(1 1) rotate(0) translate(4 71.5)">
<title>CheckSense</title>
<!-- Node1 -->
<g id="node1" class="node">
<title>Node1</title>
<g id="a_node1"><a xlink:title=" ">
<polygon fill="#999999" stroke="#666666" points="261,-40 185,-40 185,-21 261,-21 261,-40"/>
<text text-anchor="middle" x="223" y="-28" font-family="Helvetica,sans-Serif" font-size="10.00">CheckSense</text>
</a>
</g>
</g>
<!-- Node2 -->
<g id="node2" class="node">
<title>Node2</title>
<g id="a_node2"><a xlink:href="class_search_a_thing_1_1_sci_ext.html#a6324a5d66385885bbe6949ad5e32a552" target="_top" xlink:title="From given set of edges returns the same set eventually toggling sense of edges to make them glue so ...">
<polygon fill="white" stroke="#666666" points="149,-67.5 0,-67.5 0,-37.5 149,-37.5 149,-67.5"/>
<text text-anchor="start" x="8" y="-55.5" font-family="Helvetica,sans-Serif" font-size="10.00">SearchAThing.SciExt.Check</text>
<text text-anchor="middle" x="74.5" y="-44.5" font-family="Helvetica,sans-Serif" font-size="10.00">Sense</text>
</a>
</g>
</g>
<!-- Node1&#45;&gt;Node2 -->
<g id="edge1" class="edge">
<title>Node1&#45;&gt;Node2</title>
<path fill="none" stroke="#63b8ff" d="M174.66,-37.61C166.53,-38.83 157.91,-40.12 149.29,-41.42"/>
<polygon fill="#63b8ff" stroke="#63b8ff" points="175.28,-41.05 184.65,-36.11 174.24,-34.13 175.28,-41.05"/>
</g>
<!-- Node3 -->
<g id="node3" class="node">
<title>Node3</title>
<g id="a_node3"><a xlink:href="class_search_a_thing_1_1_arc3_d.html#a4cd722b08333ccb9f25d1c39edac363b" target="_top" xlink:title="returns this arc splitted by break points maintaining order from, to as this Start,...">
<polygon fill="white" stroke="#666666" points="144.5,-19 4.5,-19 4.5,0 144.5,0 144.5,-19"/>
<text text-anchor="middle" x="74.5" y="-7" font-family="Helvetica,sans-Serif" font-size="10.00">SearchAThing.Arc3D.Split</text>
</a>
</g>
</g>
<!-- Node1&#45;&gt;Node3 -->
<g id="edge2" class="edge">
<title>Node1&#45;&gt;Node3</title>
<path fill="none" stroke="#63b8ff" d="M174.52,-23.69C164.08,-22.2 152.85,-20.59 141.82,-19.01"/>
<polygon fill="#63b8ff" stroke="#63b8ff" points="174.26,-27.19 184.65,-25.15 175.25,-20.26 174.26,-27.19"/>
</g>
</g>
</svg>
