<?xml version="1.0" encoding="UTF-8" standalone="no"?>
<!DOCTYPE svg PUBLIC "-//W3C//DTD SVG 1.1//EN"
 "http://www.w3.org/Graphics/SVG/1.1/DTD/svg11.dtd">
<!-- Generated by graphviz version 2.43.0 (0)
 -->
<!-- Title: RotateAboutAxis Pages: 1 -->
<svg width="495pt" height="64pt"
 viewBox="0.00 0.00 495.00 64.00" xmlns="http://www.w3.org/2000/svg" xmlns:xlink="http://www.w3.org/1999/xlink">
<g id="graph0" class="graph" transform="scale(1 1) rotate(0) translate(4 60)">
<title>RotateAboutAxis</title>
<!-- Node1 -->
<g id="node1" class="node">
<title>Node1</title>
<g id="a_node1"><a xlink:title="rotate this segment about given axis">
<polygon fill="#999999" stroke="#666666" points="487,-37 389,-37 389,-18 487,-18 487,-37"/>
<text text-anchor="middle" x="438" y="-25" font-family="Helvetica,sans-Serif" font-size="10.00">RotateAboutAxis</text>
</a>
</g>
</g>
<!-- Node2 -->
<g id="node2" class="node">
<title>Node2</title>
<g id="a_node2"><a xlink:href="class_search_a_thing_1_1_sci_1_1_coordinate_system3_d.html#a9aff237d63db8e87d32956a557283d30" target="_top" xlink:title="return another cs rotated respect given axis">
<polygon fill="white" stroke="#666666" points="353,-42.5 197,-42.5 197,-12.5 353,-12.5 353,-42.5"/>
<text text-anchor="start" x="205" y="-30.5" font-family="Helvetica,sans-Serif" font-size="10.00">SearchAThing.Sci.Coordinate</text>
<text text-anchor="middle" x="275" y="-19.5" font-family="Helvetica,sans-Serif" font-size="10.00">System3D.Rotate</text>
</a>
</g>
</g>
<!-- Node1&#45;&gt;Node2 -->
<g id="edge1" class="edge">
<title>Node1&#45;&gt;Node2</title>
<path fill="none" stroke="#63b8ff" d="M378.48,-27.5C370.25,-27.5 361.69,-27.5 353.18,-27.5"/>
<polygon fill="#63b8ff" stroke="#63b8ff" points="378.69,-31 388.69,-27.5 378.69,-24 378.69,-31"/>
</g>
<!-- Node3 -->
<g id="node3" class="node">
<title>Node3</title>
<g id="a_node3"><a xlink:href="class_search_a_thing_1_1_sci_1_1_ext.html#a405c8bca2a5fc77b4b5dfe4723885d43" target="_top" xlink:title=" ">
<polygon fill="white" stroke="#666666" points="161,-56 0,-56 0,-37 161,-37 161,-56"/>
<text text-anchor="middle" x="80.5" y="-44" font-family="Helvetica,sans-Serif" font-size="10.00">SearchAThing.Sci.Ext.Explode</text>
</a>
</g>
</g>
<!-- Node2&#45;&gt;Node3 -->
<g id="edge2" class="edge">
<title>Node2&#45;&gt;Node3</title>
<path fill="none" stroke="#63b8ff" d="M186.85,-36.1C178.31,-36.94 169.68,-37.8 161.22,-38.63"/>
<polygon fill="#63b8ff" stroke="#63b8ff" points="187.2,-39.58 196.81,-35.12 186.52,-32.62 187.2,-39.58"/>
</g>
<!-- Node4 -->
<g id="node4" class="node">
<title>Node4</title>
<g id="a_node4"><a xlink:href="class_search_a_thing_1_1_sci_1_1_ext.html#a92a05cfbaf78296d4d4d20d47685b469" target="_top" xlink:title=" ">
<polygon fill="white" stroke="#666666" points="156.5,-19 4.5,-19 4.5,0 156.5,0 156.5,-19"/>
<text text-anchor="middle" x="80.5" y="-7" font-family="Helvetica,sans-Serif" font-size="10.00">SearchAThing.Sci.Ext.Points</text>
</a>
</g>
</g>
<!-- Node2&#45;&gt;Node4 -->
<g id="edge3" class="edge">
<title>Node2&#45;&gt;Node4</title>
<path fill="none" stroke="#63b8ff" d="M186.77,-19.34C176.67,-18.4 166.43,-17.44 156.51,-16.51"/>
<polygon fill="#63b8ff" stroke="#63b8ff" points="186.53,-22.84 196.81,-20.28 187.18,-15.87 186.53,-22.84"/>
</g>
</g>
</svg>
