<?xml version="1.0" encoding="UTF-8" standalone="no"?>
<!DOCTYPE svg PUBLIC "-//W3C//DTD SVG 1.1//EN"
 "http://www.w3.org/Graphics/SVG/1.1/DTD/svg11.dtd">
<!-- Generated by graphviz version 2.43.0 (0)
 -->
<!-- Title: EqualsTol Pages: 1 -->
<svg width="495pt" height="124pt"
 viewBox="0.00 0.00 495.00 123.50" xmlns="http://www.w3.org/2000/svg" xmlns:xlink="http://www.w3.org/1999/xlink">
<g id="graph0" class="graph" transform="scale(1 1) rotate(0) translate(4 119.5)">
<title>EqualsTol</title>
<!-- Node1 -->
<g id="node1" class="node">
<title>Node1</title>
<g id="a_node1"><a xlink:title="Checks if two lines are equals.">
<polygon fill="#999999" stroke="#666666" points="487,-62 425,-62 425,-43 487,-43 487,-62"/>
<text text-anchor="middle" x="456" y="-50" font-family="Helvetica,sans-Serif" font-size="10.00">EqualsTol</text>
</a>
</g>
</g>
<!-- Node2 -->
<g id="node2" class="node">
<title>Node2</title>
<g id="a_node2"><a xlink:href="class_search_a_thing_1_1_sci_1_1_arc3_d.html#aceadfdb18af288e2a000c0b1e07d3234" target="_top" xlink:title="Checks if two arcs are equals ( it checks agains swapped from&#45;to too )">
<polygon fill="white" stroke="#666666" points="389,-62 208,-62 208,-43 389,-43 389,-62"/>
<text text-anchor="middle" x="298.5" y="-50" font-family="Helvetica,sans-Serif" font-size="10.00">SearchAThing.Sci.Arc3D.EqualsTol</text>
</a>
</g>
</g>
<!-- Node1&#45;&gt;Node2 -->
<g id="edge1" class="edge">
<title>Node1&#45;&gt;Node2</title>
<path fill="none" stroke="#63b8ff" d="M414.64,-52.5C406.7,-52.5 398.08,-52.5 389.24,-52.5"/>
<polygon fill="#63b8ff" stroke="#63b8ff" points="414.65,-56 424.65,-52.5 414.65,-49 414.65,-56"/>
</g>
<!-- Node3 -->
<g id="node3" class="node">
<title>Node3</title>
<g id="a_node3"><a xlink:href="class_search_a_thing_1_1_sci_1_1_arc3_d_equality_comparer.html#a410d5009cd0fd461223db0ef5d30bb09" target="_top" xlink:title=" ">
<polygon fill="white" stroke="#666666" points="172,-115.5 0,-115.5 0,-85.5 172,-85.5 172,-115.5"/>
<text text-anchor="start" x="8" y="-103.5" font-family="Helvetica,sans-Serif" font-size="10.00">SearchAThing.Sci.Arc3DEquality</text>
<text text-anchor="middle" x="86" y="-92.5" font-family="Helvetica,sans-Serif" font-size="10.00">Comparer.Equals</text>
</a>
</g>
</g>
<!-- Node2&#45;&gt;Node3 -->
<g id="edge2" class="edge">
<title>Node2&#45;&gt;Node3</title>
<path fill="none" stroke="#63b8ff" d="M245.67,-64.32C217.64,-70.71 182.73,-78.67 152.8,-85.5"/>
<polygon fill="#63b8ff" stroke="#63b8ff" points="246.69,-67.68 255.66,-62.04 245.13,-60.85 246.69,-67.68"/>
</g>
<!-- Node4 -->
<g id="node4" class="node">
<title>Node4</title>
<g id="a_node4"><a xlink:href="class_search_a_thing_1_1_sci_1_1_circle3_d.html#a73e18184c469df5ead90339c98eeedc2" target="_top" xlink:title="intersect this circle with given other; pre&#45;requisite: circles are not the same one ; actually implem...">
<polygon fill="white" stroke="#666666" points="154.5,-67.5 17.5,-67.5 17.5,-37.5 154.5,-37.5 154.5,-67.5"/>
<text text-anchor="start" x="25.5" y="-55.5" font-family="Helvetica,sans-Serif" font-size="10.00">SearchAThing.Sci.Circle3</text>
<text text-anchor="middle" x="86" y="-44.5" font-family="Helvetica,sans-Serif" font-size="10.00">D.Intersect</text>
</a>
</g>
</g>
<!-- Node2&#45;&gt;Node4 -->
<g id="edge3" class="edge">
<title>Node2&#45;&gt;Node4</title>
<path fill="none" stroke="#63b8ff" d="M197.87,-52.5C183.28,-52.5 168.56,-52.5 154.81,-52.5"/>
<polygon fill="#63b8ff" stroke="#63b8ff" points="197.92,-56 207.92,-52.5 197.92,-49 197.92,-56"/>
</g>
<!-- Node5 -->
<g id="node5" class="node">
<title>Node5</title>
<g id="a_node5"><a xlink:href="class_search_a_thing_1_1_sci_1_1_arc3_d.html#ab69dc258749ee37248a1342b257311b2" target="_top" xlink:title="create a set of subarc from this by splitting through given split points split point are not required...">
<polygon fill="white" stroke="#666666" points="164.5,-19 7.5,-19 7.5,0 164.5,0 164.5,-19"/>
<text text-anchor="middle" x="86" y="-7" font-family="Helvetica,sans-Serif" font-size="10.00">SearchAThing.Sci.Arc3D.Split</text>
</a>
</g>
</g>
<!-- Node2&#45;&gt;Node5 -->
<g id="edge4" class="edge">
<title>Node2&#45;&gt;Node5</title>
<path fill="none" stroke="#63b8ff" d="M240.66,-40.89C207.11,-34.04 165.17,-25.47 133.59,-19.02"/>
<polygon fill="#63b8ff" stroke="#63b8ff" points="240.29,-44.38 250.78,-42.96 241.69,-37.53 240.29,-44.38"/>
</g>
</g>
</svg>
