<?xml version="1.0" encoding="UTF-8" standalone="no"?>
<!DOCTYPE svg PUBLIC "-//W3C//DTD SVG 1.1//EN"
 "http://www.w3.org/Graphics/SVG/1.1/DTD/svg11.dtd">
<!-- Generated by graphviz version 2.43.0 (0)
 -->
<!-- Title: Contains Pages: 1 -->
<svg width="263pt" height="27pt"
 viewBox="0.00 0.00 263.00 27.00" xmlns="http://www.w3.org/2000/svg" xmlns:xlink="http://www.w3.org/1999/xlink">
<g id="graph0" class="graph" transform="scale(1 1) rotate(0) translate(4 23)">
<title>Contains</title>
<!-- Node1 -->
<g id="node1" class="node">
<title>Node1</title>
<g id="a_node1"><a xlink:title="States if a point is in this triangle.">
<polygon fill="#999999" stroke="#666666" points="255,-19 196,-19 196,0 255,0 255,-19"/>
<text text-anchor="middle" x="225.5" y="-7" font-family="Helvetica,sans-Serif" font-size="10.00">Contains</text>
</a>
</g>
</g>
<!-- Node2 -->
<g id="node2" class="node">
<title>Node2</title>
<g id="a_node2"><a xlink:href="class_search_a_thing_1_1_sci_1_1_triangle3_d.html#a13ec69799d98a544d3242130d0508c36" target="_top" xlink:title="Restrict given this triangle coplanar line to be enclosed in the triangle shape.">
<polygon fill="white" stroke="#666666" points="160,-19 95,-19 95,0 160,0 160,-19"/>
<text text-anchor="middle" x="127.5" y="-7" font-family="Helvetica,sans-Serif" font-size="10.00">RestrictTo</text>
</a>
</g>
</g>
<!-- Node1&#45;&gt;Node2 -->
<g id="edge1" class="edge">
<title>Node1&#45;&gt;Node2</title>
<path fill="none" stroke="#63b8ff" d="M185.82,-9.5C177.29,-9.5 168.34,-9.5 160.12,-9.5"/>
<polygon fill="#63b8ff" stroke="#63b8ff" points="185.96,-13 195.96,-9.5 185.96,-6 185.96,-13"/>
</g>
<!-- Node3 -->
<g id="node3" class="node">
<title>Node3</title>
<g id="a_node3"><a xlink:href="class_search_a_thing_1_1_sci_1_1_triangle3_d.html#ac56dafbeedb2cb2158eaec3bc3ca8a96" target="_top" xlink:title="intersect this triangle with given other, returning intersection line ( eventyally a point line ) or ...">
<polygon fill="white" stroke="#666666" points="59,-19 0,-19 0,0 59,0 59,-19"/>
<text text-anchor="middle" x="29.5" y="-7" font-family="Helvetica,sans-Serif" font-size="10.00">Intersect</text>
</a>
</g>
</g>
<!-- Node2&#45;&gt;Node3 -->
<g id="edge2" class="edge">
<title>Node2&#45;&gt;Node3</title>
<path fill="none" stroke="#63b8ff" d="M84.58,-9.5C76.03,-9.5 67.22,-9.5 59.25,-9.5"/>
<polygon fill="#63b8ff" stroke="#63b8ff" points="84.8,-13 94.8,-9.5 84.8,-6 84.8,-13"/>
</g>
</g>
</svg>
