<?xml version="1.0" encoding="UTF-8" standalone="no"?>
<!DOCTYPE svg PUBLIC "-//W3C//DTD SVG 1.1//EN"
 "http://www.w3.org/Graphics/SVG/1.1/DTD/svg11.dtd">
<!-- Generated by graphviz version 2.43.0 (0)
 -->
<!-- Title: Intersect Pages: 1 -->
<svg width="192pt" height="101pt"
 viewBox="0.00 0.00 192.00 101.00" xmlns="http://www.w3.org/2000/svg" xmlns:xlink="http://www.w3.org/1999/xlink">
<g id="graph0" class="graph" transform="scale(1 1) rotate(0) translate(4 97)">
<title>Intersect</title>
<!-- Node1 -->
<g id="node1" class="node">
<title>Node1</title>
<g id="a_node1"><a xlink:title="finds intersection points between two arcs">
<polygon fill="#999999" stroke="#666666" points="184,-56 125,-56 125,-37 184,-37 184,-56"/>
<text text-anchor="middle" x="154.5" y="-44" font-family="Helvetica,sans-Serif" font-size="10.00">Intersect</text>
</a>
</g>
</g>
<!-- Node2 -->
<g id="node2" class="node">
<title>Node2</title>
<g id="a_node2"><a xlink:href="class_search_a_thing_1_1_sci_1_1_arc3_d.html#a048753f284cb4dd8eb62a5545fd2f073" target="_top" xlink:title="find intersections between this and another geometry resulting in zero or more geometries.">
<polygon fill="white" stroke="#666666" points="89,-93 0,-93 0,-74 89,-74 89,-93"/>
<text text-anchor="middle" x="44.5" y="-81" font-family="Helvetica,sans-Serif" font-size="10.00">GeomIntersect</text>
</a>
</g>
</g>
<!-- Node1&#45;&gt;Node2 -->
<g id="edge1" class="edge">
<title>Node1&#45;&gt;Node2</title>
<path fill="none" stroke="#63b8ff" d="M115.91,-59.38C102.01,-64.14 86.51,-69.45 73.59,-73.88"/>
<polygon fill="#63b8ff" stroke="#63b8ff" points="117.36,-62.58 125.69,-56.03 115.09,-55.96 117.36,-62.58"/>
</g>
<!-- Node3 -->
<g id="node3" class="node">
<title>Node3</title>
<g id="a_node3"><a xlink:href="class_search_a_thing_1_1_sci_1_1_arc3_d.html#a577b1f959ca1dedae02ca1d23e8c75aa" target="_top" xlink:title="find ips of intersect this arc to the given cs plane; return empty set if arc cs plane parallel to ot...">
<polygon fill="white" stroke="#666666" points="74,-56 15,-56 15,-37 74,-37 74,-56"/>
<text text-anchor="middle" x="44.5" y="-44" font-family="Helvetica,sans-Serif" font-size="10.00">Intersect</text>
</a>
</g>
</g>
<!-- Node1&#45;&gt;Node3 -->
<g id="edge2" class="edge">
<title>Node1&#45;&gt;Node3</title>
<path fill="none" stroke="#63b8ff" d="M114.54,-46.5C101.25,-46.5 86.64,-46.5 74.29,-46.5"/>
<polygon fill="#63b8ff" stroke="#63b8ff" points="114.84,-50 124.84,-46.5 114.84,-43 114.84,-50"/>
</g>
<!-- Node4 -->
<g id="node4" class="node">
<title>Node4</title>
<g id="a_node4"><a xlink:href="class_search_a_thing_1_1_sci_1_1_arc3_d.html#ae649b3f46da0206f8587febb36aab1fe" target="_top" xlink:title="project given point p to this arc. &#160;&#160;returns null if ip falls outside arc perimeter and only_arc:true...">
<polygon fill="white" stroke="#666666" points="69.5,-19 19.5,-19 19.5,0 69.5,0 69.5,-19"/>
<text text-anchor="middle" x="44.5" y="-7" font-family="Helvetica,sans-Serif" font-size="10.00">Project</text>
</a>
</g>
</g>
<!-- Node1&#45;&gt;Node4 -->
<g id="edge3" class="edge">
<title>Node1&#45;&gt;Node4</title>
<path fill="none" stroke="#63b8ff" d="M115.92,-33.62C100.53,-28.35 83.18,-22.41 69.55,-17.74"/>
<polygon fill="#63b8ff" stroke="#63b8ff" points="115.09,-37.04 125.69,-36.97 117.36,-30.42 115.09,-37.04"/>
</g>
</g>
</svg>
