<?xml version="1.0" encoding="UTF-8" standalone="no"?>
<!DOCTYPE svg PUBLIC "-//W3C//DTD SVG 1.1//EN"
 "http://www.w3.org/Graphics/SVG/1.1/DTD/svg11.dtd">
<!-- Generated by graphviz version 2.43.0 (0)
 -->
<!-- Title: SegmentContainsPoint Pages: 1 -->
<svg width="231pt" height="101pt"
 viewBox="0.00 0.00 231.00 101.00" xmlns="http://www.w3.org/2000/svg" xmlns:xlink="http://www.w3.org/1999/xlink">
<g id="graph0" class="graph" transform="scale(1 1) rotate(0) translate(4 97)">
<title>SegmentContainsPoint</title>
<!-- Node1 -->
<g id="node1" class="node">
<title>Node1</title>
<g id="a_node1"><a xlink:title="Finite segment contains point. Note: tol must be Constant.NormalizedLengthTolerance if comparing norm...">
<polygon fill="#999999" stroke="#666666" points="223,-56 95,-56 95,-37 223,-37 223,-56"/>
<text text-anchor="middle" x="159" y="-44" font-family="Helvetica,sans-Serif" font-size="10.00">SegmentContainsPoint</text>
</a>
</g>
</g>
<!-- Node2 -->
<g id="node2" class="node">
<title>Node2</title>
<g id="a_node2"><a xlink:href="class_search_a_thing_1_1_sci_1_1_line3_d.html#a9fcf0812eb6b3e36390d4a76c3b64ef8" target="_top" xlink:title="Intersects two lines with arbitrary segment mode for each.">
<polygon fill="white" stroke="#666666" points="59,-93 0,-93 0,-74 59,-74 59,-93"/>
<text text-anchor="middle" x="29.5" y="-81" font-family="Helvetica,sans-Serif" font-size="10.00">Intersect</text>
</a>
</g>
</g>
<!-- Node1&#45;&gt;Node2 -->
<g id="edge1" class="edge">
<title>Node1&#45;&gt;Node2</title>
<path fill="none" stroke="#63b8ff" d="M115.51,-58.83C97.05,-64.19 75.9,-70.32 59.32,-75.14"/>
<polygon fill="#63b8ff" stroke="#63b8ff" points="116.54,-62.18 125.17,-56.03 114.59,-55.45 116.54,-62.18"/>
</g>
<!-- Node3 -->
<g id="node3" class="node">
<title>Node3</title>
<g id="a_node3"><a xlink:href="class_search_a_thing_1_1_sci_1_1_line3_d.html#a02a25dd4ae4b20a5b72dfc604f74ee56" target="_top" xlink:title="Intersects two lines with arbitrary segment mode for each.">
<polygon fill="white" stroke="#666666" points="59,-56 0,-56 0,-37 59,-37 59,-56"/>
<text text-anchor="middle" x="29.5" y="-44" font-family="Helvetica,sans-Serif" font-size="10.00">Intersect</text>
</a>
</g>
</g>
<!-- Node1&#45;&gt;Node3 -->
<g id="edge2" class="edge">
<title>Node1&#45;&gt;Node3</title>
<path fill="none" stroke="#63b8ff" d="M84.74,-46.5C75.71,-46.5 66.94,-46.5 59.18,-46.5"/>
<polygon fill="#63b8ff" stroke="#63b8ff" points="85,-50 95,-46.5 85,-43 85,-50"/>
</g>
<!-- Node4 -->
<g id="node4" class="node">
<title>Node4</title>
<g id="a_node4"><a xlink:href="class_search_a_thing_1_1_sci_1_1_line3_d.html#a8595c362236f1c87661248c301520beb" target="_top" xlink:title="project given pt to this line">
<polygon fill="white" stroke="#666666" points="54.5,-19 4.5,-19 4.5,0 54.5,0 54.5,-19"/>
<text text-anchor="middle" x="29.5" y="-7" font-family="Helvetica,sans-Serif" font-size="10.00">Project</text>
</a>
</g>
</g>
<!-- Node1&#45;&gt;Node4 -->
<g id="edge3" class="edge">
<title>Node1&#45;&gt;Node4</title>
<path fill="none" stroke="#63b8ff" d="M115.55,-34.18C95.34,-28.32 71.91,-21.52 54.77,-16.54"/>
<polygon fill="#63b8ff" stroke="#63b8ff" points="114.59,-37.55 125.17,-36.97 116.54,-30.82 114.59,-37.55"/>
</g>
</g>
</svg>
