<?xml version="1.0" encoding="UTF-8" standalone="no"?>
<!DOCTYPE svg PUBLIC "-//W3C//DTD SVG 1.1//EN"
 "http://www.w3.org/Graphics/SVG/1.1/DTD/svg11.dtd">
<!-- Generated by graphviz version 2.43.0 (0)
 -->
<!-- Title: LineContainsPoint Pages: 1 -->
<svg width="231pt" height="64pt"
 viewBox="0.00 0.00 231.00 64.00" xmlns="http://www.w3.org/2000/svg" xmlns:xlink="http://www.w3.org/1999/xlink">
<g id="graph0" class="graph" transform="scale(1 1) rotate(0) translate(4 60)">
<title>LineContainsPoint</title>
<!-- Node1 -->
<g id="node1" class="node">
<title>Node1</title>
<g id="a_node1"><a xlink:title="Infinite line contains point. Note: tol must be Constant.NormalizedLengthTolerance if comparing norma...">
<polygon fill="#999999" stroke="#666666" points="223,-37 119,-37 119,-18 223,-18 223,-37"/>
<text text-anchor="middle" x="171" y="-25" font-family="Helvetica,sans-Serif" font-size="10.00">LineContainsPoint</text>
</a>
</g>
</g>
<!-- Node2 -->
<g id="node2" class="node">
<title>Node2</title>
<g id="a_node2"><a xlink:href="class_search_a_thing_1_1_line3_d.html#a41089be71779b247965f24aa6ebe4b8a" target="_top" xlink:title="extends edge endpoint toward new given one. &#160;&#160;returns null if edge can&#39;t extends toward new given end...">
<polygon fill="white" stroke="#666666" points="72.5,-56 10.5,-56 10.5,-37 72.5,-37 72.5,-56"/>
<text text-anchor="middle" x="41.5" y="-44" font-family="Helvetica,sans-Serif" font-size="10.00">MoveEnd</text>
</a>
</g>
</g>
<!-- Node1&#45;&gt;Node2 -->
<g id="edge1" class="edge">
<title>Node1&#45;&gt;Node2</title>
<path fill="none" stroke="#63b8ff" d="M108.86,-36.61C96.3,-38.48 83.59,-40.38 72.71,-42"/>
<polygon fill="#63b8ff" stroke="#63b8ff" points="109.5,-40.05 118.88,-35.12 108.47,-33.13 109.5,-40.05"/>
</g>
<!-- Node3 -->
<g id="node3" class="node">
<title>Node3</title>
<g id="a_node3"><a xlink:href="class_search_a_thing_1_1_line3_d.html#a767a1ff9fd31c4874d90a64badce69d9" target="_top" xlink:title="Build a perpendicular vector to this one starting from the given point p.">
<polygon fill="white" stroke="#666666" points="83,-19 0,-19 0,0 83,0 83,-19"/>
<text text-anchor="middle" x="41.5" y="-7" font-family="Helvetica,sans-Serif" font-size="10.00">Perpendicular</text>
</a>
</g>
</g>
<!-- Node1&#45;&gt;Node3 -->
<g id="edge2" class="edge">
<title>Node1&#45;&gt;Node3</title>
<path fill="none" stroke="#63b8ff" d="M108.71,-18.85C100,-17.62 91.23,-16.38 83.04,-15.22"/>
<polygon fill="#63b8ff" stroke="#63b8ff" points="108.48,-22.35 118.88,-20.28 109.46,-15.42 108.48,-22.35"/>
</g>
</g>
</svg>
