<?xml version="1.0" encoding="UTF-8" standalone="no"?>
<!DOCTYPE svg PUBLIC "-//W3C//DTD SVG 1.1//EN"
 "http://www.w3.org/Graphics/SVG/1.1/DTD/svg11.dtd">
<!-- Generated by graphviz version 2.43.0 (0)
 -->
<!-- Title: Intersect Pages: 1 -->
<svg width="490pt" height="101pt"
 viewBox="0.00 0.00 490.00 101.00" xmlns="http://www.w3.org/2000/svg" xmlns:xlink="http://www.w3.org/1999/xlink">
<g id="graph0" class="graph" transform="scale(1 1) rotate(0) translate(4 97)">
<title>Intersect</title>
<!-- Node1 -->
<g id="node1" class="node">
<title>Node1</title>
<g id="a_node1"><a xlink:title="intersect this 3d circle with given 3d line">
<polygon fill="#999999" stroke="#666666" points="482,-37 423,-37 423,-18 482,-18 482,-37"/>
<text text-anchor="middle" x="452.5" y="-25" font-family="Helvetica,sans-Serif" font-size="10.00">Intersect</text>
</a>
</g>
</g>
<!-- Node2 -->
<g id="node2" class="node">
<title>Node2</title>
<g id="a_node2"><a xlink:href="class_search_a_thing_1_1_arc3_d.html#a12c9267c6b6af687d05881a71021b9af" target="_top" xlink:title="finds intersection points between two arcs">
<polygon fill="white" stroke="#666666" points="387,-56 226,-56 226,-37 387,-37 387,-56"/>
<text text-anchor="middle" x="306.5" y="-44" font-family="Helvetica,sans-Serif" font-size="10.00">SearchAThing.Arc3D.Intersect</text>
</a>
</g>
</g>
<!-- Node1&#45;&gt;Node2 -->
<g id="edge1" class="edge">
<title>Node1&#45;&gt;Node2</title>
<path fill="none" stroke="#63b8ff" d="M412.56,-32.64C402.38,-33.98 391.08,-35.47 379.77,-36.96"/>
<polygon fill="#63b8ff" stroke="#63b8ff" points="413.25,-36.08 422.71,-31.3 412.33,-29.14 413.25,-36.08"/>
</g>
<!-- Node6 -->
<g id="node6" class="node">
<title>Node6</title>
<g id="a_node6"><a xlink:href="class_search_a_thing_1_1_circle3_d.html#a73e18184c469df5ead90339c98eeedc2" target="_top" xlink:title="intersect this circle with given other; pre&#45;requisite: circles are not the same one ; actually implem...">
<polygon fill="white" stroke="#666666" points="336,-19 277,-19 277,0 336,0 336,-19"/>
<text text-anchor="middle" x="306.5" y="-7" font-family="Helvetica,sans-Serif" font-size="10.00">Intersect</text>
</a>
</g>
</g>
<!-- Node1&#45;&gt;Node6 -->
<g id="edge5" class="edge">
<title>Node1&#45;&gt;Node6</title>
<path fill="none" stroke="#63b8ff" d="M412.49,-22.62C388.43,-19.62 358.11,-15.83 336.24,-13.09"/>
<polygon fill="#63b8ff" stroke="#63b8ff" points="412.35,-26.13 422.71,-23.9 413.22,-19.19 412.35,-26.13"/>
</g>
<!-- Node3 -->
<g id="node3" class="node">
<title>Node3</title>
<g id="a_node3"><a xlink:href="class_search_a_thing_1_1_arc3_d.html#a048753f284cb4dd8eb62a5545fd2f073" target="_top" xlink:title="find intersections between this and another geometry resulting in zero or more geometries.">
<polygon fill="white" stroke="#666666" points="190,-93 0,-93 0,-74 190,-74 190,-93"/>
<text text-anchor="middle" x="95" y="-81" font-family="Helvetica,sans-Serif" font-size="10.00">SearchAThing.Arc3D.GeomIntersect</text>
</a>
</g>
</g>
<!-- Node2&#45;&gt;Node3 -->
<g id="edge2" class="edge">
<title>Node2&#45;&gt;Node3</title>
<path fill="none" stroke="#63b8ff" d="M241.44,-57.81C212.24,-62.97 178.03,-69.01 150.13,-73.94"/>
<polygon fill="#63b8ff" stroke="#63b8ff" points="242.31,-61.21 251.55,-56.03 241.09,-54.32 242.31,-61.21"/>
</g>
<!-- Node4 -->
<g id="node4" class="node">
<title>Node4</title>
<g id="a_node4"><a xlink:href="class_search_a_thing_1_1_arc3_d.html#a577b1f959ca1dedae02ca1d23e8c75aa" target="_top" xlink:title="find ips of intersect this arc to the given cs plane; return empty set if arc cs plane parallel to ot...">
<polygon fill="white" stroke="#666666" points="175.5,-56 14.5,-56 14.5,-37 175.5,-37 175.5,-56"/>
<text text-anchor="middle" x="95" y="-44" font-family="Helvetica,sans-Serif" font-size="10.00">SearchAThing.Arc3D.Intersect</text>
</a>
</g>
</g>
<!-- Node2&#45;&gt;Node4 -->
<g id="edge3" class="edge">
<title>Node2&#45;&gt;Node4</title>
<path fill="none" stroke="#63b8ff" d="M215.89,-46.5C202.56,-46.5 188.9,-46.5 175.79,-46.5"/>
<polygon fill="#63b8ff" stroke="#63b8ff" points="216,-50 226,-46.5 216,-43 216,-50"/>
</g>
<!-- Node5 -->
<g id="node5" class="node">
<title>Node5</title>
<g id="a_node5"><a xlink:href="class_search_a_thing_1_1_arc3_d.html#ae649b3f46da0206f8587febb36aab1fe" target="_top" xlink:title="project given point p to this arc. &#160;&#160;returns null if ip falls outside arc perimeter and only_arc:true...">
<polygon fill="white" stroke="#666666" points="171,-19 19,-19 19,0 171,0 171,-19"/>
<text text-anchor="middle" x="95" y="-7" font-family="Helvetica,sans-Serif" font-size="10.00">SearchAThing.Arc3D.Project</text>
</a>
</g>
</g>
<!-- Node2&#45;&gt;Node5 -->
<g id="edge4" class="edge">
<title>Node2&#45;&gt;Node5</title>
<path fill="none" stroke="#63b8ff" d="M241.44,-35.19C212.24,-30.03 178.03,-23.99 150.13,-19.06"/>
<polygon fill="#63b8ff" stroke="#63b8ff" points="241.09,-38.68 251.55,-36.97 242.31,-31.79 241.09,-38.68"/>
</g>
</g>
</svg>
