<?xml version="1.0" encoding="UTF-8" standalone="no"?>
<!DOCTYPE svg PUBLIC "-//W3C//DTD SVG 1.1//EN"
 "http://www.w3.org/Graphics/SVG/1.1/DTD/svg11.dtd">
<!-- Generated by graphviz version 2.43.0 (0)
 -->
<!-- Title: IsParallelTo Pages: 1 -->
<svg width="434pt" height="100pt"
 viewBox="0.00 0.00 434.00 100.00" xmlns="http://www.w3.org/2000/svg" xmlns:xlink="http://www.w3.org/1999/xlink">
<g id="graph0" class="graph" transform="scale(1 1) rotate(0) translate(4 96)">
<title>IsParallelTo</title>
<!-- Node1 -->
<g id="node1" class="node">
<title>Node1</title>
<g id="a_node1"><a xlink:title="states if this cs have Z base parallel to the other given cs">
<polygon fill="#999999" stroke="#666666" points="426,-43.5 355,-43.5 355,-24.5 426,-24.5 426,-43.5"/>
<text text-anchor="middle" x="390.5" y="-31.5" font-family="Helvetica,sans-Serif" font-size="10.00">IsParallelTo</text>
</a>
</g>
</g>
<!-- Node2 -->
<g id="node2" class="node">
<title>Node2</title>
<g id="a_node2"><a xlink:href="class_search_a_thing_1_1_sci_1_1_circle3_d.html#a73e18184c469df5ead90339c98eeedc2" target="_top" xlink:title="intersect this circle with given other; pre&#45;requisite: circles are not the same one ; actually implem...">
<polygon fill="white" stroke="#666666" points="319,-92 182,-92 182,-62 319,-62 319,-92"/>
<text text-anchor="start" x="190" y="-80" font-family="Helvetica,sans-Serif" font-size="10.00">SearchAThing.Sci.Circle3</text>
<text text-anchor="middle" x="250.5" y="-69" font-family="Helvetica,sans-Serif" font-size="10.00">D.Intersect</text>
</a>
</g>
</g>
<!-- Node1&#45;&gt;Node2 -->
<g id="edge1" class="edge">
<title>Node1&#45;&gt;Node2</title>
<path fill="none" stroke="#63b8ff" d="M349.08,-46.59C333.6,-51.42 315.79,-56.97 299.66,-61.99"/>
<polygon fill="#63b8ff" stroke="#63b8ff" points="350.37,-49.86 358.87,-43.54 348.28,-43.18 350.37,-49.86"/>
</g>
<!-- Node3 -->
<g id="node3" class="node">
<title>Node3</title>
<g id="a_node3"><a xlink:href="class_search_a_thing_1_1_sci_1_1_coordinate_system3_d.html#a6c8756373447d3a1ba36521dd13773cf" target="_top" xlink:title="return intersect line between two cs xy planes">
<polygon fill="white" stroke="#666666" points="280,-43.5 221,-43.5 221,-24.5 280,-24.5 280,-43.5"/>
<text text-anchor="middle" x="250.5" y="-31.5" font-family="Helvetica,sans-Serif" font-size="10.00">Intersect</text>
</a>
</g>
</g>
<!-- Node1&#45;&gt;Node3 -->
<g id="edge2" class="edge">
<title>Node1&#45;&gt;Node3</title>
<path fill="none" stroke="#63b8ff" d="M344.61,-34C323.47,-34 298.87,-34 280.26,-34"/>
<polygon fill="#63b8ff" stroke="#63b8ff" points="344.68,-37.5 354.68,-34 344.68,-30.5 344.68,-37.5"/>
</g>
<!-- Node4 -->
<g id="node4" class="node">
<title>Node4</title>
<g id="a_node4"><a xlink:href="class_search_a_thing_1_1_sci_1_1_plane3_d.html#a5be865391e1a733a43fe67b25ced6782" target="_top" xlink:title="retrieve the plane that is in the middle between this and other given">
<polygon fill="white" stroke="#666666" points="146,-30 0,-30 0,0 146,0 146,-30"/>
<text text-anchor="start" x="8" y="-18" font-family="Helvetica,sans-Serif" font-size="10.00">SearchAThing.Sci.Plane3D.</text>
<text text-anchor="middle" x="73" y="-7" font-family="Helvetica,sans-Serif" font-size="10.00">MiddlePlane</text>
</a>
</g>
</g>
<!-- Node1&#45;&gt;Node4 -->
<g id="edge4" class="edge">
<title>Node1&#45;&gt;Node4</title>
<path fill="none" stroke="#63b8ff" d="M349.07,-21.87C339.32,-19.44 328.86,-17.26 319,-16 261.2,-8.62 195.09,-8.85 146.13,-10.66"/>
<polygon fill="#63b8ff" stroke="#63b8ff" points="348.37,-25.3 358.93,-24.45 350.15,-18.53 348.37,-25.3"/>
</g>
<!-- Node3&#45;&gt;Node4 -->
<g id="edge3" class="edge">
<title>Node3&#45;&gt;Node4</title>
<path fill="none" stroke="#63b8ff" d="M210.86,-29.82C191.84,-27.76 168.3,-25.21 146.13,-22.81"/>
<polygon fill="#63b8ff" stroke="#63b8ff" points="210.59,-33.31 220.91,-30.91 211.35,-26.35 210.59,-33.31"/>
</g>
</g>
</svg>
