<?xml version="1.0" encoding="UTF-8" standalone="no"?>
<!DOCTYPE svg PUBLIC "-//W3C//DTD SVG 1.1//EN"
 "http://www.w3.org/Graphics/SVG/1.1/DTD/svg11.dtd">
<!-- Generated by graphviz version 2.43.0 (0)
 -->
<!-- Title: EqualsTol Pages: 1 -->
<svg width="279pt" height="113pt"
 viewBox="0.00 0.00 279.00 112.50" xmlns="http://www.w3.org/2000/svg" xmlns:xlink="http://www.w3.org/1999/xlink">
<g id="graph0" class="graph" transform="scale(1 1) rotate(0) translate(4 108.5)">
<title>EqualsTol</title>
<!-- Node1 -->
<g id="node1" class="node">
<title>Node1</title>
<g id="a_node1"><a xlink:title="Checks if two arcs are equals ( it checks agains swapped from&#45;to too )">
<polygon fill="#999999" stroke="#666666" points="271,-56 209,-56 209,-37 271,-37 271,-56"/>
<text text-anchor="middle" x="240" y="-44" font-family="Helvetica,sans-Serif" font-size="10.00">EqualsTol</text>
</a>
</g>
</g>
<!-- Node2 -->
<g id="node2" class="node">
<title>Node2</title>
<g id="a_node2"><a xlink:href="class_search_a_thing_1_1_arc3_d_equality_comparer.html#a410d5009cd0fd461223db0ef5d30bb09" target="_top" xlink:title=" ">
<polygon fill="white" stroke="#666666" points="164,-104.5 9,-104.5 9,-74.5 164,-74.5 164,-104.5"/>
<text text-anchor="start" x="17" y="-92.5" font-family="Helvetica,sans-Serif" font-size="10.00">SearchAThing.Arc3DEquality</text>
<text text-anchor="middle" x="86.5" y="-81.5" font-family="Helvetica,sans-Serif" font-size="10.00">Comparer.Equals</text>
</a>
</g>
</g>
<!-- Node1&#45;&gt;Node2 -->
<g id="edge1" class="edge">
<title>Node1&#45;&gt;Node2</title>
<path fill="none" stroke="#63b8ff" d="M198.98,-58.07C190.41,-60.53 181.41,-63.11 173,-65.5 162.77,-68.41 151.84,-71.49 141.33,-74.45"/>
<polygon fill="#63b8ff" stroke="#63b8ff" points="200.14,-61.37 208.78,-55.24 198.21,-54.65 200.14,-61.37"/>
</g>
<!-- Node3 -->
<g id="node3" class="node">
<title>Node3</title>
<g id="a_node3"><a xlink:href="class_search_a_thing_1_1_circle3_d.html#a73e18184c469df5ead90339c98eeedc2" target="_top" xlink:title="intersect this circle with given other; pre&#45;requisite: circles are not the same one ; actually implem...">
<polygon fill="white" stroke="#666666" points="173,-56 0,-56 0,-37 173,-37 173,-56"/>
<text text-anchor="middle" x="86.5" y="-44" font-family="Helvetica,sans-Serif" font-size="10.00">SearchAThing.Circle3D.Intersect</text>
</a>
</g>
</g>
<!-- Node1&#45;&gt;Node3 -->
<g id="edge2" class="edge">
<title>Node1&#45;&gt;Node3</title>
<path fill="none" stroke="#63b8ff" d="M198.6,-46.5C190.58,-46.5 181.88,-46.5 173,-46.5"/>
<polygon fill="#63b8ff" stroke="#63b8ff" points="198.71,-50 208.71,-46.5 198.71,-43 198.71,-50"/>
</g>
<!-- Node4 -->
<g id="node4" class="node">
<title>Node4</title>
<g id="a_node4"><a xlink:href="class_search_a_thing_1_1_arc3_d.html#ab69dc258749ee37248a1342b257311b2" target="_top" xlink:title="create a set of subarc from this by splitting through given split points split point are not required...">
<polygon fill="white" stroke="#666666" points="105.5,-19 67.5,-19 67.5,0 105.5,0 105.5,-19"/>
<text text-anchor="middle" x="86.5" y="-7" font-family="Helvetica,sans-Serif" font-size="10.00">Split</text>
</a>
</g>
</g>
<!-- Node1&#45;&gt;Node4 -->
<g id="edge3" class="edge">
<title>Node1&#45;&gt;Node4</title>
<path fill="none" stroke="#63b8ff" d="M199.05,-35.28C190.48,-32.96 181.45,-30.59 173,-28.5 149.83,-22.77 122.92,-16.92 105.57,-13.26"/>
<polygon fill="#63b8ff" stroke="#63b8ff" points="198.28,-38.69 208.85,-37.95 200.13,-31.94 198.28,-38.69"/>
</g>
</g>
</svg>
