<?xml version="1.0" encoding="UTF-8" standalone="no"?>
<!DOCTYPE svg PUBLIC "-//W3C//DTD SVG 1.1//EN"
 "http://www.w3.org/Graphics/SVG/1.1/DTD/svg11.dtd">
<!-- Generated by graphviz version 2.43.0 (0)
 -->
<!-- Title: PtAtAngle Pages: 1 -->
<svg width="174pt" height="64pt"
 viewBox="0.00 0.00 174.00 64.00" xmlns="http://www.w3.org/2000/svg" xmlns:xlink="http://www.w3.org/1999/xlink">
<g id="graph0" class="graph" transform="scale(1 1) rotate(0) translate(4 60)">
<title>PtAtAngle</title>
<!-- Node1 -->
<g id="node1" class="node">
<title>Node1</title>
<g id="a_node1"><a xlink:title="point on the arc circumnfere at given angle (rotating cs basex around cs basez) note: it start">
<polygon fill="#999999" stroke="#666666" points="166,-37 101,-37 101,-18 166,-18 166,-37"/>
<text text-anchor="middle" x="133.5" y="-25" font-family="Helvetica,sans-Serif" font-size="10.00">PtAtAngle</text>
</a>
</g>
</g>
<!-- Node2 -->
<g id="node2" class="node">
<title>Node2</title>
<g id="a_node2"><a xlink:href="class_search_a_thing_1_1_arc3_d.html#a70d5437b6e72ccefa0fc8ede9ff576a9" target="_top" xlink:title="retrieve a discretized representation of this arc">
<polygon fill="white" stroke="#666666" points="65,-56 0,-56 0,-37 65,-37 65,-56"/>
<text text-anchor="middle" x="32.5" y="-44" font-family="Helvetica,sans-Serif" font-size="10.00">Discretize</text>
</a>
</g>
</g>
<!-- Node1&#45;&gt;Node2 -->
<g id="edge1" class="edge">
<title>Node1&#45;&gt;Node2</title>
<path fill="none" stroke="#63b8ff" d="M90.97,-35.47C82.33,-37.13 73.35,-38.85 65.14,-40.43"/>
<polygon fill="#63b8ff" stroke="#63b8ff" points="91.74,-38.89 100.9,-33.56 90.42,-32.01 91.74,-38.89"/>
</g>
<!-- Node3 -->
<g id="node3" class="node">
<title>Node3</title>
<g id="a_node3"><a xlink:href="class_search_a_thing_1_1_arc3_d.html#ab69dc258749ee37248a1342b257311b2" target="_top" xlink:title="create a set of subarc from this by splitting through given split points split point are not required...">
<polygon fill="white" stroke="#666666" points="51.5,-19 13.5,-19 13.5,0 51.5,0 51.5,-19"/>
<text text-anchor="middle" x="32.5" y="-7" font-family="Helvetica,sans-Serif" font-size="10.00">Split</text>
</a>
</g>
</g>
<!-- Node1&#45;&gt;Node3 -->
<g id="edge2" class="edge">
<title>Node1&#45;&gt;Node3</title>
<path fill="none" stroke="#63b8ff" d="M90.67,-19.9C77,-17.41 62.52,-14.78 51.56,-12.78"/>
<polygon fill="#63b8ff" stroke="#63b8ff" points="90.44,-23.41 100.9,-21.76 91.69,-16.52 90.44,-23.41"/>
</g>
</g>
</svg>
