<?xml version="1.0" encoding="UTF-8" standalone="no"?>
<!DOCTYPE svg PUBLIC "-//W3C//DTD SVG 1.1//EN"
 "http://www.w3.org/Graphics/SVG/1.1/DTD/svg11.dtd">
<!-- Generated by graphviz version 2.43.0 (0)
 -->
<!-- Title: Contains Pages: 1 -->
<svg width="311pt" height="212pt"
 viewBox="0.00 0.00 311.00 212.00" xmlns="http://www.w3.org/2000/svg" xmlns:xlink="http://www.w3.org/1999/xlink">
<g id="graph0" class="graph" transform="scale(1 1) rotate(0) translate(4 208)">
<title>Contains</title>
<!-- Node1 -->
<g id="node1" class="node">
<title>Node1</title>
<g id="a_node1"><a xlink:title="statis if given point contained in arc perimeter/shape or circle perimeter/shape depending on specifi...">
<polygon fill="#999999" stroke="#666666" points="303,-111 244,-111 244,-92 303,-92 303,-111"/>
<text text-anchor="middle" x="273.5" y="-99" font-family="Helvetica,sans-Serif" font-size="10.00">Contains</text>
</a>
</g>
</g>
<!-- Node2 -->
<g id="node2" class="node">
<title>Node2</title>
<g id="a_node2"><a xlink:href="class_search_a_thing_1_1_sci_1_1_arc3_d.html#aee7246a76ac2ccbce0caddb70d0137db" target="_top" xlink:title="Build arc by 3 given points. &#160;&#160;Resulting simplified CS and normalized [0,2pi) AngleStart and AngleEnd...">
<polygon fill="white" stroke="#666666" points="189.5,-204 143.5,-204 143.5,-185 189.5,-185 189.5,-204"/>
<text text-anchor="middle" x="166.5" y="-192" font-family="Helvetica,sans-Serif" font-size="10.00">Arc3D</text>
</a>
</g>
</g>
<!-- Node1&#45;&gt;Node2 -->
<g id="edge1" class="edge">
<title>Node1&#45;&gt;Node2</title>
<path fill="none" stroke="#63b8ff" d="M260.33,-119.81C248.56,-136.39 229.4,-160.59 208,-176.5 202.57,-180.54 196.08,-183.93 189.91,-186.64"/>
<polygon fill="#63b8ff" stroke="#63b8ff" points="263.28,-121.7 266.08,-111.49 257.52,-117.73 263.28,-121.7"/>
</g>
<!-- Node3 -->
<g id="node3" class="node">
<title>Node3</title>
<g id="a_node3"><a xlink:href="class_search_a_thing_1_1_sci_1_1_arc3_d.html#a12c9267c6b6af687d05881a71021b9af" target="_top" xlink:title="finds intersection points between two arcs">
<polygon fill="white" stroke="#666666" points="196,-167 137,-167 137,-148 196,-148 196,-167"/>
<text text-anchor="middle" x="166.5" y="-155" font-family="Helvetica,sans-Serif" font-size="10.00">Intersect</text>
</a>
</g>
</g>
<!-- Node1&#45;&gt;Node3 -->
<g id="edge2" class="edge">
<title>Node1&#45;&gt;Node3</title>
<path fill="none" stroke="#63b8ff" d="M248.83,-116.32C236.79,-123.64 221.81,-132.39 208,-139.5 202.39,-142.39 196.22,-145.27 190.42,-147.86"/>
<polygon fill="#63b8ff" stroke="#63b8ff" points="250.71,-119.28 257.4,-111.06 247.05,-113.31 250.71,-119.28"/>
</g>
<!-- Node7 -->
<g id="node7" class="node">
<title>Node7</title>
<g id="a_node7"><a xlink:href="class_search_a_thing_1_1_sci_1_1_arc3_d.html#a48304ba0ad1da7f673e9c7be8c59e39c" target="_top" xlink:title="states if this arc intersect given line">
<polygon fill="white" stroke="#666666" points="196,-130 137,-130 137,-111 196,-111 196,-130"/>
<text text-anchor="middle" x="166.5" y="-118" font-family="Helvetica,sans-Serif" font-size="10.00">Intersect</text>
</a>
</g>
</g>
<!-- Node1&#45;&gt;Node7 -->
<g id="edge6" class="edge">
<title>Node1&#45;&gt;Node7</title>
<path fill="none" stroke="#63b8ff" d="M233.69,-108.52C221.26,-110.77 207.73,-113.22 196.16,-115.31"/>
<polygon fill="#63b8ff" stroke="#63b8ff" points="234.59,-111.92 243.81,-106.69 233.34,-105.03 234.59,-111.92"/>
</g>
<!-- Node8 -->
<g id="node8" class="node">
<title>Node8</title>
<g id="a_node8"><a xlink:href="class_search_a_thing_1_1_sci_1_1_arc3_d.html#a41089be71779b247965f24aa6ebe4b8a" target="_top" xlink:title="extends edge endpoint toward new given one. &#160;&#160;returns null if edge can&#39;t extends toward new given end...">
<polygon fill="white" stroke="#666666" points="197.5,-93 135.5,-93 135.5,-74 197.5,-74 197.5,-93"/>
<text text-anchor="middle" x="166.5" y="-81" font-family="Helvetica,sans-Serif" font-size="10.00">MoveEnd</text>
</a>
</g>
</g>
<!-- Node1&#45;&gt;Node8 -->
<g id="edge7" class="edge">
<title>Node1&#45;&gt;Node8</title>
<path fill="none" stroke="#63b8ff" d="M233.67,-94.84C221.77,-92.8 208.86,-90.59 197.62,-88.66"/>
<polygon fill="#63b8ff" stroke="#63b8ff" points="233.36,-98.34 243.81,-96.58 234.54,-91.44 233.36,-98.34"/>
</g>
<!-- Node9 -->
<g id="node9" class="node">
<title>Node9</title>
<g id="a_node9"><a xlink:href="class_search_a_thing_1_1_sci_1_1_arc3_d.html#a767a1ff9fd31c4874d90a64badce69d9" target="_top" xlink:title="Build a perpendicular vector to this arc starting from the given point p.">
<polygon fill="white" stroke="#666666" points="208,-56 125,-56 125,-37 208,-37 208,-56"/>
<text text-anchor="middle" x="166.5" y="-44" font-family="Helvetica,sans-Serif" font-size="10.00">Perpendicular</text>
</a>
</g>
</g>
<!-- Node1&#45;&gt;Node9 -->
<g id="edge8" class="edge">
<title>Node1&#45;&gt;Node9</title>
<path fill="none" stroke="#63b8ff" d="M247.12,-86.79C235.33,-80.1 221.06,-72.2 208,-65.5 201.78,-62.31 194.93,-59.02 188.66,-56.08"/>
<polygon fill="#63b8ff" stroke="#63b8ff" points="245.55,-89.93 255.97,-91.85 249.02,-83.85 245.55,-89.93"/>
</g>
<!-- Node10 -->
<g id="node10" class="node">
<title>Node10</title>
<g id="a_node10"><a xlink:href="class_search_a_thing_1_1_sci_1_1_arc3_d.html#ab69dc258749ee37248a1342b257311b2" target="_top" xlink:title="create a set of subarc from this by splitting through given split points split point are not required...">
<polygon fill="white" stroke="#666666" points="185.5,-19 147.5,-19 147.5,0 185.5,0 185.5,-19"/>
<text text-anchor="middle" x="166.5" y="-7" font-family="Helvetica,sans-Serif" font-size="10.00">Split</text>
</a>
</g>
</g>
<!-- Node1&#45;&gt;Node10 -->
<g id="edge9" class="edge">
<title>Node1&#45;&gt;Node10</title>
<path fill="none" stroke="#63b8ff" d="M260.28,-83.44C248.47,-67.09 229.28,-43.22 208,-27.5 201.32,-22.56 193.06,-18.59 185.75,-15.64"/>
<polygon fill="#63b8ff" stroke="#63b8ff" points="257.44,-85.48 266.05,-91.65 263.17,-81.46 257.44,-85.48"/>
</g>
<!-- Node4 -->
<g id="node4" class="node">
<title>Node4</title>
<g id="a_node4"><a xlink:href="class_search_a_thing_1_1_sci_1_1_arc3_d.html#a048753f284cb4dd8eb62a5545fd2f073" target="_top" xlink:title="find intersections between this and another geometry resulting in zero or more geometries.">
<polygon fill="white" stroke="#666666" points="89,-204 0,-204 0,-185 89,-185 89,-204"/>
<text text-anchor="middle" x="44.5" y="-192" font-family="Helvetica,sans-Serif" font-size="10.00">GeomIntersect</text>
</a>
</g>
</g>
<!-- Node3&#45;&gt;Node4 -->
<g id="edge3" class="edge">
<title>Node3&#45;&gt;Node4</title>
<path fill="none" stroke="#63b8ff" d="M126.97,-169.38C110.67,-174.41 91.93,-180.19 76.53,-184.93"/>
<polygon fill="#63b8ff" stroke="#63b8ff" points="128.23,-172.65 136.76,-166.36 126.17,-165.96 128.23,-172.65"/>
</g>
<!-- Node5 -->
<g id="node5" class="node">
<title>Node5</title>
<g id="a_node5"><a xlink:href="class_search_a_thing_1_1_sci_1_1_arc3_d.html#a577b1f959ca1dedae02ca1d23e8c75aa" target="_top" xlink:title="find ips of intersect this arc to the given cs plane; return empty set if arc cs plane parallel to ot...">
<polygon fill="white" stroke="#666666" points="74,-167 15,-167 15,-148 74,-148 74,-167"/>
<text text-anchor="middle" x="44.5" y="-155" font-family="Helvetica,sans-Serif" font-size="10.00">Intersect</text>
</a>
</g>
</g>
<!-- Node3&#45;&gt;Node5 -->
<g id="edge4" class="edge">
<title>Node3&#45;&gt;Node5</title>
<path fill="none" stroke="#63b8ff" d="M126.51,-157.5C109.41,-157.5 89.7,-157.5 74.01,-157.5"/>
<polygon fill="#63b8ff" stroke="#63b8ff" points="126.76,-161 136.76,-157.5 126.76,-154 126.76,-161"/>
</g>
<!-- Node6 -->
<g id="node6" class="node">
<title>Node6</title>
<g id="a_node6"><a xlink:href="class_search_a_thing_1_1_sci_1_1_arc3_d.html#ae649b3f46da0206f8587febb36aab1fe" target="_top" xlink:title="project given point p to this arc. &#160;&#160;returns null if ip falls outside arc perimeter and only_arc:true...">
<polygon fill="white" stroke="#666666" points="69.5,-130 19.5,-130 19.5,-111 69.5,-111 69.5,-130"/>
<text text-anchor="middle" x="44.5" y="-118" font-family="Helvetica,sans-Serif" font-size="10.00">Project</text>
</a>
</g>
</g>
<!-- Node3&#45;&gt;Node6 -->
<g id="edge5" class="edge">
<title>Node3&#45;&gt;Node6</title>
<path fill="none" stroke="#63b8ff" d="M126.96,-145.62C108.1,-139.8 85.99,-132.98 69.56,-127.92"/>
<polygon fill="#63b8ff" stroke="#63b8ff" points="126.17,-149.04 136.76,-148.64 128.23,-142.35 126.17,-149.04"/>
</g>
</g>
</svg>
