<?xml version="1.0" encoding="UTF-8" standalone="no"?>
<!DOCTYPE svg PUBLIC "-//W3C//DTD SVG 1.1//EN"
 "http://www.w3.org/Graphics/SVG/1.1/DTD/svg11.dtd">
<!-- Generated by graphviz version 2.43.0 (0)
 -->
<!-- Title: Line3D Pages: 1 -->
<svg width="73pt" height="137pt"
 viewBox="0.00 0.00 73.00 137.00" xmlns="http://www.w3.org/2000/svg" xmlns:xlink="http://www.w3.org/1999/xlink">
<g id="graph0" class="graph" transform="scale(1 1) rotate(0) translate(4 133)">
<title>Line3D</title>
<!-- Node1 -->
<g id="node1" class="node">
<title>Node1</title>
<g id="a_node1"><a xlink:title="Defines a line by an application point (From) and an extension from there (V). To is computed as From...">
<polygon fill="#999999" stroke="#666666" points="57.5,-19 7.5,-19 7.5,0 57.5,0 57.5,-19"/>
<text text-anchor="middle" x="32.5" y="-7" font-family="Helvetica,sans-Serif" font-size="10.00">Line3D</text>
</a>
</g>
</g>
<!-- Node2 -->
<g id="node2" class="node">
<title>Node2</title>
<g id="a_node2"><a xlink:href="class_search_a_thing_1_1_sci_1_1_edge.html" target="_top" xlink:title="interface implemented by some type of geometries used in Loop such as Line3D, Arc3D and Circle3D">
<polygon fill="white" stroke="#666666" points="53,-74 12,-74 12,-55 53,-55 53,-74"/>
<text text-anchor="middle" x="32.5" y="-62" font-family="Helvetica,sans-Serif" font-size="10.00">Edge</text>
</a>
</g>
</g>
<!-- Node2&#45;&gt;Node1 -->
<g id="edge1" class="edge">
<title>Node2&#45;&gt;Node1</title>
<path fill="none" stroke="#63b8ff" d="M32.5,-44.66C32.5,-35.93 32.5,-25.99 32.5,-19.09"/>
<polygon fill="#63b8ff" stroke="#63b8ff" points="29,-44.75 32.5,-54.75 36,-44.75 29,-44.75"/>
</g>
<!-- Node3 -->
<g id="node3" class="node">
<title>Node3</title>
<g id="a_node3"><a xlink:href="class_search_a_thing_1_1_sci_1_1_geometry.html" target="_top" xlink:title="base abstract type for geometries such as Vector3D, Line3D, Arc3D and Circle3D">
<polygon fill="white" stroke="#666666" points="65,-129 0,-129 0,-110 65,-110 65,-129"/>
<text text-anchor="middle" x="32.5" y="-117" font-family="Helvetica,sans-Serif" font-size="10.00">Geometry</text>
</a>
</g>
</g>
<!-- Node3&#45;&gt;Node2 -->
<g id="edge2" class="edge">
<title>Node3&#45;&gt;Node2</title>
<path fill="none" stroke="#63b8ff" d="M32.5,-99.66C32.5,-90.93 32.5,-80.99 32.5,-74.09"/>
<polygon fill="#63b8ff" stroke="#63b8ff" points="29,-99.75 32.5,-109.75 36,-99.75 29,-99.75"/>
</g>
</g>
</svg>
