<?xml version="1.0" encoding="UTF-8" standalone="no"?>
<!DOCTYPE svg PUBLIC "-//W3C//DTD SVG 1.1//EN"
 "http://www.w3.org/Graphics/SVG/1.1/DTD/svg11.dtd">
<!-- Generated by graphviz version 2.43.0 (0)
 -->
<!-- Title: SegmentContainsPoint Pages: 1 -->
<svg width="502pt" height="150pt"
 viewBox="0.00 0.00 502.00 149.50" xmlns="http://www.w3.org/2000/svg" xmlns:xlink="http://www.w3.org/1999/xlink">
<g id="graph0" class="graph" transform="scale(1 1) rotate(0) translate(4 145.5)">
<title>SegmentContainsPoint</title>
<!-- Node1 -->
<g id="node1" class="node">
<title>Node1</title>
<g id="a_node1"><a xlink:title="Finite segment contains point. Note: tol must be Constant.NormalizedLengthTolerance if comparing norm...">
<polygon fill="#999999" stroke="#666666" points="494,-85.5 366,-85.5 366,-66.5 494,-66.5 494,-85.5"/>
<text text-anchor="middle" x="430" y="-73.5" font-family="Helvetica,sans-Serif" font-size="10.00">SegmentContainsPoint</text>
</a>
</g>
</g>
<!-- Node2 -->
<g id="node2" class="node">
<title>Node2</title>
<g id="a_node2"><a xlink:href="class_search_a_thing_1_1_sci_1_1_line3_d.html#a9fcf0812eb6b3e36390d4a76c3b64ef8" target="_top" xlink:title="Intersects two lines with arbitrary segment mode for each.">
<polygon fill="white" stroke="#666666" points="286,-141.5 227,-141.5 227,-122.5 286,-122.5 286,-141.5"/>
<text text-anchor="middle" x="256.5" y="-129.5" font-family="Helvetica,sans-Serif" font-size="10.00">Intersect</text>
</a>
</g>
</g>
<!-- Node1&#45;&gt;Node2 -->
<g id="edge1" class="edge">
<title>Node1&#45;&gt;Node2</title>
<path fill="none" stroke="#63b8ff" d="M397,-89.43C377.78,-97.21 352.73,-106.85 330,-114 315.77,-118.48 299.7,-122.56 286.31,-125.71"/>
<polygon fill="#63b8ff" stroke="#63b8ff" points="398.54,-92.58 406.47,-85.56 395.89,-86.11 398.54,-92.58"/>
</g>
<!-- Node3 -->
<g id="node3" class="node">
<title>Node3</title>
<g id="a_node3"><a xlink:href="class_search_a_thing_1_1_sci_1_1_line3_d.html#a02a25dd4ae4b20a5b72dfc604f74ee56" target="_top" xlink:title="Intersects two lines with arbitrary segment mode for each.">
<polygon fill="white" stroke="#666666" points="286,-104.5 227,-104.5 227,-85.5 286,-85.5 286,-104.5"/>
<text text-anchor="middle" x="256.5" y="-92.5" font-family="Helvetica,sans-Serif" font-size="10.00">Intersect</text>
</a>
</g>
</g>
<!-- Node1&#45;&gt;Node3 -->
<g id="edge2" class="edge">
<title>Node1&#45;&gt;Node3</title>
<path fill="none" stroke="#63b8ff" d="M355.59,-84.13C331.07,-86.85 305.18,-89.72 286.15,-91.83"/>
<polygon fill="#63b8ff" stroke="#63b8ff" points="356.07,-87.6 365.63,-83.02 355.3,-80.64 356.07,-87.6"/>
</g>
<!-- Node4 -->
<g id="node4" class="node">
<title>Node4</title>
<g id="a_node4"><a xlink:href="class_search_a_thing_1_1_sci_1_1_line3_d.html#a8595c362236f1c87661248c301520beb" target="_top" xlink:title="project given pt to this line">
<polygon fill="white" stroke="#666666" points="281.5,-67.5 231.5,-67.5 231.5,-48.5 281.5,-48.5 281.5,-67.5"/>
<text text-anchor="middle" x="256.5" y="-55.5" font-family="Helvetica,sans-Serif" font-size="10.00">Project</text>
</a>
</g>
</g>
<!-- Node1&#45;&gt;Node4 -->
<g id="edge3" class="edge">
<title>Node1&#45;&gt;Node4</title>
<path fill="none" stroke="#63b8ff" d="M355.58,-68.29C329.11,-65.52 301.04,-62.57 281.75,-60.54"/>
<polygon fill="#63b8ff" stroke="#63b8ff" points="355.32,-71.79 365.63,-69.35 356.05,-64.82 355.32,-71.79"/>
</g>
<!-- Node5 -->
<g id="node5" class="node">
<title>Node5</title>
<g id="a_node5"><a xlink:href="class_search_a_thing_1_1_sci_1_1_triangle3_d.html#a13ec69799d98a544d3242130d0508c36" target="_top" xlink:title="Restrict given this triangle coplanar line to be enclosed in the triangle shape.">
<polygon fill="white" stroke="#666666" points="330,-30 183,-30 183,0 330,0 330,-30"/>
<text text-anchor="start" x="191" y="-18" font-family="Helvetica,sans-Serif" font-size="10.00">SearchAThing.Sci.Triangle3</text>
<text text-anchor="middle" x="256.5" y="-7" font-family="Helvetica,sans-Serif" font-size="10.00">D.RestrictTo</text>
</a>
</g>
</g>
<!-- Node1&#45;&gt;Node5 -->
<g id="edge4" class="edge">
<title>Node1&#45;&gt;Node5</title>
<path fill="none" stroke="#63b8ff" d="M393.6,-62.96C374.74,-56.06 351.14,-47.49 330,-40 320.84,-36.75 311.01,-33.33 301.63,-30.09"/>
<polygon fill="#63b8ff" stroke="#63b8ff" points="392.39,-66.25 402.99,-66.41 394.8,-59.68 392.39,-66.25"/>
</g>
<!-- Node6 -->
<g id="node6" class="node">
<title>Node6</title>
<g id="a_node6"><a xlink:href="class_search_a_thing_1_1_sci_1_1_triangle3_d.html#ac56dafbeedb2cb2158eaec3bc3ca8a96" target="_top" xlink:title="intersect this triangle with given other, returning intersection line ( eventyally a point line ) or ...">
<polygon fill="white" stroke="#666666" points="147,-30 0,-30 0,0 147,0 147,-30"/>
<text text-anchor="start" x="8" y="-18" font-family="Helvetica,sans-Serif" font-size="10.00">SearchAThing.Sci.Triangle3</text>
<text text-anchor="middle" x="73.5" y="-7" font-family="Helvetica,sans-Serif" font-size="10.00">D.Intersect</text>
</a>
</g>
</g>
<!-- Node5&#45;&gt;Node6 -->
<g id="edge5" class="edge">
<title>Node5&#45;&gt;Node6</title>
<path fill="none" stroke="#63b8ff" d="M172.88,-15C164.28,-15 155.58,-15 147.09,-15"/>
<polygon fill="#63b8ff" stroke="#63b8ff" points="172.92,-18.5 182.92,-15 172.92,-11.5 172.92,-18.5"/>
</g>
</g>
</svg>
