<?xml version="1.0" encoding="UTF-8" standalone="no"?>
<!DOCTYPE svg PUBLIC "-//W3C//DTD SVG 1.1//EN"
 "http://www.w3.org/Graphics/SVG/1.1/DTD/svg11.dtd">
<!-- Generated by graphviz version 2.43.0 (0)
 -->
<!-- Title: CheckSense Pages: 1 -->
<svg width="277pt" height="76pt"
 viewBox="0.00 0.00 277.00 75.50" xmlns="http://www.w3.org/2000/svg" xmlns:xlink="http://www.w3.org/1999/xlink">
<g id="graph0" class="graph" transform="scale(1 1) rotate(0) translate(4 71.5)">
<title>CheckSense</title>
<!-- Node1 -->
<g id="node1" class="node">
<title>Node1</title>
<g id="a_node1"><a xlink:title=" ">
<polygon fill="#999999" stroke="#666666" points="269,-40 193,-40 193,-21 269,-21 269,-40"/>
<text text-anchor="middle" x="231" y="-28" font-family="Helvetica,sans-Serif" font-size="10.00">CheckSense</text>
</a>
</g>
</g>
<!-- Node2 -->
<g id="node2" class="node">
<title>Node2</title>
<g id="a_node2"><a xlink:href="class_search_a_thing_1_1_sci_1_1_ext.html#a6324a5d66385885bbe6949ad5e32a552" target="_top" xlink:title="From given set of edges returns the same set eventually toggling sense of edges to make them glue so ...">
<polygon fill="white" stroke="#666666" points="154.5,-67.5 2.5,-67.5 2.5,-37.5 154.5,-37.5 154.5,-67.5"/>
<text text-anchor="start" x="10.5" y="-55.5" font-family="Helvetica,sans-Serif" font-size="10.00">SearchAThing.Sci.Ext.Check</text>
<text text-anchor="middle" x="78.5" y="-44.5" font-family="Helvetica,sans-Serif" font-size="10.00">Sense</text>
</a>
</g>
</g>
<!-- Node1&#45;&gt;Node2 -->
<g id="edge1" class="edge">
<title>Node1&#45;&gt;Node2</title>
<path fill="none" stroke="#63b8ff" d="M182.89,-37.39C173.85,-38.71 164.18,-40.12 154.51,-41.54"/>
<polygon fill="#63b8ff" stroke="#63b8ff" points="183.41,-40.85 192.8,-35.94 182.4,-33.92 183.41,-40.85"/>
</g>
<!-- Node3 -->
<g id="node3" class="node">
<title>Node3</title>
<g id="a_node3"><a xlink:href="class_search_a_thing_1_1_sci_1_1_arc3_d.html#a4cd722b08333ccb9f25d1c39edac363b" target="_top" xlink:title="returns this arc splitted by break points maintaining order from, to as this Start,...">
<polygon fill="white" stroke="#666666" points="157,-19 0,-19 0,0 157,0 157,-19"/>
<text text-anchor="middle" x="78.5" y="-7" font-family="Helvetica,sans-Serif" font-size="10.00">SearchAThing.Sci.Arc3D.Split</text>
</a>
</g>
</g>
<!-- Node1&#45;&gt;Node3 -->
<g id="edge2" class="edge">
<title>Node1&#45;&gt;Node3</title>
<path fill="none" stroke="#63b8ff" d="M182.85,-23.92C171.68,-22.36 159.55,-20.67 147.66,-19.01"/>
<polygon fill="#63b8ff" stroke="#63b8ff" points="182.41,-27.39 192.8,-25.31 183.38,-20.46 182.41,-27.39"/>
</g>
</g>
</svg>
