<?xml version="1.0" encoding="UTF-8" standalone="no"?>
<!DOCTYPE svg PUBLIC "-//W3C//DTD SVG 1.1//EN"
 "http://www.w3.org/Graphics/SVG/1.1/DTD/svg11.dtd">
<!-- Generated by graphviz version 2.43.0 (0)
 -->
<!-- Title: ApparentIntersect Pages: 1 -->
<svg width="423pt" height="187pt"
 viewBox="0.00 0.00 423.00 186.50" xmlns="http://www.w3.org/2000/svg" xmlns:xlink="http://www.w3.org/1999/xlink">
<g id="graph0" class="graph" transform="scale(1 1) rotate(0) translate(4 182.5)">
<title>ApparentIntersect</title>
<!-- Node1 -->
<g id="node1" class="node">
<title>Node1</title>
<g id="a_node1"><a xlink:title="Find apparent intersection between this and given other line returning (shortest) segment perpendicul...">
<polygon fill="#999999" stroke="#666666" points="415,-104.5 311,-104.5 311,-85.5 415,-85.5 415,-104.5"/>
<text text-anchor="middle" x="363" y="-92.5" font-family="Helvetica,sans-Serif" font-size="10.00">ApparentIntersect</text>
</a>
</g>
</g>
<!-- Node2 -->
<g id="node2" class="node">
<title>Node2</title>
<g id="a_node2"><a xlink:href="class_search_a_thing_1_1_sci_1_1_line3_d.html#ac279145d85bb4fd2ea89f0bc5ae4efbf" target="_top" xlink:title="Find intersection point between this and other line using given tolerance. Returns null if no interse...">
<polygon fill="white" stroke="#666666" points="275,-104.5 216,-104.5 216,-85.5 275,-85.5 275,-104.5"/>
<text text-anchor="middle" x="245.5" y="-92.5" font-family="Helvetica,sans-Serif" font-size="10.00">Intersect</text>
</a>
</g>
</g>
<!-- Node1&#45;&gt;Node2 -->
<g id="edge1" class="edge">
<title>Node1&#45;&gt;Node2</title>
<path fill="none" stroke="#63b8ff" d="M300.64,-95C291.77,-95 283,-95 275.2,-95"/>
<polygon fill="#63b8ff" stroke="#63b8ff" points="300.67,-98.5 310.67,-95 300.67,-91.5 300.67,-98.5"/>
</g>
<!-- Node3 -->
<g id="node3" class="node">
<title>Node3</title>
<g id="a_node3"><a xlink:href="class_search_a_thing_1_1_sci_1_1_line3_d.html#aabf6d8bb138dbc080987d9937d73167b" target="_top" xlink:title="returns bisect of two given segment/lines ( if given segment not share nodes but intesects returned b...">
<polygon fill="white" stroke="#666666" points="113.5,-178.5 66.5,-178.5 66.5,-159.5 113.5,-159.5 113.5,-178.5"/>
<text text-anchor="middle" x="90" y="-166.5" font-family="Helvetica,sans-Serif" font-size="10.00">Bisect</text>
</a>
</g>
</g>
<!-- Node2&#45;&gt;Node3 -->
<g id="edge2" class="edge">
<title>Node2&#45;&gt;Node3</title>
<path fill="none" stroke="#63b8ff" d="M229.36,-112.26C217.27,-124.95 199.21,-141.55 180,-151 158.92,-161.37 132.23,-165.77 113.6,-167.63"/>
<polygon fill="#63b8ff" stroke="#63b8ff" points="232.21,-114.34 236.4,-104.61 227.06,-109.6 232.21,-114.34"/>
</g>
<!-- Node4 -->
<g id="node4" class="node">
<title>Node4</title>
<g id="a_node4"><a xlink:href="class_search_a_thing_1_1_sci_1_1_line3_d.html#a4e9c08ecfad184897aff9e9cc19fafcf" target="_top" xlink:title="find intersections between this and another geometry resulting in zero or more geometries.">
<polygon fill="white" stroke="#666666" points="134.5,-141.5 45.5,-141.5 45.5,-122.5 134.5,-122.5 134.5,-141.5"/>
<text text-anchor="middle" x="90" y="-129.5" font-family="Helvetica,sans-Serif" font-size="10.00">GeomIntersect</text>
</a>
</g>
</g>
<!-- Node2&#45;&gt;Node4 -->
<g id="edge3" class="edge">
<title>Node2&#45;&gt;Node4</title>
<path fill="none" stroke="#63b8ff" d="M206.02,-106.93C197.49,-109.41 188.47,-111.9 180,-114 165.31,-117.64 149.12,-121.08 134.63,-123.96"/>
<polygon fill="#63b8ff" stroke="#63b8ff" points="207.15,-110.24 215.75,-104.05 205.17,-103.53 207.15,-110.24"/>
</g>
<!-- Node5 -->
<g id="node5" class="node">
<title>Node5</title>
<g id="a_node5"><a xlink:href="class_search_a_thing_1_1_sci_1_1_line3_d.html#a9fcf0812eb6b3e36390d4a76c3b64ef8" target="_top" xlink:title="Intersects two lines with arbitrary segment mode for each.">
<polygon fill="white" stroke="#666666" points="119.5,-104.5 60.5,-104.5 60.5,-85.5 119.5,-85.5 119.5,-104.5"/>
<text text-anchor="middle" x="90" y="-92.5" font-family="Helvetica,sans-Serif" font-size="10.00">Intersect</text>
</a>
</g>
</g>
<!-- Node2&#45;&gt;Node5 -->
<g id="edge4" class="edge">
<title>Node2&#45;&gt;Node5</title>
<path fill="none" stroke="#63b8ff" d="M205.8,-95C179,-95 143.92,-95 119.62,-95"/>
<polygon fill="#63b8ff" stroke="#63b8ff" points="205.99,-98.5 215.99,-95 205.99,-91.5 205.99,-98.5"/>
</g>
<!-- Node6 -->
<g id="node6" class="node">
<title>Node6</title>
<g id="a_node6"><a xlink:href="class_search_a_thing_1_1_sci_1_1_line3_d.html#a02a25dd4ae4b20a5b72dfc604f74ee56" target="_top" xlink:title="Intersects two lines with arbitrary segment mode for each.">
<polygon fill="white" stroke="#666666" points="119.5,-67.5 60.5,-67.5 60.5,-48.5 119.5,-48.5 119.5,-67.5"/>
<text text-anchor="middle" x="90" y="-55.5" font-family="Helvetica,sans-Serif" font-size="10.00">Intersect</text>
</a>
</g>
</g>
<!-- Node2&#45;&gt;Node6 -->
<g id="edge5" class="edge">
<title>Node2&#45;&gt;Node6</title>
<path fill="none" stroke="#63b8ff" d="M205.98,-83.83C197.45,-81.47 188.44,-79.08 180,-77 159.9,-72.06 137.07,-67.2 119.56,-63.63"/>
<polygon fill="#63b8ff" stroke="#63b8ff" points="205.13,-87.23 215.7,-86.55 207.02,-80.49 205.13,-87.23"/>
</g>
<!-- Node7 -->
<g id="node7" class="node">
<title>Node7</title>
<g id="a_node7"><a xlink:href="class_search_a_thing_1_1_sci_1_1_plane3_d_region.html#a73c96313fb28f7e4aef325b09627e6d8" target="_top" xlink:title="states if given ray line intersect this plane3d region">
<polygon fill="white" stroke="#666666" points="180,-30 0,-30 0,0 180,0 180,-30"/>
<text text-anchor="start" x="8" y="-18" font-family="Helvetica,sans-Serif" font-size="10.00">SearchAThing.Sci.Plane3DRegion.</text>
<text text-anchor="middle" x="90" y="-7" font-family="Helvetica,sans-Serif" font-size="10.00">Intersect</text>
</a>
</g>
</g>
<!-- Node2&#45;&gt;Node7 -->
<g id="edge6" class="edge">
<title>Node2&#45;&gt;Node7</title>
<path fill="none" stroke="#63b8ff" d="M228.68,-78.03C216.45,-65.84 198.53,-49.88 180,-40 172.78,-36.15 164.9,-32.84 156.92,-30.01"/>
<polygon fill="#63b8ff" stroke="#63b8ff" points="226.36,-80.67 235.84,-85.4 231.38,-75.79 226.36,-80.67"/>
</g>
</g>
</svg>
