<?xml version="1.0" encoding="UTF-8" standalone="no"?>
<!DOCTYPE svg PUBLIC "-//W3C//DTD SVG 1.1//EN"
 "http://www.w3.org/Graphics/SVG/1.1/DTD/svg11.dtd">
<!-- Generated by graphviz version 2.43.0 (0)
 -->
<!-- Title: Geometry Pages: 1 -->
<svg width="128pt" height="192pt"
 viewBox="0.00 0.00 128.00 192.00" xmlns="http://www.w3.org/2000/svg" xmlns:xlink="http://www.w3.org/1999/xlink">
<g id="graph0" class="graph" transform="scale(1 1) rotate(0) translate(4 188)">
<title>Geometry</title>
<!-- Node1 -->
<g id="node1" class="node">
<title>Node1</title>
<g id="a_node1"><a xlink:title="base abstract type for geometries such as Vector3D, Line3D, Arc3D and Circle3D">
<polygon fill="#999999" stroke="#666666" points="94.5,-184 29.5,-184 29.5,-165 94.5,-165 94.5,-184"/>
<text text-anchor="middle" x="62" y="-172" font-family="Helvetica,sans-Serif" font-size="10.00">Geometry</text>
</a>
</g>
</g>
<!-- Node2 -->
<g id="node2" class="node">
<title>Node2</title>
<g id="a_node2"><a xlink:href="class_search_a_thing_1_1_edge.html" target="_top" xlink:title="interface implemented by some type of geometries used in Loop such as Line3D, Arc3D and Circle3D">
<polygon fill="white" stroke="#666666" points="82.5,-129 41.5,-129 41.5,-110 82.5,-110 82.5,-129"/>
<text text-anchor="middle" x="62" y="-117" font-family="Helvetica,sans-Serif" font-size="10.00">Edge</text>
</a>
</g>
</g>
<!-- Node1&#45;&gt;Node2 -->
<g id="edge1" class="edge">
<title>Node1&#45;&gt;Node2</title>
<path fill="none" stroke="#63b8ff" d="M62,-154.66C62,-145.93 62,-135.99 62,-129.09"/>
<polygon fill="#63b8ff" stroke="#63b8ff" points="58.5,-154.75 62,-164.75 65.5,-154.75 58.5,-154.75"/>
</g>
<!-- Node3 -->
<g id="node3" class="node">
<title>Node3</title>
<g id="a_node3"><a xlink:href="class_search_a_thing_1_1_arc3_d.html" target="_top" xlink:title="base geometry for arc 3d entities.">
<polygon fill="white" stroke="#666666" points="52,-74 6,-74 6,-55 52,-55 52,-74"/>
<text text-anchor="middle" x="29" y="-62" font-family="Helvetica,sans-Serif" font-size="10.00">Arc3D</text>
</a>
</g>
</g>
<!-- Node2&#45;&gt;Node3 -->
<g id="edge2" class="edge">
<title>Node2&#45;&gt;Node3</title>
<path fill="none" stroke="#63b8ff" d="M51.17,-101.1C45.53,-92.04 38.88,-81.37 34.35,-74.09"/>
<polygon fill="#63b8ff" stroke="#63b8ff" points="48.29,-103.11 56.55,-109.75 54.24,-99.41 48.29,-103.11"/>
</g>
<!-- Node5 -->
<g id="node5" class="node">
<title>Node5</title>
<g id="a_node5"><a xlink:href="class_search_a_thing_1_1_line3_d.html" target="_top" xlink:title="Defines a line by an application point (From) and an extension from there (V). To is computed as From...">
<polygon fill="white" stroke="#666666" points="120,-74 70,-74 70,-55 120,-55 120,-74"/>
<text text-anchor="middle" x="95" y="-62" font-family="Helvetica,sans-Serif" font-size="10.00">Line3D</text>
</a>
</g>
</g>
<!-- Node2&#45;&gt;Node5 -->
<g id="edge4" class="edge">
<title>Node2&#45;&gt;Node5</title>
<path fill="none" stroke="#63b8ff" d="M72.83,-101.1C78.47,-92.04 85.12,-81.37 89.65,-74.09"/>
<polygon fill="#63b8ff" stroke="#63b8ff" points="69.76,-99.41 67.45,-109.75 75.71,-103.11 69.76,-99.41"/>
</g>
<!-- Node4 -->
<g id="node4" class="node">
<title>Node4</title>
<g id="a_node4"><a xlink:href="class_search_a_thing_1_1_circle3_d.html" target="_top" xlink:title="Specialized version of Arc3D with StartAngle=0 and EndAngle=2PI.">
<polygon fill="white" stroke="#666666" points="58,-19 0,-19 0,0 58,0 58,-19"/>
<text text-anchor="middle" x="29" y="-7" font-family="Helvetica,sans-Serif" font-size="10.00">Circle3D</text>
</a>
</g>
</g>
<!-- Node3&#45;&gt;Node4 -->
<g id="edge3" class="edge">
<title>Node3&#45;&gt;Node4</title>
<path fill="none" stroke="#63b8ff" d="M29,-44.66C29,-35.93 29,-25.99 29,-19.09"/>
<polygon fill="#63b8ff" stroke="#63b8ff" points="25.5,-44.75 29,-54.75 32.5,-44.75 25.5,-44.75"/>
</g>
</g>
</svg>
