<?xml version="1.0" encoding="UTF-8" standalone="no"?>
<!DOCTYPE svg PUBLIC "-//W3C//DTD SVG 1.1//EN"
 "http://www.w3.org/Graphics/SVG/1.1/DTD/svg11.dtd">
<!-- Generated by graphviz version 2.43.0 (0)
 -->
<!-- Title: RotateAboutAxis Pages: 1 -->
<svg width="518pt" height="64pt"
 viewBox="0.00 0.00 518.00 64.00" xmlns="http://www.w3.org/2000/svg" xmlns:xlink="http://www.w3.org/1999/xlink">
<g id="graph0" class="graph" transform="scale(1 1) rotate(0) translate(4 60)">
<title>RotateAboutAxis</title>
<!-- Node1 -->
<g id="node1" class="node">
<title>Node1</title>
<g id="a_node1"><a xlink:title="rotate this segment about given axis">
<polygon fill="#999999" stroke="#666666" points="510,-37 412,-37 412,-18 510,-18 510,-37"/>
<text text-anchor="middle" x="461" y="-25" font-family="Helvetica,sans-Serif" font-size="10.00">RotateAboutAxis</text>
</a>
</g>
</g>
<!-- Node2 -->
<g id="node2" class="node">
<title>Node2</title>
<g id="a_node2"><a xlink:href="class_search_a_thing_1_1_coordinate_system3_d.html#a9aff237d63db8e87d32956a557283d30" target="_top" xlink:title="return another cs rotated respect given axis">
<polygon fill="white" stroke="#666666" points="376,-42.5 194,-42.5 194,-12.5 376,-12.5 376,-42.5"/>
<text text-anchor="start" x="202" y="-30.5" font-family="Helvetica,sans-Serif" font-size="10.00">SearchAThing.CoordinateSystem3</text>
<text text-anchor="middle" x="285" y="-19.5" font-family="Helvetica,sans-Serif" font-size="10.00">D.Rotate</text>
</a>
</g>
</g>
<!-- Node1&#45;&gt;Node2 -->
<g id="edge1" class="edge">
<title>Node1&#45;&gt;Node2</title>
<path fill="none" stroke="#63b8ff" d="M401.79,-27.5C393.55,-27.5 384.92,-27.5 376.25,-27.5"/>
<polygon fill="#63b8ff" stroke="#63b8ff" points="401.99,-31 411.99,-27.5 401.99,-24 401.99,-31"/>
</g>
<!-- Node3 -->
<g id="node3" class="node">
<title>Node3</title>
<g id="a_node3"><a xlink:href="class_search_a_thing_1_1_sci_ext.html#a405c8bca2a5fc77b4b5dfe4723885d43" target="_top" xlink:title=" ">
<polygon fill="white" stroke="#666666" points="158,-56 0,-56 0,-37 158,-37 158,-56"/>
<text text-anchor="middle" x="79" y="-44" font-family="Helvetica,sans-Serif" font-size="10.00">SearchAThing.SciExt.Explode</text>
</a>
</g>
</g>
<!-- Node2&#45;&gt;Node3 -->
<g id="edge2" class="edge">
<title>Node2&#45;&gt;Node3</title>
<path fill="none" stroke="#63b8ff" d="M183.8,-36.83C175.16,-37.64 166.5,-38.44 158.07,-39.23"/>
<polygon fill="#63b8ff" stroke="#63b8ff" points="184.3,-40.3 193.93,-35.89 183.65,-33.33 184.3,-40.3"/>
</g>
<!-- Node4 -->
<g id="node4" class="node">
<title>Node4</title>
<g id="a_node4"><a xlink:href="class_search_a_thing_1_1_sci_ext.html#a92a05cfbaf78296d4d4d20d47685b469" target="_top" xlink:title=" ">
<polygon fill="white" stroke="#666666" points="153.5,-19 4.5,-19 4.5,0 153.5,0 153.5,-19"/>
<text text-anchor="middle" x="79" y="-7" font-family="Helvetica,sans-Serif" font-size="10.00">SearchAThing.SciExt.Points</text>
</a>
</g>
</g>
<!-- Node2&#45;&gt;Node4 -->
<g id="edge3" class="edge">
<title>Node2&#45;&gt;Node4</title>
<path fill="none" stroke="#63b8ff" d="M183.8,-18.66C173.66,-17.76 163.49,-16.87 153.69,-16"/>
<polygon fill="#63b8ff" stroke="#63b8ff" points="183.66,-22.16 193.93,-19.55 184.28,-15.19 183.66,-22.16"/>
</g>
</g>
</svg>
