<?xml version="1.0" encoding="UTF-8" standalone="no"?>
<!DOCTYPE svg PUBLIC "-//W3C//DTD SVG 1.1//EN"
 "http://www.w3.org/Graphics/SVG/1.1/DTD/svg11.dtd">
<!-- Generated by graphviz version 2.43.0 (0)
 -->
<!-- Title: Contains Pages: 1 -->
<svg width="159pt" height="45pt"
 viewBox="0.00 0.00 159.00 45.00" xmlns="http://www.w3.org/2000/svg" xmlns:xlink="http://www.w3.org/1999/xlink">
<g id="graph0" class="graph" transform="scale(1 1) rotate(0) translate(4 41)">
<title>Contains</title>
<!-- Node1 -->
<g id="node1" class="node">
<title>Node1</title>
<g id="a_node1"><a xlink:title="states if given edge is contained into this face">
<polygon fill="#999999" stroke="#666666" points="151,-19 92,-19 92,0 151,0 151,-19"/>
<text text-anchor="middle" x="121.5" y="-7" font-family="Helvetica,sans-Serif" font-size="10.00">Contains</text>
</a>
</g>
</g>
<!-- Node2 -->
<g id="node2" class="node">
<title>Node2</title>
<g id="a_node2"><a xlink:href="class_search_a_thing_1_1_sci_1_1_face.html#a945fd983232146ce482365aa683bd5e2" target="_top" xlink:title="boolean operation with this and other loops. precondition: must coplanar">
<polygon fill="white" stroke="#666666" points="56,-19 0,-19 0,0 56,0 56,-19"/>
<text text-anchor="middle" x="28" y="-7" font-family="Helvetica,sans-Serif" font-size="10.00">Boolean</text>
</a>
</g>
</g>
<!-- Node1&#45;&gt;Node2 -->
<g id="edge1" class="edge">
<title>Node1&#45;&gt;Node2</title>
<path fill="none" stroke="#63b8ff" d="M81.42,-9.5C72.93,-9.5 64.12,-9.5 56.21,-9.5"/>
<polygon fill="#63b8ff" stroke="#63b8ff" points="81.55,-13 91.55,-9.5 81.55,-6 81.55,-13"/>
</g>
<!-- Node2&#45;&gt;Node2 -->
<g id="edge2" class="edge">
<title>Node2&#45;&gt;Node2</title>
<path fill="none" stroke="#63b8ff" d="M44.94,-28.91C43.61,-33.56 37.96,-37 28,-37 11.65,-37 6.92,-27.73 13.82,-19.08"/>
<polygon fill="#63b8ff" stroke="#63b8ff" points="48.25,-27.76 42.18,-19.08 41.52,-29.66 48.25,-27.76"/>
</g>
</g>
</svg>
