<?xml version="1.0" encoding="UTF-8" standalone="no"?>
<!DOCTYPE svg PUBLIC "-//W3C//DTD SVG 1.1//EN"
 "http://www.w3.org/Graphics/SVG/1.1/DTD/svg11.dtd">
<!-- Generated by graphviz version 2.43.0 (0)
 -->
<!-- Title: IsParallelTo Pages: 1 -->
<svg width="486pt" height="89pt"
 viewBox="0.00 0.00 486.00 88.50" xmlns="http://www.w3.org/2000/svg" xmlns:xlink="http://www.w3.org/1999/xlink">
<g id="graph0" class="graph" transform="scale(1 1) rotate(0) translate(4 84.5)">
<title>IsParallelTo</title>
<!-- Node1 -->
<g id="node1" class="node">
<title>Node1</title>
<g id="a_node1"><a xlink:title="states if this cs have Z base parallel to the other given cs">
<polygon fill="#999999" stroke="#666666" points="478,-43.5 407,-43.5 407,-24.5 478,-24.5 478,-43.5"/>
<text text-anchor="middle" x="442.5" y="-31.5" font-family="Helvetica,sans-Serif" font-size="10.00">IsParallelTo</text>
</a>
</g>
</g>
<!-- Node2 -->
<g id="node2" class="node">
<title>Node2</title>
<g id="a_node2"><a xlink:href="class_search_a_thing_1_1_circle3_d.html#a73e18184c469df5ead90339c98eeedc2" target="_top" xlink:title="intersect this circle with given other; pre&#45;requisite: circles are not the same one ; actually implem...">
<polygon fill="white" stroke="#666666" points="371,-80.5 198,-80.5 198,-61.5 371,-61.5 371,-80.5"/>
<text text-anchor="middle" x="284.5" y="-68.5" font-family="Helvetica,sans-Serif" font-size="10.00">SearchAThing.Circle3D.Intersect</text>
</a>
</g>
</g>
<!-- Node1&#45;&gt;Node2 -->
<g id="edge1" class="edge">
<title>Node1&#45;&gt;Node2</title>
<path fill="none" stroke="#63b8ff" d="M397.78,-46.19C388.93,-48.54 379.69,-50.92 371,-53 358.76,-55.94 345.46,-58.86 333.09,-61.47"/>
<polygon fill="#63b8ff" stroke="#63b8ff" points="398.78,-49.54 407.53,-43.57 396.97,-42.78 398.78,-49.54"/>
</g>
<!-- Node3 -->
<g id="node3" class="node">
<title>Node3</title>
<g id="a_node3"><a xlink:href="class_search_a_thing_1_1_coordinate_system3_d.html#a6c8756373447d3a1ba36521dd13773cf" target="_top" xlink:title="return intersect line between two cs xy planes">
<polygon fill="white" stroke="#666666" points="314,-43.5 255,-43.5 255,-24.5 314,-24.5 314,-43.5"/>
<text text-anchor="middle" x="284.5" y="-31.5" font-family="Helvetica,sans-Serif" font-size="10.00">Intersect</text>
</a>
</g>
</g>
<!-- Node1&#45;&gt;Node3 -->
<g id="edge2" class="edge">
<title>Node1&#45;&gt;Node3</title>
<path fill="none" stroke="#63b8ff" d="M396.65,-34C370.05,-34 337.11,-34 314.02,-34"/>
<polygon fill="#63b8ff" stroke="#63b8ff" points="396.88,-37.5 406.88,-34 396.88,-30.5 396.88,-37.5"/>
</g>
<!-- Node4 -->
<g id="node4" class="node">
<title>Node4</title>
<g id="a_node4"><a xlink:href="class_search_a_thing_1_1_plane3_d.html#a5be865391e1a733a43fe67b25ced6782" target="_top" xlink:title="retrieve the plane that is in the middle between this and other given">
<polygon fill="white" stroke="#666666" points="162,-30 0,-30 0,0 162,0 162,-30"/>
<text text-anchor="start" x="8" y="-18" font-family="Helvetica,sans-Serif" font-size="10.00">SearchAThing.Plane3D.Middle</text>
<text text-anchor="middle" x="81" y="-7" font-family="Helvetica,sans-Serif" font-size="10.00">Plane</text>
</a>
</g>
</g>
<!-- Node1&#45;&gt;Node4 -->
<g id="edge4" class="edge">
<title>Node1&#45;&gt;Node4</title>
<path fill="none" stroke="#63b8ff" d="M401.07,-21.86C391.32,-19.44 380.86,-17.26 371,-16 300.82,-7.06 220.28,-7.66 162.08,-10.01"/>
<polygon fill="#63b8ff" stroke="#63b8ff" points="400.37,-25.3 410.93,-24.45 402.15,-18.53 400.37,-25.3"/>
</g>
<!-- Node3&#45;&gt;Node4 -->
<g id="edge3" class="edge">
<title>Node3&#45;&gt;Node4</title>
<path fill="none" stroke="#63b8ff" d="M244.43,-30.32C221.05,-28.11 190.47,-25.23 162.16,-22.56"/>
<polygon fill="#63b8ff" stroke="#63b8ff" points="244.35,-33.82 254.63,-31.28 245,-26.85 244.35,-33.82"/>
</g>
</g>
</svg>
