<?xml version="1.0" encoding="UTF-8" standalone="no"?>
<!DOCTYPE svg PUBLIC "-//W3C//DTD SVG 1.1//EN"
 "http://www.w3.org/Graphics/SVG/1.1/DTD/svg11.dtd">
<!-- Generated by graphviz version 2.43.0 (0)
 -->
<!-- Title: Rotate Pages: 1 -->
<svg width="254pt" height="64pt"
 viewBox="0.00 0.00 254.00 64.00" xmlns="http://www.w3.org/2000/svg" xmlns:xlink="http://www.w3.org/1999/xlink">
<g id="graph0" class="graph" transform="scale(1 1) rotate(0) translate(4 60)">
<title>Rotate</title>
<!-- Node1 -->
<g id="node1" class="node">
<title>Node1</title>
<g id="a_node1"><a xlink:title="return another cs rotated respect given axis">
<polygon fill="#999999" stroke="#666666" points="246,-37 197,-37 197,-18 246,-18 246,-37"/>
<text text-anchor="middle" x="221.5" y="-25" font-family="Helvetica,sans-Serif" font-size="10.00">Rotate</text>
</a>
</g>
</g>
<!-- Node2 -->
<g id="node2" class="node">
<title>Node2</title>
<g id="a_node2"><a xlink:href="class_search_a_thing_1_1_sci_1_1_ext.html#a405c8bca2a5fc77b4b5dfe4723885d43" target="_top" xlink:title=" ">
<polygon fill="white" stroke="#666666" points="161,-56 0,-56 0,-37 161,-37 161,-56"/>
<text text-anchor="middle" x="80.5" y="-44" font-family="Helvetica,sans-Serif" font-size="10.00">SearchAThing.Sci.Ext.Explode</text>
</a>
</g>
</g>
<!-- Node1&#45;&gt;Node2 -->
<g id="edge1" class="edge">
<title>Node1&#45;&gt;Node2</title>
<path fill="none" stroke="#63b8ff" d="M186.69,-32.12C175.88,-33.6 163.48,-35.29 151.07,-36.99"/>
<polygon fill="#63b8ff" stroke="#63b8ff" points="187.49,-35.55 196.92,-30.72 186.54,-28.61 187.49,-35.55"/>
</g>
<!-- Node3 -->
<g id="node3" class="node">
<title>Node3</title>
<g id="a_node3"><a xlink:href="class_search_a_thing_1_1_sci_1_1_ext.html#a92a05cfbaf78296d4d4d20d47685b469" target="_top" xlink:title=" ">
<polygon fill="white" stroke="#666666" points="156.5,-19 4.5,-19 4.5,0 156.5,0 156.5,-19"/>
<text text-anchor="middle" x="80.5" y="-7" font-family="Helvetica,sans-Serif" font-size="10.00">SearchAThing.Sci.Ext.Points</text>
</a>
</g>
</g>
<!-- Node1&#45;&gt;Node3 -->
<g id="edge2" class="edge">
<title>Node1&#45;&gt;Node3</title>
<path fill="none" stroke="#63b8ff" d="M186.92,-23.15C177.18,-21.89 166.15,-20.46 154.98,-19.02"/>
<polygon fill="#63b8ff" stroke="#63b8ff" points="186.55,-26.63 196.92,-24.45 187.45,-19.69 186.55,-26.63"/>
</g>
</g>
</svg>
