<?xml version="1.0" encoding="UTF-8" standalone="no"?>
<!DOCTYPE svg PUBLIC "-//W3C//DTD SVG 1.1//EN"
 "http://www.w3.org/Graphics/SVG/1.1/DTD/svg11.dtd">
<!-- Generated by graphviz version 2.43.0 (0)
 -->
<!-- Title: PtAngle Pages: 1 -->
<svg width="401pt" height="214pt"
 viewBox="0.00 0.00 401.00 214.00" xmlns="http://www.w3.org/2000/svg" xmlns:xlink="http://www.w3.org/1999/xlink">
<g id="graph0" class="graph" transform="scale(1 1) rotate(0) translate(4 210)">
<title>PtAngle</title>
<!-- Node1 -->
<g id="node1" class="node">
<title>Node1</title>
<g id="a_node1"><a xlink:title="return the angle (rad) of the point respect cs x axis rotating around cs z axis to reach given point ...">
<polygon fill="#999999" stroke="#666666" points="393,-76 339,-76 339,-57 393,-57 393,-76"/>
<text text-anchor="middle" x="366" y="-64" font-family="Helvetica,sans-Serif" font-size="10.00">PtAngle</text>
</a>
</g>
</g>
<!-- Node2 -->
<g id="node2" class="node">
<title>Node2</title>
<g id="a_node2"><a xlink:href="class_search_a_thing_1_1_arc3_d.html#a7aedb7755ec4bab250ba27b19939fefc" target="_top" xlink:title="build arc with given cs, radius goind from,to vectors">
<polygon fill="white" stroke="#666666" points="296.5,-132 250.5,-132 250.5,-113 296.5,-113 296.5,-132"/>
<text text-anchor="middle" x="273.5" y="-120" font-family="Helvetica,sans-Serif" font-size="10.00">Arc3D</text>
</a>
</g>
</g>
<!-- Node1&#45;&gt;Node2 -->
<g id="edge1" class="edge">
<title>Node1&#45;&gt;Node2</title>
<path fill="none" stroke="#63b8ff" d="M340.39,-81.73C324.35,-91.65 303.91,-104.3 290.08,-112.86"/>
<polygon fill="#63b8ff" stroke="#63b8ff" points="342.57,-84.49 349.24,-76.25 338.89,-78.54 342.57,-84.49"/>
</g>
<!-- Node3 -->
<g id="node3" class="node">
<title>Node3</title>
<g id="a_node3"><a xlink:href="class_search_a_thing_1_1_arc3_d.html#a5ed7c1e76869c535a33b44c7070e2deb" target="_top" xlink:title="statis if given point contained in arc perimeter/shape or circle perimeter/shape depending on specifi...">
<polygon fill="white" stroke="#666666" points="303,-95 244,-95 244,-76 303,-76 303,-95"/>
<text text-anchor="middle" x="273.5" y="-83" font-family="Helvetica,sans-Serif" font-size="10.00">Contains</text>
</a>
</g>
</g>
<!-- Node1&#45;&gt;Node3 -->
<g id="edge2" class="edge">
<title>Node1&#45;&gt;Node3</title>
<path fill="none" stroke="#63b8ff" d="M329.03,-74.05C320.43,-75.86 311.37,-77.76 303.15,-79.48"/>
<polygon fill="#63b8ff" stroke="#63b8ff" points="329.76,-77.48 338.82,-72 328.32,-70.62 329.76,-77.48"/>
</g>
<!-- Node12 -->
<g id="node12" class="node">
<title>Node12</title>
<g id="a_node12"><a xlink:href="class_search_a_thing_1_1_arc3_d.html#ab69dc258749ee37248a1342b257311b2" target="_top" xlink:title="create a set of subarc from this by splitting through given split points split point are not required...">
<polygon fill="white" stroke="#666666" points="185.5,-21 147.5,-21 147.5,-2 185.5,-2 185.5,-21"/>
<text text-anchor="middle" x="166.5" y="-9" font-family="Helvetica,sans-Serif" font-size="10.00">Split</text>
</a>
</g>
</g>
<!-- Node1&#45;&gt;Node12 -->
<g id="edge12" class="edge">
<title>Node1&#45;&gt;Node12</title>
<path fill="none" stroke="#63b8ff" d="M329.14,-56.51C286.81,-44.73 218.09,-25.59 185.61,-16.54"/>
<polygon fill="#63b8ff" stroke="#63b8ff" points="328.2,-59.89 338.77,-59.2 330.08,-53.14 328.2,-59.89"/>
</g>
<!-- Node13 -->
<g id="node13" class="node">
<title>Node13</title>
<g id="a_node13"><a xlink:href="class_search_a_thing_1_1_arc3_d.html#a4cd722b08333ccb9f25d1c39edac363b" target="_top" xlink:title="returns this arc splitted by break points maintaining order from, to as this Start,...">
<polygon fill="white" stroke="#666666" points="292.5,-19 254.5,-19 254.5,0 292.5,0 292.5,-19"/>
<text text-anchor="middle" x="273.5" y="-7" font-family="Helvetica,sans-Serif" font-size="10.00">Split</text>
</a>
</g>
</g>
<!-- Node1&#45;&gt;Node13 -->
<g id="edge13" class="edge">
<title>Node1&#45;&gt;Node13</title>
<path fill="none" stroke="#63b8ff" d="M341.15,-51.48C324.83,-41.2 303.68,-27.88 289.63,-19.03"/>
<polygon fill="#63b8ff" stroke="#63b8ff" points="339.32,-54.46 349.65,-56.83 343.05,-48.54 339.32,-54.46"/>
</g>
<!-- Node4 -->
<g id="node4" class="node">
<title>Node4</title>
<g id="a_node4"><a xlink:href="class_search_a_thing_1_1_arc3_d.html#aee7246a76ac2ccbce0caddb70d0137db" target="_top" xlink:title="Build arc by 3 given points. &#160;&#160;Resulting simplified CS and normalized [0,2pi) AngleStart and AngleEnd...">
<polygon fill="white" stroke="#666666" points="189.5,-206 143.5,-206 143.5,-187 189.5,-187 189.5,-206"/>
<text text-anchor="middle" x="166.5" y="-194" font-family="Helvetica,sans-Serif" font-size="10.00">Arc3D</text>
</a>
</g>
</g>
<!-- Node3&#45;&gt;Node4 -->
<g id="edge3" class="edge">
<title>Node3&#45;&gt;Node4</title>
<path fill="none" stroke="#63b8ff" d="M247.15,-101.26C246.04,-102.3 244.98,-103.38 244,-104.5 219.94,-132.05 234.3,-153.09 208,-178.5 202.91,-183.42 196.25,-187.13 189.8,-189.86"/>
<polygon fill="#63b8ff" stroke="#63b8ff" points="249.37,-103.96 255.05,-95.01 245.03,-98.47 249.37,-103.96"/>
</g>
<!-- Node5 -->
<g id="node5" class="node">
<title>Node5</title>
<g id="a_node5"><a xlink:href="class_search_a_thing_1_1_arc3_d.html#a12c9267c6b6af687d05881a71021b9af" target="_top" xlink:title="finds intersection points between two arcs">
<polygon fill="white" stroke="#666666" points="196,-169 137,-169 137,-150 196,-150 196,-169"/>
<text text-anchor="middle" x="166.5" y="-157" font-family="Helvetica,sans-Serif" font-size="10.00">Intersect</text>
</a>
</g>
</g>
<!-- Node3&#45;&gt;Node5 -->
<g id="edge4" class="edge">
<title>Node3&#45;&gt;Node5</title>
<path fill="none" stroke="#63b8ff" d="M248.23,-101.16C246.77,-102.26 245.35,-103.38 244,-104.5 226.36,-119.17 226.82,-128.38 208,-141.5 203.45,-144.67 198.26,-147.48 193.15,-149.88"/>
<polygon fill="#63b8ff" stroke="#63b8ff" points="250.54,-103.81 256.69,-95.18 246.5,-98.09 250.54,-103.81"/>
</g>
<!-- Node9 -->
<g id="node9" class="node">
<title>Node9</title>
<g id="a_node9"><a xlink:href="class_search_a_thing_1_1_arc3_d.html#a48304ba0ad1da7f673e9c7be8c59e39c" target="_top" xlink:title="states if this arc intersect given line">
<polygon fill="white" stroke="#666666" points="196,-132 137,-132 137,-113 196,-113 196,-132"/>
<text text-anchor="middle" x="166.5" y="-120" font-family="Helvetica,sans-Serif" font-size="10.00">Intersect</text>
</a>
</g>
</g>
<!-- Node3&#45;&gt;Node9 -->
<g id="edge8" class="edge">
<title>Node3&#45;&gt;Node9</title>
<path fill="none" stroke="#63b8ff" d="M235.95,-98.38C222.44,-103.14 207.37,-108.45 194.81,-112.88"/>
<polygon fill="#63b8ff" stroke="#63b8ff" points="237.19,-101.65 245.46,-95.03 234.87,-95.05 237.19,-101.65"/>
</g>
<!-- Node10 -->
<g id="node10" class="node">
<title>Node10</title>
<g id="a_node10"><a xlink:href="class_search_a_thing_1_1_arc3_d.html#a41089be71779b247965f24aa6ebe4b8a" target="_top" xlink:title="extends edge endpoint toward new given one. &#160;&#160;returns null if edge can&#39;t extends toward new given end...">
<polygon fill="white" stroke="#666666" points="197.5,-95 135.5,-95 135.5,-76 197.5,-76 197.5,-95"/>
<text text-anchor="middle" x="166.5" y="-83" font-family="Helvetica,sans-Serif" font-size="10.00">MoveEnd</text>
</a>
</g>
</g>
<!-- Node3&#45;&gt;Node10 -->
<g id="edge9" class="edge">
<title>Node3&#45;&gt;Node10</title>
<path fill="none" stroke="#63b8ff" d="M233.67,-85.5C221.77,-85.5 208.86,-85.5 197.62,-85.5"/>
<polygon fill="#63b8ff" stroke="#63b8ff" points="233.81,-89 243.81,-85.5 233.81,-82 233.81,-89"/>
</g>
<!-- Node11 -->
<g id="node11" class="node">
<title>Node11</title>
<g id="a_node11"><a xlink:href="class_search_a_thing_1_1_arc3_d.html#a767a1ff9fd31c4874d90a64badce69d9" target="_top" xlink:title="Build a perpendicular vector to this arc starting from the given point p.">
<polygon fill="white" stroke="#666666" points="208,-58 125,-58 125,-39 208,-39 208,-58"/>
<text text-anchor="middle" x="166.5" y="-46" font-family="Helvetica,sans-Serif" font-size="10.00">Perpendicular</text>
</a>
</g>
</g>
<!-- Node3&#45;&gt;Node11 -->
<g id="edge10" class="edge">
<title>Node3&#45;&gt;Node11</title>
<path fill="none" stroke="#63b8ff" d="M235.95,-72.62C222.44,-67.86 207.37,-62.55 194.81,-58.12"/>
<polygon fill="#63b8ff" stroke="#63b8ff" points="234.87,-75.95 245.46,-75.97 237.19,-69.35 234.87,-75.95"/>
</g>
<!-- Node3&#45;&gt;Node12 -->
<g id="edge11" class="edge">
<title>Node3&#45;&gt;Node12</title>
<path fill="none" stroke="#63b8ff" d="M253.21,-69.38C250.12,-66.76 246.96,-64.06 244,-61.5 227.81,-47.49 225.99,-41.1 208,-29.5 201.14,-25.08 193.02,-21.24 185.86,-18.25"/>
<polygon fill="#63b8ff" stroke="#63b8ff" points="251.16,-72.23 261.07,-75.99 255.67,-66.87 251.16,-72.23"/>
</g>
<!-- Node6 -->
<g id="node6" class="node">
<title>Node6</title>
<g id="a_node6"><a xlink:href="class_search_a_thing_1_1_arc3_d.html#a048753f284cb4dd8eb62a5545fd2f073" target="_top" xlink:title="find intersections between this and another geometry resulting in zero or more geometries.">
<polygon fill="white" stroke="#666666" points="89,-206 0,-206 0,-187 89,-187 89,-206"/>
<text text-anchor="middle" x="44.5" y="-194" font-family="Helvetica,sans-Serif" font-size="10.00">GeomIntersect</text>
</a>
</g>
</g>
<!-- Node5&#45;&gt;Node6 -->
<g id="edge5" class="edge">
<title>Node5&#45;&gt;Node6</title>
<path fill="none" stroke="#63b8ff" d="M126.97,-171.38C110.67,-176.41 91.93,-182.19 76.53,-186.93"/>
<polygon fill="#63b8ff" stroke="#63b8ff" points="128.23,-174.65 136.76,-168.36 126.17,-167.96 128.23,-174.65"/>
</g>
<!-- Node7 -->
<g id="node7" class="node">
<title>Node7</title>
<g id="a_node7"><a xlink:href="class_search_a_thing_1_1_arc3_d.html#a577b1f959ca1dedae02ca1d23e8c75aa" target="_top" xlink:title="find ips of intersect this arc to the given cs plane; return empty set if arc cs plane parallel to ot...">
<polygon fill="white" stroke="#666666" points="74,-169 15,-169 15,-150 74,-150 74,-169"/>
<text text-anchor="middle" x="44.5" y="-157" font-family="Helvetica,sans-Serif" font-size="10.00">Intersect</text>
</a>
</g>
</g>
<!-- Node5&#45;&gt;Node7 -->
<g id="edge6" class="edge">
<title>Node5&#45;&gt;Node7</title>
<path fill="none" stroke="#63b8ff" d="M126.51,-159.5C109.41,-159.5 89.7,-159.5 74.01,-159.5"/>
<polygon fill="#63b8ff" stroke="#63b8ff" points="126.76,-163 136.76,-159.5 126.76,-156 126.76,-163"/>
</g>
<!-- Node8 -->
<g id="node8" class="node">
<title>Node8</title>
<g id="a_node8"><a xlink:href="class_search_a_thing_1_1_arc3_d.html#ae649b3f46da0206f8587febb36aab1fe" target="_top" xlink:title="project given point p to this arc. &#160;&#160;returns null if ip falls outside arc perimeter and only_arc:true...">
<polygon fill="white" stroke="#666666" points="69.5,-132 19.5,-132 19.5,-113 69.5,-113 69.5,-132"/>
<text text-anchor="middle" x="44.5" y="-120" font-family="Helvetica,sans-Serif" font-size="10.00">Project</text>
</a>
</g>
</g>
<!-- Node5&#45;&gt;Node8 -->
<g id="edge7" class="edge">
<title>Node5&#45;&gt;Node8</title>
<path fill="none" stroke="#63b8ff" d="M126.96,-147.62C108.1,-141.8 85.99,-134.98 69.56,-129.92"/>
<polygon fill="#63b8ff" stroke="#63b8ff" points="126.17,-151.04 136.76,-150.64 128.23,-144.35 126.17,-151.04"/>
</g>
</g>
</svg>
