<?xml version="1.0" encoding="UTF-8" standalone="no"?>
<!DOCTYPE svg PUBLIC "-//W3C//DTD SVG 1.1//EN"
 "http://www.w3.org/Graphics/SVG/1.1/DTD/svg11.dtd">
<!-- Generated by graphviz version 2.43.0 (0)
 -->
<!-- Title: CopyFrom Pages: 1 -->
<svg width="274pt" height="76pt"
 viewBox="0.00 0.00 274.00 75.50" xmlns="http://www.w3.org/2000/svg" xmlns:xlink="http://www.w3.org/1999/xlink">
<g id="graph0" class="graph" transform="scale(1 1) rotate(0) translate(4 71.5)">
<title>CopyFrom</title>
<!-- Node1 -->
<g id="node1" class="node">
<title>Node1</title>
<g id="a_node1"><a xlink:title=" ">
<polygon fill="#999999" stroke="#666666" points="266,-45.5 200,-45.5 200,-26.5 266,-26.5 266,-45.5"/>
<text text-anchor="middle" x="233" y="-33.5" font-family="Helvetica,sans-Serif" font-size="10.00">CopyFrom</text>
</a>
</g>
</g>
<!-- Node2 -->
<g id="node2" class="node">
<title>Node2</title>
<g id="a_node2"><a xlink:href="class_search_a_thing_1_1_sci_1_1_arc3_d.html#a2492b76ca16cd2c39edbecadc817d7b4" target="_top" xlink:title="build a copy of given arc">
<polygon fill="white" stroke="#666666" points="164,-67.5 0,-67.5 0,-48.5 164,-48.5 164,-67.5"/>
<text text-anchor="middle" x="82" y="-55.5" font-family="Helvetica,sans-Serif" font-size="10.00">SearchAThing.Sci.Arc3D.Arc3D</text>
</a>
</g>
</g>
<!-- Node1&#45;&gt;Node2 -->
<g id="edge1" class="edge">
<title>Node1&#45;&gt;Node2</title>
<path fill="none" stroke="#63b8ff" d="M189.54,-42.27C176.42,-44.21 161.67,-46.38 147.42,-48.49"/>
<polygon fill="#63b8ff" stroke="#63b8ff" points="190.29,-45.7 199.67,-40.77 189.27,-38.77 190.29,-45.7"/>
</g>
<!-- Node3 -->
<g id="node3" class="node">
<title>Node3</title>
<g id="a_node3"><a xlink:href="class_search_a_thing_1_1_sci_1_1_line3_d.html#a3d01030c137b0d0ab1c978924fe06b07" target="_top" xlink:title="build a copy of given line">
<polygon fill="white" stroke="#666666" points="152,-30 12,-30 12,0 152,0 152,-30"/>
<text text-anchor="start" x="20" y="-18" font-family="Helvetica,sans-Serif" font-size="10.00">SearchAThing.Sci.Line3D.</text>
<text text-anchor="middle" x="82" y="-7" font-family="Helvetica,sans-Serif" font-size="10.00">Line3D</text>
</a>
</g>
</g>
<!-- Node1&#45;&gt;Node3 -->
<g id="edge2" class="edge">
<title>Node1&#45;&gt;Node3</title>
<path fill="none" stroke="#63b8ff" d="M189.42,-30C177.82,-28.36 164.95,-26.55 152.28,-24.76"/>
<polygon fill="#63b8ff" stroke="#63b8ff" points="189.28,-33.51 199.67,-31.44 190.26,-26.58 189.28,-33.51"/>
</g>
</g>
</svg>
