<?xml version="1.0" encoding="UTF-8" standalone="no"?>
<!DOCTYPE svg PUBLIC "-//W3C//DTD SVG 1.1//EN"
 "http://www.w3.org/Graphics/SVG/1.1/DTD/svg11.dtd">
<!-- Generated by graphviz version 2.43.0 (0)
 -->
<!-- Title: Overlap Pages: 1 -->
<svg width="155pt" height="45pt"
 viewBox="0.00 0.00 155.00 45.00" xmlns="http://www.w3.org/2000/svg" xmlns:xlink="http://www.w3.org/1999/xlink">
<g id="graph0" class="graph" transform="scale(1 1) rotate(0) translate(4 41)">
<title>Overlap</title>
<!-- Node1 -->
<g id="node1" class="node">
<title>Node1</title>
<g id="a_node1"><a xlink:title="test if edge overlap any of loop edges of this face">
<polygon fill="#999999" stroke="#666666" points="147,-19 92,-19 92,0 147,0 147,-19"/>
<text text-anchor="middle" x="119.5" y="-7" font-family="Helvetica,sans-Serif" font-size="10.00">Overlap</text>
</a>
</g>
</g>
<!-- Node2 -->
<g id="node2" class="node">
<title>Node2</title>
<g id="a_node2"><a xlink:href="class_search_a_thing_1_1_face.html#a945fd983232146ce482365aa683bd5e2" target="_top" xlink:title="boolean operation with this and other loops. precondition: must coplanar">
<polygon fill="white" stroke="#666666" points="56,-19 0,-19 0,0 56,0 56,-19"/>
<text text-anchor="middle" x="28" y="-7" font-family="Helvetica,sans-Serif" font-size="10.00">Boolean</text>
</a>
</g>
</g>
<!-- Node1&#45;&gt;Node2 -->
<g id="edge1" class="edge">
<title>Node1&#45;&gt;Node2</title>
<path fill="none" stroke="#63b8ff" d="M81.55,-9.5C73.04,-9.5 64.15,-9.5 56.14,-9.5"/>
<polygon fill="#63b8ff" stroke="#63b8ff" points="81.65,-13 91.65,-9.5 81.65,-6 81.65,-13"/>
</g>
<!-- Node2&#45;&gt;Node2 -->
<g id="edge2" class="edge">
<title>Node2&#45;&gt;Node2</title>
<path fill="none" stroke="#63b8ff" d="M44.57,-28.91C43.27,-33.56 37.75,-37 28,-37 12,-37 7.38,-27.73 14.13,-19.08"/>
<polygon fill="#63b8ff" stroke="#63b8ff" points="47.9,-27.8 41.87,-19.08 41.15,-29.65 47.9,-27.8"/>
</g>
</g>
</svg>
