<?xml version="1.0" encoding="UTF-8" standalone="no"?>
<!DOCTYPE svg PUBLIC "-//W3C//DTD SVG 1.1//EN"
 "http://www.w3.org/Graphics/SVG/1.1/DTD/svg11.dtd">
<!-- Generated by graphviz version 2.43.0 (0)
 -->
<!-- Title: OtherEndpoint Pages: 1 -->
<svg width="451pt" height="51pt"
 viewBox="0.00 0.00 451.00 50.50" xmlns="http://www.w3.org/2000/svg" xmlns:xlink="http://www.w3.org/1999/xlink">
<g id="graph0" class="graph" transform="scale(1 1) rotate(0) translate(4 46.5)">
<title>OtherEndpoint</title>
<!-- Node1 -->
<g id="node1" class="node">
<title>Node1</title>
<g id="a_node1"><a xlink:title=" ">
<polygon fill="#999999" stroke="#666666" points="443,-24.5 357,-24.5 357,-5.5 443,-5.5 443,-24.5"/>
<text text-anchor="middle" x="400" y="-12.5" font-family="Helvetica,sans-Serif" font-size="10.00">OtherEndpoint</text>
</a>
</g>
</g>
<!-- Node2 -->
<g id="node2" class="node">
<title>Node2</title>
<g id="a_node2"><a xlink:href="class_search_a_thing_1_1_sci_toolkit.html#a712fb81d32bd3f105930861eb20fd8ab" target="_top" xlink:title="walk edges">
<polygon fill="white" stroke="#666666" points="321,-30 186,-30 186,0 321,0 321,-30"/>
<text text-anchor="start" x="194" y="-18" font-family="Helvetica,sans-Serif" font-size="10.00">SearchAThing.SciToolkit.</text>
<text text-anchor="middle" x="253.5" y="-7" font-family="Helvetica,sans-Serif" font-size="10.00">WalkEdges</text>
</a>
</g>
</g>
<!-- Node1&#45;&gt;Node2 -->
<g id="edge1" class="edge">
<title>Node1&#45;&gt;Node2</title>
<path fill="none" stroke="#63b8ff" d="M346.6,-15C338.35,-15 329.73,-15 321.21,-15"/>
<polygon fill="#63b8ff" stroke="#63b8ff" points="346.82,-18.5 356.82,-15 346.82,-11.5 346.82,-18.5"/>
</g>
<!-- Node3 -->
<g id="node3" class="node">
<title>Node3</title>
<g id="a_node3"><a xlink:href="class_search_a_thing_1_1_face.html#a945fd983232146ce482365aa683bd5e2" target="_top" xlink:title="boolean operation with this and other loops. precondition: must coplanar">
<polygon fill="white" stroke="#666666" points="150,-24.5 0,-24.5 0,-5.5 150,-5.5 150,-24.5"/>
<text text-anchor="middle" x="75" y="-12.5" font-family="Helvetica,sans-Serif" font-size="10.00">SearchAThing.Face.Boolean</text>
</a>
</g>
</g>
<!-- Node2&#45;&gt;Node3 -->
<g id="edge2" class="edge">
<title>Node2&#45;&gt;Node3</title>
<path fill="none" stroke="#63b8ff" d="M175.59,-15C167.16,-15 158.6,-15 150.21,-15"/>
<polygon fill="#63b8ff" stroke="#63b8ff" points="175.77,-18.5 185.77,-15 175.77,-11.5 175.77,-18.5"/>
</g>
<!-- Node3&#45;&gt;Node3 -->
<g id="edge3" class="edge">
<title>Node3&#45;&gt;Node3</title>
<path fill="none" stroke="#63b8ff" d="M108.31,-32.95C107.36,-38.32 96.26,-42.5 75,-42.5 43.36,-42.5 34.22,-33.23 47.57,-24.58"/>
<polygon fill="#63b8ff" stroke="#63b8ff" points="111.05,-30.76 102.43,-24.58 105.32,-34.78 111.05,-30.76"/>
</g>
</g>
</svg>
