<?xml version="1.0" encoding="UTF-8" standalone="no"?>
<!DOCTYPE svg PUBLIC "-//W3C//DTD SVG 1.1//EN"
 "http://www.w3.org/Graphics/SVG/1.1/DTD/svg11.dtd">
<!-- Generated by graphviz version 2.43.0 (0)
 -->
<!-- Title: Intersect Pages: 1 -->
<svg width="495pt" height="113pt"
 viewBox="0.00 0.00 495.00 112.50" xmlns="http://www.w3.org/2000/svg" xmlns:xlink="http://www.w3.org/1999/xlink">
<g id="graph0" class="graph" transform="scale(1 1) rotate(0) translate(4 108.5)">
<title>Intersect</title>
<!-- Node1 -->
<g id="node1" class="node">
<title>Node1</title>
<g id="a_node1"><a xlink:title="intersect this 3d circle with given 3d line">
<polygon fill="#999999" stroke="#666666" points="487,-37 428,-37 428,-18 487,-18 487,-37"/>
<text text-anchor="middle" x="457.5" y="-25" font-family="Helvetica,sans-Serif" font-size="10.00">Intersect</text>
</a>
</g>
</g>
<!-- Node2 -->
<g id="node2" class="node">
<title>Node2</title>
<g id="a_node2"><a xlink:href="class_search_a_thing_1_1_sci_1_1_arc3_d.html#a12c9267c6b6af687d05881a71021b9af" target="_top" xlink:title="finds intersection points between two arcs">
<polygon fill="white" stroke="#666666" points="392,-56 214,-56 214,-37 392,-37 392,-56"/>
<text text-anchor="middle" x="303" y="-44" font-family="Helvetica,sans-Serif" font-size="10.00">SearchAThing.Sci.Arc3D.Intersect</text>
</a>
</g>
</g>
<!-- Node1&#45;&gt;Node2 -->
<g id="edge1" class="edge">
<title>Node1&#45;&gt;Node2</title>
<path fill="none" stroke="#63b8ff" d="M417.78,-32.32C406.36,-33.75 393.43,-35.36 380.49,-36.97"/>
<polygon fill="#63b8ff" stroke="#63b8ff" points="418.33,-35.78 427.82,-31.07 417.46,-28.84 418.33,-35.78"/>
</g>
<!-- Node6 -->
<g id="node6" class="node">
<title>Node6</title>
<g id="a_node6"><a xlink:href="class_search_a_thing_1_1_sci_1_1_circle3_d.html#a73e18184c469df5ead90339c98eeedc2" target="_top" xlink:title="intersect this circle with given other; pre&#45;requisite: circles are not the same one ; actually implem...">
<polygon fill="white" stroke="#666666" points="332.5,-19 273.5,-19 273.5,0 332.5,0 332.5,-19"/>
<text text-anchor="middle" x="303" y="-7" font-family="Helvetica,sans-Serif" font-size="10.00">Intersect</text>
</a>
</g>
</g>
<!-- Node1&#45;&gt;Node6 -->
<g id="edge5" class="edge">
<title>Node1&#45;&gt;Node6</title>
<path fill="none" stroke="#63b8ff" d="M417.72,-22.92C391.18,-19.79 356.59,-15.71 332.56,-12.87"/>
<polygon fill="#63b8ff" stroke="#63b8ff" points="417.47,-26.42 427.82,-24.11 418.3,-19.47 417.47,-26.42"/>
</g>
<!-- Node3 -->
<g id="node3" class="node">
<title>Node3</title>
<g id="a_node3"><a xlink:href="class_search_a_thing_1_1_sci_1_1_arc3_d.html#a048753f284cb4dd8eb62a5545fd2f073" target="_top" xlink:title="find intersections between this and another geometry resulting in zero or more geometries.">
<polygon fill="white" stroke="#666666" points="171,-104.5 7,-104.5 7,-74.5 171,-74.5 171,-104.5"/>
<text text-anchor="start" x="15" y="-92.5" font-family="Helvetica,sans-Serif" font-size="10.00">SearchAThing.Sci.Arc3D.Geom</text>
<text text-anchor="middle" x="89" y="-81.5" font-family="Helvetica,sans-Serif" font-size="10.00">Intersect</text>
</a>
</g>
</g>
<!-- Node2&#45;&gt;Node3 -->
<g id="edge2" class="edge">
<title>Node2&#45;&gt;Node3</title>
<path fill="none" stroke="#63b8ff" d="M244.94,-58.07C220.05,-63.12 190.54,-69.11 163.98,-74.49"/>
<polygon fill="#63b8ff" stroke="#63b8ff" points="245.85,-61.46 254.95,-56.04 244.45,-54.6 245.85,-61.46"/>
</g>
<!-- Node4 -->
<g id="node4" class="node">
<title>Node4</title>
<g id="a_node4"><a xlink:href="class_search_a_thing_1_1_sci_1_1_arc3_d.html#a577b1f959ca1dedae02ca1d23e8c75aa" target="_top" xlink:title="find ips of intersect this arc to the given cs plane; return empty set if arc cs plane parallel to ot...">
<polygon fill="white" stroke="#666666" points="178,-56 0,-56 0,-37 178,-37 178,-56"/>
<text text-anchor="middle" x="89" y="-44" font-family="Helvetica,sans-Serif" font-size="10.00">SearchAThing.Sci.Arc3D.Intersect</text>
</a>
</g>
</g>
<!-- Node2&#45;&gt;Node4 -->
<g id="edge3" class="edge">
<title>Node2&#45;&gt;Node4</title>
<path fill="none" stroke="#63b8ff" d="M203.89,-46.5C195.3,-46.5 186.64,-46.5 178.13,-46.5"/>
<polygon fill="#63b8ff" stroke="#63b8ff" points="203.93,-50 213.93,-46.5 203.93,-43 203.93,-50"/>
</g>
<!-- Node5 -->
<g id="node5" class="node">
<title>Node5</title>
<g id="a_node5"><a xlink:href="class_search_a_thing_1_1_sci_1_1_arc3_d.html#ae649b3f46da0206f8587febb36aab1fe" target="_top" xlink:title="project given point p to this arc. &#160;&#160;returns null if ip falls outside arc perimeter and only_arc:true...">
<polygon fill="white" stroke="#666666" points="173.5,-19 4.5,-19 4.5,0 173.5,0 173.5,-19"/>
<text text-anchor="middle" x="89" y="-7" font-family="Helvetica,sans-Serif" font-size="10.00">SearchAThing.Sci.Arc3D.Project</text>
</a>
</g>
</g>
<!-- Node2&#45;&gt;Node5 -->
<g id="edge4" class="edge">
<title>Node2&#45;&gt;Node5</title>
<path fill="none" stroke="#63b8ff" d="M237.18,-35.19C207.62,-30.03 173.01,-23.99 144.78,-19.06"/>
<polygon fill="#63b8ff" stroke="#63b8ff" points="236.95,-38.7 247.4,-36.97 238.16,-31.8 236.95,-38.7"/>
</g>
</g>
</svg>
