<?xml version="1.0" encoding="UTF-8" standalone="no"?>
<!DOCTYPE svg PUBLIC "-//W3C//DTD SVG 1.1//EN"
 "http://www.w3.org/Graphics/SVG/1.1/DTD/svg11.dtd">
<!-- Generated by graphviz version 2.43.0 (0)
 -->
<!-- Title: Line3D Pages: 1 -->
<svg width="143pt" height="171pt"
 viewBox="0.00 0.00 142.50 171.00" xmlns="http://www.w3.org/2000/svg" xmlns:xlink="http://www.w3.org/1999/xlink">
<g id="graph0" class="graph" transform="scale(1 1) rotate(0) translate(4 167)">
<title>Line3D</title>
<!-- Node1 -->
<g id="node1" class="node">
<title>Node1</title>
<g id="a_node1"><a xlink:title="Defines a line by an application point (From) and an extension from there (V). To is computed as From...">
<polygon fill="#999999" stroke="#666666" points="87.5,-19 37.5,-19 37.5,0 87.5,0 87.5,-19"/>
<text text-anchor="middle" x="62.5" y="-7" font-family="Helvetica,sans-Serif" font-size="10.00">Line3D</text>
</a>
</g>
</g>
<!-- Node2 -->
<g id="node2" class="node">
<title>Node2</title>
<g id="a_node2"><a xlink:href="class_search_a_thing_1_1_edge.html" target="_top" xlink:title="interface implemented by some type of geometries used in Loop such as Line3D, Arc3D and Circle3D">
<polygon fill="white" stroke="#666666" points="53,-107 12,-107 12,-88 53,-88 53,-107"/>
<text text-anchor="middle" x="32.5" y="-95" font-family="Helvetica,sans-Serif" font-size="10.00">Edge</text>
</a>
</g>
</g>
<!-- Node2&#45;&gt;Node1 -->
<g id="edge1" class="edge">
<title>Node2&#45;&gt;Node1</title>
<path fill="none" stroke="#63b8ff" d="M38.81,-78.42C45.17,-60.18 54.73,-32.78 59.53,-19.03"/>
<polygon fill="#63b8ff" stroke="#63b8ff" points="35.48,-77.34 35.49,-87.94 42.08,-79.65 35.48,-77.34"/>
</g>
<!-- Node3 -->
<g id="node3" class="node">
<title>Node3</title>
<g id="a_node3"><a xlink:href="class_search_a_thing_1_1_geometry.html" target="_top" xlink:title="base abstract type for geometries such as Vector3D, Line3D, Arc3D and Circle3D">
<polygon fill="white" stroke="#666666" points="65,-163 0,-163 0,-144 65,-144 65,-163"/>
<text text-anchor="middle" x="32.5" y="-151" font-family="Helvetica,sans-Serif" font-size="10.00">Geometry</text>
</a>
</g>
</g>
<!-- Node3&#45;&gt;Node2 -->
<g id="edge2" class="edge">
<title>Node3&#45;&gt;Node2</title>
<path fill="none" stroke="#63b8ff" d="M32.5,-133.3C32.5,-124.41 32.5,-114.28 32.5,-107.25"/>
<polygon fill="#63b8ff" stroke="#63b8ff" points="29,-133.58 32.5,-143.58 36,-133.58 29,-133.58"/>
</g>
<!-- Node4 -->
<g id="node4" class="node">
<title>Node4</title>
<g id="a_node4"><a xlink:title=" ">
<polygon fill="white" stroke="#666666" points="115.5,-107 71.5,-107 71.5,-88 115.5,-88 115.5,-107"/>
<text text-anchor="middle" x="93.5" y="-95" font-family="Helvetica,sans-Serif" font-size="10.00">static</text>
</a>
</g>
</g>
<!-- Node4&#45;&gt;Node1 -->
<g id="edge3" class="edge">
<title>Node4&#45;&gt;Node1</title>
<path fill="none" stroke="#9a32cd" stroke-dasharray="5,2" d="M86.98,-78.42C80.41,-60.18 70.53,-32.78 65.57,-19.03"/>
<polygon fill="#9a32cd" stroke="#9a32cd" points="83.73,-79.72 90.41,-87.94 90.32,-77.35 83.73,-79.72"/>
<text text-anchor="middle" x="108.5" y="-62" font-family="Helvetica,sans-Serif" font-size="10.00" fill="grey"> XAxisLine</text>
<text text-anchor="middle" x="108.5" y="-51" font-family="Helvetica,sans-Serif" font-size="10.00" fill="grey">YAxisLine</text>
<text text-anchor="middle" x="108.5" y="-40" font-family="Helvetica,sans-Serif" font-size="10.00" fill="grey">ZAxisLine</text>
</g>
</g>
</svg>
