<?xml version="1.0" encoding="UTF-8" standalone="no"?>
<!DOCTYPE svg PUBLIC "-//W3C//DTD SVG 1.1//EN"
 "http://www.w3.org/Graphics/SVG/1.1/DTD/svg11.dtd">
<!-- Generated by graphviz version 2.43.0 (0)
 -->
<!-- Title: Matrix3D Pages: 1 -->
<svg width="414pt" height="403pt"
 viewBox="0.00 0.00 414.00 402.50" xmlns="http://www.w3.org/2000/svg" xmlns:xlink="http://www.w3.org/1999/xlink">
<g id="graph0" class="graph" transform="scale(1 1) rotate(0) translate(4 398.5)">
<title>Matrix3D</title>
<!-- Node1 -->
<g id="node1" class="node">
<title>Node1</title>
<g id="a_node1"><a xlink:title="empty matrix">
<polygon fill="#999999" stroke="#666666" points="406,-204 344,-204 344,-185 406,-185 406,-204"/>
<text text-anchor="middle" x="375" y="-192" font-family="Helvetica,sans-Serif" font-size="10.00">Matrix3D</text>
</a>
</g>
</g>
<!-- Node2 -->
<g id="node2" class="node">
<title>Node2</title>
<g id="a_node2"><a xlink:href="class_search_a_thing_1_1_sci_1_1_matrix3_d.html#ac6deeb734685314e4f4d57eb2ecd9d63" target="_top" xlink:title=" ">
<polygon fill="white" stroke="#666666" points="308,-389 176,-389 176,-370 308,-370 308,-389"/>
<text text-anchor="middle" x="242" y="-377" font-family="Helvetica,sans-Serif" font-size="10.00">FromVectorsAsColumns</text>
</a>
</g>
</g>
<!-- Node1&#45;&gt;Node2 -->
<g id="edge1" class="edge">
<title>Node1&#45;&gt;Node2</title>
<path fill="none" stroke="#63b8ff" d="M371.85,-214.42C367,-249.42 351.95,-321.99 308,-361.5 304.17,-364.94 299.73,-367.74 295.02,-370"/>
<polygon fill="#63b8ff" stroke="#63b8ff" points="375.38,-214.44 373.13,-204.09 368.43,-213.58 375.38,-214.44"/>
</g>
<!-- Node4 -->
<g id="node4" class="node">
<title>Node4</title>
<g id="a_node4"><a xlink:href="class_search_a_thing_1_1_sci_1_1_matrix3_d.html#aa09b2a77251fcc2334e917a58dc79e13" target="_top" xlink:title=" ">
<polygon fill="white" stroke="#666666" points="300,-352 184,-352 184,-333 300,-333 300,-352"/>
<text text-anchor="middle" x="242" y="-340" font-family="Helvetica,sans-Serif" font-size="10.00">FromVectorsAsRows</text>
</a>
</g>
</g>
<!-- Node1&#45;&gt;Node4 -->
<g id="edge3" class="edge">
<title>Node1&#45;&gt;Node4</title>
<path fill="none" stroke="#63b8ff" d="M369.24,-214.18C361.37,-242.53 342.91,-294.62 308,-323.5 303.29,-327.4 297.81,-330.49 292.07,-332.96"/>
<polygon fill="#63b8ff" stroke="#63b8ff" points="372.69,-214.82 371.83,-204.26 365.92,-213.05 372.69,-214.82"/>
</g>
<!-- Node5 -->
<g id="node5" class="node">
<title>Node5</title>
<g id="a_node5"><a xlink:href="class_search_a_thing_1_1_sci_1_1_matrix3_d.html#a7c4a929d6a74319ac426af67399fccfc" target="_top" xlink:title="Matrix of minors http://www.mathsisfun.com/algebra/matrix&#45;inverse&#45;minors&#45;cofactors&#45;adjugate....">
<polygon fill="white" stroke="#666666" points="264,-315 220,-315 220,-296 264,-296 264,-315"/>
<text text-anchor="middle" x="242" y="-303" font-family="Helvetica,sans-Serif" font-size="10.00">Minor</text>
</a>
</g>
</g>
<!-- Node1&#45;&gt;Node5 -->
<g id="edge4" class="edge">
<title>Node1&#45;&gt;Node5</title>
<path fill="none" stroke="#63b8ff" d="M365.27,-213.35C354.64,-234.27 334.74,-267.55 308,-286.5 295.05,-295.68 277.68,-300.46 264.16,-302.93"/>
<polygon fill="#63b8ff" stroke="#63b8ff" points="368.5,-214.72 369.74,-204.2 362.21,-211.65 368.5,-214.72"/>
</g>
<!-- Node7 -->
<g id="node7" class="node">
<title>Node7</title>
<g id="a_node7"><a xlink:href="class_search_a_thing_1_1_sci_1_1_matrix3_d.html#adf6de5afd6279c61a93921e1f024417d" target="_top" xlink:title="scalar multiply">
<polygon fill="white" stroke="#666666" points="273.5,-278 210.5,-278 210.5,-259 273.5,-259 273.5,-278"/>
<text text-anchor="middle" x="242" y="-266" font-family="Helvetica,sans-Serif" font-size="10.00">operator*</text>
</a>
</g>
</g>
<!-- Node1&#45;&gt;Node7 -->
<g id="edge6" class="edge">
<title>Node1&#45;&gt;Node7</title>
<path fill="none" stroke="#63b8ff" d="M357.71,-211.39C345.14,-223.54 326.79,-239.49 308,-249.5 297.42,-255.14 284.95,-259.3 273.78,-262.27"/>
<polygon fill="#63b8ff" stroke="#63b8ff" points="360.46,-213.59 365.07,-204.06 355.52,-208.63 360.46,-213.59"/>
</g>
<!-- Node8 -->
<g id="node8" class="node">
<title>Node8</title>
<g id="a_node8"><a xlink:href="class_search_a_thing_1_1_sci_1_1_matrix3_d.html#aac194a4eec9cb8e1924106aad6627869" target="_top" xlink:title="scalar multiply">
<polygon fill="white" stroke="#666666" points="273.5,-241 210.5,-241 210.5,-222 273.5,-222 273.5,-241"/>
<text text-anchor="middle" x="242" y="-229" font-family="Helvetica,sans-Serif" font-size="10.00">operator*</text>
</a>
</g>
</g>
<!-- Node1&#45;&gt;Node8 -->
<g id="edge7" class="edge">
<title>Node1&#45;&gt;Node8</title>
<path fill="none" stroke="#63b8ff" d="M334.18,-205.75C314.8,-211.22 291.85,-217.7 273.82,-222.79"/>
<polygon fill="#63b8ff" stroke="#63b8ff" points="335.27,-209.07 343.95,-202.99 333.37,-202.34 335.27,-209.07"/>
</g>
<!-- Node9 -->
<g id="node9" class="node">
<title>Node9</title>
<g id="a_node9"><a xlink:href="class_search_a_thing_1_1_sci_1_1_matrix3_d.html#a606f0907ba2c63af05c40dc2aa4a0333" target="_top" xlink:title="sum">
<polygon fill="white" stroke="#666666" points="275,-204 209,-204 209,-185 275,-185 275,-204"/>
<text text-anchor="middle" x="242" y="-192" font-family="Helvetica,sans-Serif" font-size="10.00">operator+</text>
</a>
</g>
</g>
<!-- Node1&#45;&gt;Node9 -->
<g id="edge8" class="edge">
<title>Node1&#45;&gt;Node9</title>
<path fill="none" stroke="#63b8ff" d="M333.88,-194.5C315.05,-194.5 292.91,-194.5 275.2,-194.5"/>
<polygon fill="#63b8ff" stroke="#63b8ff" points="333.95,-198 343.95,-194.5 333.95,-191 333.95,-198"/>
</g>
<!-- Node10 -->
<g id="node10" class="node">
<title>Node10</title>
<g id="a_node10"><a xlink:href="class_search_a_thing_1_1_sci_1_1_matrix3_d.html#aabccb9646209250f2f1b366c31fd8eb4" target="_top" xlink:title="sub">
<polygon fill="white" stroke="#666666" points="273,-167 211,-167 211,-148 273,-148 273,-167"/>
<text text-anchor="middle" x="242" y="-155" font-family="Helvetica,sans-Serif" font-size="10.00">operator&#45;</text>
</a>
</g>
</g>
<!-- Node1&#45;&gt;Node10 -->
<g id="edge9" class="edge">
<title>Node1&#45;&gt;Node10</title>
<path fill="none" stroke="#63b8ff" d="M333.99,-182.91C325.42,-180.45 316.41,-177.88 308,-175.5 296.62,-172.29 284.1,-168.81 273.11,-165.77"/>
<polygon fill="#63b8ff" stroke="#63b8ff" points="333.21,-186.33 343.79,-185.73 335.15,-179.6 333.21,-186.33"/>
</g>
<!-- Node11 -->
<g id="node11" class="node">
<title>Node11</title>
<g id="a_node11"><a xlink:href="class_search_a_thing_1_1_sci_1_1_matrix3_d.html#a2f234811680242519f5d1bdb378bd74f" target="_top" xlink:title="neg">
<polygon fill="white" stroke="#666666" points="273,-130 211,-130 211,-111 273,-111 273,-130"/>
<text text-anchor="middle" x="242" y="-118" font-family="Helvetica,sans-Serif" font-size="10.00">operator&#45;</text>
</a>
</g>
</g>
<!-- Node1&#45;&gt;Node11 -->
<g id="edge10" class="edge">
<title>Node1&#45;&gt;Node11</title>
<path fill="none" stroke="#63b8ff" d="M357.81,-177.21C345.29,-164.79 326.96,-148.54 308,-138.5 297.24,-132.8 284.49,-128.76 273.15,-125.98"/>
<polygon fill="#63b8ff" stroke="#63b8ff" points="355.64,-180 365.14,-184.71 360.65,-175.11 355.64,-180"/>
</g>
<!-- Node12 -->
<g id="node12" class="node">
<title>Node12</title>
<g id="a_node12"><a xlink:href="class_search_a_thing_1_1_sci_1_1_matrix3_d.html#aeb10b36f2f9ee062b9749b00afded1c3" target="_top" xlink:title="scalar div">
<polygon fill="white" stroke="#666666" points="272.5,-93 211.5,-93 211.5,-74 272.5,-74 272.5,-93"/>
<text text-anchor="middle" x="242" y="-81" font-family="Helvetica,sans-Serif" font-size="10.00">operator/</text>
</a>
</g>
</g>
<!-- Node1&#45;&gt;Node12 -->
<g id="edge11" class="edge">
<title>Node1&#45;&gt;Node12</title>
<path fill="none" stroke="#63b8ff" d="M365.54,-175.7C355.04,-154.52 335.16,-120.56 308,-101.5 297.65,-94.24 284.46,-89.9 272.68,-87.31"/>
<polygon fill="#63b8ff" stroke="#63b8ff" points="362.48,-177.42 369.93,-184.95 368.8,-174.42 362.48,-177.42"/>
</g>
<!-- Node13 -->
<g id="node13" class="node">
<title>Node13</title>
<g id="a_node13"><a xlink:href="class_search_a_thing_1_1_sci_1_1_matrix3_d.html#a884970561a0619f4fd5ae858640ffaf0" target="_top" xlink:title="scalar div">
<polygon fill="white" stroke="#666666" points="272.5,-56 211.5,-56 211.5,-37 272.5,-37 272.5,-56"/>
<text text-anchor="middle" x="242" y="-44" font-family="Helvetica,sans-Serif" font-size="10.00">operator/</text>
</a>
</g>
</g>
<!-- Node1&#45;&gt;Node13 -->
<g id="edge12" class="edge">
<title>Node1&#45;&gt;Node13</title>
<path fill="none" stroke="#63b8ff" d="M369.45,-175.02C361.77,-146.47 343.46,-93.5 308,-64.5 298.03,-56.35 284.63,-51.87 272.58,-49.43"/>
<polygon fill="#63b8ff" stroke="#63b8ff" points="366.13,-176.15 371.97,-184.99 372.91,-174.44 366.13,-176.15"/>
</g>
<!-- Node14 -->
<g id="node14" class="node">
<title>Node14</title>
<g id="a_node14"><a xlink:href="class_search_a_thing_1_1_sci_1_1_matrix3_d.html#a03d3191f6070b92ee9be96e353132f0b" target="_top" xlink:title="swap row, cols">
<polygon fill="white" stroke="#666666" points="274.5,-19 209.5,-19 209.5,0 274.5,0 274.5,-19"/>
<text text-anchor="middle" x="242" y="-7" font-family="Helvetica,sans-Serif" font-size="10.00">Transpose</text>
</a>
</g>
</g>
<!-- Node1&#45;&gt;Node14 -->
<g id="edge13" class="edge">
<title>Node1&#45;&gt;Node14</title>
<path fill="none" stroke="#63b8ff" d="M371.85,-174.58C367,-139.58 351.95,-67.01 308,-27.5 298.86,-19.28 286.28,-14.77 274.62,-12.32"/>
<polygon fill="#63b8ff" stroke="#63b8ff" points="368.43,-175.42 373.13,-184.91 375.38,-174.56 368.43,-175.42"/>
</g>
<!-- Node3 -->
<g id="node3" class="node">
<title>Node3</title>
<g id="a_node3"><a xlink:href="class_search_a_thing_1_1_sci_1_1_line3_d.html#ae705cc4d3f272da5614e02683b6fdb97" target="_top" xlink:title="returns null if this line is parallel to the cs xy plane, the intersection point otherwise">
<polygon fill="white" stroke="#666666" points="140,-394.5 0,-394.5 0,-364.5 140,-364.5 140,-394.5"/>
<text text-anchor="start" x="8" y="-382.5" font-family="Helvetica,sans-Serif" font-size="10.00">SearchAThing.Sci.Line3D.</text>
<text text-anchor="middle" x="70" y="-371.5" font-family="Helvetica,sans-Serif" font-size="10.00">Intersect</text>
</a>
</g>
</g>
<!-- Node2&#45;&gt;Node3 -->
<g id="edge2" class="edge">
<title>Node2&#45;&gt;Node3</title>
<path fill="none" stroke="#63b8ff" d="M165.5,-379.5C157.02,-379.5 148.41,-379.5 140.02,-379.5"/>
<polygon fill="#63b8ff" stroke="#63b8ff" points="165.76,-383 175.76,-379.5 165.76,-376 165.76,-383"/>
</g>
<!-- Node6 -->
<g id="node6" class="node">
<title>Node6</title>
<g id="a_node6"><a xlink:href="class_search_a_thing_1_1_sci_1_1_matrix3_d.html#aa3de791fe020f3452a194a7b2ce325e4" target="_top" xlink:title="Matrix of cofactors http://www.mathsisfun.com/algebra/matrix&#45;inverse&#45;minors&#45;cofactors&#45;adjugate....">
<polygon fill="white" stroke="#666666" points="99,-315 41,-315 41,-296 99,-296 99,-315"/>
<text text-anchor="middle" x="70" y="-303" font-family="Helvetica,sans-Serif" font-size="10.00">Cofactor</text>
</a>
</g>
</g>
<!-- Node5&#45;&gt;Node6 -->
<g id="edge5" class="edge">
<title>Node5&#45;&gt;Node6</title>
<path fill="none" stroke="#63b8ff" d="M209.79,-305.5C178.19,-305.5 129.75,-305.5 99.26,-305.5"/>
<polygon fill="#63b8ff" stroke="#63b8ff" points="209.81,-309 219.81,-305.5 209.81,-302 209.81,-309"/>
</g>
</g>
</svg>
