<?xml version="1.0" encoding="UTF-8" standalone="no"?>
<!DOCTYPE svg PUBLIC "-//W3C//DTD SVG 1.1//EN"
 "http://www.w3.org/Graphics/SVG/1.1/DTD/svg11.dtd">
<!-- Generated by graphviz version 2.43.0 (0)
 -->
<!-- Title: GetItemsAt Pages: 1 -->
<svg width="166pt" height="45pt"
 viewBox="0.00 0.00 166.00 45.00" xmlns="http://www.w3.org/2000/svg" xmlns:xlink="http://www.w3.org/1999/xlink">
<g id="graph0" class="graph" transform="scale(1 1) rotate(0) translate(4 41)">
<title>GetItemsAt</title>
<!-- Node1 -->
<g id="node1" class="node">
<title>Node1</title>
<g id="a_node1"><a xlink:title="retrieve items that resides in the space at given point with given extents max distance">
<polygon fill="#999999" stroke="#666666" points="158,-19 86,-19 86,0 158,0 158,-19"/>
<text text-anchor="middle" x="122" y="-7" font-family="Helvetica,sans-Serif" font-size="10.00">GetItemsAt</text>
</a>
</g>
</g>
<!-- Node2 -->
<g id="node2" class="node">
<title>Node2</title>
<g id="a_node2"><a xlink:href="class_search_a_thing_1_1_sci_1_1_discrete_space.html#aa6883617d32430e4e6f2763f1821a302" target="_top" xlink:title=" ">
<polygon fill="white" stroke="#666666" points="50,-19 0,-19 0,0 50,0 50,-19"/>
<text text-anchor="middle" x="25" y="-7" font-family="Helvetica,sans-Serif" font-size="10.00">Search</text>
</a>
</g>
</g>
<!-- Node1&#45;&gt;Node2 -->
<g id="edge1" class="edge">
<title>Node1&#45;&gt;Node2</title>
<path fill="none" stroke="#63b8ff" d="M75.62,-9.5C66.77,-9.5 57.82,-9.5 50.01,-9.5"/>
<polygon fill="#63b8ff" stroke="#63b8ff" points="75.9,-13 85.9,-9.5 75.9,-6 75.9,-13"/>
</g>
<!-- Node2&#45;&gt;Node2 -->
<g id="edge2" class="edge">
<title>Node2&#45;&gt;Node2</title>
<path fill="none" stroke="#63b8ff" d="M42.68,-28.91C41.29,-33.56 35.4,-37 25,-37 7.94,-37 3.01,-27.73 10.2,-19.08"/>
<polygon fill="#63b8ff" stroke="#63b8ff" points="45.97,-27.69 39.8,-19.08 39.25,-29.66 45.97,-27.69"/>
</g>
</g>
</svg>
