<?xml version="1.0" encoding="UTF-8" standalone="no"?>
<!DOCTYPE svg PUBLIC "-//W3C//DTD SVG 1.1//EN"
 "http://www.w3.org/Graphics/SVG/1.1/DTD/svg11.dtd">
<!-- Generated by graphviz version 2.43.0 (0)
 -->
<!-- Title: BBox3D Pages: 1 -->
<svg width="226pt" height="101pt"
 viewBox="0.00 0.00 226.00 101.00" xmlns="http://www.w3.org/2000/svg" xmlns:xlink="http://www.w3.org/1999/xlink">
<g id="graph0" class="graph" transform="scale(1 1) rotate(0) translate(4 97)">
<title>BBox3D</title>
<!-- Node1 -->
<g id="node1" class="node">
<title>Node1</title>
<g id="a_node1"><a xlink:title="construct empy bbox">
<polygon fill="#999999" stroke="#666666" points="218,-56 162,-56 162,-37 218,-37 218,-56"/>
<text text-anchor="middle" x="190" y="-44" font-family="Helvetica,sans-Serif" font-size="10.00">BBox3D</text>
</a>
</g>
</g>
<!-- Node2 -->
<g id="node2" class="node">
<title>Node2</title>
<g id="a_node2"><a xlink:href="class_search_a_thing_1_1_sci_1_1_b_box3_d.html#a519da872d3b4b07581c50db1df1e80e2" target="_top" xlink:title="scale all bbox points Min,Max respect to the center">
<polygon fill="white" stroke="#666666" points="125,-93 82,-93 82,-74 125,-74 125,-93"/>
<text text-anchor="middle" x="103.5" y="-81" font-family="Helvetica,sans-Serif" font-size="10.00">Scale</text>
</a>
</g>
</g>
<!-- Node1&#45;&gt;Node2 -->
<g id="edge1" class="edge">
<title>Node1&#45;&gt;Node2</title>
<path fill="none" stroke="#63b8ff" d="M157.95,-60.09C146.98,-64.9 134.91,-70.18 125.02,-74.51"/>
<polygon fill="#63b8ff" stroke="#63b8ff" points="159.48,-63.25 167.24,-56.03 156.67,-56.83 159.48,-63.25"/>
</g>
<!-- Node3 -->
<g id="node3" class="node">
<title>Node3</title>
<g id="a_node3"><a xlink:href="class_search_a_thing_1_1_sci_1_1_b_box3_d.html#ae38be85d4316171205271abbf94c8abe" target="_top" xlink:title="scale all bbox points Min,Max respect to the center">
<polygon fill="white" stroke="#666666" points="125,-56 82,-56 82,-37 125,-37 125,-56"/>
<text text-anchor="middle" x="103.5" y="-44" font-family="Helvetica,sans-Serif" font-size="10.00">Scale</text>
</a>
</g>
</g>
<!-- Node1&#45;&gt;Node3 -->
<g id="edge2" class="edge">
<title>Node1&#45;&gt;Node3</title>
<path fill="none" stroke="#63b8ff" d="M151.75,-46.5C142.64,-46.5 133.23,-46.5 125.22,-46.5"/>
<polygon fill="#63b8ff" stroke="#63b8ff" points="151.8,-50 161.8,-46.5 151.8,-43 151.8,-50"/>
</g>
<!-- Node4 -->
<g id="node4" class="node">
<title>Node4</title>
<g id="a_node4"><a xlink:href="class_search_a_thing_1_1_sci_1_1_b_box3_d.html#a60ee2b105b1314dab1fdccc1a2b0888b" target="_top" xlink:title="union of this bbox with given point">
<polygon fill="white" stroke="#666666" points="126,-19 81,-19 81,0 126,0 126,-19"/>
<text text-anchor="middle" x="103.5" y="-7" font-family="Helvetica,sans-Serif" font-size="10.00">Union</text>
</a>
</g>
</g>
<!-- Node1&#45;&gt;Node4 -->
<g id="edge3" class="edge">
<title>Node1&#45;&gt;Node4</title>
<path fill="none" stroke="#63b8ff" d="M157.92,-32.89C147.38,-28.28 135.84,-23.22 126.19,-19"/>
<polygon fill="#63b8ff" stroke="#63b8ff" points="156.67,-36.17 167.24,-36.97 159.48,-29.75 156.67,-36.17"/>
</g>
<!-- Node5 -->
<g id="node5" class="node">
<title>Node5</title>
<g id="a_node5"><a xlink:href="class_search_a_thing_1_1_sci_1_1_b_box3_d.html#abaeeb87a67c1ab9e13d2ff65ad868b82" target="_top" xlink:title="union of this bbox with another">
<polygon fill="white" stroke="#666666" points="45,-19 0,-19 0,0 45,0 45,-19"/>
<text text-anchor="middle" x="22.5" y="-7" font-family="Helvetica,sans-Serif" font-size="10.00">Union</text>
</a>
</g>
</g>
<!-- Node4&#45;&gt;Node5 -->
<g id="edge4" class="edge">
<title>Node4&#45;&gt;Node5</title>
<path fill="none" stroke="#63b8ff" d="M70.76,-9.5C62.13,-9.5 52.98,-9.5 45.06,-9.5"/>
<polygon fill="#63b8ff" stroke="#63b8ff" points="70.91,-13 80.91,-9.5 70.91,-6 70.91,-13"/>
</g>
</g>
</svg>
