<?xml version="1.0" encoding="UTF-8" standalone="no"?>
<!DOCTYPE svg PUBLIC "-//W3C//DTD SVG 1.1//EN"
 "http://www.w3.org/Graphics/SVG/1.1/DTD/svg11.dtd">
<!-- Generated by graphviz version 2.43.0 (0)
 -->
<!-- Title: WalkEdges Pages: 1 -->
<svg width="264pt" height="45pt"
 viewBox="0.00 0.00 264.00 45.00" xmlns="http://www.w3.org/2000/svg" xmlns:xlink="http://www.w3.org/1999/xlink">
<g id="graph0" class="graph" transform="scale(1 1) rotate(0) translate(4 41)">
<title>WalkEdges</title>
<!-- Node1 -->
<g id="node1" class="node">
<title>Node1</title>
<g id="a_node1"><a xlink:title="walk edges">
<polygon fill="#999999" stroke="#666666" points="256,-19 186,-19 186,0 256,0 256,-19"/>
<text text-anchor="middle" x="221" y="-7" font-family="Helvetica,sans-Serif" font-size="10.00">WalkEdges</text>
</a>
</g>
</g>
<!-- Node2 -->
<g id="node2" class="node">
<title>Node2</title>
<g id="a_node2"><a xlink:href="class_search_a_thing_1_1_face.html#a945fd983232146ce482365aa683bd5e2" target="_top" xlink:title="boolean operation with this and other loops. precondition: must coplanar">
<polygon fill="white" stroke="#666666" points="150,-19 0,-19 0,0 150,0 150,-19"/>
<text text-anchor="middle" x="75" y="-7" font-family="Helvetica,sans-Serif" font-size="10.00">SearchAThing.Face.Boolean</text>
</a>
</g>
</g>
<!-- Node1&#45;&gt;Node2 -->
<g id="edge1" class="edge">
<title>Node1&#45;&gt;Node2</title>
<path fill="none" stroke="#63b8ff" d="M175.86,-9.5C167.69,-9.5 158.95,-9.5 150.17,-9.5"/>
<polygon fill="#63b8ff" stroke="#63b8ff" points="175.87,-13 185.87,-9.5 175.87,-6 175.87,-13"/>
</g>
<!-- Node2&#45;&gt;Node2 -->
<g id="edge2" class="edge">
<title>Node2&#45;&gt;Node2</title>
<path fill="none" stroke="#63b8ff" d="M102.16,-28.19C100.68,-33.2 91.62,-37 75,-37 49.05,-37 41.55,-27.73 52.5,-19.08"/>
<polygon fill="#63b8ff" stroke="#63b8ff" points="105.17,-26.39 97.5,-19.08 98.94,-29.58 105.17,-26.39"/>
</g>
</g>
</svg>
