<?xml version="1.0" encoding="UTF-8" standalone="no"?>
<!DOCTYPE svg PUBLIC "-//W3C//DTD SVG 1.1//EN"
 "http://www.w3.org/Graphics/SVG/1.1/DTD/svg11.dtd">
<!-- Generated by graphviz version 2.43.0 (0)
 -->
<!-- Title: Matrix3D Pages: 1 -->
<svg width="439pt" height="397pt"
 viewBox="0.00 0.00 439.00 397.00" xmlns="http://www.w3.org/2000/svg" xmlns:xlink="http://www.w3.org/1999/xlink">
<g id="graph0" class="graph" transform="scale(1 1) rotate(0) translate(4 393)">
<title>Matrix3D</title>
<!-- Node1 -->
<g id="node1" class="node">
<title>Node1</title>
<g id="a_node1"><a xlink:title="empty matrix">
<polygon fill="#999999" stroke="#666666" points="431,-204 369,-204 369,-185 431,-185 431,-204"/>
<text text-anchor="middle" x="400" y="-192" font-family="Helvetica,sans-Serif" font-size="10.00">Matrix3D</text>
</a>
</g>
</g>
<!-- Node2 -->
<g id="node2" class="node">
<title>Node2</title>
<g id="a_node2"><a xlink:href="class_search_a_thing_1_1_matrix3_d.html#ac6deeb734685314e4f4d57eb2ecd9d63" target="_top" xlink:title=" ">
<polygon fill="white" stroke="#666666" points="333,-389 201,-389 201,-370 333,-370 333,-389"/>
<text text-anchor="middle" x="267" y="-377" font-family="Helvetica,sans-Serif" font-size="10.00">FromVectorsAsColumns</text>
</a>
</g>
</g>
<!-- Node1&#45;&gt;Node2 -->
<g id="edge1" class="edge">
<title>Node1&#45;&gt;Node2</title>
<path fill="none" stroke="#63b8ff" d="M396.85,-214.42C392,-249.42 376.95,-321.99 333,-361.5 329.17,-364.94 324.73,-367.74 320.02,-370"/>
<polygon fill="#63b8ff" stroke="#63b8ff" points="400.38,-214.44 398.13,-204.09 393.43,-213.58 400.38,-214.44"/>
</g>
<!-- Node4 -->
<g id="node4" class="node">
<title>Node4</title>
<g id="a_node4"><a xlink:href="class_search_a_thing_1_1_matrix3_d.html#aa09b2a77251fcc2334e917a58dc79e13" target="_top" xlink:title=" ">
<polygon fill="white" stroke="#666666" points="325,-352 209,-352 209,-333 325,-333 325,-352"/>
<text text-anchor="middle" x="267" y="-340" font-family="Helvetica,sans-Serif" font-size="10.00">FromVectorsAsRows</text>
</a>
</g>
</g>
<!-- Node1&#45;&gt;Node4 -->
<g id="edge3" class="edge">
<title>Node1&#45;&gt;Node4</title>
<path fill="none" stroke="#63b8ff" d="M394.45,-213.98C386.77,-242.53 368.46,-295.5 333,-324.5 328.83,-327.91 324.06,-330.68 319.04,-332.92"/>
<polygon fill="#63b8ff" stroke="#63b8ff" points="397.91,-214.56 396.97,-204.01 391.13,-212.85 397.91,-214.56"/>
</g>
<!-- Node5 -->
<g id="node5" class="node">
<title>Node5</title>
<g id="a_node5"><a xlink:href="class_search_a_thing_1_1_matrix3_d.html#a7c4a929d6a74319ac426af67399fccfc" target="_top" xlink:title="Matrix of minors http://www.mathsisfun.com/algebra/matrix&#45;inverse&#45;minors&#45;cofactors&#45;adjugate....">
<polygon fill="white" stroke="#666666" points="289,-315 245,-315 245,-296 289,-296 289,-315"/>
<text text-anchor="middle" x="267" y="-303" font-family="Helvetica,sans-Serif" font-size="10.00">Minor</text>
</a>
</g>
</g>
<!-- Node1&#45;&gt;Node5 -->
<g id="edge4" class="edge">
<title>Node1&#45;&gt;Node5</title>
<path fill="none" stroke="#63b8ff" d="M390.54,-213.3C380.04,-234.48 360.16,-268.44 333,-287.5 320.06,-296.58 302.69,-301.09 289.16,-303.32"/>
<polygon fill="#63b8ff" stroke="#63b8ff" points="393.8,-214.58 394.93,-204.05 387.48,-211.58 393.8,-214.58"/>
</g>
<!-- Node7 -->
<g id="node7" class="node">
<title>Node7</title>
<g id="a_node7"><a xlink:href="class_search_a_thing_1_1_matrix3_d.html#adf6de5afd6279c61a93921e1f024417d" target="_top" xlink:title="scalar multiply">
<polygon fill="white" stroke="#666666" points="298.5,-278 235.5,-278 235.5,-259 298.5,-259 298.5,-278"/>
<text text-anchor="middle" x="267" y="-266" font-family="Helvetica,sans-Serif" font-size="10.00">operator*</text>
</a>
</g>
</g>
<!-- Node1&#45;&gt;Node7 -->
<g id="edge6" class="edge">
<title>Node1&#45;&gt;Node7</title>
<path fill="none" stroke="#63b8ff" d="M382.81,-211.79C370.29,-224.21 351.96,-240.46 333,-250.5 322.44,-256.09 309.98,-260.08 298.81,-262.86"/>
<polygon fill="#63b8ff" stroke="#63b8ff" points="385.65,-213.89 390.14,-204.29 380.64,-209 385.65,-213.89"/>
</g>
<!-- Node8 -->
<g id="node8" class="node">
<title>Node8</title>
<g id="a_node8"><a xlink:href="class_search_a_thing_1_1_matrix3_d.html#aac194a4eec9cb8e1924106aad6627869" target="_top" xlink:title="scalar multiply">
<polygon fill="white" stroke="#666666" points="298.5,-241 235.5,-241 235.5,-222 298.5,-222 298.5,-241"/>
<text text-anchor="middle" x="267" y="-229" font-family="Helvetica,sans-Serif" font-size="10.00">operator*</text>
</a>
</g>
</g>
<!-- Node1&#45;&gt;Node8 -->
<g id="edge7" class="edge">
<title>Node1&#45;&gt;Node8</title>
<path fill="none" stroke="#63b8ff" d="M358.99,-206.09C350.42,-208.55 341.41,-211.12 333,-213.5 321.84,-216.65 309.6,-220.06 298.77,-223.05"/>
<polygon fill="#63b8ff" stroke="#63b8ff" points="360.15,-209.4 368.79,-203.27 358.21,-202.67 360.15,-209.4"/>
</g>
<!-- Node9 -->
<g id="node9" class="node">
<title>Node9</title>
<g id="a_node9"><a xlink:href="class_search_a_thing_1_1_matrix3_d.html#a606f0907ba2c63af05c40dc2aa4a0333" target="_top" xlink:title="sum">
<polygon fill="white" stroke="#666666" points="300,-204 234,-204 234,-185 300,-185 300,-204"/>
<text text-anchor="middle" x="267" y="-192" font-family="Helvetica,sans-Serif" font-size="10.00">operator+</text>
</a>
</g>
</g>
<!-- Node1&#45;&gt;Node9 -->
<g id="edge8" class="edge">
<title>Node1&#45;&gt;Node9</title>
<path fill="none" stroke="#63b8ff" d="M358.88,-194.5C340.05,-194.5 317.91,-194.5 300.2,-194.5"/>
<polygon fill="#63b8ff" stroke="#63b8ff" points="358.95,-198 368.95,-194.5 358.95,-191 358.95,-198"/>
</g>
<!-- Node10 -->
<g id="node10" class="node">
<title>Node10</title>
<g id="a_node10"><a xlink:href="class_search_a_thing_1_1_matrix3_d.html#aabccb9646209250f2f1b366c31fd8eb4" target="_top" xlink:title="sub">
<polygon fill="white" stroke="#666666" points="298,-167 236,-167 236,-148 298,-148 298,-167"/>
<text text-anchor="middle" x="267" y="-155" font-family="Helvetica,sans-Serif" font-size="10.00">operator&#45;</text>
</a>
</g>
</g>
<!-- Node1&#45;&gt;Node10 -->
<g id="edge9" class="edge">
<title>Node1&#45;&gt;Node10</title>
<path fill="none" stroke="#63b8ff" d="M359.11,-183.23C339.58,-177.72 316.44,-171.18 298.37,-166.08"/>
<polygon fill="#63b8ff" stroke="#63b8ff" points="358.37,-186.66 368.95,-186.01 360.27,-179.93 358.37,-186.66"/>
</g>
<!-- Node11 -->
<g id="node11" class="node">
<title>Node11</title>
<g id="a_node11"><a xlink:href="class_search_a_thing_1_1_matrix3_d.html#a2f234811680242519f5d1bdb378bd74f" target="_top" xlink:title="neg">
<polygon fill="white" stroke="#666666" points="298,-130 236,-130 236,-111 298,-111 298,-130"/>
<text text-anchor="middle" x="267" y="-118" font-family="Helvetica,sans-Serif" font-size="10.00">operator&#45;</text>
</a>
</g>
</g>
<!-- Node1&#45;&gt;Node11 -->
<g id="edge10" class="edge">
<title>Node1&#45;&gt;Node11</title>
<path fill="none" stroke="#63b8ff" d="M382.71,-177.61C370.14,-165.46 351.79,-149.51 333,-139.5 322.21,-133.75 309.46,-129.54 298.12,-126.56"/>
<polygon fill="#63b8ff" stroke="#63b8ff" points="380.52,-180.37 390.07,-184.94 385.46,-175.41 380.52,-180.37"/>
</g>
<!-- Node12 -->
<g id="node12" class="node">
<title>Node12</title>
<g id="a_node12"><a xlink:href="class_search_a_thing_1_1_matrix3_d.html#aeb10b36f2f9ee062b9749b00afded1c3" target="_top" xlink:title="scalar div">
<polygon fill="white" stroke="#666666" points="297.5,-93 236.5,-93 236.5,-74 297.5,-74 297.5,-93"/>
<text text-anchor="middle" x="267" y="-81" font-family="Helvetica,sans-Serif" font-size="10.00">operator/</text>
</a>
</g>
</g>
<!-- Node1&#45;&gt;Node12 -->
<g id="edge11" class="edge">
<title>Node1&#45;&gt;Node12</title>
<path fill="none" stroke="#63b8ff" d="M390.27,-175.65C379.64,-154.73 359.74,-121.45 333,-102.5 322.64,-95.16 309.45,-90.63 297.67,-87.85"/>
<polygon fill="#63b8ff" stroke="#63b8ff" points="387.21,-177.35 394.74,-184.8 393.5,-174.28 387.21,-177.35"/>
</g>
<!-- Node13 -->
<g id="node13" class="node">
<title>Node13</title>
<g id="a_node13"><a xlink:href="class_search_a_thing_1_1_matrix3_d.html#a884970561a0619f4fd5ae858640ffaf0" target="_top" xlink:title="scalar div">
<polygon fill="white" stroke="#666666" points="297.5,-56 236.5,-56 236.5,-37 297.5,-37 297.5,-56"/>
<text text-anchor="middle" x="267" y="-44" font-family="Helvetica,sans-Serif" font-size="10.00">operator/</text>
</a>
</g>
</g>
<!-- Node1&#45;&gt;Node13 -->
<g id="edge12" class="edge">
<title>Node1&#45;&gt;Node13</title>
<path fill="none" stroke="#63b8ff" d="M394.24,-174.82C386.37,-146.47 367.91,-94.38 333,-65.5 323.04,-57.26 309.63,-52.59 297.59,-49.95"/>
<polygon fill="#63b8ff" stroke="#63b8ff" points="390.92,-175.95 396.83,-184.74 397.69,-174.18 390.92,-175.95"/>
</g>
<!-- Node14 -->
<g id="node14" class="node">
<title>Node14</title>
<g id="a_node14"><a xlink:href="class_search_a_thing_1_1_matrix3_d.html#a03d3191f6070b92ee9be96e353132f0b" target="_top" xlink:title="swap row, cols">
<polygon fill="white" stroke="#666666" points="299.5,-19 234.5,-19 234.5,0 299.5,0 299.5,-19"/>
<text text-anchor="middle" x="267" y="-7" font-family="Helvetica,sans-Serif" font-size="10.00">Transpose</text>
</a>
</g>
</g>
<!-- Node1&#45;&gt;Node14 -->
<g id="edge13" class="edge">
<title>Node1&#45;&gt;Node14</title>
<path fill="none" stroke="#63b8ff" d="M396.76,-174.76C391.76,-140.06 376.48,-68.07 333,-28.5 323.87,-20.19 311.29,-15.5 299.64,-12.86"/>
<polygon fill="#63b8ff" stroke="#63b8ff" points="393.33,-175.53 398.09,-185 400.27,-174.63 393.33,-175.53"/>
</g>
<!-- Node3 -->
<g id="node3" class="node">
<title>Node3</title>
<g id="a_node3"><a xlink:href="class_search_a_thing_1_1_line3_d.html#ae705cc4d3f272da5614e02683b6fdb97" target="_top" xlink:title="returns null if this line is parallel to the cs xy plane, the intersection point otherwise">
<polygon fill="white" stroke="#666666" points="165,-389 0,-389 0,-370 165,-370 165,-389"/>
<text text-anchor="middle" x="82.5" y="-377" font-family="Helvetica,sans-Serif" font-size="10.00">SearchAThing.Line3D.Intersect</text>
</a>
</g>
</g>
<!-- Node2&#45;&gt;Node3 -->
<g id="edge2" class="edge">
<title>Node2&#45;&gt;Node3</title>
<path fill="none" stroke="#63b8ff" d="M190.72,-379.5C182.3,-379.5 173.68,-379.5 165.18,-379.5"/>
<polygon fill="#63b8ff" stroke="#63b8ff" points="190.89,-383 200.89,-379.5 190.89,-376 190.89,-383"/>
</g>
<!-- Node6 -->
<g id="node6" class="node">
<title>Node6</title>
<g id="a_node6"><a xlink:href="class_search_a_thing_1_1_matrix3_d.html#aa3de791fe020f3452a194a7b2ce325e4" target="_top" xlink:title="Matrix of cofactors http://www.mathsisfun.com/algebra/matrix&#45;inverse&#45;minors&#45;cofactors&#45;adjugate....">
<polygon fill="white" stroke="#666666" points="111.5,-315 53.5,-315 53.5,-296 111.5,-296 111.5,-315"/>
<text text-anchor="middle" x="82.5" y="-303" font-family="Helvetica,sans-Serif" font-size="10.00">Cofactor</text>
</a>
</g>
</g>
<!-- Node5&#45;&gt;Node6 -->
<g id="edge5" class="edge">
<title>Node5&#45;&gt;Node6</title>
<path fill="none" stroke="#63b8ff" d="M234.67,-305.5C200.03,-305.5 144.75,-305.5 111.51,-305.5"/>
<polygon fill="#63b8ff" stroke="#63b8ff" points="234.71,-309 244.71,-305.5 234.71,-302 234.71,-309"/>
</g>
</g>
</svg>
