<?xml version="1.0" encoding="UTF-8" standalone="no"?>
<!DOCTYPE svg PUBLIC "-//W3C//DTD SVG 1.1//EN"
 "http://www.w3.org/Graphics/SVG/1.1/DTD/svg11.dtd">
<!-- Generated by graphviz version 2.43.0 (0)
 -->
<!-- Title: ApplyUnion Pages: 1 -->
<svg width="173pt" height="45pt"
 viewBox="0.00 0.00 173.00 45.00" xmlns="http://www.w3.org/2000/svg" xmlns:xlink="http://www.w3.org/1999/xlink">
<g id="graph0" class="graph" transform="scale(1 1) rotate(0) translate(4 41)">
<title>ApplyUnion</title>
<!-- Node1 -->
<g id="node1" class="node">
<title>Node1</title>
<g id="a_node1"><a xlink:title="add given points to current bbox with side effects">
<polygon fill="#999999" stroke="#666666" points="165,-19 92,-19 92,0 165,0 165,-19"/>
<text text-anchor="middle" x="128.5" y="-7" font-family="Helvetica,sans-Serif" font-size="10.00">ApplyUnion</text>
</a>
</g>
</g>
<!-- Node1&#45;&gt;Node1 -->
<g id="edge1" class="edge">
<title>Node1&#45;&gt;Node1</title>
<path fill="none" stroke="#63b8ff" d="M146.92,-28.91C145.47,-33.56 139.33,-37 128.5,-37 110.73,-37 105.59,-27.73 113.09,-19.08"/>
<polygon fill="#63b8ff" stroke="#63b8ff" points="150.18,-27.62 143.91,-19.08 143.49,-29.67 150.18,-27.62"/>
</g>
<!-- Node2 -->
<g id="node2" class="node">
<title>Node2</title>
<g id="a_node2"><a xlink:href="class_search_a_thing_1_1_b_box3_d.html#ab35e2b61c194e9b42964f13bbdae224e" target="_top" xlink:title="construct bbox with given points">
<polygon fill="white" stroke="#666666" points="56,-19 0,-19 0,0 56,0 56,-19"/>
<text text-anchor="middle" x="28" y="-7" font-family="Helvetica,sans-Serif" font-size="10.00">BBox3D</text>
</a>
</g>
</g>
<!-- Node1&#45;&gt;Node2 -->
<g id="edge2" class="edge">
<title>Node1&#45;&gt;Node2</title>
<path fill="none" stroke="#63b8ff" d="M81.79,-9.5C73.02,-9.5 64.11,-9.5 56.16,-9.5"/>
<polygon fill="#63b8ff" stroke="#63b8ff" points="81.94,-13 91.94,-9.5 81.94,-6 81.94,-13"/>
</g>
</g>
</svg>
