<?xml version="1.0" encoding="UTF-8" standalone="no"?>
<!DOCTYPE svg PUBLIC "-//W3C//DTD SVG 1.1//EN"
 "http://www.w3.org/Graphics/SVG/1.1/DTD/svg11.dtd">
<!-- Generated by graphviz version 2.43.0 (0)
 -->
<!-- Title: Intersect Pages: 1 -->
<svg width="266pt" height="187pt"
 viewBox="0.00 0.00 266.00 186.50" xmlns="http://www.w3.org/2000/svg" xmlns:xlink="http://www.w3.org/1999/xlink">
<g id="graph0" class="graph" transform="scale(1 1) rotate(0) translate(4 182.5)">
<title>Intersect</title>
<!-- Node1 -->
<g id="node1" class="node">
<title>Node1</title>
<g id="a_node1"><a xlink:title="Find intersection point between this and other line using given tolerance. Returns null if no interse...">
<polygon fill="#999999" stroke="#666666" points="258,-104.5 199,-104.5 199,-85.5 258,-85.5 258,-104.5"/>
<text text-anchor="middle" x="228.5" y="-92.5" font-family="Helvetica,sans-Serif" font-size="10.00">Intersect</text>
</a>
</g>
</g>
<!-- Node2 -->
<g id="node2" class="node">
<title>Node2</title>
<g id="a_node2"><a xlink:href="class_search_a_thing_1_1_line3_d.html#aabf6d8bb138dbc080987d9937d73167b" target="_top" xlink:title="returns bisect of two given segment/lines ( if given segment not share nodes but intesects returned b...">
<polygon fill="white" stroke="#666666" points="105,-178.5 58,-178.5 58,-159.5 105,-159.5 105,-178.5"/>
<text text-anchor="middle" x="81.5" y="-166.5" font-family="Helvetica,sans-Serif" font-size="10.00">Bisect</text>
</a>
</g>
</g>
<!-- Node1&#45;&gt;Node2 -->
<g id="edge1" class="edge">
<title>Node1&#45;&gt;Node2</title>
<path fill="none" stroke="#63b8ff" d="M212.31,-112.15C200.18,-124.77 182.11,-141.35 163,-151 144.72,-160.23 121.74,-164.76 105.02,-166.97"/>
<polygon fill="#63b8ff" stroke="#63b8ff" points="215.13,-114.25 219.37,-104.54 210,-109.49 215.13,-114.25"/>
</g>
<!-- Node3 -->
<g id="node3" class="node">
<title>Node3</title>
<g id="a_node3"><a xlink:href="class_search_a_thing_1_1_line3_d.html#a4e9c08ecfad184897aff9e9cc19fafcf" target="_top" xlink:title="find intersections between this and another geometry resulting in zero or more geometries.">
<polygon fill="white" stroke="#666666" points="126,-141.5 37,-141.5 37,-122.5 126,-122.5 126,-141.5"/>
<text text-anchor="middle" x="81.5" y="-129.5" font-family="Helvetica,sans-Serif" font-size="10.00">GeomIntersect</text>
</a>
</g>
</g>
<!-- Node1&#45;&gt;Node3 -->
<g id="edge2" class="edge">
<title>Node1&#45;&gt;Node3</title>
<path fill="none" stroke="#63b8ff" d="M188.99,-106.8C180.46,-109.28 171.45,-111.81 163,-114 151.08,-117.09 138.08,-120.13 126.08,-122.81"/>
<polygon fill="#63b8ff" stroke="#63b8ff" points="190.12,-110.11 198.72,-103.92 188.13,-103.4 190.12,-110.11"/>
</g>
<!-- Node4 -->
<g id="node4" class="node">
<title>Node4</title>
<g id="a_node4"><a xlink:href="class_search_a_thing_1_1_line3_d.html#a9fcf0812eb6b3e36390d4a76c3b64ef8" target="_top" xlink:title="Intersects two lines with arbitrary segment mode for each.">
<polygon fill="white" stroke="#666666" points="111,-104.5 52,-104.5 52,-85.5 111,-85.5 111,-104.5"/>
<text text-anchor="middle" x="81.5" y="-92.5" font-family="Helvetica,sans-Serif" font-size="10.00">Intersect</text>
</a>
</g>
</g>
<!-- Node1&#45;&gt;Node4 -->
<g id="edge3" class="edge">
<title>Node1&#45;&gt;Node4</title>
<path fill="none" stroke="#63b8ff" d="M188.82,-95C164.38,-95 133.31,-95 111.09,-95"/>
<polygon fill="#63b8ff" stroke="#63b8ff" points="188.85,-98.5 198.85,-95 188.85,-91.5 188.85,-98.5"/>
</g>
<!-- Node5 -->
<g id="node5" class="node">
<title>Node5</title>
<g id="a_node5"><a xlink:href="class_search_a_thing_1_1_line3_d.html#a02a25dd4ae4b20a5b72dfc604f74ee56" target="_top" xlink:title="Intersects two lines with arbitrary segment mode for each.">
<polygon fill="white" stroke="#666666" points="111,-67.5 52,-67.5 52,-48.5 111,-48.5 111,-67.5"/>
<text text-anchor="middle" x="81.5" y="-55.5" font-family="Helvetica,sans-Serif" font-size="10.00">Intersect</text>
</a>
</g>
</g>
<!-- Node1&#45;&gt;Node5 -->
<g id="edge4" class="edge">
<title>Node1&#45;&gt;Node5</title>
<path fill="none" stroke="#63b8ff" d="M189.19,-84.03C180.59,-81.65 171.5,-79.19 163,-77 145.9,-72.6 126.64,-68.04 111.26,-64.49"/>
<polygon fill="#63b8ff" stroke="#63b8ff" points="188.42,-87.45 198.99,-86.78 190.3,-80.71 188.42,-87.45"/>
</g>
<!-- Node6 -->
<g id="node6" class="node">
<title>Node6</title>
<g id="a_node6"><a xlink:href="class_search_a_thing_1_1_plane3_d_region.html#a73c96313fb28f7e4aef325b09627e6d8" target="_top" xlink:title="states if given ray line intersect this plane3d region">
<polygon fill="white" stroke="#666666" points="163,-30 0,-30 0,0 163,0 163,-30"/>
<text text-anchor="start" x="8" y="-18" font-family="Helvetica,sans-Serif" font-size="10.00">SearchAThing.Plane3DRegion.</text>
<text text-anchor="middle" x="81.5" y="-7" font-family="Helvetica,sans-Serif" font-size="10.00">Intersect</text>
</a>
</g>
</g>
<!-- Node1&#45;&gt;Node6 -->
<g id="edge5" class="edge">
<title>Node1&#45;&gt;Node6</title>
<path fill="none" stroke="#63b8ff" d="M211.6,-78.18C199.33,-66.07 181.4,-50.14 163,-40 156.08,-36.19 148.5,-32.87 140.84,-30.01"/>
<polygon fill="#63b8ff" stroke="#63b8ff" points="209.28,-80.82 218.79,-85.49 214.27,-75.91 209.28,-80.82"/>
</g>
</g>
</svg>
