<?xml version="1.0" encoding="UTF-8" standalone="no"?>
<!DOCTYPE svg PUBLIC "-//W3C//DTD SVG 1.1//EN"
 "http://www.w3.org/Graphics/SVG/1.1/DTD/svg11.dtd">
<!-- Generated by graphviz version 2.43.0 (0)
 -->
<!-- Title: EqualsTol Pages: 1 -->
<svg width="278pt" height="124pt"
 viewBox="0.00 0.00 278.00 123.50" xmlns="http://www.w3.org/2000/svg" xmlns:xlink="http://www.w3.org/1999/xlink">
<g id="graph0" class="graph" transform="scale(1 1) rotate(0) translate(4 119.5)">
<title>EqualsTol</title>
<!-- Node1 -->
<g id="node1" class="node">
<title>Node1</title>
<g id="a_node1"><a xlink:title="Checks if two arcs are equals ( it checks agains swapped from&#45;to too )">
<polygon fill="#999999" stroke="#666666" points="270,-62 208,-62 208,-43 270,-43 270,-62"/>
<text text-anchor="middle" x="239" y="-50" font-family="Helvetica,sans-Serif" font-size="10.00">EqualsTol</text>
</a>
</g>
</g>
<!-- Node2 -->
<g id="node2" class="node">
<title>Node2</title>
<g id="a_node2"><a xlink:href="class_search_a_thing_1_1_sci_1_1_arc3_d_equality_comparer.html#a410d5009cd0fd461223db0ef5d30bb09" target="_top" xlink:title=" ">
<polygon fill="white" stroke="#666666" points="172,-115.5 0,-115.5 0,-85.5 172,-85.5 172,-115.5"/>
<text text-anchor="start" x="8" y="-103.5" font-family="Helvetica,sans-Serif" font-size="10.00">SearchAThing.Sci.Arc3DEquality</text>
<text text-anchor="middle" x="86" y="-92.5" font-family="Helvetica,sans-Serif" font-size="10.00">Comparer.Equals</text>
</a>
</g>
</g>
<!-- Node1&#45;&gt;Node2 -->
<g id="edge1" class="edge">
<title>Node1&#45;&gt;Node2</title>
<path fill="none" stroke="#63b8ff" d="M203.4,-65.62C193.33,-69.3 182.27,-73.19 172,-76.5 162.51,-79.56 152.37,-82.61 142.5,-85.46"/>
<polygon fill="#63b8ff" stroke="#63b8ff" points="204.91,-68.8 213.08,-62.05 202.48,-62.23 204.91,-68.8"/>
</g>
<!-- Node3 -->
<g id="node3" class="node">
<title>Node3</title>
<g id="a_node3"><a xlink:href="class_search_a_thing_1_1_sci_1_1_circle3_d.html#a73e18184c469df5ead90339c98eeedc2" target="_top" xlink:title="intersect this circle with given other; pre&#45;requisite: circles are not the same one ; actually implem...">
<polygon fill="white" stroke="#666666" points="154.5,-67.5 17.5,-67.5 17.5,-37.5 154.5,-37.5 154.5,-67.5"/>
<text text-anchor="start" x="25.5" y="-55.5" font-family="Helvetica,sans-Serif" font-size="10.00">SearchAThing.Sci.Circle3</text>
<text text-anchor="middle" x="86" y="-44.5" font-family="Helvetica,sans-Serif" font-size="10.00">D.Intersect</text>
</a>
</g>
</g>
<!-- Node1&#45;&gt;Node3 -->
<g id="edge2" class="edge">
<title>Node1&#45;&gt;Node3</title>
<path fill="none" stroke="#63b8ff" d="M197.63,-52.5C184.39,-52.5 169.29,-52.5 154.6,-52.5"/>
<polygon fill="#63b8ff" stroke="#63b8ff" points="197.81,-56 207.81,-52.5 197.81,-49 197.81,-56"/>
</g>
<!-- Node4 -->
<g id="node4" class="node">
<title>Node4</title>
<g id="a_node4"><a xlink:href="class_search_a_thing_1_1_sci_1_1_arc3_d.html#ab69dc258749ee37248a1342b257311b2" target="_top" xlink:title="create a set of subarc from this by splitting through given split points split point are not required...">
<polygon fill="white" stroke="#666666" points="105,-19 67,-19 67,0 105,0 105,-19"/>
<text text-anchor="middle" x="86" y="-7" font-family="Helvetica,sans-Serif" font-size="10.00">Split</text>
</a>
</g>
</g>
<!-- Node1&#45;&gt;Node4 -->
<g id="edge3" class="edge">
<title>Node1&#45;&gt;Node4</title>
<path fill="none" stroke="#63b8ff" d="M204.6,-39.41C194.24,-35.6 182.73,-31.64 172,-28.5 149.21,-21.84 122.41,-16.2 105.08,-12.84"/>
<polygon fill="#63b8ff" stroke="#63b8ff" points="203.52,-42.74 214.11,-42.97 205.97,-36.18 203.52,-42.74"/>
</g>
</g>
</svg>
