<?xml version="1.0" encoding="UTF-8" standalone="no"?>
<!DOCTYPE svg PUBLIC "-//W3C//DTD SVG 1.1//EN"
 "http://www.w3.org/Graphics/SVG/1.1/DTD/svg11.dtd">
<!-- Generated by graphviz version 2.43.0 (0)
 -->
<!-- Title: ContainsPoint Pages: 1 -->
<svg width="282pt" height="45pt"
 viewBox="0.00 0.00 282.00 45.00" xmlns="http://www.w3.org/2000/svg" xmlns:xlink="http://www.w3.org/1999/xlink">
<g id="graph0" class="graph" transform="scale(1 1) rotate(0) translate(4 41)">
<title>ContainsPoint</title>
<!-- Node1 -->
<g id="node1" class="node">
<title>Node1</title>
<g id="a_node1"><a xlink:title="states if given point is included into this loop">
<polygon fill="#999999" stroke="#666666" points="274,-19 190,-19 190,0 274,0 274,-19"/>
<text text-anchor="middle" x="232" y="-7" font-family="Helvetica,sans-Serif" font-size="10.00">ContainsPoint</text>
</a>
</g>
</g>
<!-- Node1&#45;&gt;Node1 -->
<g id="edge3" class="edge">
<title>Node1&#45;&gt;Node1</title>
<path fill="none" stroke="#63b8ff" d="M251.63,-28.55C250.32,-33.38 243.77,-37 232,-37 213.16,-37 207.71,-27.73 215.66,-19.08"/>
<polygon fill="#63b8ff" stroke="#63b8ff" points="254.93,-27.38 248.34,-19.08 248.31,-29.68 254.93,-27.38"/>
</g>
<!-- Node2 -->
<g id="node2" class="node">
<title>Node2</title>
<g id="a_node2"><a xlink:href="class_search_a_thing_1_1_sci_1_1_loop.html#ab01260fd99f6dd7500b3de765e6043e3" target="_top" xlink:title="test if given edge contained in this loop">
<polygon fill="white" stroke="#666666" points="154,-19 95,-19 95,0 154,0 154,-19"/>
<text text-anchor="middle" x="124.5" y="-7" font-family="Helvetica,sans-Serif" font-size="10.00">Contains</text>
</a>
</g>
</g>
<!-- Node1&#45;&gt;Node2 -->
<g id="edge1" class="edge">
<title>Node1&#45;&gt;Node2</title>
<path fill="none" stroke="#63b8ff" d="M179.71,-9.5C170.96,-9.5 162.15,-9.5 154.25,-9.5"/>
<polygon fill="#63b8ff" stroke="#63b8ff" points="179.91,-13 189.91,-9.5 179.91,-6 179.91,-13"/>
</g>
<!-- Node3 -->
<g id="node3" class="node">
<title>Node3</title>
<g id="a_node3"><a xlink:href="class_search_a_thing_1_1_sci_1_1_loop.html#a72cf4602283fe6bc1748a9c48c4e5452" target="_top" xlink:title="states if this loop contains given other loop">
<polygon fill="white" stroke="#666666" points="59,-19 0,-19 0,0 59,0 59,-19"/>
<text text-anchor="middle" x="29.5" y="-7" font-family="Helvetica,sans-Serif" font-size="10.00">Contains</text>
</a>
</g>
</g>
<!-- Node2&#45;&gt;Node3 -->
<g id="edge2" class="edge">
<title>Node2&#45;&gt;Node3</title>
<path fill="none" stroke="#63b8ff" d="M84.69,-9.5C76.16,-9.5 67.28,-9.5 59.23,-9.5"/>
<polygon fill="#63b8ff" stroke="#63b8ff" points="84.84,-13 94.84,-9.5 84.84,-6 84.84,-13"/>
</g>
</g>
</svg>
