<?xml version="1.0" encoding="UTF-8" standalone="no"?>
<!DOCTYPE svg PUBLIC "-//W3C//DTD SVG 1.1//EN"
 "http://www.w3.org/Graphics/SVG/1.1/DTD/svg11.dtd">
<!-- Generated by graphviz version 2.43.0 (0)
 -->
<!-- Title: EqualsTol Pages: 1 -->
<svg width="479pt" height="113pt"
 viewBox="0.00 0.00 479.00 112.50" xmlns="http://www.w3.org/2000/svg" xmlns:xlink="http://www.w3.org/1999/xlink">
<g id="graph0" class="graph" transform="scale(1 1) rotate(0) translate(4 108.5)">
<title>EqualsTol</title>
<!-- Node1 -->
<g id="node1" class="node">
<title>Node1</title>
<g id="a_node1"><a xlink:title="Checks if two lines are equals.">
<polygon fill="#999999" stroke="#666666" points="471,-56 409,-56 409,-37 471,-37 471,-56"/>
<text text-anchor="middle" x="440" y="-44" font-family="Helvetica,sans-Serif" font-size="10.00">EqualsTol</text>
</a>
</g>
</g>
<!-- Node2 -->
<g id="node2" class="node">
<title>Node2</title>
<g id="a_node2"><a xlink:href="class_search_a_thing_1_1_arc3_d.html#aceadfdb18af288e2a000c0b1e07d3234" target="_top" xlink:title="Checks if two arcs are equals ( it checks agains swapped from&#45;to too )">
<polygon fill="white" stroke="#666666" points="373,-56 209,-56 209,-37 373,-37 373,-56"/>
<text text-anchor="middle" x="291" y="-44" font-family="Helvetica,sans-Serif" font-size="10.00">SearchAThing.Arc3D.EqualsTol</text>
</a>
</g>
</g>
<!-- Node1&#45;&gt;Node2 -->
<g id="edge1" class="edge">
<title>Node1&#45;&gt;Node2</title>
<path fill="none" stroke="#63b8ff" d="M398.75,-46.5C390.7,-46.5 381.97,-46.5 373.1,-46.5"/>
<polygon fill="#63b8ff" stroke="#63b8ff" points="398.9,-50 408.9,-46.5 398.9,-43 398.9,-50"/>
</g>
<!-- Node3 -->
<g id="node3" class="node">
<title>Node3</title>
<g id="a_node3"><a xlink:href="class_search_a_thing_1_1_arc3_d_equality_comparer.html#a410d5009cd0fd461223db0ef5d30bb09" target="_top" xlink:title=" ">
<polygon fill="white" stroke="#666666" points="164,-104.5 9,-104.5 9,-74.5 164,-74.5 164,-104.5"/>
<text text-anchor="start" x="17" y="-92.5" font-family="Helvetica,sans-Serif" font-size="10.00">SearchAThing.Arc3DEquality</text>
<text text-anchor="middle" x="86.5" y="-81.5" font-family="Helvetica,sans-Serif" font-size="10.00">Comparer.Equals</text>
</a>
</g>
</g>
<!-- Node2&#45;&gt;Node3 -->
<g id="edge2" class="edge">
<title>Node2&#45;&gt;Node3</title>
<path fill="none" stroke="#63b8ff" d="M235.18,-58.14C211.47,-63.18 183.42,-69.13 158.17,-74.49"/>
<polygon fill="#63b8ff" stroke="#63b8ff" points="236,-61.54 245.06,-56.04 234.55,-54.7 236,-61.54"/>
</g>
<!-- Node4 -->
<g id="node4" class="node">
<title>Node4</title>
<g id="a_node4"><a xlink:href="class_search_a_thing_1_1_circle3_d.html#a73e18184c469df5ead90339c98eeedc2" target="_top" xlink:title="intersect this circle with given other; pre&#45;requisite: circles are not the same one ; actually implem...">
<polygon fill="white" stroke="#666666" points="173,-56 0,-56 0,-37 173,-37 173,-56"/>
<text text-anchor="middle" x="86.5" y="-44" font-family="Helvetica,sans-Serif" font-size="10.00">SearchAThing.Circle3D.Intersect</text>
</a>
</g>
</g>
<!-- Node2&#45;&gt;Node4 -->
<g id="edge3" class="edge">
<title>Node2&#45;&gt;Node4</title>
<path fill="none" stroke="#63b8ff" d="M198.79,-46.5C190.22,-46.5 181.54,-46.5 173.02,-46.5"/>
<polygon fill="#63b8ff" stroke="#63b8ff" points="198.8,-50 208.8,-46.5 198.8,-43 198.8,-50"/>
</g>
<!-- Node5 -->
<g id="node5" class="node">
<title>Node5</title>
<g id="a_node5"><a xlink:href="class_search_a_thing_1_1_arc3_d.html#ab69dc258749ee37248a1342b257311b2" target="_top" xlink:title="create a set of subarc from this by splitting through given split points split point are not required...">
<polygon fill="white" stroke="#666666" points="156.5,-19 16.5,-19 16.5,0 156.5,0 156.5,-19"/>
<text text-anchor="middle" x="86.5" y="-7" font-family="Helvetica,sans-Serif" font-size="10.00">SearchAThing.Arc3D.Split</text>
</a>
</g>
</g>
<!-- Node2&#45;&gt;Node5 -->
<g id="edge4" class="edge">
<title>Node2&#45;&gt;Node5</title>
<path fill="none" stroke="#63b8ff" d="M227.71,-35.12C199.56,-29.98 166.67,-23.97 139.82,-19.06"/>
<polygon fill="#63b8ff" stroke="#63b8ff" points="227.38,-38.62 237.85,-36.97 228.64,-31.73 227.38,-38.62"/>
</g>
</g>
</svg>
