<?xml version="1.0" encoding="UTF-8" standalone="no"?>
<!DOCTYPE svg PUBLIC "-//W3C//DTD SVG 1.1//EN"
 "http://www.w3.org/Graphics/SVG/1.1/DTD/svg11.dtd">
<!-- Generated by graphviz version 2.43.0 (0)
 -->
<!-- Title: CopyFrom Pages: 1 -->
<svg width="266pt" height="64pt"
 viewBox="0.00 0.00 266.00 64.00" xmlns="http://www.w3.org/2000/svg" xmlns:xlink="http://www.w3.org/1999/xlink">
<g id="graph0" class="graph" transform="scale(1 1) rotate(0) translate(4 60)">
<title>CopyFrom</title>
<!-- Node1 -->
<g id="node1" class="node">
<title>Node1</title>
<g id="a_node1"><a xlink:title=" ">
<polygon fill="#999999" stroke="#666666" points="258,-37 192,-37 192,-18 258,-18 258,-37"/>
<text text-anchor="middle" x="225" y="-25" font-family="Helvetica,sans-Serif" font-size="10.00">CopyFrom</text>
</a>
</g>
</g>
<!-- Node2 -->
<g id="node2" class="node">
<title>Node2</title>
<g id="a_node2"><a xlink:href="class_search_a_thing_1_1_arc3_d.html#a2492b76ca16cd2c39edbecadc817d7b4" target="_top" xlink:title="build a copy of given arc">
<polygon fill="white" stroke="#666666" points="151.5,-56 4.5,-56 4.5,-37 151.5,-37 151.5,-56"/>
<text text-anchor="middle" x="78" y="-44" font-family="Helvetica,sans-Serif" font-size="10.00">SearchAThing.Arc3D.Arc3D</text>
</a>
</g>
</g>
<!-- Node1&#45;&gt;Node2 -->
<g id="edge1" class="edge">
<title>Node1&#45;&gt;Node2</title>
<path fill="none" stroke="#63b8ff" d="M181.9,-33.02C172.41,-34.26 162.08,-35.61 151.74,-36.97"/>
<polygon fill="#63b8ff" stroke="#63b8ff" points="182.36,-36.49 191.82,-31.72 181.45,-29.55 182.36,-36.49"/>
</g>
<!-- Node3 -->
<g id="node3" class="node">
<title>Node3</title>
<g id="a_node3"><a xlink:href="class_search_a_thing_1_1_line3_d.html#a3d01030c137b0d0ab1c978924fe06b07" target="_top" xlink:title="build a copy of given line">
<polygon fill="white" stroke="#666666" points="156,-19 0,-19 0,0 156,0 156,-19"/>
<text text-anchor="middle" x="78" y="-7" font-family="Helvetica,sans-Serif" font-size="10.00">SearchAThing.Line3D.Line3D</text>
</a>
</g>
</g>
<!-- Node1&#45;&gt;Node3 -->
<g id="edge2" class="edge">
<title>Node1&#45;&gt;Node3</title>
<path fill="none" stroke="#63b8ff" d="M181.73,-22.25C173.47,-21.23 164.57,-20.12 155.58,-19.01"/>
<polygon fill="#63b8ff" stroke="#63b8ff" points="181.46,-25.75 191.82,-23.51 182.33,-18.8 181.46,-25.75"/>
</g>
</g>
</svg>
