<?xml version="1.0" encoding="UTF-8" standalone="no"?>
<!DOCTYPE svg PUBLIC "-//W3C//DTD SVG 1.1//EN"
 "http://www.w3.org/Graphics/SVG/1.1/DTD/svg11.dtd">
<!-- Generated by graphviz version 2.43.0 (0)
 -->
<!-- Title: Graphical Class Hierarchy Pages: 1 -->
<svg width="290pt" height="138pt"
 viewBox="0.00 0.00 290.00 138.00" xmlns="http://www.w3.org/2000/svg" xmlns:xlink="http://www.w3.org/1999/xlink">
<g id="graph0" class="graph" transform="scale(1 1) rotate(0) translate(4 134)">
<title>Graphical Class Hierarchy</title>
<!-- Node0 -->
<g id="node1" class="node">
<title>Node0</title>
<g id="a_node1"><a xlink:title=" ">
<polygon fill="#e0e0e0" stroke="#999999" points="107,-74 0,-74 0,-55 107,-55 107,-74"/>
<text text-anchor="middle" x="53.5" y="-62" font-family="Helvetica,sans-Serif" font-size="10.00">IEqualityComparer</text>
</a>
</g>
</g>
<!-- Node1 -->
<g id="node2" class="node">
<title>Node1</title>
<g id="a_node2"><a xlink:href="class_search_a_thing_1_1_arc3_d_equality_comparer.html" target="_top" xlink:title="checks if arcs share same plane, origin, radius, angle start&#45;end">
<polygon fill="white" stroke="#666666" points="279.5,-130 145.5,-130 145.5,-111 279.5,-111 279.5,-130"/>
<text text-anchor="middle" x="212.5" y="-118" font-family="Helvetica,sans-Serif" font-size="10.00">Arc3DEqualityComparer</text>
</a>
</g>
</g>
<!-- Node0&#45;&gt;Node1 -->
<g id="edge1" class="edge">
<title>Node0&#45;&gt;Node1</title>
<path fill="none" stroke="#63b8ff" d="M83.95,-78.45C100.96,-86.18 122.91,-95.59 143,-102.5 151.95,-105.58 161.72,-108.43 171,-110.92"/>
<polygon fill="#63b8ff" stroke="#63b8ff" points="85.1,-75.13 74.55,-74.13 82.17,-81.49 85.1,-75.13"/>
</g>
<!-- Node2 -->
<g id="node3" class="node">
<title>Node2</title>
<g id="a_node3"><a xlink:href="class_search_a_thing_1_1_double_equality_comparer.html" target="_top" xlink:title="helper class to compare a set of doubles by using given tolerance">
<polygon fill="white" stroke="#666666" points="282,-93 143,-93 143,-74 282,-74 282,-93"/>
<text text-anchor="middle" x="212.5" y="-81" font-family="Helvetica,sans-Serif" font-size="10.00">DoubleEqualityComparer</text>
</a>
</g>
</g>
<!-- Node0&#45;&gt;Node2 -->
<g id="edge2" class="edge">
<title>Node0&#45;&gt;Node2</title>
<path fill="none" stroke="#63b8ff" d="M117.28,-72.1C125.66,-73.11 134.28,-74.16 142.75,-75.18"/>
<polygon fill="#63b8ff" stroke="#63b8ff" points="117.56,-68.61 107.22,-70.88 116.72,-75.56 117.56,-68.61"/>
</g>
<!-- Node3 -->
<g id="node4" class="node">
<title>Node3</title>
<g id="a_node4"><a xlink:href="class_search_a_thing_1_1_line3_d_equality_comparer.html" target="_top" xlink:title="equality comparer helper for Line3D types">
<polygon fill="white" stroke="#666666" points="281.5,-56 143.5,-56 143.5,-37 281.5,-37 281.5,-56"/>
<text text-anchor="middle" x="212.5" y="-44" font-family="Helvetica,sans-Serif" font-size="10.00">Line3DEqualityComparer</text>
</a>
</g>
</g>
<!-- Node0&#45;&gt;Node3 -->
<g id="edge3" class="edge">
<title>Node0&#45;&gt;Node3</title>
<path fill="none" stroke="#63b8ff" d="M117.16,-57.32C125.76,-56.33 134.62,-55.31 143.31,-54.32"/>
<polygon fill="#63b8ff" stroke="#63b8ff" points="116.75,-53.84 107.22,-58.46 117.55,-60.79 116.75,-53.84"/>
</g>
<!-- Node4 -->
<g id="node5" class="node">
<title>Node4</title>
<g id="a_node5"><a xlink:href="class_search_a_thing_1_1_loop_equality_comparer.html" target="_top" xlink:title=" ">
<polygon fill="white" stroke="#666666" points="276.5,-19 148.5,-19 148.5,0 276.5,0 276.5,-19"/>
<text text-anchor="middle" x="212.5" y="-7" font-family="Helvetica,sans-Serif" font-size="10.00">LoopEqualityComparer</text>
</a>
</g>
</g>
<!-- Node0&#45;&gt;Node4 -->
<g id="edge4" class="edge">
<title>Node0&#45;&gt;Node4</title>
<path fill="none" stroke="#63b8ff" d="M85.41,-50.9C102.26,-43.75 123.58,-35.12 143,-28.5 152.93,-25.12 163.82,-21.88 173.93,-19.08"/>
<polygon fill="#63b8ff" stroke="#63b8ff" points="83.87,-47.75 76.06,-54.91 86.63,-54.19 83.87,-47.75"/>
</g>
</g>
</svg>
