<?xml version="1.0" encoding="UTF-8" standalone="no"?>
<!DOCTYPE svg PUBLIC "-//W3C//DTD SVG 1.1//EN"
 "http://www.w3.org/Graphics/SVG/1.1/DTD/svg11.dtd">
<!-- Generated by graphviz version 2.43.0 (0)
 -->
<!-- Title: Graphical Class Hierarchy Pages: 1 -->
<svg width="330pt" height="64pt"
 viewBox="0.00 0.00 330.00 64.00" xmlns="http://www.w3.org/2000/svg" xmlns:xlink="http://www.w3.org/1999/xlink">
<g id="graph0" class="graph" transform="scale(1 1) rotate(0) translate(4 60)">
<title>Graphical Class Hierarchy</title>
<!-- Node0 -->
<g id="node1" class="node">
<title>Node0</title>
<g id="a_node1"><a xlink:href="class_search_a_thing_1_1_sci_1_1_geometry.html" target="_top" xlink:title="base abstract type for geometries such as Vector3D, Line3D, Arc3D and Circle3D">
<polygon fill="white" stroke="#666666" points="65,-37 0,-37 0,-18 65,-18 65,-37"/>
<text text-anchor="middle" x="32.5" y="-25" font-family="Helvetica,sans-Serif" font-size="10.00">Geometry</text>
</a>
</g>
</g>
<!-- Node1 -->
<g id="node2" class="node">
<title>Node1</title>
<g id="a_node2"><a xlink:href="class_search_a_thing_1_1_sci_1_1_edge.html" target="_top" xlink:title="interface implemented by some type of geometries used in Loop such as Line3D, Arc3D and Circle3D">
<polygon fill="white" stroke="#666666" points="142,-37 101,-37 101,-18 142,-18 142,-37"/>
<text text-anchor="middle" x="121.5" y="-25" font-family="Helvetica,sans-Serif" font-size="10.00">Edge</text>
</a>
</g>
</g>
<!-- Node0&#45;&gt;Node1 -->
<g id="edge1" class="edge">
<title>Node0&#45;&gt;Node1</title>
<path fill="none" stroke="#63b8ff" d="M75.68,-27.5C84.53,-27.5 93.46,-27.5 101,-27.5"/>
<polygon fill="#63b8ff" stroke="#63b8ff" points="75.4,-24 65.4,-27.5 75.4,-31 75.4,-24"/>
</g>
<!-- Node2 -->
<g id="node3" class="node">
<title>Node2</title>
<g id="a_node3"><a xlink:href="class_search_a_thing_1_1_sci_1_1_arc3_d.html" target="_top" xlink:title="base geometry for arc 3d entities.">
<polygon fill="white" stroke="#666666" points="226,-56 180,-56 180,-37 226,-37 226,-56"/>
<text text-anchor="middle" x="203" y="-44" font-family="Helvetica,sans-Serif" font-size="10.00">Arc3D</text>
</a>
</g>
</g>
<!-- Node1&#45;&gt;Node2 -->
<g id="edge2" class="edge">
<title>Node1&#45;&gt;Node2</title>
<path fill="none" stroke="#63b8ff" d="M152.06,-34.57C161.24,-36.76 171.18,-39.14 179.77,-41.19"/>
<polygon fill="#63b8ff" stroke="#63b8ff" points="152.69,-31.12 142.15,-32.2 151.06,-37.93 152.69,-31.12"/>
</g>
<!-- Node4 -->
<g id="node5" class="node">
<title>Node4</title>
<g id="a_node5"><a xlink:href="class_search_a_thing_1_1_sci_1_1_line3_d.html" target="_top" xlink:title="Defines a line by an application point (From) and an extension from there (V). To is computed as From...">
<polygon fill="white" stroke="#666666" points="228,-19 178,-19 178,0 228,0 228,-19"/>
<text text-anchor="middle" x="203" y="-7" font-family="Helvetica,sans-Serif" font-size="10.00">Line3D</text>
</a>
</g>
</g>
<!-- Node1&#45;&gt;Node4 -->
<g id="edge4" class="edge">
<title>Node1&#45;&gt;Node4</title>
<path fill="none" stroke="#63b8ff" d="M152.04,-20.81C160.5,-18.9 169.63,-16.83 177.74,-14.99"/>
<polygon fill="#63b8ff" stroke="#63b8ff" points="151.13,-17.43 142.15,-23.05 152.68,-24.26 151.13,-17.43"/>
</g>
<!-- Node3 -->
<g id="node4" class="node">
<title>Node3</title>
<g id="a_node4"><a xlink:href="class_search_a_thing_1_1_sci_1_1_circle3_d.html" target="_top" xlink:title="Specialized version of Arc3D with StartAngle=0 and EndAngle=2PI.">
<polygon fill="white" stroke="#666666" points="322,-56 264,-56 264,-37 322,-37 322,-56"/>
<text text-anchor="middle" x="293" y="-44" font-family="Helvetica,sans-Serif" font-size="10.00">Circle3D</text>
</a>
</g>
</g>
<!-- Node2&#45;&gt;Node3 -->
<g id="edge3" class="edge">
<title>Node2&#45;&gt;Node3</title>
<path fill="none" stroke="#63b8ff" d="M236.35,-46.5C245.35,-46.5 255.05,-46.5 263.79,-46.5"/>
<polygon fill="#63b8ff" stroke="#63b8ff" points="236.21,-43 226.21,-46.5 236.21,-50 236.21,-43"/>
</g>
</g>
</svg>
