<?xml version="1.0" encoding="UTF-8" standalone="no"?>
<!DOCTYPE svg PUBLIC "-//W3C//DTD SVG 1.1//EN"
 "http://www.w3.org/Graphics/SVG/1.1/DTD/svg11.dtd">
<!-- Generated by graphviz version 2.43.0 (0)
 -->
<!-- Title: Graphical Class Hierarchy Pages: 1 -->
<svg width="297pt" height="64pt"
 viewBox="0.00 0.00 297.00 64.00" xmlns="http://www.w3.org/2000/svg" xmlns:xlink="http://www.w3.org/1999/xlink">
<g id="graph0" class="graph" transform="scale(1 1) rotate(0) translate(4 60)">
<title>Graphical Class Hierarchy</title>
<!-- Node0 -->
<g id="node1" class="node">
<title>Node0</title>
<g id="a_node1"><a xlink:title=" ">
<polygon fill="#e0e0e0" stroke="#999999" points="68,-37 0,-37 0,-18 68,-18 68,-37"/>
<text text-anchor="middle" x="34" y="-25" font-family="Helvetica,sans-Serif" font-size="10.00">IComparer</text>
</a>
</g>
</g>
<!-- Node1 -->
<g id="node2" class="node">
<title>Node1</title>
<g id="a_node2"><a xlink:href="class_search_a_thing_1_1_sci_1_1_discrete_space_item_comparer.html" target="_top" xlink:title="comparer to search in DiscreteSpace">
<polygon fill="white" stroke="#666666" points="289,-56 104,-56 104,-37 289,-37 289,-56"/>
<text text-anchor="middle" x="196.5" y="-44" font-family="Helvetica,sans-Serif" font-size="10.00">DiscreteSpaceItemComparer&lt; T &gt;</text>
</a>
</g>
</g>
<!-- Node0&#45;&gt;Node1 -->
<g id="edge1" class="edge">
<title>Node0&#45;&gt;Node1</title>
<path fill="none" stroke="#63b8ff" d="M78.3,-32.63C89.67,-33.97 102.3,-35.47 114.94,-36.96"/>
<polygon fill="#63b8ff" stroke="#63b8ff" points="78.6,-29.14 68.26,-31.44 77.77,-36.09 78.6,-29.14"/>
</g>
<!-- Node2 -->
<g id="node3" class="node">
<title>Node2</title>
<g id="a_node3"><a xlink:href="class_search_a_thing_1_1_sci_1_1_normalized_angle_comparer.html" target="_top" xlink:title="normalized angles in range [StartAngle, EndAngle] comparer">
<polygon fill="white" stroke="#666666" points="271,-19 122,-19 122,0 271,0 271,-19"/>
<text text-anchor="middle" x="196.5" y="-7" font-family="Helvetica,sans-Serif" font-size="10.00">NormalizedAngleComparer</text>
</a>
</g>
</g>
<!-- Node0&#45;&gt;Node2 -->
<g id="edge2" class="edge">
<title>Node0&#45;&gt;Node2</title>
<path fill="none" stroke="#63b8ff" d="M78.58,-22.61C91.97,-21.11 107.1,-19.41 121.92,-17.75"/>
<polygon fill="#63b8ff" stroke="#63b8ff" points="77.8,-19.18 68.26,-23.77 78.58,-26.13 77.8,-19.18"/>
</g>
</g>
</svg>
