  0
SECTION
  2
HEADER
  9
$ACADVER
  1
AC1027
  9
$ACADMAINTVER
 70
   105
  9
$DWGCODEPAGE
  3
ANSI_1252
  9
$LASTSAVEDBY
  1
devel0
  9
$REQUIREDVERSIONS
160
                 0
  9
$INSBASE
 10
0.0
 20
0.0
 30
0.0
  9
$EXTMIN
 10
10.0
 20
-172.0
 30
0.0
  9
$EXTMAX
 10
100.0
 20
60.0
 30
0.0
  9
$LIMMIN
 10
0.0
 20
0.0
  9
$LIMMAX
 10
12.0
 20
9.0
  9
$ORTHOMODE
 70
     0
  9
$REGENMODE
 70
     1
  9
$FILLMODE
 70
     1
  9
$QTEXTMODE
 70
     0
  9
$MIRRTEXT
 70
     0
  9
$LTSCALE
 40
1.0
  9
$ATTMODE
 70
     1
  9
$TEXTSIZE
 40
0.2
  9
$TRACEWID
 40
0.05
  9
$TEXTSTYLE
  7
Standard
  9
$CLAYER
  8
layer 13
  9
$CELTYPE
  6
ByLayer
  9
$CECOLOR
 62
   256
  9
$CELTSCALE
 40
1.0
  9
$DISPSILH
 70
     0
  9
$DIMSCALE
 40
1.0
  9
$DIMASZ
 40
2.5
  9
$DIMEXO
 40
0.625
  9
$DIMDLI
 40
5.0
  9
$DIMRND
 40
0.0
  9
$DIMDLE
 40
0.0
  9
$DIMEXE
 40
1.25
  9
$DIMTP
 40
0.0
  9
$DIMTM
 40
0.0
  9
$DIMTXT
 40
2.5
  9
$DIMCEN
 40
0.09
  9
$DIMTSZ
 40
0.0
  9
$DIMTOL
 70
     0
  9
$DIMLIM
 70
     0
  9
$DIMTIH
 70
     0
  9
$DIMTOH
 70
     1
  9
$DIMSE1
 70
     0
  9
$DIMSE2
 70
     0
  9
$DIMTAD
 70
     1
  9
$DIMZIN
 70
     8
  9
$DIMBLK
  1

  9
$DIMASO
 70
     1
  9
$DIMSHO
 70
     1
  9
$DIMPOST
  1

  9
$DIMAPOST
  1

  9
$DIMALT
 70
     0
  9
$DIMALTD
 70
     2
  9
$DIMALTF
 40
25.4
  9
$DIMLFAC
 40
1.0
  9
$DIMTOFL
 70
     0
  9
$DIMTVP
 40
0.0
  9
$DIMTIX
 70
     0
  9
$DIMSOXD
 70
     0
  9
$DIMSAH
 70
     0
  9
$DIMBLK1
  1

  9
$DIMBLK2
  1

  9
$DIMSTYLE
  2
Standard
  9
$DIMCLRD
 70
     0
  9
$DIMCLRE
 70
     0
  9
$DIMCLRT
 70
     0
  9
$DIMTFAC
 40
1.0
  9
$DIMGAP
 40
0.625
  9
$DIMJUST
 70
     0
  9
$DIMSD1
 70
     0
  9
$DIMSD2
 70
     0
  9
$DIMTOLJ
 70
     1
  9
$DIMTZIN
 70
     0
  9
$DIMALTZ
 70
     0
  9
$DIMALTTZ
 70
     0
  9
$DIMUPT
 70
     0
  9
$DIMDEC
 70
     8
  9
$DIMTDEC
 70
     4
  9
$DIMALTU
 70
     2
  9
$DIMALTTD
 70
     2
  9
$DIMTXSTY
  7
Standard
  9
$DIMAUNIT
 70
     0
  9
$DIMADEC
 70
     0
  9
$DIMALTRND
 40
0.0
  9
$DIMAZIN
 70
     2
  9
$DIMDSEP
 70
    46
  9
$DIMATFIT
 70
     0
  9
$DIMFRAC
 70
     0
  9
$DIMLDRBLK
  1

  9
$DIMLUNIT
 70
     2
  9
$DIMLWD
 70
    -2
  9
$DIMLWE
 70
    -2
  9
$DIMTMOVE
 70
     0
  9
$DIMFXL
 40
1.0
  9
$DIMFXLON
 70
     0
  9
$DIMJOGANG
 40
0.7853981633974483
  9
$DIMTFILL
 70
     0
  9
$DIMTFILLCLR
 70
     0
  9
$DIMARCSYM
 70
     0
  9
$DIMLTYPE
  6

  9
$DIMLTEX1
  6

  9
$DIMLTEX2
  6

  9
$DIMTXTDIRECTION
 70
     0
  9
$LUNITS
 70
     2
  9
$LUPREC
 70
     4
  9
$SKETCHINC
 40
0.1
  9
$FILLETRAD
 40
0.5
  9
$AUNITS
 70
     0
  9
$AUPREC
 70
     0
  9
$MENU
  1
.
  9
$ELEVATION
 40
0.0
  9
$PELEVATION
 40
0.0
  9
$THICKNESS
 40
0.0
  9
$LIMCHECK
 70
     0
  9
$CHAMFERA
 40
0.0
  9
$CHAMFERB
 40
0.0
  9
$CHAMFERC
 40
0.0
  9
$CHAMFERD
 40
0.0
  9
$SKPOLY
 70
     0
  9
$TDCREATE
 40
2459772.558905174
  9
$TDUCREATE
 40
2459772.517238507
  9
$TDUPDATE
 40
2459772.558905555
  9
$TDUUPDATE
 40
2459772.517238889
  9
$TDINDWG
 40
0.0000000116
  9
$TDUSRTIMER
 40
0.0000000116
  9
$USRTIMER
 70
     1
  9
$ANGBASE
 50
0.0
  9
$ANGDIR
 70
     0
  9
$PDMODE
 70
     0
  9
$PDSIZE
 40
0.0
  9
$PLINEWID
 40
0.0
  9
$SPLFRAME
 70
     0
  9
$SPLINETYPE
 70
     6
  9
$SPLINESEGS
 70
     8
  9
$HANDSEED
  5
54A
  9
$SURFTAB1
 70
     6
  9
$SURFTAB2
 70
     6
  9
$SURFTYPE
 70
     6
  9
$SURFU
 70
     6
  9
$SURFV
 70
     6
  9
$UCSBASE
  2

  9
$UCSNAME
  2

  9
$UCSORG
 10
0.0
 20
0.0
 30
0.0
  9
$UCSXDIR
 10
1.0
 20
0.0
 30
0.0
  9
$UCSYDIR
 10
0.0
 20
1.0
 30
0.0
  9
$UCSORTHOREF
  2

  9
$UCSORTHOVIEW
 70
     0
  9
$UCSORGTOP
 10
0.0
 20
0.0
 30
0.0
  9
$UCSORGBOTTOM
 10
0.0
 20
0.0
 30
0.0
  9
$UCSORGLEFT
 10
0.0
 20
0.0
 30
0.0
  9
$UCSORGRIGHT
 10
0.0
 20
0.0
 30
0.0
  9
$UCSORGFRONT
 10
0.0
 20
0.0
 30
0.0
  9
$UCSORGBACK
 10
0.0
 20
0.0
 30
0.0
  9
$PUCSBASE
  2

  9
$PUCSNAME
  2

  9
$PUCSORG
 10
0.0
 20
0.0
 30
0.0
  9
$PUCSXDIR
 10
1.0
 20
0.0
 30
0.0
  9
$PUCSYDIR
 10
0.0
 20
1.0
 30
0.0
  9
$PUCSORTHOREF
  2

  9
$PUCSORTHOVIEW
 70
     0
  9
$PUCSORGTOP
 10
0.0
 20
0.0
 30
0.0
  9
$PUCSORGBOTTOM
 10
0.0
 20
0.0
 30
0.0
  9
$PUCSORGLEFT
 10
0.0
 20
0.0
 30
0.0
  9
$PUCSORGRIGHT
 10
0.0
 20
0.0
 30
0.0
  9
$PUCSORGFRONT
 10
0.0
 20
0.0
 30
0.0
  9
$PUCSORGBACK
 10
0.0
 20
0.0
 30
0.0
  9
$USERI1
 70
     0
  9
$USERI2
 70
     0
  9
$USERI3
 70
     0
  9
$USERI4
 70
     0
  9
$USERI5
 70
     0
  9
$USERR1
 40
0.0
  9
$USERR2
 40
0.0
  9
$USERR3
 40
0.0
  9
$USERR4
 40
0.0
  9
$USERR5
 40
0.0
  9
$WORLDVIEW
 70
     1
  9
$SHADEDGE
 70
     3
  9
$SHADEDIF
 70
    70
  9
$TILEMODE
 70
     1
  9
$MAXACTVP
 70
    64
  9
$PINSBASE
 10
0.0
 20
0.0
 30
0.0
  9
$PLIMCHECK
 70
     0
  9
$PEXTMIN
 10
0.0
 20
0.0
 30
0.0
  9
$PEXTMAX
 10
0.0
 20
0.0
 30
0.0
  9
$PLIMMIN
 10
-20.0
 20
-7.5
  9
$PLIMMAX
 10
277.0
 20
202.5
  9
$UNITMODE
 70
     0
  9
$VISRETAIN
 70
     1
  9
$PLINEGEN
 70
     0
  9
$PSLTSCALE
 70
     1
  9
$TREEDEPTH
 70
  3020
  9
$CMLSTYLE
  2
Standard
  9
$CMLJUST
 70
     0
  9
$CMLSCALE
 40
1.0
  9
$PROXYGRAPHICS
 70
     1
  9
$MEASUREMENT
 70
     1
  9
$CELWEIGHT
370
    -1
  9
$ENDCAPS
280
     0
  9
$JOINSTYLE
280
     0
  9
$LWDISPLAY
290
     0
  9
$INSUNITS
 70
     4
  9
$HYPERLINKBASE
  1

  9
$STYLESHEET
  1

  9
$XEDIT
290
     1
  9
$CEPSNTYPE
380
     0
  9
$PSTYLEMODE
290
     1
  9
$FINGERPRINTGUID
  2
{62383762-3273-7063-b832-653475b87537}
  9
$VERSIONGUID
  2
{FAEB1C32-E019-11D5-929B-00C0DF256EC4}
  9
$EXTNAMES
290
     1
  9
$PSVPSCALE
 40
0.0
  9
$OLESTARTUP
290
     0
  9
$SORTENTS
280
   127
  9
$INDEXCTL
280
     0
  9
$HIDETEXT
280
     1
  9
$XCLIPFRAME
280
     2
  9
$HALOGAP
280
     0
  9
$OBSCOLOR
 70
   257
  9
$OBSLTYPE
280
     0
  9
$INTERSECTIONDISPLAY
280
     0
  9
$INTERSECTIONCOLOR
 70
   257
  9
$DIMASSOC
280
     2
  9
$PROJECTNAME
  1

  9
$CAMERADISPLAY
290
     0
  9
$LENSLENGTH
 40
50.0
  9
$CAMERAHEIGHT
 40
0.0
  9
$STEPSPERSEC
 40
2.0
  9
$STEPSIZE
 40
6.0
  9
$3DDWFPREC
 40
2.0
  9
$PSOLWIDTH
 40
0.25
  9
$PSOLHEIGHT
 40
4.0
  9
$LOFTANG1
 40
1.570796326794897
  9
$LOFTANG2
 40
1.570796326794897
  9
$LOFTMAG1
 40
0.0
  9
$LOFTMAG2
 40
0.0
  9
$LOFTPARAM
 70
     7
  9
$LOFTNORMALS
280
     1
  9
$LATITUDE
 40
37.795
  9
$LONGITUDE
 40
-122.394
  9
$NORTHDIRECTION
 40
0.0
  9
$TIMEZONE
 70
 -8000
  9
$LIGHTGLYPHDISPLAY
280
     1
  9
$TILEMODELIGHTSYNCH
280
     1
  9
$CMATERIAL
347
478
  9
$SOLIDHIST
280
     0
  9
$SHOWHIST
280
     1
  9
$DWFFRAME
280
     2
  9
$DGNFRAME
280
     2
  9
$REALWORLDSCALE
290
     1
  9
$INTERFERECOLOR
 62
   256
  9
$CSHADOW
280
     0
  9
$SHADOWPLANELOCATION
 40
0.0
  0
ENDSEC
  0
SECTION
  2
CLASSES
  0
CLASS
  1
ACDBDICTIONARYWDFLT
  2
AcDbDictionaryWithDefault
  3
ObjectDBX Classes
 90
        0
 91
        3
280
     0
281
     0
  0
CLASS
  1
VISUALSTYLE
  2
AcDbVisualStyle
  3
ObjectDBX Classes
 90
     4095
 91
        3
280
     0
281
     0
  0
CLASS
  1
MATERIAL
  2
AcDbMaterial
  3
ObjectDBX Classes
 90
     1153
 91
        3
280
     0
281
     0
  0
CLASS
  1
SCALE
  2
AcDbScale
  3
ObjectDBX Classes
 90
     1153
 91
        3
280
     0
281
     0
  0
CLASS
  1
TABLESTYLE
  2
AcDbTableStyle
  3
ObjectDBX Classes
 90
     4095
 91
        3
280
     0
281
     0
  0
CLASS
  1
MLEADERSTYLE
  2
AcDbMLeaderStyle
  3
ACDB_MLEADERSTYLE_CLASS
 90
     4095
 91
        3
280
     0
281
     0
  0
CLASS
  1
SUN
  2
AcDbSun
  3
SCENEOE
 90
     1153
 91
        3
280
     0
281
     0
  0
CLASS
  1
DICTIONARYVAR
  2
AcDbDictionaryVar
  3
ObjectDBX Classes
 90
        0
 91
        3
280
     0
281
     0
  0
CLASS
  1
CELLSTYLEMAP
  2
AcDbCellStyleMap
  3
ObjectDBX Classes
 90
     1152
 91
        3
280
     0
281
     0
  0
ENDSEC
  0
SECTION
  2
TABLES
  0
TABLE
  2
VPORT
  5
43D
330
0
100
AcDbSymbolTable
 70
     1
  0
VPORT
  5
45D
330
43D
100
AcDbSymbolTableRecord
100
AcDbViewportTableRecord
  2
*Active
 70
     0
 10
0.0
 20
0.0
 11
1.0
 21
1.0
 12
-186.7644936650709
 22
-110.1182629684671
 13
0.0
 23
0.0
 14
0.5
 24
0.5
 15
0.5
 25
0.5
 16
0.0
 26
0.0
 36
1.0
 17
0.0
 27
0.0
 37
0.0
 40
492.1757547614019
 41
1.76271186440678
 42
50.0
 43
0.0
 44
0.0
 50
0.0
 51
0.0
 71
     0
 72
   100
 73
     1
 74
     3
 75
     0
 76
     0
 77
     0
 78
     0
281
     0
 65
     1
110
0.0
120
0.0
130
0.0
111
1.0
121
0.0
131
0.0
112
0.0
122
1.0
132
0.0
 79
     0
146
0.0
348
463
 60
     3
 61
     5
292
     1
282
     1
141
0.0
142
0.0
 63
   250
361
4A1
  0
ENDTAB
  0
TABLE
  2
LTYPE
  5
43A
330
0
100
AcDbSymbolTable
 70
    48
  0
LTYPE
  5
448
330
43A
100
AcDbSymbolTableRecord
100
AcDbLinetypeTableRecord
  2
ByBlock
 70
     0
  3

 72
    65
 73
     0
 40
0.0
  0
LTYPE
  5
449
330
43A
100
AcDbSymbolTableRecord
100
AcDbLinetypeTableRecord
  2
ByLayer
 70
     0
  3

 72
    65
 73
     0
 40
0.0
  0
LTYPE
  5
44A
330
43A
100
AcDbSymbolTableRecord
100
AcDbLinetypeTableRecord
  2
Continuous
 70
     0
  3
Solid line
 72
    65
 73
     0
 40
0.0
  0
LTYPE
  5
4DB
330
43A
100
AcDbSymbolTableRecord
100
AcDbLinetypeTableRecord
  2
HIDDENX2
 70
     0
  3
Hidden (2x) ____ ____ ____ ____ ____ ____ ____ 
 72
    65
 73
     2
 40
19.05
 49
12.7
 74
     0
 49
-6.35
 74
     0
  0
LTYPE
  5
4DD
330
43A
100
AcDbSymbolTableRecord
100
AcDbLinetypeTableRecord
  2
HOT_WATER_SUPPLY
 70
     0
  3
Hot water supply ---- HW ---- HW ---- HW ----
 72
    65
 73
     3
 40
22.86
 49
12.7
 74
     0
 49
-5.08
 74
     2
 75
     0
340
4DC
 46
2.54
 50
0.0
 44
-2.54
 45
-1.27
  9
HW
 49
-5.08
 74
     0
  0
LTYPE
  5
4DE
330
43A
100
AcDbSymbolTableRecord
100
AcDbLinetypeTableRecord
  2
PHANTOM
 70
     0
  3
Phantom ______  __  __  ______  __  __  ______ 
 72
    65
 73
     6
 40
63.50000000000001
 49
31.75
 74
     0
 49
-6.35
 74
     0
 49
6.35
 74
     0
 49
-6.35
 74
     0
 49
6.35
 74
     0
 49
-6.35
 74
     0
  0
LTYPE
  5
4DF
330
43A
100
AcDbSymbolTableRecord
100
AcDbLinetypeTableRecord
  2
PHANTOM2
 70
     0
  3
Phantom (.5x) ___ _ _ ___ _ _ ___ _ _ ___ _ _
 72
    65
 73
     6
 40
31.75
 49
15.875
 74
     0
 49
-3.175
 74
     0
 49
3.175
 74
     0
 49
-3.175
 74
     0
 49
3.175
 74
     0
 49
-3.175
 74
     0
  0
LTYPE
  5
4E0
330
43A
100
AcDbSymbolTableRecord
100
AcDbLinetypeTableRecord
  2
PHANTOMX2
 70
     0
  3
Phantom (2x) ____________    ____    ____   _
 72
    65
 73
     6
 40
127.0
 49
63.5
 74
     0
 49
-12.7
 74
     0
 49
12.7
 74
     0
 49
-12.7
 74
     0
 49
12.7
 74
     0
 49
-12.7
 74
     0
  0
LTYPE
  5
4E2
330
43A
100
AcDbSymbolTableRecord
100
AcDbLinetypeTableRecord
  2
TRACKS
 70
     0
  3
Tracks -|-|-|-|-|-|-|-|-|-|-|-|-|-|-|-|-|-|-|-|-|-|-|-|-
 72
    65
 73
     2
 40
7.62
 49
3.81
 74
     2
 75
     0
340
4E1
 46
6.35
 50
0.0
 44
0.0
 45
0.0
  9
TRACK1
 49
3.81
 74
     0
  0
LTYPE
  5
4E5
330
43A
100
AcDbSymbolTableRecord
100
AcDbLinetypeTableRecord
  2
ZIGZAG
 70
     0
  3
Zig zag /\/\/\/\/\/\/\/\/\/\/\/\/\/\/\/\/\/\/\/\/\/\/\/
 72
    65
 73
     4
 40
20.32254
 49
0.00254
 74
     0
 49
-5.08
 74
     2
 75
     0
340
4E3
 46
5.08
 50
0.0
 44
-5.08
 45
0.0
  9
ZIG
 49
-10.16
 74
     2
 75
     0
340
4E4
 46
5.08
 50
180.0
 44
5.08
 45
0.0
  9
ZIG
 49
-5.08
 74
     0
  0
LTYPE
  5
4E6
330
43A
100
AcDbSymbolTableRecord
100
AcDbLinetypeTableRecord
  2
DOTX2
 70
     0
  3
Dot (2x) .  .  .  .  .  .  .  .  .  .  .  .  .  .
 72
    65
 73
     2
 40
12.7
 49
0.0
 74
     0
 49
-12.7
 74
     0
  0
LTYPE
  5
4E8
330
43A
100
AcDbSymbolTableRecord
100
AcDbLinetypeTableRecord
  2
DRAINAGE
 70
     0
  3
Drainage ---->---->---->----
 72
    65
 73
     2
 40
10.16
 49
5.08
 74
     2
 75
     0
340
4E7
 46
2.54
 50
180.0
 44
0.0
 45
0.0
  9
RIGHT_ARROW
 49
5.08
 74
     0
  0
LTYPE
  5
4EA
330
43A
100
AcDbSymbolTableRecord
100
AcDbLinetypeTableRecord
  2
DRAINAGE2
 70
     0
  3
Drainage reversed----<----<----<----
 72
    65
 73
     2
 40
10.16
 49
5.08
 74
     2
 75
     0
340
4E9
 46
2.54
 50
0.0
 44
0.0
 45
0.0
  9
RIGHT_ARROW
 49
5.08
 74
     0
  0
LTYPE
  5
4EC
330
43A
100
AcDbSymbolTableRecord
100
AcDbLinetypeTableRecord
  2
FENCELINE1
 70
     0
  3
Fenceline circle ----0-----0----0-----0----0-----0--
 72
    65
 73
     4
 40
36.83
 49
6.35
 74
     0
 49
-2.54
 74
     2
 75
     0
340
4EB
 46
2.54
 50
0.0
 44
-2.54
 45
0.0
  9
CIRC1
 49
-2.54
 74
     0
 49
25.4
 74
     0
  0
LTYPE
  5
4EE
330
43A
100
AcDbSymbolTableRecord
100
AcDbLinetypeTableRecord
  2
FENCELINE2
 70
     0
  3
Fenceline square ----[]-----[]----[]-----[]----[]---
 72
    65
 73
     4
 40
36.83
 49
6.35
 74
     0
 49
-2.54
 74
     2
 75
     0
340
4ED
 46
2.54
 50
0.0
 44
-2.54
 45
0.0
  9
BOX
 49
-2.54
 74
     0
 49
25.4
 74
     0
  0
LTYPE
  5
4F0
330
43A
100
AcDbSymbolTableRecord
100
AcDbLinetypeTableRecord
  2
GAS_LINE
 70
     0
  3
Gas line ----GAS----GAS----GAS----GAS----GAS----GAS--
 72
    65
 73
     3
 40
24.13
 49
12.7
 74
     0
 49
-5.08
 74
     2
 75
     0
340
4EF
 46
2.54
 50
0.0
 44
-2.54
 45
-1.27
  9
GAS
 49
-6.35
 74
     0
  0
LTYPE
  5
4F1
330
43A
100
AcDbSymbolTableRecord
100
AcDbLinetypeTableRecord
  2
HIDDEN
 70
     0
  3
Hidden __ __ __ __ __ __ __ __ __ __ __ __ __ __
 72
    65
 73
     2
 40
9.524999999999999
 49
6.35
 74
     0
 49
-3.175
 74
     0
  0
LTYPE
  5
4F2
330
43A
100
AcDbSymbolTableRecord
100
AcDbLinetypeTableRecord
  2
HIDDEN2
 70
     0
  3
Hidden (.5x) _ _ _ _ _ _ _ _ _ _ _ _ _ _ _ _ _ 
 72
    65
 73
     2
 40
4.762499999999999
 49
3.175
 74
     0
 49
-1.5875
 74
     0
  0
LTYPE
  5
4F3
330
43A
100
AcDbSymbolTableRecord
100
AcDbLinetypeTableRecord
  2
DASHED
 70
     0
  3
Dashed __ __ __ __ __ __ __ __ __ __ __ __ __ _
 72
    65
 73
     2
 40
19.05
 49
12.7
 74
     0
 49
-6.35
 74
     0
  0
LTYPE
  5
4F4
330
43A
100
AcDbSymbolTableRecord
100
AcDbLinetypeTableRecord
  2
DASHED2
 70
     0
  3
Dashed (.5x) _ _ _ _ _ _ _ _ _ _ _ _ _ _ _ _ _ 
 72
    65
 73
     2
 40
9.524999999999999
 49
6.35
 74
     0
 49
-3.175
 74
     0
  0
LTYPE
  5
4F5
330
43A
100
AcDbSymbolTableRecord
100
AcDbLinetypeTableRecord
  2
DASHEDX2
 70
     0
  3
Dashed (2x) ____  ____  ____  ____  ____  ___
 72
    65
 73
     2
 40
38.09999999999999
 49
25.4
 74
     0
 49
-12.7
 74
     0
  0
LTYPE
  5
4F6
330
43A
100
AcDbSymbolTableRecord
100
AcDbLinetypeTableRecord
  2
DIVIDE
 70
     0
  3
Divide ____ . . ____ . . ____ . . ____ . . ____
 72
    65
 73
     6
 40
31.75
 49
12.7
 74
     0
 49
-6.35
 74
     0
 49
0.0
 74
     0
 49
-6.35
 74
     0
 49
0.0
 74
     0
 49
-6.35
 74
     0
  0
LTYPE
  5
4F7
330
43A
100
AcDbSymbolTableRecord
100
AcDbLinetypeTableRecord
  2
DIVIDE2
 70
     0
  3
Divide (.5x) __..__..__..__..__..__..__..__.._
 72
    65
 73
     6
 40
15.875
 49
6.35
 74
     0
 49
-3.175
 74
     0
 49
0.0
 74
     0
 49
-3.175
 74
     0
 49
0.0
 74
     0
 49
-3.175
 74
     0
  0
LTYPE
  5
4F8
330
43A
100
AcDbSymbolTableRecord
100
AcDbLinetypeTableRecord
  2
DIVIDEX2
 70
     0
  3
Divide (2x) ________  .  .  ________  .  .  _
 72
    65
 73
     6
 40
63.5
 49
25.4
 74
     0
 49
-12.7
 74
     0
 49
0.0
 74
     0
 49
-12.7
 74
     0
 49
0.0
 74
     0
 49
-12.7
 74
     0
  0
LTYPE
  5
4F9
330
43A
100
AcDbSymbolTableRecord
100
AcDbLinetypeTableRecord
  2
DOT
 70
     0
  3
Dot . . . . . . . . . . . . . . . . . . . . . . . .
 72
    65
 73
     2
 40
6.35
 49
0.0
 74
     0
 49
-6.35
 74
     0
  0
LTYPE
  5
4FA
330
43A
100
AcDbSymbolTableRecord
100
AcDbLinetypeTableRecord
  2
DOT2
 70
     0
  3
Dot (.5x) ........................................
 72
    65
 73
     2
 40
3.175
 49
0.0
 74
     0
 49
-3.175
 74
     0
  0
LTYPE
  5
4FB
330
43A
100
AcDbSymbolTableRecord
100
AcDbLinetypeTableRecord
  2
BORDER2
 70
     0
  3
Border (.5x) __.__.__.__.__.__.__.__.__.__.__.
 72
    65
 73
     6
 40
22.225
 49
6.35
 74
     0
 49
-3.175
 74
     0
 49
6.35
 74
     0
 49
-3.175
 74
     0
 49
0.0
 74
     0
 49
-3.175
 74
     0
  0
LTYPE
  5
4FC
330
43A
100
AcDbSymbolTableRecord
100
AcDbLinetypeTableRecord
  2
BORDERX2
 70
     0
  3
Border (2x) ____  ____  .  ____  ____  .  ___
 72
    65
 73
     6
 40
88.89999999999999
 49
25.4
 74
     0
 49
-12.7
 74
     0
 49
25.4
 74
     0
 49
-12.7
 74
     0
 49
0.0
 74
     0
 49
-12.7
 74
     0
  0
LTYPE
  5
4FD
330
43A
100
AcDbSymbolTableRecord
100
AcDbLinetypeTableRecord
  2
CENTER
 70
     0
  3
Center ____ _ ____ _ ____ _ ____ _ ____ _ ____
 72
    65
 73
     4
 40
50.8
 49
31.75
 74
     0
 49
-6.35
 74
     0
 49
6.35
 74
     0
 49
-6.35
 74
     0
  0
LTYPE
  5
4FE
330
43A
100
AcDbSymbolTableRecord
100
AcDbLinetypeTableRecord
  2
CENTER2
 70
     0
  3
Center (.5x) ___ _ ___ _ ___ _ ___ _ ___ _ ___
 72
    65
 73
     4
 40
28.575
 49
19.05
 74
     0
 49
-3.175
 74
     0
 49
3.175
 74
     0
 49
-3.175
 74
     0
  0
LTYPE
  5
4FF
330
43A
100
AcDbSymbolTableRecord
100
AcDbLinetypeTableRecord
  2
CENTERX2
 70
     0
  3
Center (2x) ________  __  ________  __  _____
 72
    65
 73
     4
 40
101.6
 49
63.5
 74
     0
 49
-12.7
 74
     0
 49
12.7
 74
     0
 49
-12.7
 74
     0
  0
LTYPE
  5
500
330
43A
100
AcDbSymbolTableRecord
100
AcDbLinetypeTableRecord
  2
DASHDOT
 70
     0
  3
Dash dot __ . __ . __ . __ . __ . __ . __ . __
 72
    65
 73
     4
 40
25.4
 49
12.7
 74
     0
 49
-6.35
 74
     0
 49
0.0
 74
     0
 49
-6.35
 74
     0
  0
LTYPE
  5
501
330
43A
100
AcDbSymbolTableRecord
100
AcDbLinetypeTableRecord
  2
DASHDOT2
 70
     0
  3
Dash dot (.5x) _._._._._._._._._._._._._._._.
 72
    65
 73
     4
 40
12.7
 49
6.35
 74
     0
 49
-3.175
 74
     0
 49
0.0
 74
     0
 49
-3.175
 74
     0
  0
LTYPE
  5
502
330
43A
100
AcDbSymbolTableRecord
100
AcDbLinetypeTableRecord
  2
DASHDOTX2
 70
     0
  3
Dash dot (2x) ____  .  ____  .  ____  .  ___
 72
    65
 73
     4
 40
50.8
 49
25.4
 74
     0
 49
-12.7
 74
     0
 49
0.0
 74
     0
 49
-12.7
 74
     0
  0
LTYPE
  5
503
330
43A
100
AcDbSymbolTableRecord
100
AcDbLinetypeTableRecord
  2
ACAD_ISO10W100
 70
     0
  3
ISO dash dot __ . __ . __ . __ . __ . __ . __ . 
 72
    65
 73
     4
 40
18.0
 49
12.0
 74
     0
 49
-3.0
 74
     0
 49
0.0
 74
     0
 49
-3.0
 74
     0
  0
LTYPE
  5
504
330
43A
100
AcDbSymbolTableRecord
100
AcDbLinetypeTableRecord
  2
ACAD_ISO11W100
 70
     0
  3
ISO double-dash dot __ __ . __ __ . __ __ . __ _
 72
    65
 73
     6
 40
33.0
 49
12.0
 74
     0
 49
-3.0
 74
     0
 49
12.0
 74
     0
 49
-3.0
 74
     0
 49
0.0
 74
     0
 49
-3.0
 74
     0
  0
LTYPE
  5
505
330
43A
100
AcDbSymbolTableRecord
100
AcDbLinetypeTableRecord
  2
ACAD_ISO12W100
 70
     0
  3
ISO dash double-dot __ . . __ . . __ . . __ . . 
 72
    65
 73
     6
 40
21.0
 49
12.0
 74
     0
 49
-3.0
 74
     0
 49
0.0
 74
     0
 49
-3.0
 74
     0
 49
0.0
 74
     0
 49
-3.0
 74
     0
  0
LTYPE
  5
506
330
43A
100
AcDbSymbolTableRecord
100
AcDbLinetypeTableRecord
  2
ACAD_ISO13W100
 70
     0
  3
ISO double-dash double-dot __ __ . . __ __ . . _
 72
    65
 73
     8
 40
36.0
 49
12.0
 74
     0
 49
-3.0
 74
     0
 49
12.0
 74
     0
 49
-3.0
 74
     0
 49
0.0
 74
     0
 49
-3.0
 74
     0
 49
0.0
 74
     0
 49
-3.0
 74
     0
  0
LTYPE
  5
507
330
43A
100
AcDbSymbolTableRecord
100
AcDbLinetypeTableRecord
  2
ACAD_ISO14W100
 70
     0
  3
ISO dash triple-dot __ . . . __ . . . __ . . . _
 72
    65
 73
     8
 40
24.0
 49
12.0
 74
     0
 49
-3.0
 74
     0
 49
0.0
 74
     0
 49
-3.0
 74
     0
 49
0.0
 74
     0
 49
-3.0
 74
     0
 49
0.0
 74
     0
 49
-3.0
 74
     0
  0
LTYPE
  5
508
330
43A
100
AcDbSymbolTableRecord
100
AcDbLinetypeTableRecord
  2
ACAD_ISO15W100
 70
     0
  3
ISO double-dash triple-dot __ __ . . . __ __ . .
 72
    65
 73
    10
 40
39.0
 49
12.0
 74
     0
 49
-3.0
 74
     0
 49
12.0
 74
     0
 49
-3.0
 74
     0
 49
0.0
 74
     0
 49
-3.0
 74
     0
 49
0.0
 74
     0
 49
-3.0
 74
     0
 49
0.0
 74
     0
 49
-3.0
 74
     0
  0
LTYPE
  5
50B
330
43A
100
AcDbSymbolTableRecord
100
AcDbLinetypeTableRecord
  2
BATTING
 70
     0
  3
Batting SSSSSSSSSSSSSSSSSSSSSSSSSSSSSSSSSSSSSSSSSSSSSSS
 72
    65
 73
     4
 40
10.16254
 49
0.00254
 74
     0
 49
-2.54
 74
     2
 75
     0
340
509
 46
2.54
 50
0.0
 44
-2.54
 45
0.0
  9
BAT
 49
-5.08
 74
     2
 75
     0
340
50A
 46
2.54
 50
180.0
 44
2.54
 45
0.0
  9
BAT
 49
-2.54
 74
     0
  0
LTYPE
  5
50C
330
43A
100
AcDbSymbolTableRecord
100
AcDbLinetypeTableRecord
  2
BORDER
 70
     0
  3
Border __ __ . __ __ . __ __ . __ __ . __ __ .
 72
    65
 73
     6
 40
44.45
 49
12.7
 74
     0
 49
-6.35
 74
     0
 49
12.7
 74
     0
 49
-6.35
 74
     0
 49
0.0
 74
     0
 49
-6.35
 74
     0
  0
LTYPE
  5
50D
330
43A
100
AcDbSymbolTableRecord
100
AcDbLinetypeTableRecord
  2
ACAD_ISO02W100
 70
     0
  3
ISO dash __ __ __ __ __ __ __ __ __ __ __ __ __
 72
    65
 73
     2
 40
15.0
 49
12.0
 74
     0
 49
-3.0
 74
     0
  0
LTYPE
  5
50E
330
43A
100
AcDbSymbolTableRecord
100
AcDbLinetypeTableRecord
  2
ACAD_ISO03W100
 70
     0
  3
ISO dash space __    __    __    __    __    __
 72
    65
 73
     2
 40
30.0
 49
12.0
 74
     0
 49
-18.0
 74
     0
  0
LTYPE
  5
50F
330
43A
100
AcDbSymbolTableRecord
100
AcDbLinetypeTableRecord
  2
ACAD_ISO04W100
 70
     0
  3
ISO long-dash dot ____ . ____ . ____ . ____ . _
 72
    65
 73
     4
 40
30.0
 49
24.0
 74
     0
 49
-3.0
 74
     0
 49
0.0
 74
     0
 49
-3.0
 74
     0
  0
LTYPE
  5
510
330
43A
100
AcDbSymbolTableRecord
100
AcDbLinetypeTableRecord
  2
ACAD_ISO05W100
 70
     0
  3
ISO long-dash double-dot ____ .. ____ .. ____ . 
 72
    65
 73
     6
 40
33.0
 49
24.0
 74
     0
 49
-3.0
 74
     0
 49
0.0
 74
     0
 49
-3.0
 74
     0
 49
0.0
 74
     0
 49
-3.0
 74
     0
  0
LTYPE
  5
511
330
43A
100
AcDbSymbolTableRecord
100
AcDbLinetypeTableRecord
  2
ACAD_ISO06W100
 70
     0
  3
ISO long-dash triple-dot ____ ... ____ ... ____
 72
    65
 73
     8
 40
36.0
 49
24.0
 74
     0
 49
-3.0
 74
     0
 49
0.0
 74
     0
 49
-3.0
 74
     0
 49
0.0
 74
     0
 49
-3.0
 74
     0
 49
0.0
 74
     0
 49
-3.0
 74
     0
  0
LTYPE
  5
512
330
43A
100
AcDbSymbolTableRecord
100
AcDbLinetypeTableRecord
  2
ACAD_ISO07W100
 70
     0
  3
ISO dot . . . . . . . . . . . . . . . . . . . . 
 72
    65
 73
     2
 40
3.0
 49
0.0
 74
     0
 49
-3.0
 74
     0
  0
LTYPE
  5
513
330
43A
100
AcDbSymbolTableRecord
100
AcDbLinetypeTableRecord
  2
ACAD_ISO08W100
 70
     0
  3
ISO long-dash short-dash ____ __ ____ __ ____ _
 72
    65
 73
     4
 40
36.0
 49
24.0
 74
     0
 49
-3.0
 74
     0
 49
6.0
 74
     0
 49
-3.0
 74
     0
  0
LTYPE
  5
514
330
43A
100
AcDbSymbolTableRecord
100
AcDbLinetypeTableRecord
  2
ACAD_ISO09W100
 70
     0
  3
ISO long-dash double-short-dash ____ __ __ ____
 72
    65
 73
     6
 40
45.0
 49
24.0
 74
     0
 49
-3.0
 74
     0
 49
6.0
 74
     0
 49
-3.0
 74
     0
 49
6.0
 74
     0
 49
-3.0
 74
     0
  0
ENDTAB
  0
TABLE
  2
LAYER
  5
438
330
0
100
AcDbSymbolTable
 70
    43
  0
LAYER
  5
445
330
438
100
AcDbSymbolTableRecord
100
AcDbLayerTableRecord
  2
0
 70
     0
 62
     7
  6
Continuous
370
    25
390
444
347
47A
348
0
  0
LAYER
  5
515
330
438
100
AcDbSymbolTableRecord
100
AcDbLayerTableRecord
  2
layer 1
 70
     0
 62
   178
420
        0
  6
Continuous
370
    25
390
444
347
47A
348
0
  0
LAYER
  5
516
330
438
100
AcDbSymbolTableRecord
100
AcDbLayerTableRecord
  2
layer 2
 70
     0
 62
   178
420
        0
  6
Continuous
370
    25
390
444
347
47A
348
0
  0
LAYER
  5
517
330
438
100
AcDbSymbolTableRecord
100
AcDbLayerTableRecord
  2
layer 3
 70
     0
 62
   178
420
        0
  6
Continuous
370
    25
390
444
347
47A
348
0
  0
LAYER
  5
518
330
438
100
AcDbSymbolTableRecord
100
AcDbLayerTableRecord
  2
layer 4
 70
     0
 62
   178
420
        0
  6
Continuous
370
    25
390
444
347
47A
348
0
  0
LAYER
  5
519
330
438
100
AcDbSymbolTableRecord
100
AcDbLayerTableRecord
  2
layer 5
 70
     0
 62
   178
420
        0
  6
Continuous
370
    25
390
444
347
47A
348
0
  0
LAYER
  5
51A
330
438
100
AcDbSymbolTableRecord
100
AcDbLayerTableRecord
  2
layer 6
 70
     0
 62
   178
420
        0
  6
Continuous
370
    25
390
444
347
47A
348
0
  0
LAYER
  5
51B
330
438
100
AcDbSymbolTableRecord
100
AcDbLayerTableRecord
  2
layer 7
 70
     0
 62
   178
420
        0
  6
Continuous
370
    25
390
444
347
47A
348
0
  0
LAYER
  5
51C
330
438
100
AcDbSymbolTableRecord
100
AcDbLayerTableRecord
  2
layer 8
 70
     0
 62
   178
420
        0
  6
Continuous
370
    25
390
444
347
47A
348
0
  0
LAYER
  5
51D
330
438
100
AcDbSymbolTableRecord
100
AcDbLayerTableRecord
  2
layer 9
 70
     0
 62
   178
420
        0
  6
Continuous
370
    25
390
444
347
47A
348
0
  0
LAYER
  5
51E
330
438
100
AcDbSymbolTableRecord
100
AcDbLayerTableRecord
  2
layer 10
 70
     0
 62
   178
420
        0
  6
Continuous
370
    25
390
444
347
47A
348
0
  0
LAYER
  5
51F
330
438
100
AcDbSymbolTableRecord
100
AcDbLayerTableRecord
  2
layer 11
 70
     0
 62
   178
420
        0
  6
Continuous
370
    25
390
444
347
47A
348
0
  0
LAYER
  5
520
330
438
100
AcDbSymbolTableRecord
100
AcDbLayerTableRecord
  2
layer 12
 70
     0
 62
   178
420
        0
  6
Continuous
370
    25
390
444
347
47A
348
0
  0
LAYER
  5
521
330
438
100
AcDbSymbolTableRecord
100
AcDbLayerTableRecord
  2
layer 13
 70
     0
 62
   178
420
        0
  6
Continuous
370
    25
390
444
347
47A
348
0
  0
LAYER
  5
522
330
438
100
AcDbSymbolTableRecord
100
AcDbLayerTableRecord
  2
layer 14
 70
     0
 62
   178
420
        0
  6
Continuous
370
    25
390
444
347
47A
348
0
  0
LAYER
  5
523
330
438
100
AcDbSymbolTableRecord
100
AcDbLayerTableRecord
  2
layer 15
 70
     0
 62
   178
420
        0
  6
Continuous
370
    25
390
444
347
47A
348
0
  0
LAYER
  5
524
330
438
100
AcDbSymbolTableRecord
100
AcDbLayerTableRecord
  2
layer 16
 70
     0
 62
   178
420
        0
  6
Continuous
370
    25
390
444
347
47A
348
0
  0
LAYER
  5
525
330
438
100
AcDbSymbolTableRecord
100
AcDbLayerTableRecord
  2
layer 17
 70
     0
 62
   178
420
        0
  6
Continuous
370
    25
390
444
347
47A
348
0
  0
LAYER
  5
526
330
438
100
AcDbSymbolTableRecord
100
AcDbLayerTableRecord
  2
layer 18
 70
     0
 62
   178
420
        0
  6
Continuous
370
    25
390
444
347
47A
348
0
  0
LAYER
  5
527
330
438
100
AcDbSymbolTableRecord
100
AcDbLayerTableRecord
  2
layer 19
 70
     0
 62
   178
420
        0
  6
Continuous
370
    25
390
444
347
47A
348
0
  0
LAYER
  5
528
330
438
100
AcDbSymbolTableRecord
100
AcDbLayerTableRecord
  2
layer 20
 70
     0
 62
   178
420
        0
  6
Continuous
370
    25
390
444
347
47A
348
0
  0
LAYER
  5
529
330
438
100
AcDbSymbolTableRecord
100
AcDbLayerTableRecord
  2
layer 21
 70
     0
 62
   178
420
        0
  6
Continuous
370
    25
390
444
347
47A
348
0
  0
LAYER
  5
52A
330
438
100
AcDbSymbolTableRecord
100
AcDbLayerTableRecord
  2
layer 22
 70
     0
 62
   178
420
        0
  6
Continuous
370
    25
390
444
347
47A
348
0
  0
LAYER
  5
52B
330
438
100
AcDbSymbolTableRecord
100
AcDbLayerTableRecord
  2
layer 23
 70
     0
 62
   178
420
        0
  6
Continuous
370
    25
390
444
347
47A
348
0
  0
LAYER
  5
52C
330
438
100
AcDbSymbolTableRecord
100
AcDbLayerTableRecord
  2
layer 24
 70
     0
 62
   178
420
        0
  6
Continuous
370
    25
390
444
347
47A
348
0
  0
LAYER
  5
52D
330
438
100
AcDbSymbolTableRecord
100
AcDbLayerTableRecord
  2
layer 25
 70
     0
 62
   178
420
        0
  6
Continuous
370
    25
390
444
347
47A
348
0
  0
LAYER
  5
52E
330
438
100
AcDbSymbolTableRecord
100
AcDbLayerTableRecord
  2
layer 26
 70
     0
 62
   178
420
        0
  6
Continuous
370
    25
390
444
347
47A
348
0
  0
LAYER
  5
52F
330
438
100
AcDbSymbolTableRecord
100
AcDbLayerTableRecord
  2
layer 27
 70
     0
 62
   178
420
        0
  6
Continuous
370
    25
390
444
347
47A
348
0
  0
LAYER
  5
530
330
438
100
AcDbSymbolTableRecord
100
AcDbLayerTableRecord
  2
layer 28
 70
     0
 62
   178
420
        0
  6
Continuous
370
    25
390
444
347
47A
348
0
  0
LAYER
  5
531
330
438
100
AcDbSymbolTableRecord
100
AcDbLayerTableRecord
  2
layer 29
 70
     0
 62
   178
420
        0
  6
Continuous
370
    25
390
444
347
47A
348
0
  0
LAYER
  5
532
330
438
100
AcDbSymbolTableRecord
100
AcDbLayerTableRecord
  2
layer 30
 70
     0
 62
   178
420
        0
  6
Continuous
370
    25
390
444
347
47A
348
0
  0
LAYER
  5
533
330
438
100
AcDbSymbolTableRecord
100
AcDbLayerTableRecord
  2
layer 31
 70
     0
 62
   178
420
        0
  6
Continuous
370
    25
390
444
347
47A
348
0
  0
LAYER
  5
534
330
438
100
AcDbSymbolTableRecord
100
AcDbLayerTableRecord
  2
layer 32
 70
     0
 62
   178
420
        0
  6
Continuous
370
    25
390
444
347
47A
348
0
  0
LAYER
  5
535
330
438
100
AcDbSymbolTableRecord
100
AcDbLayerTableRecord
  2
layer 33
 70
     0
 62
   178
420
        0
  6
Continuous
370
    25
390
444
347
47A
348
0
  0
LAYER
  5
536
330
438
100
AcDbSymbolTableRecord
100
AcDbLayerTableRecord
  2
layer 34
 70
     0
 62
   178
420
        0
  6
Continuous
370
    25
390
444
347
47A
348
0
  0
LAYER
  5
537
330
438
100
AcDbSymbolTableRecord
100
AcDbLayerTableRecord
  2
layer 35
 70
     0
 62
   178
420
        0
  6
Continuous
370
    25
390
444
347
47A
348
0
  0
LAYER
  5
538
330
438
100
AcDbSymbolTableRecord
100
AcDbLayerTableRecord
  2
layer 36
 70
     0
 62
   178
420
        0
  6
Continuous
370
    25
390
444
347
47A
348
0
  0
LAYER
  5
539
330
438
100
AcDbSymbolTableRecord
100
AcDbLayerTableRecord
  2
layer 37
 70
     0
 62
   178
420
        0
  6
Continuous
370
    25
390
444
347
47A
348
0
  0
LAYER
  5
53A
330
438
100
AcDbSymbolTableRecord
100
AcDbLayerTableRecord
  2
layer 38
 70
     0
 62
   178
420
        0
  6
Continuous
370
    25
390
444
347
47A
348
0
  0
LAYER
  5
53B
330
438
100
AcDbSymbolTableRecord
100
AcDbLayerTableRecord
  2
layer 39
 70
     0
 62
   178
420
        0
  6
Continuous
370
    25
390
444
347
47A
348
0
  0
LAYER
  5
53C
330
438
100
AcDbSymbolTableRecord
100
AcDbLayerTableRecord
  2
layer 40
 70
     0
 62
   178
420
        0
  6
Continuous
370
    25
390
444
347
47A
348
0
  0
LAYER
  5
53D
330
438
100
AcDbSymbolTableRecord
100
AcDbLayerTableRecord
  2
layer 41
 70
     0
 62
   178
420
        0
  6
Continuous
370
    25
390
444
347
47A
348
0
  0
LAYER
  5
53E
330
438
100
AcDbSymbolTableRecord
100
AcDbLayerTableRecord
  2
layer 42
 70
     0
 62
   178
420
        0
  6
Continuous
370
    25
390
444
347
47A
348
0
  0
ENDTAB
  0
TABLE
  2
STYLE
  5
439
330
0
100
AcDbSymbolTable
 70
    12
  0
STYLE
  5
446
330
439
100
AcDbSymbolTableRecord
100
AcDbTextStyleTableRecord
  2
Standard
 70
     0
 40
0.0
 41
1.0
 50
0.0
 71
     0
 42
0.2
  3
txt
  4

  0
STYLE
  5
4DC
330
439
100
AcDbSymbolTableRecord
100
AcDbTextStyleTableRecord
  2
textstyle0
 70
     0
 40
0.0
 41
1.0
 50
0.0
 71
     0
 42
0.2
  3
STANDARD
  4

  0
STYLE
  5
4E1
330
439
100
AcDbSymbolTableRecord
100
AcDbTextStyleTableRecord
  2
textstyle1
 70
     0
 40
0.0
 41
1.0
 50
0.0
 71
     0
 42
0.2
  3
ltypeshp.shx
  4

  0
STYLE
  5
4E3
330
439
100
AcDbSymbolTableRecord
100
AcDbTextStyleTableRecord
  2
textstyle2
 70
     0
 40
0.0
 41
1.0
 50
0.0
 71
     0
 42
0.2
  3
ltypeshp.shx
  4

  0
STYLE
  5
4E4
330
439
100
AcDbSymbolTableRecord
100
AcDbTextStyleTableRecord
  2
textstyle3
 70
     0
 40
0.0
 41
1.0
 50
0.0
 71
     0
 42
0.2
  3
ltypeshp.shx
  4

  0
STYLE
  5
4E7
330
439
100
AcDbSymbolTableRecord
100
AcDbTextStyleTableRecord
  2
textstyle4
 70
     0
 40
0.0
 41
1.0
 50
0.0
 71
     0
 42
0.2
  3
qcadshp.shx
  4

  0
STYLE
  5
4E9
330
439
100
AcDbSymbolTableRecord
100
AcDbTextStyleTableRecord
  2
textstyle5
 70
     0
 40
0.0
 41
1.0
 50
0.0
 71
     0
 42
0.2
  3
qcadshp.shx
  4

  0
STYLE
  5
4EB
330
439
100
AcDbSymbolTableRecord
100
AcDbTextStyleTableRecord
  2
textstyle6
 70
     0
 40
0.0
 41
1.0
 50
0.0
 71
     0
 42
0.2
  3
ltypeshp.shx
  4

  0
STYLE
  5
4ED
330
439
100
AcDbSymbolTableRecord
100
AcDbTextStyleTableRecord
  2
textstyle7
 70
     0
 40
0.0
 41
1.0
 50
0.0
 71
     0
 42
0.2
  3
ltypeshp.shx
  4

  0
STYLE
  5
4EF
330
439
100
AcDbSymbolTableRecord
100
AcDbTextStyleTableRecord
  2
textstyle8
 70
     0
 40
0.0
 41
1.0
 50
0.0
 71
     0
 42
0.2
  3
STANDARD
  4

  0
STYLE
  5
509
330
439
100
AcDbSymbolTableRecord
100
AcDbTextStyleTableRecord
  2
textstyle9
 70
     0
 40
0.0
 41
1.0
 50
0.0
 71
     0
 42
0.2
  3
ltypeshp.shx
  4

  0
STYLE
  5
50A
330
439
100
AcDbSymbolTableRecord
100
AcDbTextStyleTableRecord
  2
textstyle10
 70
     0
 40
0.0
 41
1.0
 50
0.0
 71
     0
 42
0.2
  3
ltypeshp.shx
  4

  0
ENDTAB
  0
TABLE
  2
VIEW
  5
43B
330
0
100
AcDbSymbolTable
 70
     0
  0
ENDTAB
  0
TABLE
  2
UCS
  5
43C
330
0
100
AcDbSymbolTable
 70
     0
  0
ENDTAB
  0
TABLE
  2
APPID
  5
43E
330
0
100
AcDbSymbolTable
 70
     2
  0
APPID
  5
447
330
43E
100
AcDbSymbolTableRecord
100
AcDbRegAppTableRecord
  2
ACAD
 70
     0
  0
APPID
  5
4A2
330
43E
100
AcDbSymbolTableRecord
100
AcDbRegAppTableRecord
  2
QCAD
 70
     0
  0
ENDTAB
  0
TABLE
  2
DIMSTYLE
  5
43F
330
0
100
AcDbSymbolTable
 70
     2
100
AcDbDimStyleTable
  0
DIMSTYLE
105
45B
330
43F
100
AcDbSymbolTableRecord
100
AcDbDimStyleTableRecord
  2
Standard
 70
     0
178
     0
340
446
  0
DIMSTYLE
105
4DA
330
43F
100
AcDbSymbolTableRecord
100
AcDbDimStyleTableRecord
  2
QCADDimStyle
 70
     0
 41
2.5
 42
0.625
 43
5.0
 44
1.25
 73
     0
 77
     1
 78
     8
 79
     2
140
2.5
147
0.625
178
     0
271
     8
279
     2
340
446
  0
ENDTAB
  0
TABLE
  2
BLOCK_RECORD
  5
437
330
0
100
AcDbSymbolTable
 70
     0
  0
BLOCK_RECORD
  5
453
330
437
100
AcDbSymbolTableRecord
100
AcDbBlockTableRecord
  2
*Model_Space
340
456
 70
     0
280
     1
281
     0
  0
BLOCK_RECORD
  5
44F
330
437
100
AcDbSymbolTableRecord
100
AcDbBlockTableRecord
  2
*Paper_Space
340
452
 70
     0
280
     1
281
     0
  0
ENDTAB
  0
ENDSEC
  0
SECTION
  2
BLOCKS
  0
BLOCK
  5
454
330
453
100
AcDbEntity
  8
0
100
AcDbBlockBegin
  2
*Model_Space
 70
     0
 10
0.0
 20
0.0
 30
0.0
  3
*Model_Space
  1

  0
ENDBLK
  5
455
330
453
100
AcDbEntity
  8
0
100
AcDbBlockEnd
  0
BLOCK
  5
450
330
44F
100
AcDbEntity
 67
     1
  8
0
100
AcDbBlockBegin
  2
*Paper_Space
 70
     0
 10
0.0
 20
0.0
 30
0.0
  3
*Paper_Space
  1

  0
ENDBLK
  5
451
330
44F
100
AcDbEntity
 67
     1
  8
0
100
AcDbBlockEnd
  0
ENDSEC
  0
SECTION
  2
ENTITIES
  0
LWPOLYLINE
  5
118
330
453
100
AcDbEntity
  8
layer 1
 62
     2
420
 16776960
370
    13
100
AcDbPolyline
 90
        5
 70
     0
 43
0.0
 10
10.0
 20
50.0
 10
20.0
 20
50.0
 10
20.0
 20
60.0
 10
10.0
 20
60.0
 10
10.0
 20
50.0
  0
LWPOLYLINE
  5
11A
330
453
100
AcDbEntity
  8
layer 1
 62
     3
420
    65280
370
    13
100
AcDbPolyline
 90
        5
 70
     0
 43
0.0
 10
21.0
 20
50.0
 10
31.0
 20
50.0
 10
31.0
 20
60.0
 10
21.0
 20
60.0
 10
21.0
 20
50.0
  0
LWPOLYLINE
  5
11B
330
453
100
AcDbEntity
  8
layer 4
 62
     2
420
 16776960
370
    13
100
AcDbPolyline
 90
        5
 70
     0
 43
0.0
 10
90.0
 20
50.0
 10
100.0
 20
50.0
 10
100.0
 20
60.0
 10
90.0
 20
60.0
 10
90.0
 20
50.0
  0
LWPOLYLINE
  5
11C
330
453
100
AcDbEntity
  8
layer 4
 62
     3
420
    65280
370
    13
100
AcDbPolyline
 90
        5
 70
     0
 43
0.0
 10
92.0
 20
52.0
 10
98.0
 20
52.0
 10
98.0
 20
58.0
 10
92.0
 20
58.0
 10
92.0
 20
52.0
  0
LWPOLYLINE
  5
11D
330
453
100
AcDbEntity
  8
layer 5
 62
     2
420
 16776960
370
    13
100
AcDbPolyline
 90
        5
 70
     0
 43
0.0
 10
10.0
 20
30.0
 10
20.0
 20
30.0
 10
20.0
 20
40.0
 10
10.0
 20
40.0
 10
10.0
 20
30.0
  0
LWPOLYLINE
  5
11E
330
453
100
AcDbEntity
  8
layer 5
 62
     3
420
    65280
370
    13
100
AcDbPolyline
 90
        5
 70
     0
 43
0.0
 10
18.0
 20
30.0
 10
28.0
 20
30.0
 10
28.0
 20
40.0
 10
18.0
 20
40.0
 10
18.0
 20
30.0
  0
LWPOLYLINE
  5
123
330
453
100
AcDbEntity
  8
layer 6
 62
     2
420
 16776960
370
    13
100
AcDbPolyline
 90
        5
 70
     0
 43
0.0
 10
40.0
 20
30.0
 10
50.0
 20
30.0
 10
50.0
 20
40.0
 10
40.0
 20
40.0
 10
40.0
 20
30.0
  0
LWPOLYLINE
  5
124
330
453
100
AcDbEntity
  8
layer 6
 62
     3
420
    65280
370
    13
100
AcDbPolyline
 90
        5
 70
     0
 43
0.0
 10
48.0
 20
28.0
 10
58.0
 20
28.0
 10
58.0
 20
38.0
 10
48.0
 20
38.0
 10
48.0
 20
28.0
  0
LWPOLYLINE
  5
126
330
453
100
AcDbEntity
  8
layer 3
 62
     2
420
 16776960
370
    13
100
AcDbPolyline
 90
        5
 70
     0
 43
0.0
 10
70.0
 20
50.0
 10
80.0
 20
50.0
 10
80.0
 20
60.0
 10
70.0
 20
60.0
 10
70.0
 20
50.0
  0
LWPOLYLINE
  5
127
330
453
100
AcDbEntity
  8
layer 3
 62
     3
420
    65280
370
    13
100
AcDbPolyline
 90
        5
 70
     0
 43
0.0
 10
70.0
 20
50.0
 10
80.0
 20
50.0
 10
80.0
 20
60.0
 10
70.0
 20
60.0
 10
70.0
 20
50.0
  0
LWPOLYLINE
  5
12C
330
453
100
AcDbEntity
  8
layer 2
 62
     2
420
 16776960
370
    13
100
AcDbPolyline
 90
        5
 70
     0
 43
0.0
 10
40.0
 20
50.0
 10
50.0
 20
50.0
 10
50.0
 20
60.0
 10
40.0
 20
60.0
 10
40.0
 20
50.0
  0
LWPOLYLINE
  5
12D
330
453
100
AcDbEntity
  8
layer 2
 62
     3
420
    65280
370
    13
100
AcDbPolyline
 90
        5
 70
     0
 43
0.0
 10
50.0
 20
50.0
 10
60.0
 20
50.0
 10
60.0
 20
60.0
 10
50.0
 20
60.0
 10
50.0
 20
50.0
  0
LWPOLYLINE
  5
12F
330
453
100
AcDbEntity
  8
layer 7
 62
     2
420
 16776960
370
    13
100
AcDbPolyline
 90
        5
 70
     0
 43
0.0
 10
70.0
 20
30.0
 10
80.0
 20
30.0
 10
80.0
 20
40.0
 10
70.0
 20
40.0
 10
70.0
 20
30.0
  0
LWPOLYLINE
  5
137
330
453
100
AcDbEntity
  8
layer 9
 62
     2
420
 16776960
370
    13
100
AcDbPolyline
 90
        5
 70
     0
 43
0.0
 10
40.0
 20
10.0
 10
50.0
 20
10.0
 42
-0.3126502156338703
 10
50.0
 20
20.0
 10
40.0
 20
20.0
 10
40.0
 20
10.0
  0
LWPOLYLINE
  5
138
330
453
100
AcDbEntity
  8
layer 9
 62
     3
420
    65280
370
    13
100
AcDbPolyline
 90
        5
 70
     0
 43
0.0
 10
50.0
 20
10.0
 10
60.0
 20
10.0
 10
60.0
 20
20.0
 10
50.0
 20
20.0
 42
0.3126502156338701
 10
50.0
 20
10.0
  0
LWPOLYLINE
  5
139
330
453
100
AcDbEntity
  8
layer 10
 62
     3
420
    65280
370
    13
100
AcDbPolyline
 90
        5
 70
     0
 43
0.0
 10
70.0
 20
10.0
 10
80.0
 20
10.0
 10
80.0
 20
20.0
 10
70.0
 20
20.0
 42
0.3126502156338701
 10
70.0
 20
10.0
  0
LWPOLYLINE
  5
13A
330
453
100
AcDbEntity
  8
layer 10
 62
     2
420
 16776960
370
    13
100
AcDbPolyline
 90
        5
 70
     0
 43
0.0
 10
70.0
 20
10.0
 10
80.0
 20
10.0
 10
80.0
 20
20.0
 10
70.0
 20
20.0
 42
0.3126502156338701
 10
70.0
 20
10.0
  0
LWPOLYLINE
  5
13C
330
453
100
AcDbEntity
  8
layer 11
 62
     3
420
    65280
370
    13
100
AcDbPolyline
 90
        5
 70
     0
 43
0.0
 10
91.0
 20
12.0
 10
98.0
 20
12.0
 10
98.0
 20
18.0
 10
91.0
 20
18.0
 42
0.3126502156338701
 10
91.0
 20
12.0
  0
LWPOLYLINE
  5
13D
330
453
100
AcDbEntity
  8
layer 11
 62
     2
420
 16776960
370
    13
100
AcDbPolyline
 90
        5
 70
     0
 43
0.0
 10
90.0
 20
10.0
 10
100.0
 20
10.0
 10
100.0
 20
20.0
 10
90.0
 20
20.0
 42
0.3126502156338701
 10
90.0
 20
10.0
  0
LWPOLYLINE
  5
141
330
453
100
AcDbEntity
  8
layer 8
 62
     2
420
 16776960
370
    13
100
AcDbPolyline
 90
        5
 70
     0
 43
0.0
 10
10.0
 20
10.0
 10
20.0
 20
10.0
 42
-0.3126502156338703
 10
20.0
 20
20.0
 10
10.0
 20
20.0
 10
10.0
 20
10.0
  0
LWPOLYLINE
  5
142
330
453
100
AcDbEntity
  8
layer 8
 62
     3
420
    65280
370
    13
100
AcDbPolyline
 90
        5
 70
     0
 43
0.0
 10
21.0
 20
10.0
 10
31.0
 20
10.0
 10
31.0
 20
20.0
 10
21.0
 20
20.0
 42
0.3126502156338701
 10
21.0
 20
10.0
  0
LWPOLYLINE
  5
148
330
453
100
AcDbEntity
  8
layer 13
 62
     2
420
 16776960
370
    13
100
AcDbPolyline
 90
        5
 70
     0
 43
0.0
 10
40.0
 20
-10.0
 10
50.0
 20
-10.0
 42
-0.3126502156338703
 10
50.0
 20
0.0
 10
40.0
 20
0.0
 10
40.0
 20
-10.0
  0
LWPOLYLINE
  5
149
330
453
100
AcDbEntity
  8
layer 13
 62
     3
420
    65280
370
    13
100
AcDbPolyline
 90
        5
 70
     0
 43
0.0
 10
48.0
 20
-12.0
 10
58.0
 20
-12.0
 10
58.0
 20
-2.0
 10
48.0
 20
-2.0
 42
0.3126502156338701
 10
48.0
 20
-12.0
  0
LWPOLYLINE
  5
14C
330
453
100
AcDbEntity
  8
layer 14
 62
     2
420
 16776960
370
    13
100
AcDbPolyline
 90
        5
 70
     0
 43
0.0
 10
70.0
 20
-10.0
 10
80.0
 20
-10.0
 42
-0.3126502156338703
 10
80.0
 20
0.0
 10
70.0
 20
0.0
 10
70.0
 20
-10.0
  0
LWPOLYLINE
  5
152
330
453
100
AcDbEntity
  8
layer 15
 62
     2
420
 16776960
370
    13
100
AcDbPolyline
 90
        5
 70
     0
 43
0.0
 10
10.0
 20
-30.0
 10
20.0
 20
-30.0
 10
20.0
 20
-20.0
 10
10.0
 20
-20.0
 10
10.0
 20
-30.0
  0
LWPOLYLINE
  5
2B1
330
453
100
AcDbEntity
  8
layer 29
 62
     2
420
 16776960
370
    13
100
AcDbPolyline
 90
        5
 70
     0
 43
0.0
 10
10.0
 20
-110.0
 10
20.0
 20
-110.0
 10
20.0
 20
-100.0
 10
10.0
 20
-100.0
 10
10.0
 20
-110.0
  0
LWPOLYLINE
  5
153
330
453
100
AcDbEntity
  8
layer 15
 62
     3
420
    65280
370
    13
100
AcDbPolyline
 90
        5
 70
     0
 43
0.0
 10
21.0
 20
-30.0
 10
31.0
 20
-30.0
 10
31.0
 20
-20.0
 10
21.0
 20
-20.0
 10
21.0
 20
-30.0
  0
LWPOLYLINE
  5
2B2
330
453
100
AcDbEntity
  8
layer 29
 62
     3
420
    65280
370
    13
100
AcDbPolyline
 90
        5
 70
     0
 43
0.0
 10
21.0
 20
-110.0
 10
31.0
 20
-110.0
 10
31.0
 20
-100.0
 10
21.0
 20
-100.0
 10
21.0
 20
-110.0
  0
LWPOLYLINE
  5
154
330
453
100
AcDbEntity
  8
layer 18
 62
     2
420
 16776960
370
    13
100
AcDbPolyline
 90
        5
 70
     0
 43
0.0
 10
90.0
 20
-30.0
 10
100.0
 20
-30.0
 10
100.0
 20
-20.0
 10
90.0
 20
-20.0
 10
90.0
 20
-30.0
  0
LWPOLYLINE
  5
2B3
330
453
100
AcDbEntity
  8
layer 32
 62
     2
420
 16776960
370
    13
100
AcDbPolyline
 90
        5
 70
     0
 43
0.0
 10
90.0
 20
-110.0
 10
100.0
 20
-110.0
 10
100.0
 20
-100.0
 10
90.0
 20
-100.0
 10
90.0
 20
-110.0
  0
LWPOLYLINE
  5
155
330
453
100
AcDbEntity
  8
layer 18
 62
     3
420
    65280
370
    13
100
AcDbPolyline
 90
        5
 70
     0
 43
0.0
 10
92.0
 20
-28.0
 10
98.0
 20
-28.0
 10
98.0
 20
-22.0
 10
92.0
 20
-22.0
 10
92.0
 20
-28.0
  0
LWPOLYLINE
  5
2B4
330
453
100
AcDbEntity
  8
layer 32
 62
     3
420
    65280
370
    13
100
AcDbPolyline
 90
        5
 70
     0
 43
0.0
 10
92.0
 20
-108.0
 10
98.0
 20
-108.0
 10
98.0
 20
-102.0
 10
92.0
 20
-102.0
 10
92.0
 20
-108.0
  0
LWPOLYLINE
  5
156
330
453
100
AcDbEntity
  8
layer 19
 62
     2
420
 16776960
370
    13
100
AcDbPolyline
 90
        5
 70
     0
 43
0.0
 10
10.0
 20
-50.0
 10
20.0
 20
-50.0
 10
20.0
 20
-40.0
 10
10.0
 20
-40.0
 10
10.0
 20
-50.0
  0
LWPOLYLINE
  5
2B5
330
453
100
AcDbEntity
  8
layer 33
 62
     2
420
 16776960
370
    13
100
AcDbPolyline
 90
        5
 70
     0
 43
0.0
 10
10.0
 20
-130.0
 10
20.0
 20
-130.0
 10
20.0
 20
-120.0
 10
10.0
 20
-120.0
 10
10.0
 20
-130.0
  0
LWPOLYLINE
  5
157
330
453
100
AcDbEntity
  8
layer 19
 62
     3
420
    65280
370
    13
100
AcDbPolyline
 90
        5
 70
     0
 43
0.0
 10
18.0
 20
-50.0
 10
28.0
 20
-50.0
 10
28.0
 20
-40.0
 10
18.0
 20
-40.0
 10
18.0
 20
-50.0
  0
LWPOLYLINE
  5
2B6
330
453
100
AcDbEntity
  8
layer 33
 62
     3
420
    65280
370
    13
100
AcDbPolyline
 90
        5
 70
     0
 43
0.0
 10
18.0
 20
-130.0
 10
28.0
 20
-130.0
 10
28.0
 20
-120.0
 10
18.0
 20
-120.0
 10
18.0
 20
-130.0
  0
LWPOLYLINE
  5
158
330
453
100
AcDbEntity
  8
layer 20
 62
     2
420
 16776960
370
    13
100
AcDbPolyline
 90
        5
 70
     0
 43
0.0
 10
40.0
 20
-50.0
 10
50.0
 20
-50.0
 10
50.0
 20
-40.0
 10
40.0
 20
-40.0
 10
40.0
 20
-50.0
  0
LWPOLYLINE
  5
2B7
330
453
100
AcDbEntity
  8
layer 34
 62
     2
420
 16776960
370
    13
100
AcDbPolyline
 90
        5
 70
     0
 43
0.0
 10
40.0
 20
-130.0
 10
50.0
 20
-130.0
 10
50.0
 20
-120.0
 10
40.0
 20
-120.0
 10
40.0
 20
-130.0
  0
LWPOLYLINE
  5
159
330
453
100
AcDbEntity
  8
layer 20
 62
     3
420
    65280
370
    13
100
AcDbPolyline
 90
        5
 70
     0
 43
0.0
 10
48.0
 20
-52.0
 10
58.0
 20
-52.0
 10
58.0
 20
-42.0
 10
48.0
 20
-42.0
 10
48.0
 20
-52.0
  0
LWPOLYLINE
  5
2B8
330
453
100
AcDbEntity
  8
layer 34
 62
     3
420
    65280
370
    13
100
AcDbPolyline
 90
        5
 70
     0
 43
0.0
 10
48.0
 20
-132.0
 10
58.0
 20
-132.0
 10
58.0
 20
-122.0
 10
48.0
 20
-122.0
 10
48.0
 20
-132.0
  0
LWPOLYLINE
  5
15B
330
453
100
AcDbEntity
  8
layer 17
 62
     3
420
    65280
370
    13
100
AcDbPolyline
 90
        5
 70
     0
 43
0.0
 10
70.0
 20
-30.0
 10
80.0
 20
-30.0
 10
80.0
 20
-20.0
 10
70.0
 20
-20.0
 10
70.0
 20
-30.0
  0
LWPOLYLINE
  5
2B9
330
453
100
AcDbEntity
  8
layer 31
 62
     3
420
    65280
370
    13
100
AcDbPolyline
 90
        5
 70
     0
 43
0.0
 10
70.0
 20
-110.0
 10
80.0
 20
-110.0
 10
80.0
 20
-100.0
 10
70.0
 20
-100.0
 10
70.0
 20
-110.0
  0
LWPOLYLINE
  5
15C
330
453
100
AcDbEntity
  8
layer 16
 62
     2
420
 16776960
370
    13
100
AcDbPolyline
 90
        5
 70
     0
 43
0.0
 10
40.0
 20
-30.0
 10
50.0
 20
-30.0
 10
50.0
 20
-20.0
 10
40.0
 20
-20.0
 10
40.0
 20
-30.0
  0
LWPOLYLINE
  5
2BA
330
453
100
AcDbEntity
  8
layer 30
 62
     2
420
 16776960
370
    13
100
AcDbPolyline
 90
        5
 70
     0
 43
0.0
 10
40.0
 20
-110.0
 10
50.0
 20
-110.0
 10
50.0
 20
-100.0
 10
40.0
 20
-100.0
 10
40.0
 20
-110.0
  0
LWPOLYLINE
  5
15D
330
453
100
AcDbEntity
  8
layer 16
 62
     3
420
    65280
370
    13
100
AcDbPolyline
 90
        5
 70
     0
 43
0.0
 10
50.0
 20
-30.0
 10
60.0
 20
-30.0
 10
60.0
 20
-20.0
 10
50.0
 20
-20.0
 10
50.0
 20
-30.0
  0
LWPOLYLINE
  5
2BB
330
453
100
AcDbEntity
  8
layer 30
 62
     3
420
    65280
370
    13
100
AcDbPolyline
 90
        5
 70
     0
 43
0.0
 10
50.0
 20
-110.0
 10
60.0
 20
-110.0
 10
60.0
 20
-100.0
 10
50.0
 20
-100.0
 10
50.0
 20
-110.0
  0
LWPOLYLINE
  5
15E
330
453
100
AcDbEntity
  8
layer 21
 62
     2
420
 16776960
370
    13
100
AcDbPolyline
 90
        5
 70
     0
 43
0.0
 10
70.0
 20
-50.0
 10
80.0
 20
-50.0
 10
80.0
 20
-40.0
 10
70.0
 20
-40.0
 10
70.0
 20
-50.0
  0
LWPOLYLINE
  5
2BC
330
453
100
AcDbEntity
  8
layer 35
 62
     2
420
 16776960
370
    13
100
AcDbPolyline
 90
        5
 70
     0
 43
0.0
 10
70.0
 20
-130.0
 10
80.0
 20
-130.0
 10
80.0
 20
-120.0
 10
70.0
 20
-120.0
 10
70.0
 20
-130.0
  0
LWPOLYLINE
  5
160
330
453
100
AcDbEntity
  8
layer 23
 62
     3
420
    65280
370
    13
100
AcDbPolyline
 90
        5
 70
     0
 43
0.0
 10
50.0
 20
-70.0
 10
60.0
 20
-70.0
 10
60.0
 20
-60.0
 10
50.0
 20
-60.0
 42
0.3126502156338701
 10
50.0
 20
-70.0
  0
LWPOLYLINE
  5
2BD
330
453
100
AcDbEntity
  8
layer 37
 62
     3
420
    65280
370
    13
100
AcDbPolyline
 90
        5
 70
     0
 43
0.0
 10
50.0
 20
-150.0
 10
60.0
 20
-150.0
 10
60.0
 20
-140.0
 10
50.0
 20
-140.0
 42
0.3126502156338701
 10
50.0
 20
-150.0
  0
LWPOLYLINE
  5
161
330
453
100
AcDbEntity
  8
layer 24
 62
     2
420
 16776960
370
    13
100
AcDbPolyline
 90
        5
 70
     0
 43
0.0
 10
70.0
 20
-70.0
 10
80.0
 20
-70.0
 10
80.0
 20
-60.0
 10
70.0
 20
-60.0
 42
0.3126502156338701
 10
70.0
 20
-70.0
  0
LWPOLYLINE
  5
2BE
330
453
100
AcDbEntity
  8
layer 38
 62
     2
420
 16776960
370
    13
100
AcDbPolyline
 90
        5
 70
     0
 43
0.0
 10
70.0
 20
-150.0
 10
80.0
 20
-150.0
 10
80.0
 20
-140.0
 10
70.0
 20
-140.0
 42
0.3126502156338701
 10
70.0
 20
-150.0
  0
LWPOLYLINE
  5
162
330
453
100
AcDbEntity
  8
layer 24
 62
     3
420
    65280
370
    13
100
AcDbPolyline
 90
        5
 70
     0
 43
0.0
 10
70.0
 20
-70.0
 10
80.0
 20
-70.0
 10
80.0
 20
-60.0
 10
70.0
 20
-60.0
 42
0.3126502156338701
 10
70.0
 20
-70.0
  0
LWPOLYLINE
  5
2BF
330
453
100
AcDbEntity
  8
layer 38
 62
     3
420
    65280
370
    13
100
AcDbPolyline
 90
        5
 70
     0
 43
0.0
 10
70.0
 20
-150.0
 10
80.0
 20
-150.0
 10
80.0
 20
-140.0
 10
70.0
 20
-140.0
 42
0.3126502156338701
 10
70.0
 20
-150.0
  0
LWPOLYLINE
  5
163
330
453
100
AcDbEntity
  8
layer 25
 62
     3
420
    65280
370
    13
100
AcDbPolyline
 90
        5
 70
     0
 43
0.0
 10
91.0
 20
-68.0
 10
98.0
 20
-68.0
 10
98.0
 20
-62.0
 10
91.0
 20
-62.0
 42
0.3126502156338701
 10
91.0
 20
-68.0
  0
LWPOLYLINE
  5
2C0
330
453
100
AcDbEntity
  8
layer 39
 62
     3
420
    65280
370
    13
100
AcDbPolyline
 90
        5
 70
     0
 43
0.0
 10
91.0
 20
-148.0
 10
98.0
 20
-148.0
 10
98.0
 20
-142.0
 10
91.0
 20
-142.0
 42
0.3126502156338701
 10
91.0
 20
-148.0
  0
LWPOLYLINE
  5
164
330
453
100
AcDbEntity
  8
layer 25
 62
     2
420
 16776960
370
    13
100
AcDbPolyline
 90
        5
 70
     0
 43
0.0
 10
90.0
 20
-70.0
 10
100.0
 20
-70.0
 10
100.0
 20
-60.0
 10
90.0
 20
-60.0
 42
0.3126502156338701
 10
90.0
 20
-70.0
  0
LWPOLYLINE
  5
2C1
330
453
100
AcDbEntity
  8
layer 39
 62
     2
420
 16776960
370
    13
100
AcDbPolyline
 90
        5
 70
     0
 43
0.0
 10
90.0
 20
-150.0
 10
100.0
 20
-150.0
 10
100.0
 20
-140.0
 10
90.0
 20
-140.0
 42
0.3126502156338701
 10
90.0
 20
-150.0
  0
LWPOLYLINE
  5
165
330
453
100
AcDbEntity
  8
layer 22
 62
     2
420
 16776960
370
    13
100
AcDbPolyline
 90
        5
 70
     0
 43
0.0
 10
10.0
 20
-70.0
 10
20.0
 20
-70.0
 42
-0.3126502156338703
 10
20.0
 20
-60.0
 10
10.0
 20
-60.0
 10
10.0
 20
-70.0
  0
LWPOLYLINE
  5
2C2
330
453
100
AcDbEntity
  8
layer 36
 62
     2
420
 16776960
370
    13
100
AcDbPolyline
 90
        5
 70
     0
 43
0.0
 10
10.0
 20
-150.0
 10
20.0
 20
-150.0
 42
-0.3126502156338703
 10
20.0
 20
-140.0
 10
10.0
 20
-140.0
 10
10.0
 20
-150.0
  0
LWPOLYLINE
  5
166
330
453
100
AcDbEntity
  8
layer 22
 62
     3
420
    65280
370
    13
100
AcDbPolyline
 90
        5
 70
     0
 43
0.0
 10
21.0
 20
-70.0
 10
31.0
 20
-70.0
 10
31.0
 20
-60.0
 10
21.0
 20
-60.0
 42
0.3126502156338701
 10
21.0
 20
-70.0
  0
LWPOLYLINE
  5
2C3
330
453
100
AcDbEntity
  8
layer 36
 62
     3
420
    65280
370
    13
100
AcDbPolyline
 90
        5
 70
     0
 43
0.0
 10
21.0
 20
-150.0
 10
31.0
 20
-150.0
 10
31.0
 20
-140.0
 10
21.0
 20
-140.0
 42
0.3126502156338701
 10
21.0
 20
-150.0
  0
LWPOLYLINE
  5
167
330
453
100
AcDbEntity
  8
layer 26
 62
     2
420
 16776960
370
    13
100
AcDbPolyline
 90
        5
 70
     0
 43
0.0
 10
10.0
 20
-90.0
 10
20.0
 20
-90.0
 42
-0.3126502156338703
 10
20.0
 20
-80.0
 10
10.0
 20
-80.0
 10
10.0
 20
-90.0
  0
LWPOLYLINE
  5
2C4
330
453
100
AcDbEntity
  8
layer 40
 62
     2
420
 16776960
370
    13
100
AcDbPolyline
 90
        5
 70
     0
 43
0.0
 10
10.0
 20
-170.0
 10
20.0
 20
-170.0
 42
-0.3126502156338703
 10
20.0
 20
-160.0
 10
10.0
 20
-160.0
 10
10.0
 20
-170.0
  0
LWPOLYLINE
  5
168
330
453
100
AcDbEntity
  8
layer 26
 62
     3
420
    65280
370
    13
100
AcDbPolyline
 90
        5
 70
     0
 43
0.0
 10
18.0
 20
-89.99999999999999
 10
28.0
 20
-89.99999999999999
 10
28.0
 20
-79.99999999999999
 10
18.0
 20
-79.99999999999999
 42
0.3126502156338701
 10
18.0
 20
-89.99999999999999
  0
LWPOLYLINE
  5
2C5
330
453
100
AcDbEntity
  8
layer 40
 62
     3
420
    65280
370
    13
100
AcDbPolyline
 90
        5
 70
     0
 43
0.0
 10
18.0
 20
-170.0
 10
28.0
 20
-170.0
 10
28.0
 20
-160.0
 10
18.0
 20
-160.0
 42
0.3126502156338701
 10
18.0
 20
-170.0
  0
LWPOLYLINE
  5
169
330
453
100
AcDbEntity
  8
layer 27
 62
     2
420
 16776960
370
    13
100
AcDbPolyline
 90
        5
 70
     0
 43
0.0
 10
40.0
 20
-90.0
 10
50.0
 20
-90.0
 42
-0.3126502156338703
 10
50.0
 20
-80.0
 10
40.0
 20
-80.0
 10
40.0
 20
-90.0
  0
LWPOLYLINE
  5
2C6
330
453
100
AcDbEntity
  8
layer 41
 62
     2
420
 16776960
370
    13
100
AcDbPolyline
 90
        5
 70
     0
 43
0.0
 10
40.0
 20
-170.0
 10
50.0
 20
-170.0
 42
-0.3126502156338703
 10
50.0
 20
-160.0
 10
40.0
 20
-160.0
 10
40.0
 20
-170.0
  0
LWPOLYLINE
  5
16A
330
453
100
AcDbEntity
  8
layer 27
 62
     3
420
    65280
370
    13
100
AcDbPolyline
 90
        5
 70
     0
 43
0.0
 10
48.0
 20
-92.0
 10
58.0
 20
-92.0
 10
58.0
 20
-82.0
 10
48.0
 20
-82.0
 42
0.3126502156338701
 10
48.0
 20
-92.0
  0
LWPOLYLINE
  5
2C7
330
453
100
AcDbEntity
  8
layer 41
 62
     3
420
    65280
370
    13
100
AcDbPolyline
 90
        5
 70
     0
 43
0.0
 10
48.0
 20
-172.0
 10
58.0
 20
-172.0
 10
58.0
 20
-162.0
 10
48.0
 20
-162.0
 42
0.3126502156338701
 10
48.0
 20
-172.0
  0
LWPOLYLINE
  5
16B
330
453
100
AcDbEntity
  8
layer 28
 62
     2
420
 16776960
370
    13
100
AcDbPolyline
 90
        5
 70
     0
 43
0.0
 10
70.0
 20
-90.0
 10
80.0
 20
-90.0
 42
-0.3126502156338703
 10
80.0
 20
-80.0
 10
70.0
 20
-80.0
 10
70.0
 20
-90.0
  0
LWPOLYLINE
  5
2C8
330
453
100
AcDbEntity
  8
layer 42
 62
     2
420
 16776960
370
    13
100
AcDbPolyline
 90
        5
 70
     0
 43
0.0
 10
70.0
 20
-170.0
 10
80.0
 20
-170.0
 42
-0.3126502156338703
 10
80.0
 20
-160.0
 10
70.0
 20
-160.0
 10
70.0
 20
-170.0
  0
LWPOLYLINE
  5
132
330
453
100
AcDbEntity
  8
layer 7
 62
     3
420
    65280
370
    13
100
AcDbPolyline
 90
        9
 70
     0
 43
0.0
 10
67.0
 20
38.0
 10
84.0
 20
38.0
 10
84.0
 20
36.0
 10
69.0
 20
36.0
 10
69.0
 20
34.0
 10
84.0
 20
34.0
 10
84.0
 20
32.0
 10
67.0
 20
32.0
 10
67.0
 20
38.0
  0
LWPOLYLINE
  5
14D
330
453
100
AcDbEntity
  8
layer 14
 62
     3
420
    65280
370
    13
100
AcDbPolyline
 90
        9
 70
     0
 43
0.0
 10
67.0
 20
-2.0
 42
-0.1180499408103455
 10
84.0
 20
-2.0
 10
84.0
 20
-4.0
 10
69.0
 20
-4.0
 10
69.0
 20
-6.0
 10
84.0
 20
-6.0
 10
84.0
 20
-8.0
 42
-0.1180499408103455
 10
67.0
 20
-8.0
 10
67.0
 20
-2.0
  0
LWPOLYLINE
  5
170
330
453
100
AcDbEntity
  8
layer 21
 62
     3
420
    65280
370
    13
100
AcDbPolyline
 90
        9
 70
     0
 43
0.0
 10
67.0
 20
-42.0
 10
84.0
 20
-42.0
 10
84.0
 20
-44.0
 10
69.0
 20
-44.0
 10
69.0
 20
-46.0
 10
84.0
 20
-46.0
 10
84.0
 20
-48.0
 10
67.0
 20
-48.0
 10
67.0
 20
-42.0
  0
LWPOLYLINE
  5
2C9
330
453
100
AcDbEntity
  8
layer 35
 62
     3
420
    65280
370
    13
100
AcDbPolyline
 90
        9
 70
     0
 43
0.0
 10
67.0
 20
-122.0
 10
84.0
 20
-122.0
 10
84.0
 20
-124.0
 10
69.0
 20
-124.0
 10
69.0
 20
-126.0
 10
84.0
 20
-126.0
 10
84.0
 20
-128.0
 10
67.0
 20
-128.0
 10
67.0
 20
-122.0
  0
LWPOLYLINE
  5
171
330
453
100
AcDbEntity
  8
layer 28
 62
     3
420
    65280
370
    13
100
AcDbPolyline
 90
        9
 70
     0
 43
0.0
 10
67.0
 20
-82.0
 42
-0.1180499408103455
 10
84.0
 20
-82.0
 10
84.0
 20
-84.0
 10
69.0
 20
-84.0
 10
69.0
 20
-86.0
 10
84.0
 20
-86.0
 10
84.0
 20
-88.0
 42
-0.1180499408103455
 10
67.0
 20
-88.0
 10
67.0
 20
-82.0
  0
LWPOLYLINE
  5
2CA
330
453
100
AcDbEntity
  8
layer 42
 62
     3
420
    65280
370
    13
100
AcDbPolyline
 90
        9
 70
     0
 43
0.0
 10
67.0
 20
-162.0
 42
-0.1180499408103455
 10
84.0
 20
-162.0
 10
84.0
 20
-164.0
 10
69.0
 20
-164.0
 10
69.0
 20
-166.0
 10
84.0
 20
-166.0
 10
84.0
 20
-168.0
 42
-0.1180499408103455
 10
67.0
 20
-168.0
 10
67.0
 20
-162.0
  0
LWPOLYLINE
  5
17A
330
453
100
AcDbEntity
  8
layer 26
 62
     3
420
    65280
370
    13
100
AcDbPolyline
 90
        4
 70
   129
 43
0.0
 10
18.26674893875566
 20
-89.49999999999999
 10
27.5
 20
-89.49999999999999
 10
27.5
 20
-80.49999999999999
 10
18.26674893875566
 20
-80.49999999999999
 42
0.2955555593166699
  0
LWPOLYLINE
  5
2CB
330
453
100
AcDbEntity
  8
layer 40
 62
     3
420
    65280
370
    13
100
AcDbPolyline
 90
        4
 70
   129
 43
0.0
 10
18.26674893875566
 20
-169.5
 10
27.5
 20
-169.5
 10
27.5
 20
-160.5
 10
18.26674893875566
 20
-160.5
 42
0.2955555593166699
  0
LWPOLYLINE
  5
17B
330
453
100
AcDbEntity
  8
layer 27
 62
     3
420
    65280
370
    13
100
AcDbPolyline
 90
        4
 70
   129
 43
0.0
 10
48.26674893875566
 20
-91.5
 10
57.5
 20
-91.5
 10
57.5
 20
-82.5
 10
48.26674893875566
 20
-82.5
 42
0.2955555593166699
  0
LWPOLYLINE
  5
2CC
330
453
100
AcDbEntity
  8
layer 41
 62
     3
420
    65280
370
    13
100
AcDbPolyline
 90
        4
 70
   129
 43
0.0
 10
48.26674893875566
 20
-171.5
 10
57.5
 20
-171.5
 10
57.5
 20
-162.5
 10
48.26674893875566
 20
-162.5
 42
0.2955555593166699
  0
LWPOLYLINE
  5
2CD
330
453
100
AcDbEntity
  8
layer 41
 62
     2
420
 16776960
370
    13
100
AcDbPolyline
 90
        4
 70
   129
 43
0.0
 10
40.5
 20
-169.5
 10
49.10113221792301
 20
-169.5
 42
-0.2587518435760812
 10
49.10113221792302
 20
-160.5
 10
40.5
 20
-160.5
  0
LWPOLYLINE
  5
2CE
330
453
100
AcDbEntity
  8
layer 40
 62
     2
420
 16776960
370
    13
100
AcDbPolyline
 90
        4
 70
   129
 43
0.0
 10
10.5
 20
-169.5
 10
19.10113221792301
 20
-169.5
 42
-0.2587518435760813
 10
19.10113221792302
 20
-160.5
 10
10.5
 20
-160.5
  0
LWPOLYLINE
  5
17E
330
453
100
AcDbEntity
  8
layer 28
 62
     3
420
    65280
370
    13
100
AcDbPolyline
 90
        8
 70
   129
 43
0.0
 10
67.5
 20
-82.39663014035386
 42
-0.1125068296552266
 10
83.5
 20
-82.39663014035386
 10
83.5
 20
-83.5
 10
68.5
 20
-83.5
 10
68.5
 20
-86.5
 10
83.5
 20
-86.5
 10
83.49999999999999
 20
-87.60336985964614
 42
-0.1125068296552265
 10
67.49999999999999
 20
-87.60336985964614
  0
LWPOLYLINE
  5
2CF
330
453
100
AcDbEntity
  8
layer 42
 62
     3
420
    65280
370
    13
100
AcDbPolyline
 90
        8
 70
   129
 43
0.0
 10
67.5
 20
-162.3966301403539
 42
-0.1125068296552266
 10
83.5
 20
-162.3966301403539
 10
83.5
 20
-163.5
 10
68.5
 20
-163.5
 10
68.5
 20
-166.5
 10
83.5
 20
-166.5
 10
83.49999999999999
 20
-167.6033698596461
 42
-0.1125068296552265
 10
67.49999999999999
 20
-167.6033698596461
  0
LWPOLYLINE
  5
2D0
330
453
100
AcDbEntity
  8
layer 42
 62
     2
420
 16776960
370
    13
100
AcDbPolyline
 90
        4
 70
   129
 43
0.0
 10
70.5
 20
-169.5
 10
79.10113221792301
 20
-169.5
 42
-0.2587518435760813
 10
79.10113221792302
 20
-160.5
 10
70.5
 20
-160.5
  0
LWPOLYLINE
  5
2D1
330
453
100
AcDbEntity
  8
layer 36
 62
     2
420
 16776960
370
    13
100
AcDbPolyline
 90
        4
 70
   129
 43
0.0
 10
10.5
 20
-149.5
 10
19.10113221792301
 20
-149.5
 42
-0.2587518435760813
 10
19.10113221792302
 20
-140.5
 10
10.5
 20
-140.5
  0
LWPOLYLINE
  5
181
330
453
100
AcDbEntity
  8
layer 22
 62
     3
420
    65280
370
    13
100
AcDbPolyline
 90
        4
 70
   129
 43
0.0
 10
21.26674893875566
 20
-69.5
 10
30.5
 20
-69.5
 10
30.5
 20
-60.5
 10
21.26674893875566
 20
-60.5
 42
0.2955555593166699
  0
LWPOLYLINE
  5
2D2
330
453
100
AcDbEntity
  8
layer 36
 62
     3
420
    65280
370
    13
100
AcDbPolyline
 90
        4
 70
   129
 43
0.0
 10
21.26674893875566
 20
-149.5
 10
30.5
 20
-149.5
 10
30.5
 20
-140.5
 10
21.26674893875566
 20
-140.5
 42
0.2955555593166699
  0
LWPOLYLINE
  5
183
330
453
100
AcDbEntity
  8
layer 23
 62
     3
420
    65280
370
    13
100
AcDbPolyline
 90
        4
 70
   129
 43
0.0
 10
50.26674893875566
 20
-69.5
 10
59.5
 20
-69.5
 10
59.5
 20
-60.5
 10
50.26674893875566
 20
-60.5
 42
0.2955555593166699
  0
LWPOLYLINE
  5
2D3
330
453
100
AcDbEntity
  8
layer 37
 62
     3
420
    65280
370
    13
100
AcDbPolyline
 90
        4
 70
   129
 43
0.0
 10
50.26674893875566
 20
-149.5
 10
59.5
 20
-149.5
 10
59.5
 20
-140.5
 10
50.26674893875566
 20
-140.5
 42
0.2955555593166699
  0
LWPOLYLINE
  5
184
330
453
100
AcDbEntity
  8
layer 24
 62
     3
420
    65280
370
    13
100
AcDbPolyline
 90
        4
 70
   129
 43
0.0
 10
70.26674893875567
 20
-69.5
 10
79.5
 20
-69.5
 10
79.5
 20
-60.5
 10
70.26674893875567
 20
-60.5
 42
0.2955555593166699
  0
LWPOLYLINE
  5
2D4
330
453
100
AcDbEntity
  8
layer 38
 62
     3
420
    65280
370
    13
100
AcDbPolyline
 90
        4
 70
   129
 43
0.0
 10
70.26674893875567
 20
-149.5
 10
79.5
 20
-149.5
 10
79.5
 20
-140.5
 10
70.26674893875567
 20
-140.5
 42
0.2955555593166699
  0
LWPOLYLINE
  5
2D5
330
453
100
AcDbEntity
  8
layer 39
 62
     2
420
 16776960
370
    13
100
AcDbPolyline
 90
        4
 70
   129
 43
0.0
 10
90.26674893875567
 20
-149.5
 10
99.5
 20
-149.5
 10
99.5
 20
-140.5
 10
90.26674893875567
 20
-140.5
 42
0.2955555593166699
  0
LWPOLYLINE
  5
186
330
453
100
AcDbEntity
  8
layer 25
 62
     3
420
    65280
370
    13
100
AcDbPolyline
 90
        4
 70
   129
 43
0.0
 10
91.27025392361706
 20
-67.5
 10
97.5
 20
-67.5
 10
97.5
 20
-62.5
 10
91.27025392361706
 20
-62.5
 42
0.2832818282074659
  0
LWPOLYLINE
  5
2D6
330
453
100
AcDbEntity
  8
layer 39
 62
     3
420
    65280
370
    13
100
AcDbPolyline
 90
        4
 70
   129
 43
0.0
 10
91.27025392361706
 20
-147.5
 10
97.5
 20
-147.5
 10
97.5
 20
-142.5
 10
91.27025392361706
 20
-142.5
 42
0.2832818282074659
  0
LWPOLYLINE
  5
2D7
330
453
100
AcDbEntity
  8
layer 35
 62
     2
420
 16776960
370
    13
100
AcDbPolyline
 90
        4
 70
   129
 43
0.0
 10
70.5
 20
-129.5
 10
79.5
 20
-129.5
 10
79.5
 20
-120.5
 10
70.5
 20
-120.5
  0
LWPOLYLINE
  5
188
330
453
100
AcDbEntity
  8
layer 21
 62
     3
420
    65280
370
    13
100
AcDbPolyline
 90
        8
 70
   129
 43
0.0
 10
67.5
 20
-42.5
 10
83.5
 20
-42.5
 10
83.5
 20
-43.5
 10
68.5
 20
-43.5
 10
68.5
 20
-46.5
 10
83.5
 20
-46.5
 10
83.5
 20
-47.5
 10
67.5
 20
-47.5
  0
LWPOLYLINE
  5
2D8
330
453
100
AcDbEntity
  8
layer 35
 62
     3
420
    65280
370
    13
100
AcDbPolyline
 90
        8
 70
   129
 43
0.0
 10
67.5
 20
-122.5
 10
83.5
 20
-122.5
 10
83.5
 20
-123.5
 10
68.5
 20
-123.5
 10
68.5
 20
-126.5
 10
83.5
 20
-126.5
 10
83.5
 20
-127.5
 10
67.5
 20
-127.5
  0
LWPOLYLINE
  5
189
330
453
100
AcDbEntity
  8
layer 20
 62
     3
420
    65280
370
    13
100
AcDbPolyline
 90
        4
 70
   129
 43
0.0
 10
48.5
 20
-51.5
 10
57.5
 20
-51.5
 10
57.5
 20
-42.5
 10
48.5
 20
-42.5
  0
LWPOLYLINE
  5
2D9
330
453
100
AcDbEntity
  8
layer 34
 62
     3
420
    65280
370
    13
100
AcDbPolyline
 90
        4
 70
   129
 43
0.0
 10
48.5
 20
-131.5
 10
57.5
 20
-131.5
 10
57.5
 20
-122.5
 10
48.5
 20
-122.5
  0
LWPOLYLINE
  5
2DA
330
453
100
AcDbEntity
  8
layer 34
 62
     2
420
 16776960
370
    13
100
AcDbPolyline
 90
        4
 70
   129
 43
0.0
 10
40.5
 20
-129.5
 10
49.5
 20
-129.5
 10
49.5
 20
-120.5
 10
40.5
 20
-120.5
  0
LWPOLYLINE
  5
18B
330
453
100
AcDbEntity
  8
layer 19
 62
     3
420
    65280
370
    13
100
AcDbPolyline
 90
        4
 70
   129
 43
0.0
 10
18.5
 20
-49.5
 10
27.5
 20
-49.5
 10
27.5
 20
-40.5
 10
18.5
 20
-40.5
  0
LWPOLYLINE
  5
2DB
330
453
100
AcDbEntity
  8
layer 33
 62
     3
420
    65280
370
    13
100
AcDbPolyline
 90
        4
 70
   129
 43
0.0
 10
18.5
 20
-129.5
 10
27.5
 20
-129.5
 10
27.5
 20
-120.5
 10
18.5
 20
-120.5
  0
LWPOLYLINE
  5
2DC
330
453
100
AcDbEntity
  8
layer 33
 62
     2
420
 16776960
370
    13
100
AcDbPolyline
 90
        4
 70
   129
 43
0.0
 10
10.5
 20
-129.5
 10
19.5
 20
-129.5
 10
19.5
 20
-120.5
 10
10.5
 20
-120.5
  0
LWPOLYLINE
  5
2DD
330
453
100
AcDbEntity
  8
layer 29
 62
     2
420
 16776960
370
    13
100
AcDbPolyline
 90
        4
 70
   129
 43
0.0
 10
10.5
 20
-109.5
 10
19.5
 20
-109.5
 10
19.5
 20
-100.5
 10
10.5
 20
-100.5
  0
LWPOLYLINE
  5
18E
330
453
100
AcDbEntity
  8
layer 15
 62
     3
420
    65280
370
    13
100
AcDbPolyline
 90
        4
 70
   129
 43
0.0
 10
21.5
 20
-29.5
 10
30.5
 20
-29.5
 10
30.5
 20
-20.5
 10
21.5
 20
-20.5
  0
LWPOLYLINE
  5
2DE
330
453
100
AcDbEntity
  8
layer 29
 62
     3
420
    65280
370
    13
100
AcDbPolyline
 90
        4
 70
   129
 43
0.0
 10
21.5
 20
-109.5
 10
30.5
 20
-109.5
 10
30.5
 20
-100.5
 10
21.5
 20
-100.5
  0
LWPOLYLINE
  5
2DF
330
453
100
AcDbEntity
  8
layer 30
 62
     2
420
 16776960
370
    13
100
AcDbPolyline
 90
        4
 70
   129
 43
0.0
 10
40.5
 20
-109.5
 10
49.5
 20
-109.5
 10
49.5
 20
-100.5
 10
40.5
 20
-100.5
  0
LWPOLYLINE
  5
190
330
453
100
AcDbEntity
  8
layer 16
 62
     3
420
    65280
370
    13
100
AcDbPolyline
 90
        4
 70
   129
 43
0.0
 10
50.5
 20
-29.5
 10
59.5
 20
-29.5
 10
59.5
 20
-20.5
 10
50.5
 20
-20.5
  0
LWPOLYLINE
  5
2E0
330
453
100
AcDbEntity
  8
layer 30
 62
     3
420
    65280
370
    13
100
AcDbPolyline
 90
        4
 70
   129
 43
0.0
 10
50.5
 20
-109.5
 10
59.5
 20
-109.5
 10
59.5
 20
-100.5
 10
50.5
 20
-100.5
  0
LWPOLYLINE
  5
191
330
453
100
AcDbEntity
  8
layer 17
 62
     3
420
    65280
370
    13
100
AcDbPolyline
 90
        4
 70
   129
 43
0.0
 10
70.5
 20
-29.5
 10
79.5
 20
-29.5
 10
79.5
 20
-20.5
 10
70.5
 20
-20.5
  0
LWPOLYLINE
  5
2E1
330
453
100
AcDbEntity
  8
layer 31
 62
     3
420
    65280
370
    13
100
AcDbPolyline
 90
        4
 70
   129
 43
0.0
 10
70.5
 20
-109.5
 10
79.5
 20
-109.5
 10
79.5
 20
-100.5
 10
70.5
 20
-100.5
  0
LWPOLYLINE
  5
192
330
453
100
AcDbEntity
  8
layer 18
 62
     3
420
    65280
370
    13
100
AcDbPolyline
 90
        4
 70
   129
 43
0.0
 10
92.5
 20
-27.5
 10
97.5
 20
-27.5
 10
97.5
 20
-22.5
 10
92.5
 20
-22.5
  0
LWPOLYLINE
  5
2E2
330
453
100
AcDbEntity
  8
layer 32
 62
     3
420
    65280
370
    13
100
AcDbPolyline
 90
        4
 70
   129
 43
0.0
 10
92.5
 20
-107.5
 10
97.5
 20
-107.5
 10
97.5
 20
-102.5
 10
92.5
 20
-102.5
  0
LWPOLYLINE
  5
2E3
330
453
100
AcDbEntity
  8
layer 32
 62
     2
420
 16776960
370
    13
100
AcDbPolyline
 90
        4
 70
   129
 43
0.0
 10
90.5
 20
-109.5
 10
99.5
 20
-109.5
 10
99.5
 20
-100.5
 10
90.5
 20
-100.5
  0
LWPOLYLINE
  5
2E4
330
453
100
AcDbEntity
  8
layer 31
 62
     2
420
 16776960
370
    13
100
AcDbPolyline
 90
        4
 70
   129
 43
0.0
 10
70.5
 20
-109.5
 10
79.49999999999999
 20
-109.5
 10
79.5
 20
-100.5
 10
70.49999999999999
 20
-100.5
  0
LWPOLYLINE
  5
15A
330
453
100
AcDbEntity
  8
layer 17
 62
     2
420
 16776960
370
    13
100
AcDbPolyline
 90
        5
 70
     0
 43
0.0
 10
70.0
 20
-30.0
 10
80.0
 20
-30.0
 10
80.0
 20
-20.0
 10
70.0
 20
-20.0
 10
70.0
 20
-30.0
  0
LWPOLYLINE
  5
2E5
330
453
100
AcDbEntity
  8
layer 31
 62
     2
420
 16776960
370
    13
100
AcDbPolyline
 90
        5
 70
     0
 43
0.0
 10
70.0
 20
-110.0
 10
80.0
 20
-110.0
 10
80.0
 20
-100.0
 10
70.0
 20
-100.0
 10
70.0
 20
-110.0
  0
LWPOLYLINE
  5
2E6
330
453
100
AcDbEntity
  8
layer 38
 62
     2
420
 16776960
370
    13
100
AcDbPolyline
 90
        4
 70
   129
 43
0.0
 10
70.26674893875567
 20
-149.5
 10
79.5
 20
-149.5
 10
79.5
 20
-140.5
 10
70.26674893875567
 20
-140.5
 42
0.2955555593166699
  0
HATCH
  5
40B
330
453
100
AcDbEntity
  8
layer 4
 62
     4
420
    65535
440
 33554687
370
     0
100
AcDbHatch
 10
0.0
 20
0.0
 30
0.0
210
0.0
220
0.0
230
1.0
  2
ANSI31
 70
     0
 71
     0
 91
        2
 92
        0
 93
        4
 72
     1
 10
90.0
 20
50.0
 11
100.0
 21
50.0
 72
     1
 10
100.0
 20
50.0
 11
100.0
 21
60.0
 72
     1
 10
100.0
 20
60.0
 11
90.0
 21
60.0
 72
     1
 10
90.0
 20
60.0
 11
90.0
 21
50.0
 97
        0
 92
        0
 93
        4
 72
     1
 10
92.0
 20
52.0
 11
98.0
 21
52.0
 72
     1
 10
98.0
 20
52.0
 11
98.0
 21
58.0
 72
     1
 10
98.0
 20
58.0
 11
92.0
 21
58.0
 72
     1
 10
92.0
 20
58.0
 11
92.0
 21
52.0
 97
        0
 75
     0
 76
     1
 52
0.0
 41
0.05
 77
     0
 78
     1
 53
45.0
 43
0.0
 44
0.0
 45
-0.1122532015133644
 46
0.1122532015133644
 79
     0
 98
        0
1001
ACAD
1010
0.0
1020
0.0
1030
0.0
  0
HATCH
  5
40C
330
453
100
AcDbEntity
  8
layer 5
 62
     4
420
    65535
440
 33554687
370
     0
100
AcDbHatch
 10
0.0
 20
0.0
 30
0.0
210
0.0
220
0.0
230
1.0
  2
ANSI31
 70
     0
 71
     0
 91
        1
 92
        0
 93
        4
 72
     1
 10
18.0
 20
40.0
 11
10.0
 21
40.0
 72
     1
 10
10.0
 20
40.0
 11
10.0
 21
30.0
 72
     1
 10
10.0
 20
30.0
 11
18.0
 21
30.0
 72
     1
 10
18.0
 20
30.0
 11
18.0
 21
40.0
 97
        0
 75
     0
 76
     1
 52
0.0
 41
0.05
 77
     0
 78
     1
 53
45.0
 43
0.0
 44
0.0
 45
-0.1122532015133644
 46
0.1122532015133644
 79
     0
 98
        0
1001
ACAD
1010
0.0
1020
0.0
1030
0.0
  0
HATCH
  5
40D
330
453
100
AcDbEntity
  8
layer 6
 62
     4
420
    65535
440
 33554687
370
     0
100
AcDbHatch
 10
0.0
 20
0.0
 30
0.0
210
0.0
220
0.0
230
1.0
  2
ANSI31
 70
     0
 71
     0
 91
        1
 92
        0
 93
        6
 72
     1
 10
50.0
 20
38.0
 11
50.0
 21
40.0
 72
     1
 10
50.0
 20
40.0
 11
40.0
 21
40.0
 72
     1
 10
40.0
 20
40.0
 11
40.0
 21
30.0
 72
     1
 10
40.0
 20
30.0
 11
48.0
 21
30.0
 72
     1
 10
48.0
 20
30.0
 11
48.0
 21
38.0
 72
     1
 10
48.0
 20
38.0
 11
50.0
 21
38.0
 97
        0
 75
     0
 76
     1
 52
0.0
 41
0.05
 77
     0
 78
     1
 53
45.0
 43
0.0
 44
0.0
 45
-0.1122532015133644
 46
0.1122532015133644
 79
     0
 98
        0
1001
ACAD
1010
0.0
1020
0.0
1030
0.0
  0
HATCH
  5
40E
330
453
100
AcDbEntity
  8
layer 7
 62
     4
420
    65535
440
 33554687
370
     0
100
AcDbHatch
 10
0.0
 20
0.0
 30
0.0
210
0.0
220
0.0
230
1.0
  2
ANSI31
 70
     0
 71
     0
 91
        3
 92
        0
 93
        4
 72
     1
 10
80.0
 20
38.0
 11
80.0
 21
40.0
 72
     1
 10
80.0
 20
40.0
 11
70.0
 21
40.0
 72
     1
 10
70.0
 20
40.0
 11
70.0
 21
38.0
 72
     1
 10
70.0
 20
38.0
 11
80.0
 21
38.0
 97
        0
 92
        0
 93
        4
 72
     1
 10
80.0
 20
36.0
 11
70.0
 21
36.0
 72
     1
 10
70.0
 20
36.0
 11
70.0
 21
34.0
 72
     1
 10
70.0
 20
34.0
 11
80.0
 21
34.0
 72
     1
 10
80.0
 20
34.0
 11
80.0
 21
36.0
 97
        0
 92
        0
 93
        4
 72
     1
 10
80.0
 20
32.0
 11
70.0
 21
32.0
 72
     1
 10
70.0
 20
32.0
 11
70.0
 21
30.0
 72
     1
 10
70.0
 20
30.0
 11
80.0
 21
30.0
 72
     1
 10
80.0
 20
30.0
 11
80.0
 21
32.0
 97
        0
 75
     0
 76
     1
 52
0.0
 41
0.05
 77
     0
 78
     1
 53
45.0
 43
0.0
 44
0.0
 45
-0.1122532015133644
 46
0.1122532015133644
 79
     0
 98
        0
1001
ACAD
1010
0.0
1020
0.0
1030
0.0
  0
HATCH
  5
411
330
453
100
AcDbEntity
  8
layer 11
 62
     4
420
    65535
440
 33554687
370
     0
100
AcDbHatch
 10
0.0
 20
0.0
 30
0.0
210
0.0
220
0.0
230
1.0
  2
ANSI31
 70
     0
 71
     0
 91
        2
 92
        0
 93
        4
 72
     1
 10
90.0
 20
10.0
 11
100.0
 21
10.0
 72
     1
 10
100.0
 20
10.0
 11
100.0
 21
20.0
 72
     1
 10
100.0
 20
20.0
 11
90.0
 21
20.0
 72
     2
 10
97.21453078830335
 20
15.0
 40
8.777781866472699
 50
145.2762693996947
 51
214.7237306003052
 73
     1
 97
        0
 92
        0
 93
        4
 72
     1
 10
91.0
 20
12.0
 11
98.0
 21
12.0
 72
     1
 10
98.0
 20
12.0
 11
98.0
 21
18.0
 72
     1
 10
98.0
 20
18.0
 11
91.0
 21
18.0
 72
     2
 10
95.328718472982
 20
15.0
 40
5.266669119883619
 50
145.2762693996947
 51
214.7237306003053
 73
     1
 97
        0
 75
     0
 76
     1
 52
0.0
 41
0.05
 77
     0
 78
     1
 53
45.0
 43
0.0
 44
0.0
 45
-0.1122532015133644
 46
0.1122532015133644
 79
     0
 98
        0
1001
ACAD
1010
0.0
1020
0.0
1030
0.0
  0
LWPOLYLINE
  5
146
330
453
100
AcDbEntity
  8
layer 12
 62
     3
420
    65280
370
    13
100
AcDbPolyline
 90
        5
 70
     0
 43
0.0
 10
18.0
 20
-10.0
 10
28.0
 20
-10.0
 10
28.0
 20
0.0
 10
18.0
 20
0.0
 42
0.3126502156338701
 10
18.0
 20
-10.0
  0
LWPOLYLINE
  5
144
330
453
100
AcDbEntity
  8
layer 12
 62
     2
420
 16776960
370
    13
100
AcDbPolyline
 90
        5
 70
     0
 43
0.0
 10
10.0
 20
-10.0
 10
20.0
 20
-10.0
 42
-0.3126502156338703
 10
20.0
 20
0.0
 10
10.0
 20
0.0
 10
10.0
 20
-10.0
  0
HATCH
  5
412
330
453
100
AcDbEntity
  8
layer 12
 62
     4
420
    65535
440
 33554687
370
     0
100
AcDbHatch
 10
0.0
 20
0.0
 30
0.0
210
0.0
220
0.0
230
1.0
  2
ANSI31
 70
     0
 71
     0
 91
        1
 92
        0
 93
        4
 72
     2
 10
25.21453078830335
 20
-5.000000000000002
 40
8.7777818664727
 50
145.2762693996947
 51
214.7237306003052
 73
     1
 72
     1
 10
17.99999999999999
 20
-9.999999999999996
 11
10.0
 21
-10.0
 72
     1
 10
10.0
 20
-10.0
 11
10.0
 21
0.0
 72
     1
 10
10.0
 20
0.0
 11
18.0
 21
0.0000000000000036
 97
        0
 75
     0
 76
     1
 52
0.0
 41
0.05
 77
     0
 78
     1
 53
45.0
 43
0.0
 44
0.0
 45
-0.1122532015133644
 46
0.1122532015133644
 79
     0
 98
        0
1001
ACAD
1010
0.0
1020
0.0
1030
0.0
  0
HATCH
  5
413
330
453
100
AcDbEntity
  8
layer 13
 62
     4
420
    65535
440
 33554687
370
     0
100
AcDbHatch
 10
0.0
 20
0.0
 30
0.0
210
0.0
220
0.0
230
1.0
  2
ANSI31
 70
     0
 71
     0
 91
        1
 92
        0
 93
        6
 72
     2
 10
57.21453078830334
 20
-5.000000000000002
 40
8.777781866472694
 50
199.9848702649143
 51
214.7237306003053
 73
     0
 72
     1
 10
50.0
 20
-0.0000000000000036
 11
40.0
 21
0.0
 72
     1
 10
40.0
 20
0.0
 11
40.0
 21
-10.0
 72
     1
 10
40.0
 20
-10.0
 11
46.96532146283603
 21
-10.0
 72
     2
 10
55.21453078830334
 20
-6.999999999999998
 40
8.777781866472697
 50
160.0151297350857
 51
214.7237306003053
 73
     0
 72
     1
 10
48.0
 20
-1.999999999999998
 11
48.96532146283603
 21
-2.000000000000006
 97
        0
 75
     0
 76
     1
 52
0.0
 41
0.05
 77
     0
 78
     1
 53
45.0
 43
0.0
 44
0.0
 45
-0.1122532015133644
 46
0.1122532015133644
 79
     0
 98
        0
1001
ACAD
1010
0.0
1020
0.0
1030
0.0
  0
HATCH
  5
414
330
453
100
AcDbEntity
  8
layer 14
 62
     4
420
    65535
440
 33554687
370
     0
100
AcDbHatch
 10
0.0
 20
0.0
 30
0.0
210
0.0
220
0.0
230
1.0
  2
ANSI31
 70
     0
 71
     0
 91
        3
 92
        0
 93
        4
 72
     2
 10
87.21453078830334
 20
-5.0
 40
8.777781866472699
 50
205.686207224374
 51
214.7237306003053
 73
     0
 72
     1
 10
79.99999999999999
 20
0.0000000000000009
 11
70.0
 21
0.0
 72
     1
 10
70.0
 20
0.0
 11
70.0
 21
-1.413298848467747
 72
     2
 10
75.50000000000003
 20
-37.50000000000087
 40
36.5034244968888
 50
261.3341978824513
 51
275.9818666674571
 73
     0
 97
        0
 92
        0
 93
        4
 72
     1
 10
78.49389695265945
 20
-4.0
 11
70.0
 21
-4.0
 72
     1
 10
70.0
 20
-4.0
 11
70.0
 21
-6.000000000000004
 72
     1
 10
70.0
 20
-6.000000000000004
 11
78.49389695265947
 21
-6.0
 72
     2
 10
87.21453078830329
 20
-5.000000000000004
 40
8.777781866472656
 50
173.4584332226382
 51
186.5415667773618
 73
     0
 97
        0
 92
        0
 93
        4
 72
     2
 10
75.5
 20
27.50000000000089
 40
36.50342449688883
 50
84.0181333325429
 51
98.66580211754868
 73
     0
 72
     1
 10
69.99999999999996
 20
-8.58670115153225
 11
70.0
 21
-10.0
 72
     1
 10
70.0
 20
-10.0
 11
80.0
 21
-10.0
 72
     2
 10
87.21453078830335
 20
-4.999999999999995
 40
8.777781866472704
 50
145.2762693996947
 51
154.3137927756261
 73
     0
 97
        0
 75
     0
 76
     1
 52
0.0
 41
0.05
 77
     0
 78
     1
 53
45.0
 43
0.0
 44
0.0
 45
-0.1122532015133644
 46
0.1122532015133644
 79
     0
 98
        0
1001
ACAD
1010
0.0
1020
0.0
1030
0.0
  0
HATCH
  5
42A
330
453
100
AcDbEntity
  8
layer 32
 62
     4
420
    65535
440
 33554687
370
     0
100
AcDbHatch
 10
0.0
 20
0.0
 30
0.0
210
0.0
220
0.0
230
1.0
  2
ANSI31
 70
     0
 71
     0
 91
        2
 92
        0
 93
        4
 72
     1
 10
90.0
 20
-110.0
 11
100.0
 21
-110.0
 72
     1
 10
100.0
 20
-110.0
 11
100.0
 21
-100.0
 72
     1
 10
100.0
 20
-100.0
 11
90.0
 21
-100.0
 72
     1
 10
90.0
 20
-100.0
 11
90.0
 21
-110.0
 97
        0
 92
        0
 93
        4
 72
     1
 10
90.5
 20
-109.5
 11
99.5
 21
-109.5
 72
     1
 10
99.5
 20
-109.5
 11
99.5
 21
-100.5
 72
     1
 10
99.5
 20
-100.5
 11
90.5
 21
-100.5
 72
     1
 10
90.5
 20
-100.5
 11
90.5
 21
-109.5
 97
        0
 75
     0
 76
     1
 52
0.0
 41
0.05
 77
     0
 78
     1
 53
45.0
 43
0.0
 44
0.0
 45
-0.1122532015133644
 46
0.1122532015133644
 79
     0
 98
        0
1001
ACAD
1010
0.0
1020
0.0
1030
0.0
  0
HATCH
  5
42B
330
453
100
AcDbEntity
  8
layer 33
 62
     4
420
    65535
440
 33554687
370
     0
100
AcDbHatch
 10
0.0
 20
0.0
 30
0.0
210
0.0
220
0.0
230
1.0
  2
ANSI31
 70
     0
 71
     0
 91
        1
 92
        0
 93
        8
 72
     1
 10
18.0
 20
-120.0
 11
10.0
 21
-120.0
 72
     1
 10
10.0
 20
-120.0
 11
10.0
 21
-130.0
 72
     1
 10
10.0
 20
-130.0
 11
18.0
 21
-130.0
 72
     1
 10
18.0
 20
-130.0
 11
18.0
 21
-129.5
 72
     1
 10
18.0
 20
-129.5
 11
10.5
 21
-129.5
 72
     1
 10
10.5
 20
-129.5
 11
10.5
 21
-120.5
 72
     1
 10
10.5
 20
-120.5
 11
18.0
 21
-120.5
 72
     1
 10
18.0
 20
-120.5
 11
18.0
 21
-120.0
 97
        0
 75
     0
 76
     1
 52
0.0
 41
0.05
 77
     0
 78
     1
 53
45.0
 43
0.0
 44
0.0
 45
-0.1122532015133644
 46
0.1122532015133644
 79
     0
 98
        0
1001
ACAD
1010
0.0
1020
0.0
1030
0.0
  0
HATCH
  5
42C
330
453
100
AcDbEntity
  8
layer 33
 62
     4
420
    65535
440
 33554687
370
     0
100
AcDbHatch
 10
0.0
 20
0.0
 30
0.0
210
0.0
220
0.0
230
1.0
  2
ANSI31
 70
     0
 71
     0
 91
        1
 92
        0
 93
        4
 72
     1
 10
19.5
 20
-129.5
 11
19.5
 21
-120.5
 72
     1
 10
19.5
 20
-120.5
 11
20.0
 21
-120.5
 72
     1
 10
20.0
 20
-120.5
 11
20.0
 21
-129.5
 72
     1
 10
20.0
 20
-129.5
 11
19.5
 21
-129.5
 97
        0
 75
     0
 76
     1
 52
0.0
 41
0.05
 77
     0
 78
     1
 53
45.0
 43
0.0
 44
0.0
 45
-0.1122532015133644
 46
0.1122532015133644
 79
     0
 98
        0
1001
ACAD
1010
0.0
1020
0.0
1030
0.0
  0
HATCH
  5
42D
330
453
100
AcDbEntity
  8
layer 34
 62
     4
420
    65535
440
 33554687
370
     0
100
AcDbHatch
 10
0.0
 20
0.0
 30
0.0
210
0.0
220
0.0
230
1.0
  2
ANSI31
 70
     0
 71
     0
 91
        2
 92
        0
 93
       10
 72
     1
 10
50.0
 20
-122.0
 11
50.0
 21
-120.0
 72
     1
 10
50.0
 20
-120.0
 11
40.0
 21
-120.0
 72
     1
 10
40.0
 20
-120.0
 11
40.0
 21
-130.0
 72
     1
 10
40.0
 20
-130.0
 11
48.0
 21
-130.0
 72
     1
 10
48.0
 20
-130.0
 11
48.0
 21
-129.5
 72
     1
 10
48.0
 20
-129.5
 11
40.5
 21
-129.5
 72
     1
 10
40.5
 20
-129.5
 11
40.5
 21
-120.5
 72
     1
 10
40.5
 20
-120.5
 11
49.5
 21
-120.5
 72
     1
 10
49.5
 20
-120.5
 11
49.5
 21
-122.0
 72
     1
 10
49.5
 20
-122.0
 11
50.0
 21
-122.0
 97
        0
 92
        0
 93
        6
 72
     1
 10
50.0
 20
-122.5
 11
49.5
 21
-122.5
 72
     1
 10
49.5
 20
-122.5
 11
49.5
 21
-129.5
 72
     1
 10
49.5
 20
-129.5
 11
48.5
 21
-129.5
 72
     1
 10
48.5
 20
-129.5
 11
48.5
 21
-130.0
 72
     1
 10
48.5
 20
-130.0
 11
50.0
 21
-130.0
 72
     1
 10
50.0
 20
-130.0
 11
50.0
 21
-122.5
 97
        0
 75
     0
 76
     1
 52
0.0
 41
0.05
 77
     0
 78
     1
 53
45.0
 43
0.0
 44
0.0
 45
-0.1122532015133644
 46
0.1122532015133644
 79
     0
 98
        0
1001
ACAD
1010
0.0
1020
0.0
1030
0.0
  0
HATCH
  5
42E
330
453
100
AcDbEntity
  8
layer 35
 62
     4
420
    65535
440
 33554687
370
     0
100
AcDbHatch
 10
0.0
 20
0.0
 30
0.0
210
0.0
220
0.0
230
1.0
  2
ANSI31
 70
     0
 71
     0
 91
        8
 92
        0
 93
        8
 72
     1
 10
80.0
 20
-122.0
 11
80.0
 21
-120.0
 72
     1
 10
80.0
 20
-120.0
 11
70.0
 21
-120.0
 72
     1
 10
70.0
 20
-120.0
 11
70.0
 21
-122.0
 72
     1
 10
70.0
 20
-122.0
 11
70.5
 21
-122.0
 72
     1
 10
70.5
 20
-122.0
 11
70.5
 21
-120.5
 72
     1
 10
70.5
 20
-120.5
 11
79.5
 21
-120.5
 72
     1
 10
79.5
 20
-120.5
 11
79.5
 21
-122.0
 72
     1
 10
79.5
 20
-122.0
 11
80.0
 21
-122.0
 97
        0
 92
        0
 93
        4
 72
     1
 10
70.0
 20
-122.5
 11
70.5
 21
-122.5
 72
     1
 10
70.5
 20
-122.5
 11
70.5
 21
-123.5
 72
     1
 10
70.5
 20
-123.5
 11
70.0
 21
-123.5
 72
     1
 10
70.0
 20
-123.5
 11
70.0
 21
-122.5
 97
        0
 92
        0
 93
        4
 72
     1
 10
79.5
 20
-122.5
 11
80.0
 21
-122.5
 72
     1
 10
80.0
 20
-122.5
 11
80.0
 21
-123.5
 72
     1
 10
80.0
 20
-123.5
 11
79.5
 21
-123.5
 72
     1
 10
79.5
 20
-123.5
 11
79.5
 21
-122.5
 97
        0
 92
        0
 93
        4
 72
     1
 10
70.5
 20
-124.0
 11
70.0
 21
-124.0
 72
     1
 10
70.0
 20
-124.0
 11
70.0
 21
-126.0
 72
     1
 10
70.0
 20
-126.0
 11
70.5
 21
-126.0
 72
     1
 10
70.5
 20
-126.0
 11
70.5
 21
-124.0
 97
        0
 92
        0
 93
        4
 72
     1
 10
80.0
 20
-124.0
 11
79.5
 21
-124.0
 72
     1
 10
79.5
 20
-124.0
 11
79.5
 21
-126.0
 72
     1
 10
79.5
 20
-126.0
 11
80.0
 21
-126.0
 72
     1
 10
80.0
 20
-126.0
 11
80.0
 21
-124.0
 97
        0
 92
        0
 93
        4
 72
     1
 10
70.0
 20
-126.5
 11
70.5
 21
-126.5
 72
     1
 10
70.5
 20
-126.5
 11
70.5
 21
-127.5
 72
     1
 10
70.5
 20
-127.5
 11
70.0
 21
-127.5
 72
     1
 10
70.0
 20
-127.5
 11
70.0
 21
-126.5
 97
        0
 92
        0
 93
        4
 72
     1
 10
79.5
 20
-126.5
 11
80.0
 21
-126.5
 72
     1
 10
80.0
 20
-126.5
 11
80.0
 21
-127.5
 72
     1
 10
80.0
 20
-127.5
 11
79.5
 21
-127.5
 72
     1
 10
79.5
 20
-127.5
 11
79.5
 21
-126.5
 97
        0
 92
        0
 93
        8
 72
     1
 10
70.5
 20
-128.0
 11
70.0
 21
-128.0
 72
     1
 10
70.0
 20
-128.0
 11
70.0
 21
-130.0
 72
     1
 10
70.0
 20
-130.0
 11
80.0
 21
-130.0
 72
     1
 10
80.0
 20
-130.0
 11
80.0
 21
-128.0
 72
     1
 10
80.0
 20
-128.0
 11
79.5
 21
-128.0
 72
     1
 10
79.5
 20
-128.0
 11
79.5
 21
-129.5
 72
     1
 10
79.5
 20
-129.5
 11
70.5
 21
-129.5
 72
     1
 10
70.5
 20
-129.5
 11
70.5
 21
-128.0
 97
        0
 75
     0
 76
     1
 52
0.0
 41
0.05
 77
     0
 78
     1
 53
45.0
 43
0.0
 44
0.0
 45
-0.1122532015133644
 46
0.1122532015133644
 79
     0
 98
        0
1001
ACAD
1010
0.0
1020
0.0
1030
0.0
  0
HATCH
  5
428
330
453
100
AcDbEntity
  8
layer 29
 62
     4
420
    65535
440
 33554687
370
     0
100
AcDbHatch
 10
0.0
 20
0.0
 30
0.0
210
0.0
220
0.0
230
1.0
  2
ANSI31
 70
     0
 71
     0
 91
        2
 92
        0
 93
        4
 72
     1
 10
10.0
 20
-110.0
 11
20.0
 21
-110.0
 72
     1
 10
20.0
 20
-110.0
 11
20.0
 21
-100.0
 72
     1
 10
20.0
 20
-100.0
 11
10.0
 21
-100.0
 72
     1
 10
10.0
 20
-100.0
 11
10.0
 21
-110.0
 97
        0
 92
        0
 93
        4
 72
     1
 10
10.5
 20
-109.5
 11
19.5
 21
-109.5
 72
     1
 10
19.5
 20
-109.5
 11
19.5
 21
-100.5
 72
     1
 10
19.5
 20
-100.5
 11
10.5
 21
-100.5
 72
     1
 10
10.5
 20
-100.5
 11
10.5
 21
-109.5
 97
        0
 75
     0
 76
     1
 52
0.0
 41
0.05
 77
     0
 78
     1
 53
45.0
 43
0.0
 44
0.0
 45
-0.1122532015133644
 46
0.1122532015133644
 79
     0
 98
        0
1001
ACAD
1010
0.0
1020
0.0
1030
0.0
  0
HATCH
  5
429
330
453
100
AcDbEntity
  8
layer 30
 62
     4
420
    65535
440
 33554687
370
     0
100
AcDbHatch
 10
0.0
 20
0.0
 30
0.0
210
0.0
220
0.0
230
1.0
  2
ANSI31
 70
     0
 71
     0
 91
        2
 92
        0
 93
        4
 72
     1
 10
50.0
 20
-100.0
 11
40.0
 21
-100.0
 72
     1
 10
40.0
 20
-100.0
 11
40.0
 21
-110.0
 72
     1
 10
40.0
 20
-110.0
 11
50.0
 21
-110.0
 72
     1
 10
50.0
 20
-110.0
 11
50.0
 21
-100.0
 97
        0
 92
        0
 93
        4
 72
     1
 10
40.5
 20
-109.5
 11
49.5
 21
-109.5
 72
     1
 10
49.5
 20
-109.5
 11
49.5
 21
-100.5
 72
     1
 10
49.5
 20
-100.5
 11
40.5
 21
-100.5
 72
     1
 10
40.5
 20
-100.5
 11
40.5
 21
-109.5
 97
        0
 75
     0
 76
     1
 52
0.0
 41
0.05
 77
     0
 78
     1
 53
45.0
 43
0.0
 44
0.0
 45
-0.1122532015133644
 46
0.1122532015133644
 79
     0
 98
        0
1001
ACAD
1010
0.0
1020
0.0
1030
0.0
  0
HATCH
  5
42F
330
453
100
AcDbEntity
  8
layer 36
 62
     4
420
    65535
440
 33554687
370
     0
100
AcDbHatch
 10
0.0
 20
0.0
 30
0.0
210
0.0
220
0.0
230
1.0
  2
ANSI31
 70
     0
 71
     0
 91
        2
 92
        0
 93
        4
 72
     1
 10
10.0
 20
-150.0
 11
20.0
 21
-150.0
 72
     2
 10
27.21453078830334
 20
-145.0
 40
8.777781866472694
 50
145.2762693996947
 51
214.7237306003053
 73
     0
 72
     1
 10
20.0
 20
-140.0
 11
10.0
 21
-140.0
 72
     1
 10
10.0
 20
-140.0
 11
10.0
 21
-150.0
 97
        0
 92
        0
 93
        4
 72
     1
 10
10.5
 20
-149.5
 11
19.10113221792301
 21
-149.5
 72
     2
 10
27.21453078830335
 20
-145.0
 40
9.277781866472697
 50
150.9855799822539
 51
209.0144200177461
 73
     0
 72
     1
 10
19.10113221792302
 20
-140.5
 11
10.5
 21
-140.5
 72
     1
 10
10.5
 20
-140.5
 11
10.5
 21
-149.5
 97
        0
 75
     0
 76
     1
 52
0.0
 41
0.05
 77
     0
 78
     1
 53
45.0
 43
0.0
 44
0.0
 45
-0.1122532015133644
 46
0.1122532015133644
 79
     0
 98
        0
1001
ACAD
1010
0.0
1020
0.0
1030
0.0
  0
LWPOLYLINE
  5
15F
330
453
100
AcDbEntity
  8
layer 23
 62
     2
420
 16776960
370
    13
100
AcDbPolyline
 90
        5
 70
     0
 43
0.0
 10
40.0
 20
-70.0
 10
50.0
 20
-70.0
 42
-0.3126502156338703
 10
50.0
 20
-60.0
 10
40.0
 20
-60.0
 10
40.0
 20
-70.0
  0
LWPOLYLINE
  5
2EF
330
453
100
AcDbEntity
  8
layer 37
 62
     2
420
 16776960
370
    13
100
AcDbPolyline
 90
        5
 70
     0
 43
0.0
 10
40.0
 20
-150.0
 10
50.0
 20
-150.0
 42
-0.3126502156338703
 10
50.0
 20
-140.0
 10
40.0
 20
-140.0
 10
40.0
 20
-150.0
  0
LWPOLYLINE
  5
2F0
330
453
100
AcDbEntity
  8
layer 37
 62
     2
420
 16776960
370
    13
100
AcDbPolyline
 90
        4
 70
   129
 43
0.0
 10
40.5
 20
-149.5
 10
49.10113221792301
 20
-149.5
 42
-0.2587518435760812
 10
49.10113221792302
 20
-140.5
 10
40.5
 20
-140.5
  0
HATCH
  5
430
330
453
100
AcDbEntity
  8
layer 37
 62
     4
420
    65535
440
 33554687
370
     0
100
AcDbHatch
 10
0.0
 20
0.0
 30
0.0
210
0.0
220
0.0
230
1.0
  2
ANSI31
 70
     0
 71
     0
 91
        2
 92
        0
 93
        4
 72
     1
 10
40.0
 20
-150.0
 11
50.0
 21
-150.0
 72
     2
 10
57.21453078830334
 20
-145.0
 40
8.777781866472694
 50
145.2762693996947
 51
214.7237306003053
 73
     0
 72
     1
 10
50.0
 20
-140.0
 11
40.0
 21
-140.0
 72
     1
 10
40.0
 20
-140.0
 11
40.0
 21
-150.0
 97
        0
 92
        0
 93
        4
 72
     1
 10
40.5
 20
-149.5
 11
49.10113221792301
 21
-149.5
 72
     2
 10
57.21453078830334
 20
-145.0
 40
9.2777818664727
 50
150.9855799822539
 51
209.0144200177461
 73
     0
 72
     1
 10
49.10113221792301
 20
-140.5
 11
40.5
 21
-140.5
 72
     1
 10
40.5
 20
-140.5
 11
40.5
 21
-149.5
 97
        0
 75
     0
 76
     1
 52
0.0
 41
0.05
 77
     0
 78
     1
 53
45.0
 43
0.0
 44
0.0
 45
-0.1122532015133644
 46
0.1122532015133644
 79
     0
 98
        0
1001
ACAD
1010
0.0
1020
0.0
1030
0.0
  0
HATCH
  5
431
330
453
100
AcDbEntity
  8
layer 39
 62
     4
420
    65535
440
 33554687
370
     0
100
AcDbHatch
 10
0.0
 20
0.0
 30
0.0
210
0.0
220
0.0
230
1.0
  2
ANSI31
 70
     0
 71
     0
 91
        2
 92
        0
 93
        4
 72
     1
 10
90.0
 20
-150.0
 11
100.0
 21
-150.0
 72
     1
 10
100.0
 20
-150.0
 11
100.0
 21
-140.0
 72
     1
 10
100.0
 20
-140.0
 11
90.0
 21
-140.0
 72
     2
 10
97.21453078830335
 20
-145.0
 40
8.777781866472699
 50
145.2762693996948
 51
214.7237306003052
 73
     1
 97
        0
 92
        0
 93
        4
 72
     1
 10
90.26674893875567
 20
-149.5
 11
99.5
 21
-149.5
 72
     1
 10
99.5
 20
-149.5
 11
99.5
 21
-140.5
 72
     1
 10
99.5
 20
-140.5
 11
90.26674893875567
 21
-140.5
 72
     2
 10
97.21453078830335
 20
-145.0
 40
8.277781866472699
 50
147.0693246584783
 51
212.9306753415216
 73
     1
 97
        0
 75
     0
 76
     1
 52
0.0
 41
0.05
 77
     0
 78
     1
 53
45.0
 43
0.0
 44
0.0
 45
-0.1122532015133644
 46
0.1122532015133644
 79
     0
 98
        0
1001
ACAD
1010
0.0
1020
0.0
1030
0.0
  0
HATCH
  5
432
330
453
100
AcDbEntity
  8
layer 40
 62
     4
420
    65535
440
 33554687
370
     0
100
AcDbHatch
 10
0.0
 20
0.0
 30
0.0
210
0.0
220
0.0
230
1.0
  2
ANSI31
 70
     0
 71
     0
 91
        1
 92
        0
 93
        8
 72
     2
 10
25.21453078830335
 20
-165.0
 40
8.7777818664727
 50
145.2762693996948
 51
149.1589601929097
 73
     1
 72
     1
 10
17.67798950629759
 20
-160.5
 11
10.5
 21
-160.5
 72
     1
 10
10.5
 20
-160.5
 11
10.5
 21
-169.5
 72
     1
 10
10.5
 20
-169.5
 11
17.6779895062976
 21
-169.5
 72
     2
 10
25.21453078830335
 20
-165.0
 40
8.7777818664727
 50
210.8410398070903
 51
214.7237306003052
 73
     1
 72
     1
 10
17.99999999999999
 20
-170.0
 11
10.0
 21
-170.0
 72
     1
 10
10.0
 20
-170.0
 11
10.0
 21
-160.0
 72
     1
 10
10.0
 20
-160.0
 11
18.0
 21
-160.0
 97
        0
 75
     0
 76
     1
 52
0.0
 41
0.05
 77
     0
 78
     1
 53
45.0
 43
0.0
 44
0.0
 45
-0.1122532015133644
 46
0.1122532015133644
 79
     0
 98
        0
1001
ACAD
1010
0.0
1020
0.0
1030
0.0
  0
HATCH
  5
433
330
453
100
AcDbEntity
  8
layer 40
 62
     4
420
    65535
440
 33554687
370
     0
100
AcDbHatch
 10
0.0
 20
0.0
 30
0.0
210
0.0
220
0.0
230
1.0
  2
ANSI31
 70
     0
 71
     0
 91
        1
 92
        0
 93
        4
 72
     2
 10
27.21453078830335
 20
-165.0
 40
9.277781866472697
 50
150.985579982254
 51
209.0144200177461
 73
     0
 72
     1
 10
19.10113221792302
 20
-160.5
 11
19.67798950629759
 21
-160.5
 72
     2
 10
27.21453078830334
 20
-165.0
 40
8.777781866472694
 50
149.1589601929096
 51
210.8410398070904
 73
     1
 72
     1
 10
19.67798950629759
 20
-169.5
 11
19.10113221792301
 21
-169.5
 97
        0
 75
     0
 76
     1
 52
0.0
 41
0.05
 77
     0
 78
     1
 53
45.0
 43
0.0
 44
0.0
 45
-0.1122532015133644
 46
0.1122532015133644
 79
     0
 98
        0
1001
ACAD
1010
0.0
1020
0.0
1030
0.0
  0
HATCH
  5
434
330
453
100
AcDbEntity
  8
layer 41
 62
     4
420
    65535
440
 33554687
370
     0
100
AcDbHatch
 10
0.0
 20
0.0
 30
0.0
210
0.0
220
0.0
230
1.0
  2
ANSI31
 70
     0
 71
     0
 91
        2
 92
        0
 93
       10
 72
     2
 10
57.21453078830334
 20
-165.0
 40
8.777781866472688
 50
199.9848702649143
 51
214.7237306003053
 73
     0
 72
     1
 10
50.0
 20
-160.0
 11
40.0
 21
-160.0
 72
     1
 10
40.0
 20
-160.0
 11
40.0
 21
-170.0
 72
     1
 10
40.0
 20
-170.0
 11
46.96532146283603
 21
-170.0
 72
     2
 10
55.21453078830343
 20
-167.0000000000001
 40
8.777781866472756
 50
160.0151297350864
 51
163.452508652278
 73
     0
 72
     1
 10
46.80028961661252
 20
-169.5
 11
40.5
 21
-169.5
 72
     1
 10
40.5
 20
-169.5
 11
40.5
 21
-160.5
 72
     1
 10
40.5
 20
-160.5
 11
49.10113221792301
 21
-160.5
 72
     2
 10
57.21453078830336
 20
-165.0
 40
9.27778186647271
 50
150.9855799822539
 51
161.134169047605
 73
     1
 72
     1
 10
48.43516655381292
 20
-162.0
 11
48.96532146283604
 21
-162.0
 97
        0
 92
        0
 93
        6
 72
     1
 10
48.80028961661252
 20
-162.5
 11
48.27992187901975
 21
-162.5
 72
     2
 10
57.21453078830334
 20
-165.0
 40
9.2777818664727
 50
164.3678066965574
 51
209.0144200177461
 73
     1
 72
     1
 10
49.10113221792301
 20
-169.5
 11
47.32329054174487
 21
-169.5
 72
     2
 10
55.21453078830332
 20
-167.0
 40
8.27778186647267
 50
197.5785652084535
 51
201.248640785325
 73
     1
 72
     1
 10
47.4995017780595
 20
-170.0
 11
50.0
 21
-170.0
 72
     2
 10
57.21453078830334
 20
-165.0
 40
8.777781866472692
 50
145.2762693996947
 51
196.5474913477228
 73
     0
 97
        0
 75
     0
 76
     1
 52
0.0
 41
0.05
 77
     0
 78
     1
 53
45.0
 43
0.0
 44
0.0
 45
-0.1122532015133644
 46
0.1122532015133644
 79
     0
 98
        0
1001
ACAD
1010
0.0
1020
0.0
1030
0.0
  0
HATCH
  5
435
330
453
100
AcDbEntity
  8
layer 42
 62
     4
420
    65535
440
 33554687
370
     0
100
AcDbHatch
 10
0.0
 20
0.0
 30
0.0
210
0.0
220
0.0
230
1.0
  2
ANSI31
 70
     0
 71
     0
 91
        8
 92
        0
 93
        8
 72
     2
 10
87.2145307883033
 20
-165.0000000000001
 40
8.77778186647269
 50
205.6862072243743
 51
214.7237306003057
 73
     0
 72
     1
 10
80.0
 20
-160.0
 11
70.0
 21
-160.0
 72
     1
 10
70.0
 20
-160.0
 11
70.0
 21
-161.4132988484677
 72
     2
 10
75.49999999999974
 20
-197.5000000000005
 40
36.50342449688844
 50
261.3341978824517
 51
262.1272495222082
 73
     0
 72
     1
 10
70.5
 20
-161.3406305364709
 11
70.5
 21
-160.5
 72
     1
 10
70.5
 20
-160.5
 11
79.10113221792301
 21
-160.5
 72
     2
 10
87.21453078830325
 20
-165.0
 40
9.277781866472619
 50
150.9855799822536
 51
155.441043755676
 73
     1
 72
     2
 10
75.49999999999909
 20
-197.5000000000005
 40
36.50342449688854
 50
275.1490510579567
 51
275.9818666674586
 73
     0
 97
        0
 92
        0
 93
        4
 72
     1
 10
70.0
 20
-161.9191543734116
 11
70.0
 21
-163.5
 72
     1
 10
70.0
 20
-163.5
 11
70.5
 21
-163.5
 72
     1
 10
70.5
 20
-163.5
 11
70.5
 21
-161.8454550512405
 72
     2
 10
75.4999999999995
 20
-197.5000000000011
 40
36.00342449688895
 50
97.98279183048894
 51
98.78709483443814
 73
     1
 97
        0
 92
        0
 93
        4
 72
     2
 10
87.2145307883033
 20
-165.0000000000001
 40
9.277781866472685
 50
189.3042240648261
 51
201.3133938306639
 73
     0
 72
     2
 10
75.50000000000034
 20
-197.500000000001
 40
36.00342449688889
 50
274.8935937376354
 51
275.7233356937494
 73
     0
 72
     2
 10
87.21453078830334
 20
-165.0
 40
8.777781866472692
 50
157.7482103813661
 51
170.1606632593036
 73
     1
 72
     1
 10
78.56586300098621
 20
-163.5
 11
78.05880927867616
 21
-163.5
 97
        0
 92
        0
 93
        4
 72
     1
 10
70.0
 20
-164.0
 11
70.0
 21
-166.0
 72
     1
 10
70.0
 20
-166.0
 11
70.5
 21
-166.0
 72
     1
 10
70.5
 20
-166.0
 11
70.5
 21
-164.0
 72
     1
 10
70.5
 20
-164.0
 11
70.0
 21
-164.0
 97
        0
 92
        0
 93
        4
 72
     1
 10
78.49389695265945
 20
-164.0
 11
77.99079855228035
 21
-164.0
 72
     2
 10
87.2145307883033
 20
-165.0
 40
9.27778186647267
 50
173.8123893132157
 51
186.1876106867844
 73
     1
 72
     1
 10
77.99079855228035
 20
-166.0
 11
78.49389695265947
 21
-166.0
 72
     2
 10
87.2145307883033
 20
-165.0
 40
8.777781866472672
 50
173.4584332226382
 51
186.5415667773618
 73
     0
 97
        0
 92
        0
 93
        4
 72
     1
 10
70.0
 20
-166.5
 11
70.0
 21
-168.0808456265884
 72
     2
 10
75.49999999999903
 20
-132.4999999999977
 40
36.0034244968901
 50
261.2129051655627
 51
262.017208169512
 73
     1
 72
     1
 10
70.49999999999994
 20
-168.1545449487595
 11
70.5
 21
-166.5
 72
     1
 10
70.5
 20
-166.5
 11
70.0
 21
-166.5
 97
        0
 92
        0
 93
        4
 72
     1
 10
78.05880927867616
 20
-166.5
 11
78.56586300098621
 21
-166.5
 72
     2
 10
87.21453078830336
 20
-165.0
 40
8.777781866472727
 50
189.8393367406964
 51
202.2517896186341
 73
     1
 72
     2
 10
75.4999999999999
 20
-132.4999999999991
 40
36.0034244968889
 50
84.2766643062498
 51
85.10640626236399
 73
     0
 72
     2
 10
87.21453078830332
 20
-165.0
 40
9.277781866472694
 50
158.6866061693367
 51
170.6957759351745
 73
     0
 97
        0
 92
        0
 93
        8
 72
     2
 10
75.50000000000045
 20
-132.4999999999997
 40
36.50342449688828
 50
97.8727504777929
 51
98.66580211754949
 73
     0
 72
     1
 10
69.99999999999999
 20
-168.5867011515322
 11
70.0
 21
-170.0
 72
     1
 10
70.0
 20
-170.0
 11
80.0
 21
-170.0
 72
     2
 10
87.21453078830335
 20
-165.0
 40
8.777781866472715
 50
145.2762693996947
 51
154.313792775626
 73
     0
 72
     2
 10
75.50000000000013
 20
-132.4999999999991
 40
36.50342449688885
 50
84.01813333254312
 51
84.85094894204512
 73
     0
 72
     2
 10
87.21453078830345
 20
-165.0000000000001
 40
9.27778186647275
 50
204.5589562443231
 51
209.0144200177455
 73
     1
 72
     1
 10
79.10113221792302
 20
-169.5
 11
70.5
 21
-169.5
 72
     1
 10
70.5
 20
-169.5
 11
70.50000000000001
 21
-168.6593694635291
 97
        0
 75
     0
 76
     1
 52
0.0
 41
0.05
 77
     0
 78
     1
 53
45.0
 43
0.0
 44
0.0
 45
-0.1122532015133644
 46
0.1122532015133644
 79
     0
 98
        0
1001
ACAD
1010
0.0
1020
0.0
1030
0.0
  0
HATCH
  5
409
330
453
100
AcDbEntity
  8
layer 1
 62
     4
420
    65535
440
 33554687
370
     0
100
AcDbHatch
 10
0.0
 20
0.0
 30
0.0
210
0.0
220
0.0
230
1.0
  2
ANSI31
 70
     0
 71
     0
 91
        1
 92
        0
 93
        4
 72
     1
 10
10.0
 20
50.0
 11
20.0
 21
50.0
 72
     1
 10
20.0
 20
50.0
 11
20.0
 21
60.0
 72
     1
 10
20.0
 20
60.0
 11
10.0
 21
60.0
 72
     1
 10
10.0
 20
60.0
 11
10.0
 21
50.0
 97
        0
 75
     0
 76
     1
 52
0.0
 41
0.05
 77
     0
 78
     1
 53
45.0
 43
0.0
 44
0.0
 45
-0.1122532015133644
 46
0.1122532015133644
 79
     0
 98
        0
1001
ACAD
1010
0.0
1020
0.0
1030
0.0
  0
HATCH
  5
40A
330
453
100
AcDbEntity
  8
layer 2
 62
     4
420
    65535
440
 33554687
370
     0
100
AcDbHatch
 10
0.0
 20
0.0
 30
0.0
210
0.0
220
0.0
230
1.0
  2
ANSI31
 70
     0
 71
     0
 91
        1
 92
        0
 93
        4
 72
     1
 10
50.0
 20
60.0
 11
40.0
 21
60.0
 72
     1
 10
40.0
 20
60.0
 11
40.0
 21
50.0
 72
     1
 10
40.0
 20
50.0
 11
50.0
 21
50.0
 72
     1
 10
50.0
 20
50.0
 11
50.0
 21
60.0
 97
        0
 75
     0
 76
     1
 52
0.0
 41
0.05
 77
     0
 78
     1
 53
45.0
 43
0.0
 44
0.0
 45
-0.1122532015133644
 46
0.1122532015133644
 79
     0
 98
        0
1001
ACAD
1010
0.0
1020
0.0
1030
0.0
  0
HATCH
  5
40F
330
453
100
AcDbEntity
  8
layer 8
 62
     4
420
    65535
440
 33554687
370
     0
100
AcDbHatch
 10
0.0
 20
0.0
 30
0.0
210
0.0
220
0.0
230
1.0
  2
ANSI31
 70
     0
 71
     0
 91
        1
 92
        0
 93
        4
 72
     1
 10
10.0
 20
10.0
 11
20.0
 21
10.0
 72
     2
 10
27.21453078830334
 20
15.0
 40
8.777781866472694
 50
145.2762693996947
 51
214.7237306003053
 73
     0
 72
     1
 10
20.0
 20
20.0
 11
10.0
 21
20.0
 72
     1
 10
10.0
 20
20.0
 11
10.0
 21
10.0
 97
        0
 75
     0
 76
     1
 52
0.0
 41
0.05
 77
     0
 78
     1
 53
45.0
 43
0.0
 44
0.0
 45
-0.1122532015133644
 46
0.1122532015133644
 79
     0
 98
        0
1001
ACAD
1010
0.0
1020
0.0
1030
0.0
  0
HATCH
  5
410
330
453
100
AcDbEntity
  8
layer 9
 62
     4
420
    65535
440
 33554687
370
     0
100
AcDbHatch
 10
0.0
 20
0.0
 30
0.0
210
0.0
220
0.0
230
1.0
  2
ANSI31
 70
     0
 71
     0
 91
        1
 92
        0
 93
        4
 72
     1
 10
40.0
 20
10.0
 11
50.0
 21
10.0
 72
     2
 10
57.21453078830334
 20
15.0
 40
8.777781866472694
 50
145.2762693996947
 51
214.7237306003053
 73
     0
 72
     1
 10
50.0
 20
20.0
 11
40.0
 21
20.0
 72
     1
 10
40.0
 20
20.0
 11
40.0
 21
10.0
 97
        0
 75
     0
 76
     1
 52
0.0
 41
0.05
 77
     0
 78
     1
 53
45.0
 43
0.0
 44
0.0
 45
-0.1122532015133644
 46
0.1122532015133644
 79
     0
 98
        0
1001
ACAD
1010
0.0
1020
0.0
1030
0.0
  0
HATCH
  5
415
330
453
100
AcDbEntity
  8
layer 15
 62
     4
420
    65535
440
 33554687
370
     0
100
AcDbHatch
 10
0.0
 20
0.0
 30
0.0
210
0.0
220
0.0
230
1.0
  2
ANSI31
 70
     0
 71
     0
 91
        1
 92
        0
 93
        4
 72
     1
 10
10.0
 20
-30.0
 11
20.0
 21
-30.0
 72
     1
 10
20.0
 20
-30.0
 11
20.0
 21
-20.0
 72
     1
 10
20.0
 20
-20.0
 11
10.0
 21
-20.0
 72
     1
 10
10.0
 20
-20.0
 11
10.0
 21
-30.0
 97
        0
 75
     0
 76
     1
 52
0.0
 41
0.05
 77
     0
 78
     1
 53
45.0
 43
0.0
 44
0.0
 45
-0.1122532015133644
 46
0.1122532015133644
 79
     0
 98
        0
1001
ACAD
1010
0.0
1020
0.0
1030
0.0
  0
HATCH
  5
416
330
453
100
AcDbEntity
  8
layer 16
 62
     4
420
    65535
440
 33554687
370
     0
100
AcDbHatch
 10
0.0
 20
0.0
 30
0.0
210
0.0
220
0.0
230
1.0
  2
ANSI31
 70
     0
 71
     0
 91
        1
 92
        0
 93
        4
 72
     1
 10
50.0
 20
-20.0
 11
40.0
 21
-20.0
 72
     1
 10
40.0
 20
-20.0
 11
40.0
 21
-30.0
 72
     1
 10
40.0
 20
-30.0
 11
50.0
 21
-30.0
 72
     1
 10
50.0
 20
-30.0
 11
50.0
 21
-20.0
 97
        0
 75
     0
 76
     1
 52
0.0
 41
0.05
 77
     0
 78
     1
 53
45.0
 43
0.0
 44
0.0
 45
-0.1122532015133644
 46
0.1122532015133644
 79
     0
 98
        0
1001
ACAD
1010
0.0
1020
0.0
1030
0.0
  0
HATCH
  5
417
330
453
100
AcDbEntity
  8
layer 17
 62
     4
420
    65535
440
 33554687
370
     0
100
AcDbHatch
 10
0.0
 20
0.0
 30
0.0
210
0.0
220
0.0
230
1.0
  2
ANSI31
 70
     0
 71
     0
 91
        1
 92
        0
 93
        4
 72
     1
 10
70.5
 20
-29.5
 11
79.5
 21
-29.5
 72
     1
 10
79.5
 20
-29.5
 11
79.5
 21
-20.5
 72
     1
 10
79.5
 20
-20.5
 11
70.5
 21
-20.5
 72
     1
 10
70.5
 20
-20.5
 11
70.5
 21
-29.5
 97
        0
 75
     0
 76
     1
 52
0.0
 41
0.05
 77
     0
 78
     1
 53
45.0
 43
0.0
 44
0.0
 45
-0.1122532015133644
 46
0.1122532015133644
 79
     0
 98
        0
1001
ACAD
1010
0.0
1020
0.0
1030
0.0
  0
HATCH
  5
419
330
453
100
AcDbEntity
  8
layer 18
 62
     4
420
    65535
440
 33554687
370
     0
100
AcDbHatch
 10
0.0
 20
0.0
 30
0.0
210
0.0
220
0.0
230
1.0
  2
ANSI31
 70
     0
 71
     0
 91
        2
 92
        0
 93
        4
 72
     1
 10
90.0
 20
-30.0
 11
100.0
 21
-30.0
 72
     1
 10
100.0
 20
-30.0
 11
100.0
 21
-20.0
 72
     1
 10
100.0
 20
-20.0
 11
90.0
 21
-20.0
 72
     1
 10
90.0
 20
-20.0
 11
90.0
 21
-30.0
 97
        0
 92
        0
 93
        4
 72
     1
 10
92.0
 20
-28.0
 11
98.0
 21
-28.0
 72
     1
 10
98.0
 20
-28.0
 11
98.0
 21
-22.0
 72
     1
 10
98.0
 20
-22.0
 11
92.0
 21
-22.0
 72
     1
 10
92.0
 20
-22.0
 11
92.0
 21
-28.0
 97
        0
 75
     0
 76
     1
 52
0.0
 41
0.05
 77
     0
 78
     1
 53
45.0
 43
0.0
 44
0.0
 45
-0.1122532015133644
 46
0.1122532015133644
 79
     0
 98
        0
1001
ACAD
1010
0.0
1020
0.0
1030
0.0
  0
HATCH
  5
418
330
453
100
AcDbEntity
  8
layer 18
 62
     4
420
    65535
440
 33554687
370
     0
100
AcDbHatch
 10
0.0
 20
0.0
 30
0.0
210
0.0
220
0.0
230
1.0
  2
ANSI31
 70
     0
 71
     0
 91
        1
 92
        0
 93
        4
 72
     1
 10
92.5
 20
-27.5
 11
97.5
 21
-27.5
 72
     1
 10
97.5
 20
-27.5
 11
97.5
 21
-22.5
 72
     1
 10
97.5
 20
-22.5
 11
92.5
 21
-22.5
 72
     1
 10
92.5
 20
-22.5
 11
92.5
 21
-27.5
 97
        0
 75
     0
 76
     1
 52
0.0
 41
0.05
 77
     0
 78
     1
 53
45.0
 43
0.0
 44
0.0
 45
-0.1122532015133644
 46
0.1122532015133644
 79
     0
 98
        0
1001
ACAD
1010
0.0
1020
0.0
1030
0.0
  0
HATCH
  5
41A
330
453
100
AcDbEntity
  8
layer 19
 62
     4
420
    65535
440
 33554687
370
     0
100
AcDbHatch
 10
0.0
 20
0.0
 30
0.0
210
0.0
220
0.0
230
1.0
  2
ANSI31
 70
     0
 71
     0
 91
        1
 92
        0
 93
        4
 72
     1
 10
18.0
 20
-40.0
 11
10.0
 21
-40.0
 72
     1
 10
10.0
 20
-40.0
 11
10.0
 21
-50.0
 72
     1
 10
10.0
 20
-50.0
 11
18.0
 21
-50.0
 72
     1
 10
18.0
 20
-50.0
 11
18.0
 21
-40.0
 97
        0
 75
     0
 76
     1
 52
0.0
 41
0.05
 77
     0
 78
     1
 53
45.0
 43
0.0
 44
0.0
 45
-0.1122532015133644
 46
0.1122532015133644
 79
     0
 98
        0
1001
ACAD
1010
0.0
1020
0.0
1030
0.0
  0
HATCH
  5
41B
330
453
100
AcDbEntity
  8
layer 19
 62
     4
420
    65535
440
 33554687
370
     0
100
AcDbHatch
 10
0.0
 20
0.0
 30
0.0
210
0.0
220
0.0
230
1.0
  2
ANSI31
 70
     0
 71
     0
 91
        1
 92
        0
 93
        4
 72
     1
 10
20.0
 20
-40.5
 11
18.5
 21
-40.5
 72
     1
 10
18.5
 20
-40.5
 11
18.5
 21
-49.5
 72
     1
 10
18.5
 20
-49.5
 11
20.0
 21
-49.5
 72
     1
 10
20.0
 20
-49.5
 11
20.0
 21
-40.5
 97
        0
 75
     0
 76
     1
 52
0.0
 41
0.05
 77
     0
 78
     1
 53
45.0
 43
0.0
 44
0.0
 45
-0.1122532015133644
 46
0.1122532015133644
 79
     0
 98
        0
1001
ACAD
1010
0.0
1020
0.0
1030
0.0
  0
HATCH
  5
41C
330
453
100
AcDbEntity
  8
layer 20
 62
     4
420
    65535
440
 33554687
370
     0
100
AcDbHatch
 10
0.0
 20
0.0
 30
0.0
210
0.0
220
0.0
230
1.0
  2
ANSI31
 70
     0
 71
     0
 91
        1
 92
        0
 93
        6
 72
     1
 10
50.0
 20
-42.0
 11
50.0
 21
-40.0
 72
     1
 10
50.0
 20
-40.0
 11
40.0
 21
-40.0
 72
     1
 10
40.0
 20
-40.0
 11
40.0
 21
-50.0
 72
     1
 10
40.0
 20
-50.0
 11
48.0
 21
-50.0
 72
     1
 10
48.0
 20
-50.0
 11
48.0
 21
-42.0
 72
     1
 10
48.0
 20
-42.0
 11
50.0
 21
-42.0
 97
        0
 75
     0
 76
     1
 52
0.0
 41
0.05
 77
     0
 78
     1
 53
45.0
 43
0.0
 44
0.0
 45
-0.1122532015133644
 46
0.1122532015133644
 79
     0
 98
        0
1001
ACAD
1010
0.0
1020
0.0
1030
0.0
  0
HATCH
  5
41D
330
453
100
AcDbEntity
  8
layer 20
 62
     4
420
    65535
440
 33554687
370
     0
100
AcDbHatch
 10
0.0
 20
0.0
 30
0.0
210
0.0
220
0.0
230
1.0
  2
ANSI31
 70
     0
 71
     0
 91
        1
 92
        0
 93
        4
 72
     1
 10
50.0
 20
-42.5
 11
48.5
 21
-42.5
 72
     1
 10
48.5
 20
-42.5
 11
48.5
 21
-50.0
 72
     1
 10
48.5
 20
-50.0
 11
50.0
 21
-50.0
 72
     1
 10
50.0
 20
-50.0
 11
50.0
 21
-42.5
 97
        0
 75
     0
 76
     1
 52
0.0
 41
0.05
 77
     0
 78
     1
 53
45.0
 43
0.0
 44
0.0
 45
-0.1122532015133644
 46
0.1122532015133644
 79
     0
 98
        0
1001
ACAD
1010
0.0
1020
0.0
1030
0.0
  0
HATCH
  5
41E
330
453
100
AcDbEntity
  8
layer 21
 62
     4
420
    65535
440
 33554687
370
     0
100
AcDbHatch
 10
0.0
 20
0.0
 30
0.0
210
0.0
220
0.0
230
1.0
  2
ANSI31
 70
     0
 71
     0
 91
        5
 92
        0
 93
        4
 72
     1
 10
80.0
 20
-42.0
 11
80.0
 21
-40.0
 72
     1
 10
80.0
 20
-40.0
 11
70.0
 21
-40.0
 72
     1
 10
70.0
 20
-40.0
 11
70.0
 21
-42.0
 72
     1
 10
70.0
 20
-42.0
 11
80.0
 21
-42.0
 97
        0
 92
        0
 93
        4
 72
     1
 10
70.0
 20
-42.5
 11
80.0
 21
-42.5
 72
     1
 10
80.0
 20
-42.5
 11
80.0
 21
-43.5
 72
     1
 10
80.0
 20
-43.5
 11
70.0
 21
-43.5
 72
     1
 10
70.0
 20
-43.5
 11
70.0
 21
-42.5
 97
        0
 92
        0
 93
        4
 72
     1
 10
80.0
 20
-44.0
 11
70.0
 21
-44.0
 72
     1
 10
70.0
 20
-44.0
 11
70.0
 21
-46.0
 72
     1
 10
70.0
 20
-46.0
 11
80.0
 21
-46.0
 72
     1
 10
80.0
 20
-46.0
 11
80.0
 21
-44.0
 97
        0
 92
        0
 93
        4
 72
     1
 10
70.0
 20
-46.5
 11
80.0
 21
-46.5
 72
     1
 10
80.0
 20
-46.5
 11
80.0
 21
-47.5
 72
     1
 10
80.0
 20
-47.5
 11
70.0
 21
-47.5
 72
     1
 10
70.0
 20
-47.5
 11
70.0
 21
-46.5
 97
        0
 92
        0
 93
        4
 72
     1
 10
80.0
 20
-48.0
 11
70.0
 21
-48.0
 72
     1
 10
70.0
 20
-48.0
 11
70.0
 21
-50.0
 72
     1
 10
70.0
 20
-50.0
 11
80.0
 21
-50.0
 72
     1
 10
80.0
 20
-50.0
 11
80.0
 21
-48.0
 97
        0
 75
     0
 76
     1
 52
0.0
 41
0.05
 77
     0
 78
     1
 53
45.0
 43
0.0
 44
0.0
 45
-0.1122532015133644
 46
0.1122532015133644
 79
     0
 98
        0
1001
ACAD
1010
0.0
1020
0.0
1030
0.0
  0
HATCH
  5
41F
330
453
100
AcDbEntity
  8
layer 22
 62
     4
420
    65535
440
 33554687
370
     0
100
AcDbHatch
 10
0.0
 20
0.0
 30
0.0
210
0.0
220
0.0
230
1.0
  2
ANSI31
 70
     0
 71
     0
 91
        1
 92
        0
 93
        4
 72
     1
 10
10.0
 20
-70.0
 11
20.0
 21
-70.0
 72
     2
 10
27.21453078830334
 20
-65.0
 40
8.777781866472694
 50
145.2762693996947
 51
214.7237306003053
 73
     0
 72
     1
 10
20.0
 20
-60.0
 11
10.0
 21
-60.0
 72
     1
 10
10.0
 20
-60.0
 11
10.0
 21
-70.0
 97
        0
 75
     0
 76
     1
 52
0.0
 41
0.05
 77
     0
 78
     1
 53
45.0
 43
0.0
 44
0.0
 45
-0.1122532015133644
 46
0.1122532015133644
 79
     0
 98
        0
1001
ACAD
1010
0.0
1020
0.0
1030
0.0
  0
HATCH
  5
420
330
453
100
AcDbEntity
  8
layer 23
 62
     4
420
    65535
440
 33554687
370
     0
100
AcDbHatch
 10
0.0
 20
0.0
 30
0.0
210
0.0
220
0.0
230
1.0
  2
ANSI31
 70
     0
 71
     0
 91
        1
 92
        0
 93
        4
 72
     1
 10
40.0
 20
-70.0
 11
50.0
 21
-70.0
 72
     2
 10
57.21453078830334
 20
-65.0
 40
8.777781866472694
 50
145.2762693996947
 51
214.7237306003053
 73
     0
 72
     1
 10
50.0
 20
-60.0
 11
40.0
 21
-60.0
 72
     1
 10
40.0
 20
-60.0
 11
40.0
 21
-70.0
 97
        0
 75
     0
 76
     1
 52
0.0
 41
0.05
 77
     0
 78
     1
 53
45.0
 43
0.0
 44
0.0
 45
-0.1122532015133644
 46
0.1122532015133644
 79
     0
 98
        0
1001
ACAD
1010
0.0
1020
0.0
1030
0.0
  0
HATCH
  5
421
330
453
100
AcDbEntity
  8
layer 24
 62
     4
420
    65535
440
 33554687
370
     0
100
AcDbHatch
 10
0.0
 20
0.0
 30
0.0
210
0.0
220
0.0
230
1.0
  2
ANSI31
 70
     0
 71
     0
 91
        1
 92
        0
 93
        4
 72
     1
 10
70.26674893875567
 20
-69.5
 11
79.5
 21
-69.5
 72
     1
 10
79.5
 20
-69.5
 11
79.5
 21
-60.5
 72
     1
 10
79.5
 20
-60.5
 11
70.26674893875567
 21
-60.5
 72
     2
 10
77.21453078830335
 20
-65.0
 40
8.277781866472699
 50
147.0693246584783
 51
212.9306753415216
 73
     1
 97
        0
 75
     0
 76
     1
 52
0.0
 41
0.05
 77
     0
 78
     1
 53
45.0
 43
0.0
 44
0.0
 45
-0.1122532015133644
 46
0.1122532015133644
 79
     0
 98
        0
1001
ACAD
1010
0.0
1020
0.0
1030
0.0
  0
HATCH
  5
422
330
453
100
AcDbEntity
  8
layer 25
 62
     4
420
    65535
440
 33554687
370
     0
100
AcDbHatch
 10
0.0
 20
0.0
 30
0.0
210
0.0
220
0.0
230
1.0
  2
ANSI31
 70
     0
 71
     0
 91
        2
 92
        0
 93
        4
 72
     1
 10
90.0
 20
-70.0
 11
100.0
 21
-70.0
 72
     1
 10
100.0
 20
-70.0
 11
100.0
 21
-60.0
 72
     1
 10
100.0
 20
-60.0
 11
90.0
 21
-60.0
 72
     2
 10
97.21453078830335
 20
-65.0
 40
8.777781866472699
 50
145.2762693996948
 51
214.7237306003052
 73
     1
 97
        0
 92
        0
 93
        4
 72
     1
 10
91.0
 20
-68.0
 11
98.0
 21
-68.0
 72
     1
 10
98.0
 20
-68.0
 11
98.0
 21
-62.0
 72
     1
 10
98.0
 20
-62.0
 11
91.0
 21
-62.0
 72
     2
 10
95.328718472982
 20
-65.0
 40
5.266669119883619
 50
145.2762693996947
 51
214.7237306003053
 73
     1
 97
        0
 75
     0
 76
     1
 52
0.0
 41
0.05
 77
     0
 78
     1
 53
45.0
 43
0.0
 44
0.0
 45
-0.1122532015133644
 46
0.1122532015133644
 79
     0
 98
        0
1001
ACAD
1010
0.0
1020
0.0
1030
0.0
  0
HATCH
  5
423
330
453
100
AcDbEntity
  8
layer 25
 62
     4
420
    65535
440
 33554687
370
     0
100
AcDbHatch
 10
0.0
 20
0.0
 30
0.0
210
0.0
220
0.0
230
1.0
  2
ANSI31
 70
     0
 71
     0
 91
        1
 92
        0
 93
        4
 72
     1
 10
91.27025392361706
 20
-67.5
 11
97.5
 21
-67.5
 72
     1
 10
97.5
 20
-67.5
 11
97.5
 21
-62.5
 72
     1
 10
97.5
 20
-62.5
 11
91.27025392361706
 21
-62.5
 72
     2
 10
95.32871847298202
 20
-65.0
 40
4.766669119883624
 50
148.3670756371744
 51
211.6329243628256
 73
     1
 97
        0
 75
     0
 76
     1
 52
0.0
 41
0.05
 77
     0
 78
     1
 53
45.0
 43
0.0
 44
0.0
 45
-0.1122532015133644
 46
0.1122532015133644
 79
     0
 98
        0
1001
ACAD
1010
0.0
1020
0.0
1030
0.0
  0
HATCH
  5
424
330
453
100
AcDbEntity
  8
layer 26
 62
     4
420
    65535
440
 33554687
370
     0
100
AcDbHatch
 10
0.0
 20
0.0
 30
0.0
210
0.0
220
0.0
230
1.0
  2
ANSI31
 70
     0
 71
     0
 91
        1
 92
        0
 93
        4
 72
     1
 10
18.0
 20
-80.0
 11
10.0
 21
-80.0
 72
     1
 10
10.0
 20
-80.0
 11
10.0
 21
-90.0
 72
     1
 10
10.0
 20
-90.0
 11
18.0
 21
-90.0
 72
     2
 10
25.21453078830335
 20
-85.0
 40
8.7777818664727
 50
145.2762693996948
 51
214.7237306003052
 73
     0
 97
        0
 75
     0
 76
     1
 52
0.0
 41
0.05
 77
     0
 78
     1
 53
45.0
 43
0.0
 44
0.0
 45
-0.1122532015133644
 46
0.1122532015133644
 79
     0
 98
        0
1001
ACAD
1010
0.0
1020
0.0
1030
0.0
  0
HATCH
  5
425
330
453
100
AcDbEntity
  8
layer 26
 62
     4
420
    65535
440
 33554687
370
     0
100
AcDbHatch
 10
0.0
 20
0.0
 30
0.0
210
0.0
220
0.0
230
1.0
  2
ANSI31
 70
     0
 71
     0
 91
        1
 92
        0
 93
        4
 72
     1
 10
19.6779895062976
 20
-80.49999999999999
 11
18.26674893875566
 21
-80.49999999999999
 72
     2
 10
25.21453078830334
 20
-84.99999999999999
 40
8.277781866472699
 50
147.0693246584784
 51
212.9306753415216
 73
     1
 72
     1
 10
18.26674893875566
 20
-89.49999999999999
 11
19.67798950629759
 21
-89.49999999999999
 72
     2
 10
27.21453078830334
 20
-85.0
 40
8.777781866472688
 50
149.1589601929097
 51
210.8410398070905
 73
     0
 97
        0
 75
     0
 76
     1
 52
0.0
 41
0.05
 77
     0
 78
     1
 53
45.0
 43
0.0
 44
0.0
 45
-0.1122532015133644
 46
0.1122532015133644
 79
     0
 98
        0
1001
ACAD
1010
0.0
1020
0.0
1030
0.0
  0
HATCH
  5
426
330
453
100
AcDbEntity
  8
layer 27
 62
     4
420
    65535
440
 33554687
370
     0
100
AcDbHatch
 10
0.0
 20
0.0
 30
0.0
210
0.0
220
0.0
230
1.0
  2
ANSI31
 70
     0
 71
     0
 91
        2
 92
        0
 93
        6
 72
     2
 10
57.21453078830334
 20
-85.0
 40
8.777781866472688
 50
199.9848702649143
 51
214.7237306003053
 73
     0
 72
     1
 10
50.0
 20
-80.0
 11
40.0
 21
-80.0
 72
     1
 10
40.0
 20
-80.0
 11
40.0
 21
-90.0
 72
     1
 10
40.0
 20
-90.0
 11
46.96532146283603
 21
-90.0
 72
     2
 10
55.21453078830336
 20
-87.0
 40
8.777781866472703
 50
160.0151297350857
 51
214.7237306003052
 73
     0
 72
     1
 10
48.0
 20
-82.0
 11
48.96532146283603
 21
-82.0
 97
        0
 92
        0
 93
        4
 72
     1
 10
48.80028961661252
 20
-82.5
 11
48.26674893875566
 21
-82.5
 72
     2
 10
55.21453078830336
 20
-87.0
 40
8.27778186647271
 50
147.0693246584784
 51
201.248640785325
 73
     1
 72
     1
 10
47.4995017780595
 20
-90.0
 11
50.0
 21
-90.0
 72
     2
 10
57.21453078830334
 20
-85.0
 40
8.777781866472692
 50
145.2762693996947
 51
196.5474913477228
 73
     0
 97
        0
 75
     0
 76
     1
 52
0.0
 41
0.05
 77
     0
 78
     1
 53
45.0
 43
0.0
 44
0.0
 45
-0.1122532015133644
 46
0.1122532015133644
 79
     0
 98
        0
1001
ACAD
1010
0.0
1020
0.0
1030
0.0
  0
HATCH
  5
427
330
453
100
AcDbEntity
  8
layer 28
 62
     4
420
    65535
440
 33554687
370
     0
100
AcDbHatch
 10
0.0
 20
0.0
 30
0.0
210
0.0
220
0.0
230
1.0
  2
ANSI31
 70
     0
 71
     0
 91
        5
 92
        0
 93
        4
 72
     2
 10
87.21453078830329
 20
-85.00000000000004
 40
8.777781866472685
 50
205.6862072243744
 51
214.7237306003057
 73
     0
 72
     1
 10
80.0
 20
-80.0
 11
70.0
 21
-80.0
 72
     1
 10
70.0
 20
-80.0
 11
70.0
 21
-81.41329884846775
 72
     2
 10
75.50000000000003
 20
-117.5000000000009
 40
36.50342449688879
 50
261.3341978824513
 51
275.9818666674571
 73
     0
 97
        0
 92
        0
 93
        4
 72
     2
 10
75.49999999999999
 20
-117.5000000000009
 40
36.00342449688883
 50
261.212905165561
 51
275.72333569375
 73
     0
 72
     2
 10
87.21453078830334
 20
-85.0
 40
8.777781866472692
 50
157.7482103813661
 51
170.1606632593036
 73
     1
 72
     1
 10
78.56586300098621
 20
-83.5
 11
70.0
 21
-83.5
 72
     1
 10
70.0
 20
-83.5
 11
70.0
 21
-81.91915437341163
 97
        0
 92
        0
 93
        4
 72
     1
 10
78.49389695265945
 20
-84.0
 11
70.0
 21
-84.0
 72
     1
 10
70.0
 20
-84.0
 11
70.0
 21
-86.0
 72
     1
 10
70.0
 20
-86.0
 11
78.49389695265947
 21
-86.0
 72
     2
 10
87.2145307883033
 20
-85.0
 40
8.777781866472672
 50
173.4584332226382
 51
186.5415667773618
 73
     0
 97
        0
 92
        0
 93
        4
 72
     1
 10
70.0
 20
-86.5
 11
78.56586300098621
 21
-86.5
 72
     2
 10
87.21453078830336
 20
-84.99999999999999
 40
8.777781866472727
 50
189.8393367406964
 51
202.2517896186341
 73
     1
 72
     2
 10
75.49999999999997
 20
-52.49999999999899
 40
36.00342449688897
 50
84.27666430624996
 51
98.78709483443896
 73
     0
 72
     1
 10
69.99999999999996
 20
-88.08084562658837
 11
70.0
 21
-86.5
 97
        0
 92
        0
 93
        4
 72
     2
 10
75.5
 20
-52.49999999999916
 40
36.50342449688877
 50
84.0181333325429
 51
98.66580211754868
 73
     0
 72
     1
 10
69.99999999999997
 20
-88.58670115153224
 11
70.0
 21
-90.0
 72
     1
 10
70.0
 20
-90.0
 11
80.0
 21
-90.0
 72
     2
 10
87.21453078830335
 20
-84.99999999999999
 40
8.777781866472715
 50
145.2762693996947
 51
154.313792775626
 73
     0
 97
        0
 75
     0
 76
     1
 52
0.0
 41
0.05
 77
     0
 78
     1
 53
45.0
 43
0.0
 44
0.0
 45
-0.1122532015133644
 46
0.1122532015133644
 79
     0
 98
        0
1001
ACAD
1010
0.0
1020
0.0
1030
0.0
  0
VIEWPORT
  5
53F
330
44F
100
AcDbEntity
 67
     1
  8
0
100
AcDbViewport
 10
128.5
 20
97.5
 30
0.0
 40
314.226
 41
222.18
 68
     1
 69
     1
 12
128.5
 22
97.5
 13
0.0
 23
0.0
 14
10.0
 24
10.0
 15
10.0
 25
10.0
 16
0.0
 26
0.0
 36
1.0
 17
0.0
 27
0.0
 37
0.0
 42
50.0
 43
0.0
 44
0.0
 45
222.18
 50
0.0
 51
0.0
 72
   100
 90
   557152
  1

281
     0
 71
     1
 74
     0
110
0.0
120
0.0
130
0.0
111
1.0
121
0.0
131
0.0
112
0.0
122
1.0
132
0.0
 79
     0
146
0.0
170
     0
 61
     5
348
463
292
     1
282
     1
141
0.0
142
0.0
 63
   256
361
540
  0
ENDSEC
  0
SECTION
  2
OBJECTS
  0
DICTIONARY
  5
441
330
0
100
AcDbDictionary
281
     1
  3
ACAD_DETAILVIEWSTYLE
350
548
  3
ACAD_GROUP
350
442
  3
ACAD_LAYOUT
350
44E
  3
ACAD_MATERIAL
350
477
  3
ACAD_MLEADERSTYLE
350
49F
  3
ACAD_MLINESTYLE
350
44B
  3
ACAD_PLOTSETTINGS
350
44D
  3
ACAD_PLOTSTYLENAME
350
443
  3
ACAD_SCALELIST
350
47B
  3
ACAD_SECTIONVIEWSTYLE
350
549
  3
ACAD_TABLESTYLE
350
49D
  3
ACAD_VISUALSTYLE
350
45E
  3
ACDB_RECOMPOSE_DATA
350
545
  3
AcDbVariableDictionary
350
541
  3
QCAD_OBJECTS
350
4A3
  0
SUN
  5
4A1
330
45D
100
AcDbSun
 90
        1
290
     0
 63
     7
421
 16777215
 40
1.0
291
     1
 91
  2455826
 92
 54000000
292
     0
 70
     2
 71
   256
280
     1
  0
SUN
  5
540
330
53F
100
AcDbSun
 90
        1
290
     0
 63
     7
421
 16777215
 40
1.0
291
     1
 91
  2455826
 92
 54000000
292
     0
 70
     2
 71
   256
280
     1
  0
DICTIONARY
  5
548
102
{ACAD_REACTORS
330
441
102
}
330
441
100
AcDbDictionary
281
     1
  0
DICTIONARY
  5
442
102
{ACAD_REACTORS
330
441
102
}
330
441
100
AcDbDictionary
281
     1
  0
DICTIONARY
  5
44E
102
{ACAD_REACTORS
330
441
102
}
330
441
100
AcDbDictionary
281
     1
  3
Layout1
350
452
  3
Model
350
456
  0
DICTIONARY
  5
477
102
{ACAD_REACTORS
330
441
102
}
330
441
100
AcDbDictionary
281
     1
  3
ByBlock
350
479
  3
ByLayer
350
478
  3
Global
350
47A
  0
DICTIONARY
  5
49F
102
{ACAD_REACTORS
330
441
102
}
330
441
100
AcDbDictionary
281
     1
  3
Standard
350
4A0
  0
DICTIONARY
  5
44B
102
{ACAD_REACTORS
330
441
102
}
330
441
100
AcDbDictionary
281
     1
  3
Standard
350
44C
  0
DICTIONARY
  5
44D
102
{ACAD_REACTORS
330
441
102
}
330
441
100
AcDbDictionary
281
     1
  0
ACDBDICTIONARYWDFLT
  5
443
102
{ACAD_REACTORS
330
441
102
}
330
441
100
AcDbDictionary
281
     1
  3
Normal
350
444
100
AcDbDictionaryWithDefault
340
444
  0
DICTIONARY
  5
47B
102
{ACAD_REACTORS
330
441
102
}
330
441
100
AcDbDictionary
281
     1
  3
A0
350
47C
  3
A1
350
47D
  3
A2
350
47E
  3
A3
350
47F
  3
A4
350
480
  3
A5
350
481
  3
A6
350
482
  3
A7
350
483
  3
A8
350
484
  3
A9
350
485
  3
B0
350
486
  3
B1
350
487
  3
B2
350
488
  3
B3
350
489
  3
B4
350
48A
  3
B5
350
48B
  3
B6
350
48C
  3
B7
350
48D
  3
B8
350
48E
  3
B9
350
48F
  3
C0
350
490
  3
C1
350
491
  3
C2
350
492
  3
C3
350
493
  3
C4
350
494
  3
C5
350
495
  3
C6
350
496
  3
C7
350
497
  3
C8
350
498
  3
C9
350
499
  3
D0
350
49A
  3
D1
350
49B
  3
D2
350
49C
  0
DICTIONARY
  5
549
102
{ACAD_REACTORS
330
441
102
}
330
441
100
AcDbDictionary
281
     1
  0
DICTIONARY
  5
49D
102
{ACAD_REACTORS
330
441
102
}
330
441
100
AcDbDictionary
281
     1
  3
Standard
350
49E
  0
DICTIONARY
  5
45E
102
{ACAD_REACTORS
330
441
102
}
330
441
100
AcDbDictionary
281
     1
  3
2dWireframe
350
463
  3
Basic
350
466
  3
Brighten
350
46A
  3
ColorChange
350
46E
  3
Conceptual
350
468
  3
Dim
350
469
  3
EdgeColorOff
350
471
  3
Facepattern
350
46D
  3
Flat
350
45F
  3
FlatWithEdges
350
460
  3
Gouraud
350
461
  3
GouraudWithEdges
350
462
  3
Hidden
350
465
  3
JitterOff
350
46F
  3
Linepattern
350
46C
  3
OverhangOff
350
470
  3
Realistic
350
467
  3
Shaded
350
476
  3
Shaded with edges
350
475
  3
Shades of Gray
350
472
  3
Sketchy
350
473
  3
Thicken
350
46B
  3
Wireframe
350
464
  3
X-Ray
350
474
  0
XRECORD
  5
545
102
{ACAD_REACTORS
330
441
102
}
330
441
100
AcDbXrecord
280
     1
 90
        1
330
49E
  0
DICTIONARY
  5
541
102
{ACAD_REACTORS
330
441
102
}
330
441
100
AcDbDictionary
281
     1
  3
CANNOSCALE
350
542
  3
CMLEADERSTYLE
350
547
  3
CTABLESTYLE
350
546
  0
DICTIONARY
  5
4A3
102
{ACAD_REACTORS
330
441
102
}
330
441
100
AcDbDictionary
281
     1
  3
ColorSettings/BackgroundColor
350
4A5
  3
ColorSettings/ColorMode
350
4A6
  3
Grid/DisplayGrid00
350
4A7
  3
Grid/DisplayGrid01
350
4A8
  3
Grid/DisplayGrid02
350
4A9
  3
Grid/DisplayGrid03
350
4AA
  3
Grid/GridSpacingX00
350
4AB
  3
Grid/GridSpacingX01
350
4AC
  3
Grid/GridSpacingX02
350
4AD
  3
Grid/GridSpacingX03
350
4AE
  3
Grid/GridSpacingY00
350
4AF
  3
Grid/GridSpacingY01
350
4B0
  3
Grid/GridSpacingY02
350
4B1
  3
Grid/GridSpacingY03
350
4B2
  3
Grid/IsometricGrid00
350
4B3
  3
Grid/IsometricGrid01
350
4B4
  3
Grid/IsometricGrid02
350
4B5
  3
Grid/IsometricGrid03
350
4B6
  3
Grid/IsometricProjection00
350
4B7
  3
Grid/IsometricProjection01
350
4B8
  3
Grid/IsometricProjection02
350
4B9
  3
Grid/IsometricProjection03
350
4BA
  3
Grid/MetaGridSpacingX00
350
4BB
  3
Grid/MetaGridSpacingX01
350
4BC
  3
Grid/MetaGridSpacingX02
350
4BD
  3
Grid/MetaGridSpacingX03
350
4BE
  3
Grid/MetaGridSpacingY00
350
4BF
  3
Grid/MetaGridSpacingY01
350
4C0
  3
Grid/MetaGridSpacingY02
350
4C1
  3
Grid/MetaGridSpacingY03
350
4C2
  3
MultiPageSettings/Columns
350
4C3
  3
MultiPageSettings/GlueMarginsBottom
350
4C4
  3
MultiPageSettings/GlueMarginsLeft
350
4C5
  3
MultiPageSettings/GlueMarginsRight
350
4C6
  3
MultiPageSettings/GlueMarginsTop
350
4C7
  3
MultiPageSettings/PrintCropMarks
350
4C8
  3
MultiPageSettings/Rows
350
4C9
  3
PageSettings/OffsetX
350
4CA
  3
PageSettings/OffsetY
350
4CB
  3
PageSettings/PageOrientation
350
4CC
  3
PageSettings/PaperHeight
350
4CD
  3
PageSettings/PaperWidth
350
4CE
  3
PageSettings/Scale
350
4CF
  3
PageSettings/ShowPaperBorders
350
4D0
  3
PageTagSettings/EnablePageTags
350
4D1
  3
PageTagSettings/TagAlignment
350
4D2
  3
PageTagSettings/TagFont
350
4D3
  3
PageTagSettings/TagPosition
350
4D4
  3
QCADVersion
350
4D5
  3
UnitSettings/PaperUnit
350
4D6
  3
ViewportCenter
350
4D7
  3
ViewportHeight
350
4D8
  3
ViewportWidth
350
4D9
  0
LAYOUT
  5
452
102
{ACAD_REACTORS
330
44E
102
}
330
44E
100
AcDbPlotSettings
  1

  2
none_device
  4
ISO_A4_(210.00_x_297.00_MM)
  6

 40
7.5
 41
20.0
 42
7.5
 43
20.0
 44
210.0
 45
297.0
 46
0.0
 47
0.0
 48
0.0
 49
0.0
140
0.0
141
0.0
142
1.0
143
1.0
 70
   688
 72
     1
 73
     1
 74
     5
  7

 75
     0
 76
     0
 77
     2
 78
   300
147
1.0
148
0.0
149
0.0
100
AcDbLayout
  1
Layout1
 70
     1
 71
     0
 10
-20.0
 20
-7.5
 11
277.0
 21
202.5
 12
0.0
 22
0.0
 32
0.0
 14
0.0
 24
0.0
 34
0.0
 15
0.0
 25
0.0
 35
0.0
146
0.0
 13
0.0
 23
0.0
 33
0.0
 16
1.0
 26
0.0
 36
0.0
 17
0.0
 27
1.0
 37
0.0
 76
     0
330
44F
331
53F
  0
LAYOUT
  5
456
102
{ACAD_REACTORS
330
44E
102
}
330
44E
100
AcDbPlotSettings
  1

  2
none_device
  4
Letter_(8.50_x_11.00_Inches)
  6

 40
6.35
 41
6.35
 42
6.35000508
 43
6.35000508
 44
215.9
 45
279.4
 46
0.0
 47
0.0
 48
0.0
 49
0.0
140
0.0
141
0.0
142
1.0
143
1.0
 70
  1712
 72
     0
 73
     0
 74
     0
  7

 75
     0
 76
     0
 77
     2
 78
   300
147
1.0
148
0.0
149
0.0
100
AcDbLayout
  1
Model
 70
     1
 71
     0
 10
0.0
 20
0.0
 11
12.0
 21
9.0
 12
0.0
 22
0.0
 32
0.0
 14
10.0
 24
-172.0
 34
0.0
 15
100.0
 25
60.0
 35
0.0
146
0.0
 13
0.0
 23
0.0
 33
0.0
 16
1.0
 26
0.0
 36
0.0
 17
0.0
 27
1.0
 37
0.0
 76
     0
330
453
331
45D
  0
MATERIAL
  5
479
102
{ACAD_REACTORS
330
477
102
}
330
477
100
AcDbMaterial
  1
ByBlock
 72
     1
 94
      127
  0
MATERIAL
  5
478
102
{ACAD_REACTORS
330
477
102
}
330
477
100
AcDbMaterial
  1
ByLayer
 72
     1
 94
      127
  0
MATERIAL
  5
47A
102
{ACAD_REACTORS
330
477
102
}
330
477
100
AcDbMaterial
  1
Global
 72
     1
 94
      127
  0
MLEADERSTYLE
  5
4A0
102
{ACAD_REACTORS
330
49F
102
}
330
49F
100
AcDbMLeaderStyle
179
     2
170
     2
171
     1
172
     0
 90
        2
 40
0.0
 41
0.0
173
     1
 91
-1056964608
340
448
 92
       -2
290
     1
 42
0.09
291
     1
 43
0.36
  3
Standard
341
0
 44
0.18
300

342
446
174
     1
178
     6
175
     1
176
     0
 93
-1056964608
 45
0.18
292
     0
297
     0
 46
0.18
343
0
 94
-1056964608
 47
1.0
 49
1.0
140
1.0
293
     1
141
0.0
294
     1
177
     0
142
1.0
295
     0
296
     0
143
0.125
271
     0
272
     9
273
     9
298
     0
  0
MLINESTYLE
  5
44C
102
{ACAD_REACTORS
330
44B
102
}
330
44B
100
AcDbMlineStyle
  2
Standard
 70
     0
  3

 62
   256
 51
90.0
 52
90.0
 71
     2
 49
0.5
 62
   256
  6
BYLAYER
 49
-0.5
 62
   256
  6
BYLAYER
  0
ACDBPLACEHOLDER
  5
444
102
{ACAD_REACTORS
330
443
102
}
330
443
  0
SCALE
  5
47C
102
{ACAD_REACTORS
330
47B
102
}
330
47B
100
AcDbScale
 70
     0
300
1:1
140
1.0
141
1.0
290
     1
  0
SCALE
  5
47D
102
{ACAD_REACTORS
330
47B
102
}
330
47B
100
AcDbScale
 70
     0
300
1:2
140
1.0
141
2.0
290
     0
  0
SCALE
  5
47E
102
{ACAD_REACTORS
330
47B
102
}
330
47B
100
AcDbScale
 70
     0
300
1:4
140
1.0
141
4.0
290
     0
  0
SCALE
  5
47F
102
{ACAD_REACTORS
330
47B
102
}
330
47B
100
AcDbScale
 70
     0
300
1:5
140
1.0
141
5.0
290
     0
  0
SCALE
  5
480
102
{ACAD_REACTORS
330
47B
102
}
330
47B
100
AcDbScale
 70
     0
300
1:8
140
1.0
141
8.0
290
     0
  0
SCALE
  5
481
102
{ACAD_REACTORS
330
47B
102
}
330
47B
100
AcDbScale
 70
     0
300
1:10
140
1.0
141
10.0
290
     0
  0
SCALE
  5
482
102
{ACAD_REACTORS
330
47B
102
}
330
47B
100
AcDbScale
 70
     0
300
1:16
140
1.0
141
16.0
290
     0
  0
SCALE
  5
483
102
{ACAD_REACTORS
330
47B
102
}
330
47B
100
AcDbScale
 70
     0
300
1:20
140
1.0
141
20.0
290
     0
  0
SCALE
  5
484
102
{ACAD_REACTORS
330
47B
102
}
330
47B
100
AcDbScale
 70
     0
300
1:30
140
1.0
141
30.0
290
     0
  0
SCALE
  5
485
102
{ACAD_REACTORS
330
47B
102
}
330
47B
100
AcDbScale
 70
     0
300
1:40
140
1.0
141
40.0
290
     0
  0
SCALE
  5
486
102
{ACAD_REACTORS
330
47B
102
}
330
47B
100
AcDbScale
 70
     0
300
1:50
140
1.0
141
50.0
290
     0
  0
SCALE
  5
487
102
{ACAD_REACTORS
330
47B
102
}
330
47B
100
AcDbScale
 70
     0
300
1:100
140
1.0
141
100.0
290
     0
  0
SCALE
  5
488
102
{ACAD_REACTORS
330
47B
102
}
330
47B
100
AcDbScale
 70
     0
300
2:1
140
2.0
141
1.0
290
     0
  0
SCALE
  5
489
102
{ACAD_REACTORS
330
47B
102
}
330
47B
100
AcDbScale
 70
     0
300
4:1
140
4.0
141
1.0
290
     0
  0
SCALE
  5
48A
102
{ACAD_REACTORS
330
47B
102
}
330
47B
100
AcDbScale
 70
     0
300
8:1
140
8.0
141
1.0
290
     0
  0
SCALE
  5
48B
102
{ACAD_REACTORS
330
47B
102
}
330
47B
100
AcDbScale
 70
     0
300
10:1
140
10.0
141
1.0
290
     0
  0
SCALE
  5
48C
102
{ACAD_REACTORS
330
47B
102
}
330
47B
100
AcDbScale
 70
     0
300
100:1
140
100.0
141
1.0
290
     0
  0
SCALE
  5
48D
102
{ACAD_REACTORS
330
47B
102
}
330
47B
100
AcDbScale
 70
     0
300
1/128" = 1'-0"
140
0.0078125
141
12.0
290
     0
  0
SCALE
  5
48E
102
{ACAD_REACTORS
330
47B
102
}
330
47B
100
AcDbScale
 70
     0
300
1/64" = 1'-0"
140
0.015625
141
12.0
290
     0
  0
SCALE
  5
48F
102
{ACAD_REACTORS
330
47B
102
}
330
47B
100
AcDbScale
 70
     0
300
1/32" = 1'-0"
140
0.03125
141
12.0
290
     0
  0
SCALE
  5
490
102
{ACAD_REACTORS
330
47B
102
}
330
47B
100
AcDbScale
 70
     0
300
1/16" = 1'-0"
140
0.0625
141
12.0
290
     0
  0
SCALE
  5
491
102
{ACAD_REACTORS
330
47B
102
}
330
47B
100
AcDbScale
 70
     0
300
3/32" = 1'-0"
140
0.09375
141
12.0
290
     0
  0
SCALE
  5
492
102
{ACAD_REACTORS
330
47B
102
}
330
47B
100
AcDbScale
 70
     0
300
1/8" = 1'-0"
140
0.125
141
12.0
290
     0
  0
SCALE
  5
493
102
{ACAD_REACTORS
330
47B
102
}
330
47B
100
AcDbScale
 70
     0
300
3/16" = 1'-0"
140
0.1875
141
12.0
290
     0
  0
SCALE
  5
494
102
{ACAD_REACTORS
330
47B
102
}
330
47B
100
AcDbScale
 70
     0
300
1/4" = 1'-0"
140
0.25
141
12.0
290
     0
  0
SCALE
  5
495
102
{ACAD_REACTORS
330
47B
102
}
330
47B
100
AcDbScale
 70
     0
300
3/8" = 1'-0"
140
0.375
141
12.0
290
     0
  0
SCALE
  5
496
102
{ACAD_REACTORS
330
47B
102
}
330
47B
100
AcDbScale
 70
     0
300
1/2" = 1'-0"
140
0.5
141
12.0
290
     0
  0
SCALE
  5
497
102
{ACAD_REACTORS
330
47B
102
}
330
47B
100
AcDbScale
 70
     0
300
3/4" = 1'-0"
140
0.75
141
12.0
290
     0
  0
SCALE
  5
498
102
{ACAD_REACTORS
330
47B
102
}
330
47B
100
AcDbScale
 70
     0
300
1" = 1'-0"
140
1.0
141
12.0
290
     0
  0
SCALE
  5
499
102
{ACAD_REACTORS
330
47B
102
}
330
47B
100
AcDbScale
 70
     0
300
1-1/2" = 1'-0"
140
1.5
141
12.0
290
     0
  0
SCALE
  5
49A
102
{ACAD_REACTORS
330
47B
102
}
330
47B
100
AcDbScale
 70
     0
300
3" = 1'-0"
140
3.0
141
12.0
290
     0
  0
SCALE
  5
49B
102
{ACAD_REACTORS
330
47B
102
}
330
47B
100
AcDbScale
 70
     0
300
6" = 1'-0"
140
6.0
141
12.0
290
     0
  0
SCALE
  5
49C
102
{ACAD_REACTORS
330
47B
102
}
330
47B
100
AcDbScale
 70
     0
300
1'-0" = 1'-0"
140
12.0
141
12.0
290
     0
  0
TABLESTYLE
  5
49E
102
{ACAD_REACTORS
330
49D
102
}
102
{ACAD_XDICTIONARY
360
543
102
}
330
49D
100
AcDbTableStyle
  3
Standard
 70
     0
 71
     0
 40
0.06
 41
0.06
280
     0
281
     0
  7
Standard
140
0.18
170
     2
 62
     0
 63
   257
283
     0
 90
        4
 91
        0
  1

274
    -2
284
     1
 64
     0
275
    -2
285
     1
 65
     0
276
    -2
286
     1
 66
     0
277
    -2
287
     1
 67
     0
278
    -2
288
     1
 68
     0
279
    -2
289
     1
 69
     0
  7
Standard
140
0.25
170
     5
 62
     0
 63
   257
283
     0
 90
        4
 91
        0
  1

274
    -2
284
     1
 64
     0
275
    -2
285
     1
 65
     0
276
    -2
286
     1
 66
     0
277
    -2
287
     1
 67
     0
278
    -2
288
     1
 68
     0
279
    -2
289
     1
 69
     0
  7
Standard
140
0.18
170
     5
 62
     0
 63
   257
283
     0
 90
        4
 91
        0
  1

274
    -2
284
     1
 64
     0
275
    -2
285
     1
 65
     0
276
    -2
286
     1
 66
     0
277
    -2
287
     1
 67
     0
278
    -2
288
     1
 68
     0
279
    -2
289
     1
 69
     0
  0
VISUALSTYLE
  5
463
102
{ACAD_REACTORS
330
45E
102
}
330
45E
100
AcDbVisualStyle
  2
2dWireframe
 70
     4
177
     3
291
     0
 70
    58
 90
        0
176
     1
 90
        2
176
     1
 90
        0
176
     1
 90
        0
176
     1
 40
0.6
176
     1
 40
30.0
176
     1
 62
     7
420
 16777215
176
     1
 90
        1
176
     1
 90
        4
176
     1
 62
     7
176
     1
 62
   257
176
     1
 90
        1
176
     1
 90
        1
176
     1
 40
1.0
176
     1
 90
        0
176
     1
 62
   257
176
     1
 40
1.0
176
     1
 90
        1
176
     1
 90
        6
176
     1
 90
        2
176
     1
 62
     7
176
     1
 90
        5
176
     1
 90
        0
176
     1
 90
        0
176
     1
290
     0
176
     1
 90
        1
176
     1
 40
0.0
176
     1
 90
        0
176
     1
290
     1
176
     1
290
     1
176
     1
290
     0
176
     1
290
     0
176
     1
290
     0
176
     1
290
     0
176
     1
290
     0
176
     1
290
     0
176
     1
290
     0
176
     1
 90
       50
176
     1
 40
0.0
176
     1
 40
1.0
176
     1
 90
        0
176
     1
 62
   178
420
        0
176
     1
 90
       50
176
     1
 90
        3
176
     1
 62
     5
420
      255
176
     1
290
     0
176
     1
 90
       50
176
     1
 90
       50
176
     1
 90
       50
176
     1
290
     0
176
     1
 90
       50
176
     1
 62
   256
176
     0
 40
1.0
176
     0
 90
        2
176
     1
  1
strokes_ogs.tif
176
     1
290
     0
176
     1
 40
1.0
176
     1
 40
1.0
176
     1
  0
VISUALSTYLE
  5
466
102
{ACAD_REACTORS
330
45E
102
}
330
45E
100
AcDbVisualStyle
  2
Basic
 70
     7
177
     3
291
     1
 70
    58
 90
        1
176
     1
 90
        0
176
     1
 90
        1
176
     1
 90
        0
176
     1
 40
0.6
176
     1
 40
30.0
176
     1
 62
     7
420
 16777215
176
     1
 90
        0
176
     1
 90
        4
176
     1
 62
     7
176
     1
 62
   257
176
     1
 90
        1
176
     1
 90
        1
176
     1
 40
1.0
176
     1
 90
        8
176
     1
 62
     7
176
     1
 40
1.0
176
     1
 90
        1
176
     1
 90
        6
176
     1
 90
        2
176
     1
 62
     7
176
     1
 90
        5
176
     1
 90
        0
176
     1
 90
        0
176
     1
290
     0
176
     1
 90
        1
176
     1
 40
0.0
176
     1
 90
        0
176
     1
290
     0
176
     1
290
     1
176
     1
290
     1
176
     1
290
     0
176
     1
290
     0
176
     1
290
     0
176
     1
290
     0
176
     1
290
     0
176
     1
290
     0
176
     1
 90
       50
176
     1
 40
0.0
176
     1
 40
1.0
176
     1
 90
        0
176
     1
 62
   178
420
        0
176
     1
 90
       50
176
     1
 90
        3
176
     1
 62
     5
420
      255
176
     1
290
     0
176
     1
 90
       50
176
     1
 90
       50
176
     1
 90
       50
176
     1
290
     0
176
     1
 90
       50
176
     1
 62
   256
176
     0
 40
1.0
176
     0
 90
        2
176
     1
  1
strokes_ogs.tif
176
     1
290
     0
176
     1
 40
1.0
176
     1
 40
1.0
176
     1
  0
VISUALSTYLE
  5
46A
102
{ACAD_REACTORS
330
45E
102
}
330
45E
100
AcDbVisualStyle
  2
Brighten
 70
    12
177
     3
291
     1
 70
    58
 90
        2
176
     1
 90
        2
176
     1
 90
        0
176
     1
 90
        0
176
     1
 40
0.6
176
     1
 40
30.0
176
     1
 62
     7
420
 16777215
176
     1
 90
        1
176
     1
 90
        4
176
     1
 62
     7
176
     1
 62
   257
176
     1
 90
        1
176
     1
 90
        1
176
     1
 40
1.0
176
     1
 90
        8
176
     1
 62
     7
176
     1
 40
1.0
176
     1
 90
        1
176
     1
 90
        6
176
     1
 90
        2
176
     1
 62
     7
176
     1
 90
        5
176
     1
 90
        0
176
     1
 90
        0
176
     1
290
     0
176
     1
 90
        1
176
     1
 40
50.0
176
     1
 90
        0
176
     1
290
     0
176
     1
290
     1
176
     1
290
     1
176
     1
290
     0
176
     1
290
     0
176
     1
290
     0
176
     1
290
     0
176
     1
290
     0
176
     1
290
     0
176
     1
 90
       50
176
     1
 40
0.0
176
     1
 40
1.0
176
     1
 90
        0
176
     1
 62
   178
420
        0
176
     1
 90
       50
176
     1
 90
        3
176
     1
 62
     5
420
      255
176
     1
290
     0
176
     1
 90
       50
176
     1
 90
       50
176
     1
 90
       50
176
     1
290
     0
176
     1
 90
       50
176
     1
 62
   256
176
     0
 40
1.0
176
     0
 90
        2
176
     1
  1
strokes_ogs.tif
176
     1
290
     0
176
     1
 40
1.0
176
     1
 40
1.0
176
     1
  0
VISUALSTYLE
  5
46E
102
{ACAD_REACTORS
330
45E
102
}
330
45E
100
AcDbVisualStyle
  2
ColorChange
 70
    16
177
     3
291
     1
 70
    58
 90
        2
176
     1
 90
        2
176
     1
 90
        3
176
     1
 90
        0
176
     1
 40
0.6
176
     1
 40
30.0
176
     1
 62
     8
420
  8421504
176
     1
 90
        1
176
     1
 90
        4
176
     1
 62
     7
176
     1
 62
   257
176
     1
 90
        1
176
     1
 90
        1
176
     1
 40
1.0
176
     1
 90
        8
176
     1
 62
     8
420
  8421504
176
     1
 40
1.0
176
     1
 90
        1
176
     1
 90
        6
176
     1
 90
        2
176
     1
 62
     7
176
     1
 90
        5
176
     1
 90
        0
176
     1
 90
        0
176
     1
290
     0
176
     1
 90
        1
176
     1
 40
0.0
176
     1
 90
        0
176
     1
290
     0
176
     1
290
     1
176
     1
290
     1
176
     1
290
     0
176
     1
290
     0
176
     1
290
     0
176
     1
290
     0
176
     1
290
     0
176
     1
290
     0
176
     1
 90
       50
176
     1
 40
0.0
176
     1
 40
1.0
176
     1
 90
        0
176
     1
 62
   178
420
        0
176
     1
 90
       50
176
     1
 90
        3
176
     1
 62
     5
420
      255
176
     1
290
     0
176
     1
 90
       50
176
     1
 90
       50
176
     1
 90
       50
176
     1
290
     0
176
     1
 90
       50
176
     1
 62
   256
176
     0
 40
1.0
176
     0
 90
        2
176
     1
  1
strokes_ogs.tif
176
     1
290
     0
176
     1
 40
1.0
176
     1
 40
1.0
176
     1
  0
VISUALSTYLE
  5
468
102
{ACAD_REACTORS
330
45E
102
}
330
45E
100
AcDbVisualStyle
  2
Conceptual
 70
     9
177
     3
291
     0
 70
    58
 90
        3
176
     1
 90
        2
176
     1
 90
        0
176
     1
 90
        0
176
     1
 40
0.6
176
     1
 40
30.0
176
     1
 62
     7
420
 16777215
176
     1
 90
        2
176
     1
 90
        2
176
     1
 62
     7
176
     1
 62
   257
176
     1
 90
        1
176
     1
 90
        1
176
     1
 40
179.0
176
     1
 90
        8
176
     1
 62
     7
176
     1
 40
1.0
176
     1
 90
        1
176
     1
 90
        6
176
     1
 90
        2
176
     1
 62
     7
176
     1
 90
        3
176
     1
 90
        0
176
     1
 90
        0
176
     1
290
     0
176
     1
 90
        1
176
     1
 40
0.0
176
     1
 90
        0
176
     1
290
     0
176
     1
290
     1
176
     1
290
     1
176
     1
290
     0
176
     1
290
     0
176
     1
290
     0
176
     1
290
     0
176
     1
290
     0
176
     1
290
     0
176
     1
 90
       50
176
     1
 40
0.0
176
     1
 40
1.0
176
     1
 90
        0
176
     1
 62
   178
420
        0
176
     1
 90
       50
176
     1
 90
        3
176
     1
 62
     5
420
      255
176
     1
290
     0
176
     1
 90
       50
176
     1
 90
       50
176
     1
 90
       50
176
     1
290
     0
176
     1
 90
       50
176
     1
 62
   256
176
     0
 40
1.0
176
     0
 90
        2
176
     1
  1
strokes_ogs.tif
176
     1
290
     0
176
     1
 40
1.0
176
     1
 40
1.0
176
     1
  0
VISUALSTYLE
  5
469
102
{ACAD_REACTORS
330
45E
102
}
330
45E
100
AcDbVisualStyle
  2
Dim
 70
    11
177
     3
291
     1
 70
    58
 90
        2
176
     1
 90
        2
176
     1
 90
        0
176
     1
 90
        0
176
     1
 40
0.6
176
     1
 40
30.0
176
     1
 62
     7
420
 16777215
176
     1
 90
        1
176
     1
 90
        4
176
     1
 62
     7
176
     1
 62
   257
176
     1
 90
        1
176
     1
 90
        1
176
     1
 40
1.0
176
     1
 90
        8
176
     1
 62
     7
176
     1
 40
1.0
176
     1
 90
        1
176
     1
 90
        6
176
     1
 90
        2
176
     1
 62
     7
176
     1
 90
        5
176
     1
 90
        0
176
     1
 90
        0
176
     1
290
     0
176
     1
 90
        1
176
     1
 40
-50.0
176
     1
 90
        0
176
     1
290
     0
176
     1
290
     1
176
     1
290
     1
176
     1
290
     0
176
     1
290
     0
176
     1
290
     0
176
     1
290
     0
176
     1
290
     0
176
     1
290
     0
176
     1
 90
       50
176
     1
 40
0.0
176
     1
 40
1.0
176
     1
 90
        0
176
     1
 62
   178
420
        0
176
     1
 90
       50
176
     1
 90
        3
176
     1
 62
     5
420
      255
176
     1
290
     0
176
     1
 90
       50
176
     1
 90
       50
176
     1
 90
       50
176
     1
290
     0
176
     1
 90
       50
176
     1
 62
   256
176
     0
 40
1.0
176
     0
 90
        2
176
     1
  1
strokes_ogs.tif
176
     1
290
     0
176
     1
 40
1.0
176
     1
 40
1.0
176
     1
  0
VISUALSTYLE
  5
471
102
{ACAD_REACTORS
330
45E
102
}
330
45E
100
AcDbVisualStyle
  2
EdgeColorOff
 70
    22
177
     3
291
     1
 70
    58
 90
        2
176
     0
 90
        2
176
     0
 90
        0
176
     0
 90
        0
176
     0
 40
0.6
176
     0
 40
30.0
176
     0
 62
     7
420
 16777215
176
     0
 90
        1
176
     0
 90
        4
176
     0
 62
     7
176
     0
 62
   257
176
     0
 90
        1
176
     0
 90
        1
176
     0
 40
1.0
176
     0
 90
        8
176
     2
 62
     7
176
     0
 40
1.0
176
     0
 90
        1
176
     0
 90
        6
176
     0
 90
        2
176
     0
 62
     7
176
     0
 90
        5
176
     0
 90
        0
176
     0
 90
        0
176
     0
290
     0
176
     0
 90
        1
176
     0
 40
0.0
176
     0
 90
        0
176
     0
290
     0
176
     0
290
     1
176
     0
290
     1
176
     0
290
     0
176
     0
290
     0
176
     0
290
     0
176
     0
290
     0
176
     0
290
     0
176
     0
290
     0
176
     0
 90
       50
176
     0
 40
0.0
176
     0
 40
1.0
176
     0
 90
        0
176
     0
 62
   178
420
        0
176
     0
 90
       50
176
     0
 90
        3
176
     0
 62
     5
420
      255
176
     0
290
     0
176
     0
 90
       50
176
     0
 90
       50
176
     0
 90
       50
176
     0
290
     0
176
     0
 90
       50
176
     0
 62
   256
176
     0
 40
1.0
176
     0
 90
        2
176
     0
  1
strokes_ogs.tif
176
     0
290
     0
176
     0
 40
1.0
176
     0
 40
1.0
176
     0
  0
VISUALSTYLE
  5
46D
102
{ACAD_REACTORS
330
45E
102
}
330
45E
100
AcDbVisualStyle
  2
Facepattern
 70
    15
177
     3
291
     1
 70
    58
 90
        2
176
     1
 90
        2
176
     1
 90
        0
176
     1
 90
        0
176
     1
 40
0.6
176
     1
 40
30.0
176
     1
 62
     7
420
 16777215
176
     1
 90
        1
176
     1
 90
        4
176
     1
 62
     7
176
     1
 62
   257
176
     1
 90
        1
176
     1
 90
        1
176
     1
 40
1.0
176
     1
 90
        8
176
     1
 62
     7
176
     1
 40
1.0
176
     1
 90
        1
176
     1
 90
        6
176
     1
 90
        2
176
     1
 62
     7
176
     1
 90
        5
176
     1
 90
        0
176
     1
 90
        0
176
     1
290
     0
176
     1
 90
        1
176
     1
 40
0.0
176
     1
 90
        0
176
     1
290
     0
176
     1
290
     1
176
     1
290
     1
176
     1
290
     0
176
     1
290
     0
176
     1
290
     0
176
     1
290
     0
176
     1
290
     0
176
     1
290
     0
176
     1
 90
       50
176
     1
 40
0.0
176
     1
 40
1.0
176
     1
 90
        0
176
     1
 62
   178
420
        0
176
     1
 90
       50
176
     1
 90
        3
176
     1
 62
     5
420
      255
176
     1
290
     0
176
     1
 90
       50
176
     1
 90
       50
176
     1
 90
       50
176
     1
290
     0
176
     1
 90
       50
176
     1
 62
   256
176
     0
 40
1.0
176
     0
 90
        2
176
     1
  1
strokes_ogs.tif
176
     1
290
     0
176
     1
 40
1.0
176
     1
 40
1.0
176
     1
  0
VISUALSTYLE
  5
45F
102
{ACAD_REACTORS
330
45E
102
}
330
45E
100
AcDbVisualStyle
  2
Flat
 70
     0
177
     3
291
     1
 70
    58
 90
        2
176
     1
 90
        1
176
     1
 90
        1
176
     1
 90
        2
176
     1
 40
0.6
176
     1
 40
30.0
176
     1
 62
     7
420
 16777215
176
     1
 90
        0
176
     1
 90
        0
176
     1
 62
     7
176
     1
 62
   257
176
     1
 90
        1
176
     1
 90
        1
176
     1
 40
1.0
176
     1
 90
        8
176
     1
 62
     7
176
     1
 40
1.0
176
     1
 90
        1
176
     1
 90
        6
176
     1
 90
        2
176
     1
 62
     7
176
     1
 90
        5
176
     1
 90
        0
176
     1
 90
        0
176
     1
290
     0
176
     1
 90
       13
176
     1
 40
0.0
176
     1
 90
        0
176
     1
290
     0
176
     1
290
     1
176
     1
290
     1
176
     1
290
     0
176
     1
290
     0
176
     1
290
     0
176
     1
290
     0
176
     1
290
     0
176
     1
290
     0
176
     1
 90
       50
176
     1
 40
0.0
176
     1
 40
1.0
176
     1
 90
        0
176
     1
 62
   178
420
        0
176
     1
 90
       50
176
     1
 90
        3
176
     1
 62
     5
420
      255
176
     1
290
     0
176
     1
 90
       50
176
     1
 90
       50
176
     1
 90
       50
176
     1
290
     0
176
     1
 90
       50
176
     1
 62
   256
176
     0
 40
1.0
176
     0
 90
        2
176
     1
  1
strokes_ogs.tif
176
     1
290
     0
176
     1
 40
1.0
176
     1
 40
1.0
176
     1
  0
VISUALSTYLE
  5
460
102
{ACAD_REACTORS
330
45E
102
}
330
45E
100
AcDbVisualStyle
  2
FlatWithEdges
 70
     1
177
     3
291
     1
 70
    58
 90
        2
176
     1
 90
        1
176
     1
 90
        1
176
     1
 90
        2
176
     1
 40
0.6
176
     1
 40
30.0
176
     1
 62
     7
420
 16777215
176
     1
 90
        1
176
     1
 90
        0
176
     1
 62
     7
176
     1
 62
   257
176
     1
 90
        1
176
     1
 90
        1
176
     1
 40
1.0
176
     1
 90
        0
176
     1
 62
   257
176
     1
 40
1.0
176
     1
 90
        1
176
     1
 90
        6
176
     1
 90
        2
176
     1
 62
     7
176
     1
 90
        5
176
     1
 90
        0
176
     1
 90
        0
176
     1
290
     0
176
     1
 90
       13
176
     1
 40
0.0
176
     1
 90
        0
176
     1
290
     0
176
     1
290
     1
176
     1
290
     1
176
     1
290
     0
176
     1
290
     0
176
     1
290
     0
176
     1
290
     0
176
     1
290
     0
176
     1
290
     0
176
     1
 90
       50
176
     1
 40
0.0
176
     1
 40
1.0
176
     1
 90
        0
176
     1
 62
   178
420
        0
176
     1
 90
       50
176
     1
 90
        3
176
     1
 62
     5
420
      255
176
     1
290
     0
176
     1
 90
       50
176
     1
 90
       50
176
     1
 90
       50
176
     1
290
     0
176
     1
 90
       50
176
     1
 62
   256
176
     0
 40
1.0
176
     0
 90
        2
176
     1
  1
strokes_ogs.tif
176
     1
290
     0
176
     1
 40
1.0
176
     1
 40
1.0
176
     1
  0
VISUALSTYLE
  5
461
102
{ACAD_REACTORS
330
45E
102
}
330
45E
100
AcDbVisualStyle
  2
Gouraud
 70
     2
177
     3
291
     1
 70
    58
 90
        2
176
     1
 90
        2
176
     1
 90
        1
176
     1
 90
        2
176
     1
 40
0.6
176
     1
 40
30.0
176
     1
 62
     7
420
 16777215
176
     1
 90
        0
176
     1
 90
        0
176
     1
 62
     7
176
     1
 62
   257
176
     1
 90
        1
176
     1
 90
        1
176
     1
 40
1.0
176
     1
 90
        0
176
     1
 62
     7
176
     1
 40
1.0
176
     1
 90
        1
176
     1
 90
        6
176
     1
 90
        2
176
     1
 62
     7
176
     1
 90
        5
176
     1
 90
        0
176
     1
 90
        0
176
     1
290
     0
176
     1
 90
       13
176
     1
 40
0.0
176
     1
 90
        0
176
     1
290
     0
176
     1
290
     1
176
     1
290
     1
176
     1
290
     0
176
     1
290
     0
176
     1
290
     0
176
     1
290
     0
176
     1
290
     0
176
     1
290
     0
176
     1
 90
       50
176
     1
 40
0.0
176
     1
 40
1.0
176
     1
 90
        0
176
     1
 62
   178
420
        0
176
     1
 90
       50
176
     1
 90
        3
176
     1
 62
     5
420
      255
176
     1
290
     0
176
     1
 90
       50
176
     1
 90
       50
176
     1
 90
       50
176
     1
290
     0
176
     1
 90
       50
176
     1
 62
   256
176
     0
 40
1.0
176
     0
 90
        2
176
     1
  1
strokes_ogs.tif
176
     1
290
     0
176
     1
 40
1.0
176
     1
 40
1.0
176
     1
  0
VISUALSTYLE
  5
462
102
{ACAD_REACTORS
330
45E
102
}
330
45E
100
AcDbVisualStyle
  2
GouraudWithEdges
 70
     3
177
     3
291
     1
 70
    58
 90
        2
176
     1
 90
        2
176
     1
 90
        1
176
     1
 90
        2
176
     1
 40
0.6
176
     1
 40
30.0
176
     1
 62
     7
420
 16777215
176
     1
 90
        1
176
     1
 90
        0
176
     1
 62
     7
176
     1
 62
   257
176
     1
 90
        1
176
     1
 90
        1
176
     1
 40
1.0
176
     1
 90
        0
176
     1
 62
   257
176
     1
 40
1.0
176
     1
 90
        1
176
     1
 90
        6
176
     1
 90
        2
176
     1
 62
     7
176
     1
 90
        5
176
     1
 90
        0
176
     1
 90
        0
176
     1
290
     0
176
     1
 90
       13
176
     1
 40
0.0
176
     1
 90
        0
176
     1
290
     0
176
     1
290
     1
176
     1
290
     1
176
     1
290
     0
176
     1
290
     0
176
     1
290
     0
176
     1
290
     0
176
     1
290
     0
176
     1
290
     0
176
     1
 90
       50
176
     1
 40
0.0
176
     1
 40
1.0
176
     1
 90
        0
176
     1
 62
   178
420
        0
176
     1
 90
       50
176
     1
 90
        3
176
     1
 62
     5
420
      255
176
     1
290
     0
176
     1
 90
       50
176
     1
 90
       50
176
     1
 90
       50
176
     1
290
     0
176
     1
 90
       50
176
     1
 62
   256
176
     0
 40
1.0
176
     0
 90
        2
176
     1
  1
strokes_ogs.tif
176
     1
290
     0
176
     1
 40
1.0
176
     1
 40
1.0
176
     1
  0
VISUALSTYLE
  5
465
102
{ACAD_REACTORS
330
45E
102
}
330
45E
100
AcDbVisualStyle
  2
Hidden
 70
     6
177
     3
291
     0
 70
    58
 90
        1
176
     1
 90
        2
176
     1
 90
        2
176
     1
 90
        0
176
     1
 40
0.6
176
     1
 40
30.0
176
     1
 62
     7
420
 16777215
176
     1
 90
        2
176
     1
 90
        2
176
     1
 62
     7
176
     1
 62
   257
176
     1
 90
        2
176
     1
 90
        1
176
     1
 40
40.0
176
     1
 90
        0
176
     1
 62
   257
176
     1
 40
1.0
176
     1
 90
        1
176
     1
 90
        6
176
     1
 90
        2
176
     1
 62
     7
176
     1
 90
        3
176
     1
 90
        0
176
     1
 90
        0
176
     1
290
     0
176
     1
 90
        1
176
     1
 40
0.0
176
     1
 90
        0
176
     1
290
     0
176
     1
290
     1
176
     1
290
     1
176
     1
290
     0
176
     1
290
     0
176
     1
290
     0
176
     1
290
     0
176
     1
290
     0
176
     1
290
     0
176
     1
 90
       50
176
     1
 40
0.0
176
     1
 40
1.0
176
     1
 90
        0
176
     1
 62
   178
420
        0
176
     1
 90
       50
176
     1
 90
        3
176
     1
 62
     5
420
      255
176
     1
290
     0
176
     1
 90
       50
176
     1
 90
       50
176
     1
 90
       50
176
     1
290
     0
176
     1
 90
       50
176
     1
 62
   256
176
     0
 40
1.0
176
     0
 90
        2
176
     1
  1
strokes_ogs.tif
176
     1
290
     0
176
     1
 40
1.0
176
     1
 40
1.0
176
     1
  0
VISUALSTYLE
  5
46F
102
{ACAD_REACTORS
330
45E
102
}
330
45E
100
AcDbVisualStyle
  2
JitterOff
 70
    20
177
     3
291
     1
 70
    58
 90
        2
176
     0
 90
        2
176
     0
 90
        0
176
     0
 90
        0
176
     0
 40
0.6
176
     0
 40
30.0
176
     0
 62
     7
420
 16777215
176
     0
 90
        1
176
     0
 90
        4
176
     0
 62
     7
176
     0
 62
   257
176
     0
 90
        1
176
     0
 90
        1
176
     0
 40
1.0
176
     0
 90
       10
176
     2
 62
     7
176
     0
 40
1.0
176
     0
 90
        1
176
     0
 90
        6
176
     0
 90
        2
176
     0
 62
     7
176
     0
 90
        5
176
     0
 90
        0
176
     0
 90
        0
176
     0
290
     0
176
     0
 90
        1
176
     0
 40
0.0
176
     0
 90
        0
176
     0
290
     0
176
     0
290
     1
176
     0
290
     1
176
     0
290
     0
176
     0
290
     0
176
     0
290
     0
176
     0
290
     0
176
     0
290
     0
176
     0
290
     0
176
     0
 90
       50
176
     0
 40
0.0
176
     0
 40
1.0
176
     0
 90
        0
176
     0
 62
   178
420
        0
176
     0
 90
       50
176
     0
 90
        3
176
     0
 62
     5
420
      255
176
     0
290
     0
176
     0
 90
       50
176
     0
 90
       50
176
     0
 90
       50
176
     0
290
     0
176
     0
 90
       50
176
     0
 62
   256
176
     0
 40
1.0
176
     0
 90
        2
176
     0
  1
strokes_ogs.tif
176
     0
290
     0
176
     0
 40
1.0
176
     0
 40
1.0
176
     0
  0
VISUALSTYLE
  5
46C
102
{ACAD_REACTORS
330
45E
102
}
330
45E
100
AcDbVisualStyle
  2
Linepattern
 70
    14
177
     3
291
     1
 70
    58
 90
        2
176
     1
 90
        2
176
     1
 90
        0
176
     1
 90
        0
176
     1
 40
0.6
176
     1
 40
30.0
176
     1
 62
     7
420
 16777215
176
     1
 90
        1
176
     1
 90
        4
176
     1
 62
     7
176
     1
 62
   257
176
     1
 90
        7
176
     1
 90
        7
176
     1
 40
1.0
176
     1
 90
        8
176
     1
 62
     7
176
     1
 40
1.0
176
     1
 90
        1
176
     1
 90
        6
176
     1
 90
        2
176
     1
 62
     7
176
     1
 90
        5
176
     1
 90
        0
176
     1
 90
        0
176
     1
290
     0
176
     1
 90
        1
176
     1
 40
0.0
176
     1
 90
        0
176
     1
290
     0
176
     1
290
     1
176
     1
290
     1
176
     1
290
     0
176
     1
290
     0
176
     1
290
     0
176
     1
290
     0
176
     1
290
     0
176
     1
290
     0
176
     1
 90
       50
176
     1
 40
0.0
176
     1
 40
1.0
176
     1
 90
        0
176
     1
 62
   178
420
        0
176
     1
 90
       50
176
     1
 90
        3
176
     1
 62
     5
420
      255
176
     1
290
     0
176
     1
 90
       50
176
     1
 90
       50
176
     1
 90
       50
176
     1
290
     0
176
     1
 90
       50
176
     1
 62
   256
176
     0
 40
1.0
176
     0
 90
        2
176
     1
  1
strokes_ogs.tif
176
     1
290
     0
176
     1
 40
1.0
176
     1
 40
1.0
176
     1
  0
VISUALSTYLE
  5
470
102
{ACAD_REACTORS
330
45E
102
}
330
45E
100
AcDbVisualStyle
  2
OverhangOff
 70
    21
177
     3
291
     1
 70
    58
 90
        2
176
     0
 90
        2
176
     0
 90
        0
176
     0
 90
        0
176
     0
 40
0.6
176
     0
 40
30.0
176
     0
 62
     7
420
 16777215
176
     0
 90
        1
176
     0
 90
        4
176
     0
 62
     7
176
     0
 62
   257
176
     0
 90
        1
176
     0
 90
        1
176
     0
 40
1.0
176
     0
 90
        9
176
     2
 62
     7
176
     0
 40
1.0
176
     0
 90
        1
176
     0
 90
        6
176
     0
 90
        2
176
     0
 62
     7
176
     0
 90
        5
176
     0
 90
        0
176
     0
 90
        0
176
     0
290
     0
176
     0
 90
        1
176
     0
 40
0.0
176
     0
 90
        0
176
     0
290
     0
176
     0
290
     1
176
     0
290
     1
176
     0
290
     0
176
     0
290
     0
176
     0
290
     0
176
     0
290
     0
176
     0
290
     0
176
     0
290
     0
176
     0
 90
       50
176
     0
 40
0.0
176
     0
 40
1.0
176
     0
 90
        0
176
     0
 62
   178
420
        0
176
     0
 90
       50
176
     0
 90
        3
176
     0
 62
     5
420
      255
176
     0
290
     0
176
     0
 90
       50
176
     0
 90
       50
176
     0
 90
       50
176
     0
290
     0
176
     0
 90
       50
176
     0
 62
   256
176
     0
 40
1.0
176
     0
 90
        2
176
     0
  1
strokes_ogs.tif
176
     0
290
     0
176
     0
 40
1.0
176
     0
 40
1.0
176
     0
  0
VISUALSTYLE
  5
467
102
{ACAD_REACTORS
330
45E
102
}
330
45E
100
AcDbVisualStyle
  2
Realistic
 70
     8
177
     3
291
     0
 70
    58
 90
        2
176
     1
 90
        3
176
     1
 90
        0
176
     1
 90
        2
176
     1
 40
0.6
176
     1
 40
30.0
176
     1
 62
     7
420
 16777215
176
     1
 90
        0
176
     1
 90
        0
176
     1
 62
     7
176
     1
 62
   257
176
     1
 90
        1
176
     1
 90
        1
176
     1
 40
1.0
176
     1
 90
        8
176
     1
 62
   257
176
     1
 40
1.0
176
     1
 90
        1
176
     1
 90
        6
176
     1
 90
        2
176
     1
 62
     7
176
     1
 90
        3
176
     1
 90
        0
176
     1
 90
        0
176
     1
290
     0
176
     1
 90
       13
176
     1
 40
0.0
176
     1
 90
        0
176
     1
290
     0
176
     1
290
     1
176
     1
290
     1
176
     1
290
     0
176
     1
290
     0
176
     1
290
     0
176
     1
290
     0
176
     1
290
     0
176
     1
290
     0
176
     1
 90
       50
176
     1
 40
0.0
176
     1
 40
1.0
176
     1
 90
        0
176
     1
 62
   178
420
        0
176
     1
 90
       50
176
     1
 90
        3
176
     1
 62
     5
420
      255
176
     1
290
     0
176
     1
 90
       50
176
     1
 90
       50
176
     1
 90
       50
176
     1
290
     0
176
     1
 90
       50
176
     1
 62
   256
176
     0
 40
1.0
176
     0
 90
        2
176
     1
  1
strokes_ogs.tif
176
     1
290
     0
176
     1
 40
1.0
176
     1
 40
1.0
176
     1
  0
VISUALSTYLE
  5
476
102
{ACAD_REACTORS
330
45E
102
}
330
45E
100
AcDbVisualStyle
  2
Shaded
 70
    27
177
     3
291
     0
 70
    58
 90
        2
176
     1
 90
        2
176
     1
 90
        1
176
     1
 90
        2
176
     1
 40
0.6
176
     1
 40
30.0
176
     1
 62
     7
420
 16777215
176
     1
 90
        0
176
     1
 90
        4
176
     1
 62
     7
176
     1
 62
   257
176
     1
 90
        1
176
     1
 90
        1
176
     1
 40
1.0
176
     1
 90
        8
176
     1
 62
   257
176
     1
 40
1.0
176
     1
 90
        1
176
     1
 90
        6
176
     1
 90
        2
176
     1
 62
     8
420
  7895160
176
     1
 90
        3
176
     1
 90
        0
176
     1
 90
        0
176
     1
290
     0
176
     1
 90
        5
176
     1
 40
0.0
176
     1
 90
        0
176
     1
290
     0
176
     1
290
     1
176
     1
290
     1
176
     1
290
     0
176
     1
290
     0
176
     1
290
     0
176
     1
290
     0
176
     1
290
     0
176
     1
290
     0
176
     1
 90
       50
176
     1
 40
0.0
176
     1
 40
1.0
176
     1
 90
        0
176
     1
 62
   178
420
        0
176
     1
 90
       50
176
     1
 90
        3
176
     1
 62
     5
420
      255
176
     1
290
     0
176
     1
 90
       50
176
     1
 90
       50
176
     1
 90
       50
176
     1
290
     0
176
     1
 90
       50
176
     1
 62
   256
176
     0
 40
1.0
176
     0
 90
        2
176
     1
  1
strokes_ogs.tif
176
     1
290
     0
176
     1
 40
1.0
176
     1
 40
1.0
176
     1
  0
VISUALSTYLE
  5
475
102
{ACAD_REACTORS
330
45E
102
}
330
45E
100
AcDbVisualStyle
  2
Shaded with edges
 70
    26
177
     3
291
     0
 70
    58
 90
        2
176
     1
 90
        2
176
     1
 90
        1
176
     1
 90
        2
176
     1
 40
0.6
176
     1
 40
30.0
176
     1
 62
     7
420
 16777215
176
     1
 90
        1
176
     1
 90
       10
176
     1
 62
     7
176
     1
 62
   257
176
     1
 90
        2
176
     1
 90
        1
176
     1
 40
1.0
176
     1
 90
        8
176
     1
 62
   257
176
     1
 40
1.0
176
     1
 90
        1
176
     1
 90
        6
176
     1
 90
        2
176
     1
 62
     7
176
     1
 90
        3
176
     1
 90
        0
176
     1
 90
        0
176
     1
290
     0
176
     1
 90
        5
176
     1
 40
0.0
176
     1
 90
        0
176
     1
290
     0
176
     1
290
     1
176
     1
290
     1
176
     1
290
     0
176
     1
290
     0
176
     1
290
     0
176
     1
290
     0
176
     1
290
     0
176
     1
290
     0
176
     1
 90
       50
176
     1
 40
0.0
176
     1
 40
1.0
176
     1
 90
        0
176
     1
 62
   178
420
        0
176
     1
 90
       50
176
     1
 90
        3
176
     1
 62
     5
420
      255
176
     1
290
     0
176
     1
 90
       50
176
     1
 90
       50
176
     1
 90
       50
176
     1
290
     0
176
     1
 90
       50
176
     1
 62
   256
176
     0
 40
1.0
176
     0
 90
        2
176
     1
  1
strokes_ogs.tif
176
     1
290
     0
176
     1
 40
1.0
176
     1
 40
1.0
176
     1
  0
VISUALSTYLE
  5
472
102
{ACAD_REACTORS
330
45E
102
}
330
45E
100
AcDbVisualStyle
  2
Shades of Gray
 70
    23
177
     3
291
     0
 70
    58
 90
        2
176
     1
 90
        2
176
     1
 90
        3
176
     1
 90
        0
176
     1
 40
0.6
176
     1
 40
30.0
176
     1
 62
     7
420
 16777215
176
     1
 90
        2
176
     1
 90
        2
176
     1
 62
     7
176
     1
 62
     7
176
     1
 90
        1
176
     1
 90
        1
176
     1
 40
40.0
176
     1
 90
        8
176
     1
 62
     7
176
     1
 40
1.0
176
     1
 90
        1
176
     1
 90
        6
176
     1
 90
        2
176
     1
 62
     7
176
     1
 90
        3
176
     1
 90
        0
176
     1
 90
        0
176
     1
290
     0
176
     1
 90
        1
176
     1
 40
0.0
176
     1
 90
        0
176
     1
290
     0
176
     1
290
     1
176
     1
290
     1
176
     1
290
     0
176
     1
290
     0
176
     1
290
     0
176
     1
290
     0
176
     1
290
     0
176
     1
290
     0
176
     1
 90
       50
176
     1
 40
0.0
176
     1
 40
1.0
176
     1
 90
        0
176
     1
 62
   178
420
        0
176
     1
 90
       50
176
     1
 90
        3
176
     1
 62
     5
420
      255
176
     1
290
     0
176
     1
 90
       50
176
     1
 90
       50
176
     1
 90
       50
176
     1
290
     0
176
     1
 90
       50
176
     1
 62
   256
176
     0
 40
1.0
176
     0
 90
        2
176
     1
  1
strokes_ogs.tif
176
     1
290
     0
176
     1
 40
1.0
176
     1
 40
1.0
176
     1
  0
VISUALSTYLE
  5
473
102
{ACAD_REACTORS
330
45E
102
}
330
45E
100
AcDbVisualStyle
  2
Sketchy
 70
    24
177
     3
291
     0
 70
    58
 90
        1
176
     1
 90
        2
176
     1
 90
        2
176
     1
 90
        0
176
     1
 40
0.6
176
     1
 40
30.0
176
     1
 62
     7
420
 16777215
176
     1
 90
        2
176
     1
 90
        2
176
     1
 62
     7
176
     1
 62
     7
176
     1
 90
        1
176
     1
 90
        1
176
     1
 40
40.0
176
     1
 90
       11
176
     1
 62
     7
176
     1
 40
1.0
176
     1
 90
        1
176
     1
 90
        6
176
     1
 90
        2
176
     1
 62
     7
176
     1
 90
        6
176
     1
 90
        0
176
     1
 90
        0
176
     1
290
     0
176
     1
 90
        1
176
     1
 40
0.0
176
     1
 90
        0
176
     1
290
     0
176
     1
290
     1
176
     1
290
     1
176
     1
290
     0
176
     1
290
     0
176
     1
290
     0
176
     1
290
     0
176
     1
290
     0
176
     1
290
     0
176
     1
 90
       50
176
     1
 40
0.0
176
     1
 40
1.0
176
     1
 90
        0
176
     1
 62
   178
420
        0
176
     1
 90
       50
176
     1
 90
        3
176
     1
 62
     5
420
      255
176
     1
290
     0
176
     1
 90
       50
176
     1
 90
       50
176
     1
 90
       50
176
     1
290
     0
176
     1
 90
       50
176
     1
 62
   256
176
     0
 40
1.0
176
     0
 90
        2
176
     1
  1
strokes_ogs.tif
176
     1
290
     0
176
     1
 40
1.0
176
     1
 40
1.0
176
     1
  0
VISUALSTYLE
  5
46B
102
{ACAD_REACTORS
330
45E
102
}
330
45E
100
AcDbVisualStyle
  2
Thicken
 70
    13
177
     3
291
     1
 70
    58
 90
        2
176
     1
 90
        2
176
     1
 90
        0
176
     1
 90
        0
176
     1
 40
0.6
176
     1
 40
30.0
176
     1
 62
     7
420
 16777215
176
     1
 90
        1
176
     1
 90
        4
176
     1
 62
     7
176
     1
 62
   257
176
     1
 90
        1
176
     1
 90
        1
176
     1
 40
1.0
176
     1
 90
       12
176
     1
 62
     7
176
     1
 40
1.0
176
     1
 90
        1
176
     1
 90
        6
176
     1
 90
        2
176
     1
 62
     7
176
     1
 90
        5
176
     1
 90
        0
176
     1
 90
        0
176
     1
290
     0
176
     1
 90
        1
176
     1
 40
0.0
176
     1
 90
        0
176
     1
290
     0
176
     1
290
     1
176
     1
290
     1
176
     1
290
     0
176
     1
290
     0
176
     1
290
     0
176
     1
290
     0
176
     1
290
     0
176
     1
290
     0
176
     1
 90
       50
176
     1
 40
0.0
176
     1
 40
1.0
176
     1
 90
        0
176
     1
 62
   178
420
        0
176
     1
 90
       50
176
     1
 90
        3
176
     1
 62
     5
420
      255
176
     1
290
     0
176
     1
 90
       50
176
     1
 90
       50
176
     1
 90
       50
176
     1
290
     0
176
     1
 90
       50
176
     1
 62
   256
176
     0
 40
1.0
176
     0
 90
        2
176
     1
  1
strokes_ogs.tif
176
     1
290
     0
176
     1
 40
1.0
176
     1
 40
1.0
176
     1
  0
VISUALSTYLE
  5
464
102
{ACAD_REACTORS
330
45E
102
}
330
45E
100
AcDbVisualStyle
  2
Wireframe
 70
     5
177
     3
291
     0
 70
    58
 90
        0
176
     1
 90
        2
176
     1
 90
        0
176
     1
 90
        0
176
     1
 40
0.6
176
     1
 40
30.0
176
     1
 62
     7
420
 16777215
176
     1
 90
        1
176
     1
 90
        4
176
     1
 62
     7
176
     1
 62
   257
176
     1
 90
        1
176
     1
 90
        1
176
     1
 40
1.0
176
     1
 90
        0
176
     1
 62
   257
176
     1
 40
1.0
176
     1
 90
        1
176
     1
 90
        6
176
     1
 90
        2
176
     1
 62
     7
176
     1
 90
        3
176
     1
 90
        0
176
     1
 90
        0
176
     1
290
     0
176
     1
 90
        1
176
     1
 40
0.0
176
     1
 90
        0
176
     1
290
     0
176
     1
290
     1
176
     1
290
     1
176
     1
290
     0
176
     1
290
     0
176
     1
290
     0
176
     1
290
     0
176
     1
290
     0
176
     1
290
     0
176
     1
 90
       50
176
     1
 40
0.0
176
     1
 40
1.0
176
     1
 90
        0
176
     1
 62
   178
420
        0
176
     1
 90
       50
176
     1
 90
        3
176
     1
 62
     5
420
      255
176
     1
290
     0
176
     1
 90
       50
176
     1
 90
       50
176
     1
 90
       50
176
     1
290
     0
176
     1
 90
       50
176
     1
 62
   256
176
     0
 40
1.0
176
     0
 90
        2
176
     1
  1
strokes_ogs.tif
176
     1
290
     0
176
     1
 40
1.0
176
     1
 40
1.0
176
     1
  0
VISUALSTYLE
  5
474
102
{ACAD_REACTORS
330
45E
102
}
330
45E
100
AcDbVisualStyle
  2
X-Ray
 70
    25
177
     3
291
     0
 70
    58
 90
        2
176
     1
 90
        2
176
     1
 90
        1
176
     1
 90
        1
176
     1
 40
0.5
176
     1
 40
30.0
176
     1
 62
     7
420
 16777215
176
     1
 90
        1
176
     1
 90
        0
176
     1
 62
     7
176
     1
 62
   257
176
     1
 90
        1
176
     1
 90
        1
176
     1
 40
1.0
176
     1
 90
        8
176
     1
 62
     7
176
     1
 40
1.0
176
     1
 90
        1
176
     1
 90
        6
176
     1
 90
        2
176
     1
 62
     7
176
     1
 90
        3
176
     1
 90
        0
176
     1
 90
        0
176
     1
290
     0
176
     1
 90
       13
176
     1
 40
0.0
176
     1
 90
        0
176
     1
290
     0
176
     1
290
     1
176
     1
290
     1
176
     1
290
     0
176
     1
290
     0
176
     1
290
     0
176
     1
290
     0
176
     1
290
     0
176
     1
290
     0
176
     1
 90
       50
176
     1
 40
0.0
176
     1
 40
1.0
176
     1
 90
        0
176
     1
 62
   178
420
        0
176
     1
 90
       50
176
     1
 90
        3
176
     1
 62
     5
420
      255
176
     1
290
     0
176
     1
 90
       50
176
     1
 90
       50
176
     1
 90
       50
176
     1
290
     0
176
     1
 90
       50
176
     1
 62
   256
176
     0
 40
1.0
176
     0
 90
        2
176
     1
  1
strokes_ogs.tif
176
     1
290
     0
176
     1
 40
1.0
176
     1
 40
1.0
176
     1
  0
DICTIONARYVAR
  5
542
102
{ACAD_REACTORS
330
541
102
}
330
541
100
DictionaryVariables
280
     0
  1
1:1
  0
DICTIONARYVAR
  5
547
102
{ACAD_REACTORS
330
541
102
}
330
541
100
DictionaryVariables
280
     0
  1
Standard
  0
DICTIONARYVAR
  5
546
102
{ACAD_REACTORS
330
541
102
}
330
541
100
DictionaryVariables
280
     0
  1
Standard
  0
XRECORD
  5
4A5
102
{ACAD_REACTORS
330
4A3
102
}
330
4A3
100
AcDbXrecord
280
     1
1000
#ffffff
  0
XRECORD
  5
4A6
102
{ACAD_REACTORS
330
4A3
102
}
330
4A3
100
AcDbXrecord
280
     1
1000
FullColor
  0
XRECORD
  5
4A7
102
{ACAD_REACTORS
330
4A3
102
}
330
4A3
100
AcDbXrecord
280
     1
290
     1
  0
XRECORD
  5
4A8
102
{ACAD_REACTORS
330
4A3
102
}
330
4A3
100
AcDbXrecord
280
     1
290
     1
  0
XRECORD
  5
4A9
102
{ACAD_REACTORS
330
4A3
102
}
330
4A3
100
AcDbXrecord
280
     1
290
     1
  0
XRECORD
  5
4AA
102
{ACAD_REACTORS
330
4A3
102
}
330
4A3
100
AcDbXrecord
280
     1
290
     1
  0
XRECORD
  5
4AB
102
{ACAD_REACTORS
330
4A3
102
}
330
4A3
100
AcDbXrecord
280
     1
1000
auto
  0
XRECORD
  5
4AC
102
{ACAD_REACTORS
330
4A3
102
}
330
4A3
100
AcDbXrecord
280
     1
1000
auto
  0
XRECORD
  5
4AD
102
{ACAD_REACTORS
330
4A3
102
}
330
4A3
100
AcDbXrecord
280
     1
1000
auto
  0
XRECORD
  5
4AE
102
{ACAD_REACTORS
330
4A3
102
}
330
4A3
100
AcDbXrecord
280
     1
1000
auto
  0
XRECORD
  5
4AF
102
{ACAD_REACTORS
330
4A3
102
}
330
4A3
100
AcDbXrecord
280
     1
1000
auto
  0
XRECORD
  5
4B0
102
{ACAD_REACTORS
330
4A3
102
}
330
4A3
100
AcDbXrecord
280
     1
1000
auto
  0
XRECORD
  5
4B1
102
{ACAD_REACTORS
330
4A3
102
}
330
4A3
100
AcDbXrecord
280
     1
1000
auto
  0
XRECORD
  5
4B2
102
{ACAD_REACTORS
330
4A3
102
}
330
4A3
100
AcDbXrecord
280
     1
1000
auto
  0
XRECORD
  5
4B3
102
{ACAD_REACTORS
330
4A3
102
}
330
4A3
100
AcDbXrecord
280
     1
290
     0
  0
XRECORD
  5
4B4
102
{ACAD_REACTORS
330
4A3
102
}
330
4A3
100
AcDbXrecord
280
     1
290
     0
  0
XRECORD
  5
4B5
102
{ACAD_REACTORS
330
4A3
102
}
330
4A3
100
AcDbXrecord
280
     1
290
     0
  0
XRECORD
  5
4B6
102
{ACAD_REACTORS
330
4A3
102
}
330
4A3
100
AcDbXrecord
280
     1
290
     0
  0
XRECORD
  5
4B7
102
{ACAD_REACTORS
330
4A3
102
}
330
4A3
100
AcDbXrecord
280
     1
 90
    65537
  0
XRECORD
  5
4B8
102
{ACAD_REACTORS
330
4A3
102
}
330
4A3
100
AcDbXrecord
280
     1
 90
    65537
  0
XRECORD
  5
4B9
102
{ACAD_REACTORS
330
4A3
102
}
330
4A3
100
AcDbXrecord
280
     1
 90
    65537
  0
XRECORD
  5
4BA
102
{ACAD_REACTORS
330
4A3
102
}
330
4A3
100
AcDbXrecord
280
     1
 90
    65537
  0
XRECORD
  5
4BB
102
{ACAD_REACTORS
330
4A3
102
}
330
4A3
100
AcDbXrecord
280
     1
1000
auto
  0
XRECORD
  5
4BC
102
{ACAD_REACTORS
330
4A3
102
}
330
4A3
100
AcDbXrecord
280
     1
1000
auto
  0
XRECORD
  5
4BD
102
{ACAD_REACTORS
330
4A3
102
}
330
4A3
100
AcDbXrecord
280
     1
1000
auto
  0
XRECORD
  5
4BE
102
{ACAD_REACTORS
330
4A3
102
}
330
4A3
100
AcDbXrecord
280
     1
1000
auto
  0
XRECORD
  5
4BF
102
{ACAD_REACTORS
330
4A3
102
}
330
4A3
100
AcDbXrecord
280
     1
1000
auto
  0
XRECORD
  5
4C0
102
{ACAD_REACTORS
330
4A3
102
}
330
4A3
100
AcDbXrecord
280
     1
1000
auto
  0
XRECORD
  5
4C1
102
{ACAD_REACTORS
330
4A3
102
}
330
4A3
100
AcDbXrecord
280
     1
1000
auto
  0
XRECORD
  5
4C2
102
{ACAD_REACTORS
330
4A3
102
}
330
4A3
100
AcDbXrecord
280
     1
1000
auto
  0
XRECORD
  5
4C3
102
{ACAD_REACTORS
330
4A3
102
}
330
4A3
100
AcDbXrecord
280
     1
 90
        1
  0
XRECORD
  5
4C4
102
{ACAD_REACTORS
330
4A3
102
}
330
4A3
100
AcDbXrecord
280
     1
 40
10.0
  0
XRECORD
  5
4C5
102
{ACAD_REACTORS
330
4A3
102
}
330
4A3
100
AcDbXrecord
280
     1
 40
10.0
  0
XRECORD
  5
4C6
102
{ACAD_REACTORS
330
4A3
102
}
330
4A3
100
AcDbXrecord
280
     1
 40
10.0
  0
XRECORD
  5
4C7
102
{ACAD_REACTORS
330
4A3
102
}
330
4A3
100
AcDbXrecord
280
     1
 40
10.0
  0
XRECORD
  5
4C8
102
{ACAD_REACTORS
330
4A3
102
}
330
4A3
100
AcDbXrecord
280
     1
290
     0
  0
XRECORD
  5
4C9
102
{ACAD_REACTORS
330
4A3
102
}
330
4A3
100
AcDbXrecord
280
     1
 90
        1
  0
XRECORD
  5
4CA
102
{ACAD_REACTORS
330
4A3
102
}
330
4A3
100
AcDbXrecord
280
     1
 40
0.0
  0
XRECORD
  5
4CB
102
{ACAD_REACTORS
330
4A3
102
}
330
4A3
100
AcDbXrecord
280
     1
 40
0.0
  0
XRECORD
  5
4CC
102
{ACAD_REACTORS
330
4A3
102
}
330
4A3
100
AcDbXrecord
280
     1
1000
Portrait
  0
XRECORD
  5
4CD
102
{ACAD_REACTORS
330
4A3
102
}
330
4A3
100
AcDbXrecord
280
     1
 40
297.0
  0
XRECORD
  5
4CE
102
{ACAD_REACTORS
330
4A3
102
}
330
4A3
100
AcDbXrecord
280
     1
 40
210.0
  0
XRECORD
  5
4CF
102
{ACAD_REACTORS
330
4A3
102
}
330
4A3
100
AcDbXrecord
280
     1
1000
1:1
  0
XRECORD
  5
4D0
102
{ACAD_REACTORS
330
4A3
102
}
330
4A3
100
AcDbXrecord
280
     1
290
     1
  0
XRECORD
  5
4D1
102
{ACAD_REACTORS
330
4A3
102
}
330
4A3
100
AcDbXrecord
280
     1
290
     0
  0
XRECORD
  5
4D2
102
{ACAD_REACTORS
330
4A3
102
}
330
4A3
100
AcDbXrecord
280
     1
1000
Inside
  0
XRECORD
  5
4D3
102
{ACAD_REACTORS
330
4A3
102
}
330
4A3
100
AcDbXrecord
280
     1
1000
Arial,10,-1,5,50,0,0,0,0,0
  0
XRECORD
  5
4D4
102
{ACAD_REACTORS
330
4A3
102
}
330
4A3
100
AcDbXrecord
280
     1
1000
TopLeft
  0
XRECORD
  5
4D5
102
{ACAD_REACTORS
330
4A3
102
}
330
4A3
100
AcDbXrecord
280
     1
1000
3.27.0
  0
XRECORD
  5
4D6
102
{ACAD_REACTORS
330
4A3
102
}
330
4A3
100
AcDbXrecord
280
     1
 90
        4
  0
XRECORD
  5
4D7
102
{ACAD_REACTORS
330
4A3
102
}
330
4A3
100
AcDbXrecord
280
     1
  0
XRECORD
  5
4D8
102
{ACAD_REACTORS
330
4A3
102
}
330
4A3
100
AcDbXrecord
280
     1
 40
492.1757547614019
  0
XRECORD
  5
4D9
102
{ACAD_REACTORS
330
4A3
102
}
330
4A3
100
AcDbXrecord
280
     1
 40
867.5640422912846
  0
DICTIONARY
  5
543
330
49E
100
AcDbDictionary
280
     1
281
     1
  3
ACAD_ROUNDTRIP_2008_TABLESTYLE_CELLSTYLEMAP
360
544
  0
CELLSTYLEMAP
  5
544
102
{ACAD_REACTORS
330
543
102
}
330
543
100
AcDbCellStyleMap
 90
        3
300
CELLSTYLE
  1
TABLEFORMAT_BEGIN
 90
        5
170
     1
 91
        0
 92
    32768
 62
   257
 93
        1
300
CONTENTFORMAT
  1
CONTENTFORMAT_BEGIN
 90
        0
 91
        0
 92
        4
 93
        0
300

 40
0.0
140
1.0
 94
        5
 62
     0
340
446
144
0.25
309
CONTENTFORMAT_END
171
     1
301
MARGIN
  1
CELLMARGIN_BEGIN
 40
0.06
 40
0.06
 40
0.06
 40
0.06
 40
0.06
 40
0.06
309
CELLMARGIN_END
 94
        6
 95
        1
302
GRIDFORMAT
  1
GRIDFORMAT_BEGIN
 90
        0
 91
        1
 62
     0
 92
       -2
340
448
 93
        0
 40
0.045
309
GRIDFORMAT_END
 95
        2
302
GRIDFORMAT
  1
GRIDFORMAT_BEGIN
 90
        0
 91
        1
 62
     0
 92
       -2
340
448
 93
        0
 40
0.045
309
GRIDFORMAT_END
 95
        4
302
GRIDFORMAT
  1
GRIDFORMAT_BEGIN
 90
        0
 91
        1
 62
     0
 92
       -2
340
448
 93
        0
 40
0.045
309
GRIDFORMAT_END
 95
        8
302
GRIDFORMAT
  1
GRIDFORMAT_BEGIN
 90
        0
 91
        1
 62
     0
 92
       -2
340
448
 93
        0
 40
0.045
309
GRIDFORMAT_END
 95
       16
302
GRIDFORMAT
  1
GRIDFORMAT_BEGIN
 90
        0
 91
        1
 62
     0
 92
       -2
340
448
 93
        0
 40
0.045
309
GRIDFORMAT_END
 95
       32
302
GRIDFORMAT
  1
GRIDFORMAT_BEGIN
 90
        0
 91
        1
 62
     0
 92
       -2
340
448
 93
        0
 40
0.045
309
GRIDFORMAT_END
309
TABLEFORMAT_END
  1
CELLSTYLE_BEGIN
 90
        1
 91
        1
300
_TITLE
309
CELLSTYLE_END
300
CELLSTYLE
  1
TABLEFORMAT_BEGIN
 90
        5
170
     1
 91
        0
 92
        0
 62
   257
 93
        1
300
CONTENTFORMAT
  1
CONTENTFORMAT_BEGIN
 90
        0
 91
        0
 92
        4
 93
        0
300

 40
0.0
140
1.0
 94
        5
 62
     0
340
446
144
0.18
309
CONTENTFORMAT_END
171
     1
301
MARGIN
  1
CELLMARGIN_BEGIN
 40
0.06
 40
0.06
 40
0.06
 40
0.06
 40
0.06
 40
0.06
309
CELLMARGIN_END
 94
        6
 95
        1
302
GRIDFORMAT
  1
GRIDFORMAT_BEGIN
 90
        0
 91
        1
 62
     0
 92
       -2
340
448
 93
        0
 40
0.045
309
GRIDFORMAT_END
 95
        2
302
GRIDFORMAT
  1
GRIDFORMAT_BEGIN
 90
        0
 91
        1
 62
     0
 92
       -2
340
448
 93
        0
 40
0.045
309
GRIDFORMAT_END
 95
        4
302
GRIDFORMAT
  1
GRIDFORMAT_BEGIN
 90
        0
 91
        1
 62
     0
 92
       -2
340
448
 93
        0
 40
0.045
309
GRIDFORMAT_END
 95
        8
302
GRIDFORMAT
  1
GRIDFORMAT_BEGIN
 90
        0
 91
        1
 62
     0
 92
       -2
340
448
 93
        0
 40
0.045
309
GRIDFORMAT_END
 95
       16
302
GRIDFORMAT
  1
GRIDFORMAT_BEGIN
 90
        0
 91
        1
 62
     0
 92
       -2
340
448
 93
        0
 40
0.045
309
GRIDFORMAT_END
 95
       32
302
GRIDFORMAT
  1
GRIDFORMAT_BEGIN
 90
        0
 91
        1
 62
     0
 92
       -2
340
448
 93
        0
 40
0.045
309
GRIDFORMAT_END
309
TABLEFORMAT_END
  1
CELLSTYLE_BEGIN
 90
        2
 91
        1
300
_HEADER
309
CELLSTYLE_END
300
CELLSTYLE
  1
TABLEFORMAT_BEGIN
 90
        5
170
     1
 91
        0
 92
        0
 62
   257
 93
        1
300
CONTENTFORMAT
  1
CONTENTFORMAT_BEGIN
 90
        0
 91
        0
 92
        4
 93
        0
300

 40
0.0
140
1.0
 94
        2
 62
     0
340
446
144
0.18
309
CONTENTFORMAT_END
171
     1
301
MARGIN
  1
CELLMARGIN_BEGIN
 40
0.06
 40
0.06
 40
0.06
 40
0.06
 40
0.06
 40
0.06
309
CELLMARGIN_END
 94
        6
 95
        1
302
GRIDFORMAT
  1
GRIDFORMAT_BEGIN
 90
        0
 91
        1
 62
     0
 92
       -2
340
448
 93
        0
 40
0.045
309
GRIDFORMAT_END
 95
        2
302
GRIDFORMAT
  1
GRIDFORMAT_BEGIN
 90
        0
 91
        1
 62
     0
 92
       -2
340
448
 93
        0
 40
0.045
309
GRIDFORMAT_END
 95
        4
302
GRIDFORMAT
  1
GRIDFORMAT_BEGIN
 90
        0
 91
        1
 62
     0
 92
       -2
340
448
 93
        0
 40
0.045
309
GRIDFORMAT_END
 95
        8
302
GRIDFORMAT
  1
GRIDFORMAT_BEGIN
 90
        0
 91
        1
 62
     0
 92
       -2
340
448
 93
        0
 40
0.045
309
GRIDFORMAT_END
 95
       16
302
GRIDFORMAT
  1
GRIDFORMAT_BEGIN
 90
        0
 91
        1
 62
     0
 92
       -2
340
448
 93
        0
 40
0.045
309
GRIDFORMAT_END
 95
       32
302
GRIDFORMAT
  1
GRIDFORMAT_BEGIN
 90
        0
 91
        1
 62
     0
 92
       -2
340
448
 93
        0
 40
0.045
309
GRIDFORMAT_END
309
TABLEFORMAT_END
  1
CELLSTYLE_BEGIN
 90
        3
 91
        2
300
_DATA
309
CELLSTYLE_END
  0
ENDSEC
  0
EOF
